<svg width="19" height="19" viewBox="0 0 19 19" fill="none" xmlns="http://www.w3.org/2000/svg">
<path d="M12.2446 0.733605L10.2294 2.8589C9.92584 3.17901 9.60487 3.59985 9.5 4.00753C9.39513 3.59985 9.22316 3.17902 8.91963 2.85891L6.90438 0.733619C5.97688 -0.244522 4.47312 -0.244522 3.54562 0.733619C2.70901 1.61592 2.66077 3.0283 3.33344 4.0075L9.5 4.00753L2.375 4.00751C1.06332 4.00751 0 5.1289 0 6.51219C0 7.19484 0.258951 7.81369 0.678912 8.26548H9.49541L9.5 8.26546L9.50459 8.26548H18.3211C18.741 7.81369 19 7.19484 19 6.51219C19 5.1289 17.9367 4.00751 16.625 4.00751L15.6034 4.00751L15.8493 4.0075C16.522 3.0283 16.44 1.6159 15.6034 0.733605C14.6759 -0.244535 13.1721 -0.244535 12.2446 0.733605Z" fill="#00AA5B"/>
<path d="M0.931995 9.85405L0.929053 9.73267H8.7875V19H8.07499C5.86178 19 4.75517 19 3.88226 18.6005C2.71838 18.0679 1.79367 17.0463 1.31158 15.7604C0.950035 14.796 0.950035 13.573 0.950035 11.1282C0.950035 10.5923 0.940215 10.1904 0.931995 9.85405Z" fill="#00AA5B"/>
<path d="M15.1178 18.6005C14.2448 19 13.1382 19 10.925 19H10.2125V9.73267H18.0446C18.05 10.0935 18.05 10.5263 18.05 11.1281C18.05 13.5734 18.05 14.796 17.6884 15.7604C17.2063 17.0463 16.2816 18.0679 15.1178 18.6005Z" fill="#00AA5B"/>
</svg>
