<svg width="36" height="36" viewBox="0 0 36 36" fill="none" xmlns="http://www.w3.org/2000/svg">
<rect width="36" height="36" rx="18" fill="#E8E8E8"/>
<mask id="mask0_2292_8662" style="mask-type:alpha" maskUnits="userSpaceOnUse" x="0" y="0" width="36" height="36">
<rect width="36" height="36" fill="white"/>
</mask>
<g mask="url(#mask0_2292_8662)">
<path d="M15.4531 18.295L21.5629 24.4046C21.7704 24.6123 21.8767 24.8734 21.8817 25.1879C21.8864 25.5022 21.7802 25.768 21.5629 25.9855C21.3454 26.2028 21.0819 26.3114 20.7724 26.3114C20.4629 26.3114 20.1994 26.2028 19.9819 25.9855L13.2406 19.2442C13.1003 19.1037 13.0013 18.9555 12.9436 18.7998C12.8858 18.644 12.8569 18.4758 12.8569 18.295C12.8569 18.1143 12.8858 17.946 12.9436 17.7903C13.0013 17.6345 13.1003 17.4864 13.2406 17.3459L19.9819 10.6045C20.1897 10.397 20.4508 10.2908 20.7653 10.2858C21.0796 10.281 21.3454 10.3873 21.5629 10.6045C21.7802 10.822 21.8888 11.0855 21.8888 11.395C21.8888 11.7045 21.7802 11.968 21.5629 12.1855L15.4531 18.295Z" fill="black"/>
</g>
</svg>
