<svg width="24" height="24" viewBox="0 0 24 24" fill="none" xmlns="http://www.w3.org/2000/svg">
<rect x="0.75" y="0.75" width="22.5" height="22.5" rx="11.25" stroke="#5E5F60" stroke-width="1.5"/>
<path d="M18.9476 10.7249C18.8063 10.3833 18.5034 10.3014 18.2985 10.2818V8.2C18.2985 7.4279 17.671 6.8 16.8994 6.8H12.7021V5.827C12.9154 5.6352 13.0518 5.3594 13.0518 5.05C13.0518 4.77152 12.9413 4.50445 12.7445 4.30754C12.5477 4.11062 12.2808 4 12.0025 4C11.7242 4 11.4573 4.11062 11.2605 4.30754C11.0637 4.50445 10.9532 4.77152 10.9532 5.05C10.9532 5.3594 11.0896 5.6352 11.303 5.827V6.8H7.10565C6.33404 6.8 5.70655 7.4279 5.70655 8.2V10.2979L5.64918 10.3021C5.47288 10.3148 5.30793 10.3939 5.18749 10.5234C5.06706 10.6528 5.00007 10.8231 5 11V12.4C5 12.5857 5.0737 12.7637 5.20489 12.895C5.33608 13.0262 5.51402 13.1 5.69955 13.1H5.70655V16.6C5.70655 17.3721 6.33404 18 7.10565 18H16.8994C17.671 18 18.2985 17.3721 18.2985 16.6V13.1C18.484 13.1 18.6619 13.0262 18.7931 12.895C18.9243 12.7637 18.998 12.5857 18.998 12.4V11.0434C19.0062 10.9348 18.989 10.8257 18.9476 10.7249ZM7.10565 16.6V8.2H16.8994L16.9001 10.9972L16.8994 11V12.4L16.9001 12.4035L16.9008 16.6H7.10565Z" fill="#5E5F60"/>
<path d="M9 13C9.55228 13 10 12.1046 10 11C10 9.89543 9.55228 9 9 9C8.44772 9 8 9.89543 8 11C8 12.1046 8.44772 13 9 13Z" fill="#5E5F60"/>
<path d="M15 13C15.5523 13 16 12.1046 16 11C16 9.89543 15.5523 9 15 9C14.4477 9 14 9.89543 14 11C14 12.1046 14.4477 13 15 13Z" fill="#5E5F60"/>
<path d="M9 14H15V15H9V14Z" fill="#5E5F60"/>
</svg>
