<svg width="153" height="26" viewBox="0 0 153 26" fill="none" xmlns="http://www.w3.org/2000/svg">
<g clip-path="url(#clip0_3150_245)">
<path d="M19.903 23.3545C19.387 23.4614 18.9887 23.5021 18.2886 23.5196C17.1722 23.5479 17.064 23.5326 15.6693 23.156C15.2976 23.0554 14.8413 22.94 14.6554 22.8993C14.4695 22.8586 14.1271 22.7822 13.895 22.7302C12.7442 22.4701 10.8764 21.268 9.66475 20.0076C7.82564 18.0941 6.89397 16.1851 6.51319 13.5512C6.50925 13.5212 6.50474 13.4929 6.5008 13.4652C6.46813 13.247 6.44785 13.1107 6.50474 13.0276C6.59768 12.8902 6.89848 12.8947 7.69383 12.9071C7.7541 12.9083 7.81775 12.9094 7.88422 12.9099C8.96347 12.9258 9.14822 12.9416 9.23103 13.023C9.28397 13.0756 9.3679 13.3216 9.41803 13.5704C9.55378 14.2439 9.80107 14.9422 10.1548 15.6513C11.1163 17.5806 12.8755 19.2012 14.8244 19.9527C15.4784 20.2049 15.8699 20.3044 16.6247 20.4107C18.7854 20.7155 21.0459 20.1857 22.7244 18.9813C22.9492 18.8201 23.1328 18.7104 23.1328 18.7375C23.1328 18.7647 23.0973 18.8167 23.0539 18.8529C22.939 18.9485 22.8912 19.1939 22.9695 19.2883C23.0061 19.333 23.0472 19.3578 23.0607 19.3443C23.0844 19.3211 23.3238 19.4636 23.6398 19.6892C23.7175 19.7446 23.793 19.7921 23.8087 19.7949C23.8245 19.7978 23.8876 19.8193 23.9496 19.843C24.3095 19.9798 24.8272 20.1269 24.8931 20.1116C24.9162 20.1059 24.9353 20.1648 24.9353 20.2428C24.9353 20.3977 25.0485 20.4305 25.1708 20.3112C25.2761 20.2083 25.8996 19.8628 25.9278 19.8916C25.9717 19.9357 24.8119 21.0146 24.3529 21.3562C23.0286 22.3418 21.5184 23.0203 19.903 23.3545ZM19.022 17.4251C18.5004 17.5427 17.3907 17.5687 16.9085 17.4749C15.7482 17.2493 14.7089 16.69 13.8646 15.8373C13.1165 15.0819 12.6321 14.2489 12.3662 13.2594C12.2575 12.854 12.2373 12.6374 12.2367 11.874C12.2356 11.0931 12.2542 10.9037 12.3691 10.4887C12.5009 10.0165 12.6293 9.69703 12.6884 9.69703C12.7053 9.69703 12.7031 9.72304 12.6834 9.7547C12.6637 9.78637 12.6653 9.95374 12.6873 10.1262C12.7284 10.4576 12.8693 10.6583 13.0608 10.6583C13.1165 10.6583 13.1627 10.6809 13.1627 10.7081C13.1627 10.7358 13.2112 10.7708 13.2709 10.7867C13.33 10.8019 13.4697 10.9422 13.5812 11.0977C13.6922 11.2532 13.8595 11.4121 13.953 11.4505C14.0465 11.4895 14.1873 11.5981 14.2662 11.6925C14.3451 11.7864 14.5028 11.9317 14.6171 12.0154C14.7309 12.0985 14.9934 12.3366 15.2001 12.5435C15.4068 12.7505 15.6034 12.9201 15.6367 12.9201C15.6705 12.9201 15.6975 12.9456 15.6975 12.9767C15.6975 13.0078 15.7166 13.0281 15.7397 13.0213C15.7859 13.0083 16.8291 14.025 16.9136 14.1647C16.9694 14.2586 17.4623 14.6646 17.6391 14.7624C17.7371 14.8172 17.985 15.182 17.9236 15.182C17.9101 15.182 17.9394 15.29 17.9884 15.4223C18.0374 15.5546 18.074 15.7248 18.07 15.8006C18.0661 15.8763 18.092 15.9566 18.1281 15.9787C18.2582 16.0595 19.7143 16.0347 20.1474 15.9442C20.6527 15.8384 21.4058 15.6128 21.8497 15.4347C22.1876 15.2984 22.2451 15.342 22.0079 15.554C21.8801 15.6682 21.862 15.6705 21.7905 15.5857C21.746 15.5325 21.7511 15.558 21.8029 15.6456L21.893 15.7989L21.4497 16.1828C20.7315 16.8065 19.917 17.2227 19.022 17.4251ZM9.27045 10.3897C9.16625 10.4762 9.01698 10.4887 8.08531 10.4887H7.02015L6.96494 10.3332C6.93453 10.2478 6.86862 10.1047 6.81849 10.0154C6.61853 9.66027 6.91706 8.58591 7.56427 7.33059C7.99687 6.49202 8.29541 6.05719 8.72858 5.63479C8.9629 5.40691 8.98994 5.39504 9.11443 5.46515C9.2913 5.56524 9.33073 5.62574 9.33129 5.79821C9.33242 5.90451 9.391 5.97859 9.55604 6.08094C9.6794 6.15727 9.78079 6.23587 9.78135 6.25566C9.78248 6.27602 9.86246 6.3778 9.95991 6.48184C10.0568 6.58645 10.174 6.72895 10.2196 6.79907C10.2658 6.86918 10.3289 6.92629 10.3598 6.92629C10.4466 6.92629 11.0876 6.47789 11.2476 6.30599C11.3253 6.2223 11.5151 6.06906 11.67 5.96502L11.9517 5.77616L11.6137 6.14483C10.5728 7.27857 9.92668 8.40044 9.55097 9.7253C9.44676 10.0917 9.34819 10.3258 9.27045 10.3897ZM31.7437 8.05551C31.622 8.23589 31.5133 8.33711 31.4412 8.33654C31.2835 8.33654 30.6988 7.93902 30.6605 7.80614C30.6436 7.74564 30.6819 7.49345 30.7456 7.24521C30.9162 6.58476 30.8779 5.83835 30.6492 5.37242C30.4048 4.87425 29.904 4.38909 29.3402 4.10467C28.8107 3.83721 28.0221 3.5607 27.625 3.50302C27.3749 3.46683 27.2453 3.36392 27.4492 3.36392C27.6402 3.36392 28.6986 3.54656 29.1137 3.65117C30.8898 4.09845 31.8811 4.79226 32.1791 5.79595C32.3684 6.43208 32.1797 7.41145 31.7437 8.05551ZM6.70189 18.8981C6.55149 18.9971 5.85246 19.0525 5.5021 18.9931C4.02067 18.7421 3.59033 18.599 3.07999 18.1874C2.71442 17.8927 2.47784 17.5659 2.4249 17.2832C2.37589 17.0225 2.48404 16.4972 2.66317 16.1234C2.80286 15.8317 3.35318 15.0417 3.39036 15.079C3.40163 15.0898 3.31826 15.286 3.20504 15.5139C2.74428 16.4463 2.96734 17.1927 3.88605 17.7893C4.38624 18.115 5.37874 18.4073 6.27492 18.4933C6.61571 18.5261 6.69513 18.5538 6.7678 18.6652C6.85003 18.7907 6.84609 18.8031 6.70189 18.8981ZM26.7294 3.2186C26.7784 3.26723 26.8065 3.30455 26.7919 3.30172C26.7778 3.29833 26.6798 3.27514 26.5739 3.25026C26.468 3.22538 26.1514 3.1841 25.8698 3.15809L25.3578 3.11173L25.8084 3.08063C26.3165 3.04557 26.5992 3.08798 26.7294 3.2186Z" fill="white"/>
<path d="M21.8724 15.7636L21.8031 15.6454C21.7513 15.5577 21.7462 15.5323 21.7907 15.5855C21.8622 15.6703 21.8803 15.668 22.0081 15.5538C22.2453 15.3417 22.1878 15.2982 21.8498 15.4345C21.406 15.6126 20.6529 15.8382 20.1476 15.9439C19.7144 16.0344 18.2584 16.0593 18.1282 15.9784C18.0922 15.9564 18.0663 15.8761 18.0702 15.8003C18.0742 15.7246 18.0376 15.5543 17.9885 15.422C17.9395 15.2897 17.9103 15.1817 17.9238 15.1817C17.9852 15.1817 17.7373 14.817 17.6393 14.7621C17.4624 14.6643 16.9696 14.2583 16.9138 14.1645C16.8293 14.0248 15.7861 13.0081 15.7399 13.0211C15.7168 13.0279 15.6977 13.0075 15.6977 12.9764C15.6977 12.9453 15.6706 12.9199 15.6368 12.9199C15.6036 12.9199 15.407 12.7503 15.2003 12.5433C14.9936 12.3363 14.7311 12.0983 14.6173 12.0152C14.503 11.9315 14.3452 11.7861 14.2664 11.6923C14.1875 11.5979 14.0467 11.4893 13.9532 11.4503C13.8597 11.4118 13.6924 11.2529 13.5814 11.0974C13.4699 10.9419 13.3302 10.8017 13.2711 10.7864C13.2114 10.7706 13.1629 10.7355 13.1629 10.7078C13.1629 10.6807 13.1167 10.6581 13.061 10.6581C12.8694 10.6581 12.7286 10.4573 12.6875 10.126C12.6655 9.95351 12.6638 9.78613 12.6836 9.75447C12.7033 9.7228 12.7055 9.69679 12.6886 9.69679C12.6419 9.69679 12.5506 9.89922 12.4492 10.2198C12.7405 9.26817 13.0486 8.78527 13.8067 8.02869C14.4602 7.37729 14.9558 7.06629 15.8013 6.77847C16.6034 6.50592 17.6134 6.40075 18.2606 6.52288C18.4397 6.55681 18.3468 6.57264 17.81 6.60205C16.6772 6.66368 15.7518 6.9973 15.7551 7.34279C15.758 7.62213 15.9838 7.93596 16.6265 8.55457C16.9915 8.90628 17.3836 9.2416 17.4979 9.29984C17.6117 9.35808 17.7368 9.44403 17.7756 9.49096C17.8139 9.5379 17.9243 9.59388 18.0195 9.6148C18.1153 9.63572 18.251 9.71545 18.3214 9.79235C18.4043 9.88169 18.5749 9.96029 18.7997 10.0129C19.1084 10.0853 19.1652 10.0853 19.2785 10.0106C19.3663 9.95237 19.4136 9.94559 19.4277 9.98913C19.4396 10.0242 19.6395 10.0683 19.8722 10.0875C20.1138 10.1073 20.3555 10.1616 20.4354 10.2142C20.512 10.2651 20.7007 10.3199 20.8545 10.3369C21.3232 10.3878 21.5 10.4409 21.5564 10.5461C21.5862 10.6015 21.7248 10.7027 21.8645 10.7706C22.0047 10.8384 22.1191 10.9176 22.1191 10.9464C22.1191 11.0522 22.4458 11.3372 22.6035 11.3694C22.7252 11.3937 22.7956 11.4627 22.8795 11.638C22.9657 11.8184 23.0288 11.8778 23.1471 11.8919C23.2355 11.9021 23.302 11.9445 23.302 11.9908C23.302 12.1384 23.5571 12.0757 23.7768 11.8738C23.8951 11.7652 24.0241 11.6759 24.0635 11.6759C24.1723 11.6759 24.4849 11.2919 24.4849 11.1591C24.4849 11.0901 24.6465 10.8786 24.8792 10.6422C25.096 10.4223 25.2735 10.1961 25.2735 10.1395C25.2735 10.0033 25.2352 10.0089 25.0177 10.1752C24.6972 10.4206 24.3807 10.5167 23.8917 10.5167C23.5177 10.5167 23.3915 10.4918 23.1606 10.3725C22.8147 10.1938 22.4334 9.73581 22.3247 9.36769C22.2796 9.21672 22.1906 8.98431 22.1264 8.8503C22.0132 8.61507 22.0132 8.61111 22.1208 8.70894C22.1822 8.76435 22.3455 9.00693 22.4841 9.24782C22.8919 9.9586 23.3724 10.2509 24.032 10.191C24.9727 10.105 25.639 9.24669 25.3698 8.46692C25.3242 8.33461 25.2932 8.2266 25.3005 8.2266C25.3084 8.2266 25.3794 8.32217 25.4588 8.43865C25.5376 8.55513 25.6785 8.72986 25.7708 8.82599C25.9105 8.97131 25.9387 9.04651 25.9353 9.26195C25.9336 9.40501 25.9579 9.55542 25.9894 9.59557C26.084 9.71488 26.1877 10.0903 26.1516 10.1842C26.1223 10.2611 26.1082 10.2605 26.0271 10.1786C25.977 10.1282 25.8942 10.0954 25.8441 10.105C25.7055 10.1333 25.7607 10.3816 25.9387 10.5303C26.0683 10.6383 26.0891 10.6971 26.0818 10.9317C26.0728 11.2484 25.9043 11.5498 25.6576 11.6923C25.5703 11.7426 25.4988 11.832 25.4988 11.8908C25.4988 11.9496 25.447 12.0446 25.3839 12.1017C25.3213 12.1588 25.283 12.2413 25.2999 12.2849C25.3163 12.329 25.2729 12.4138 25.2031 12.4737C24.8178 12.8062 24.2336 13.1274 24.4162 12.9063C24.4747 12.8356 24.4719 12.8136 24.3981 12.7853C24.219 12.7163 23.7808 13.0511 23.7808 13.2569C23.7808 13.3112 23.7047 13.4192 23.6118 13.4972C23.1831 13.8563 21.1474 15.007 20.3307 15.3519C20.0124 15.4859 19.764 15.6069 19.7775 15.6205C19.7905 15.6341 20.0507 15.5504 20.3549 15.435C20.6591 15.3191 20.9914 15.1936 21.0928 15.1563C21.2984 15.0799 21.9462 15.1399 22.0081 15.2411C22.0278 15.2728 22.0859 15.2824 22.1377 15.2626C22.3393 15.1845 22.2289 15.3875 21.8724 15.7636ZM22.2126 19.3169C23.8371 18.3076 25.2599 16.4998 25.6396 14.899C25.6948 14.666 25.7483 14.4438 25.7579 14.4059C25.7815 14.3149 26.1753 14.152 26.2772 14.1916C26.3217 14.2086 26.3944 14.1922 26.4395 14.1548C26.6366 13.9903 27.3013 14.1373 27.4584 14.3799C27.5114 14.4625 27.5993 14.5744 27.6533 14.6293C27.7136 14.6903 27.7519 14.8159 27.7519 14.9516C27.7519 15.0737 27.7896 15.2117 27.8364 15.2586C27.9513 15.374 27.9429 15.5804 27.8032 16.0542C27.7389 16.2742 27.664 16.5303 27.6376 16.6236C27.5829 16.8159 27.6263 17.119 27.7018 17.072C27.8116 17.0042 27.7361 17.2145 27.472 17.715C27.1007 18.4161 26.7814 18.8894 26.2423 19.5374C26.1398 19.6607 26.035 19.7811 25.9286 19.8993C25.9297 19.8954 25.9297 19.8931 25.928 19.8914C25.8998 19.8626 25.2763 20.2081 25.1709 20.311C25.0487 20.4303 24.9355 20.3975 24.9355 20.2425C24.9355 20.1645 24.9163 20.1057 24.8932 20.1114C24.8273 20.1266 24.3097 19.9796 23.9498 19.8428C23.8878 19.819 23.8247 19.7975 23.8089 19.7947C23.7932 19.7919 23.7177 19.7444 23.6399 19.689C23.3239 19.4633 23.0846 19.3209 23.0609 19.344C23.0474 19.3576 23.0063 19.3327 22.9696 19.2881C22.8913 19.1936 22.9392 18.9482 23.0541 18.8527C23.0975 18.8165 23.133 18.7644 23.133 18.7373C23.133 18.7102 22.9494 18.8199 22.7246 18.981C22.5596 19.0998 22.3883 19.2117 22.2126 19.3169ZM10.6113 7.41348C10.8951 6.98486 11.2275 6.56529 11.6139 6.14459L11.9519 5.77592L11.6702 5.96478C11.5153 6.06882 11.3255 6.22206 11.2478 6.30575C11.0878 6.47765 10.4468 6.92605 10.36 6.92605C10.3291 6.92605 10.266 6.86894 10.2198 6.79883C10.1741 6.72871 10.057 6.58622 9.9601 6.48161C9.86265 6.37756 9.78267 6.27578 9.78154 6.25542C9.78098 6.23563 9.67959 6.15703 9.55623 6.0807C9.39119 5.97835 9.33261 5.90427 9.33148 5.79797C9.33092 5.6255 9.29149 5.565 9.11462 5.46492C8.99013 5.3948 8.96309 5.40667 8.72877 5.63455C8.59921 5.76121 8.48092 5.88901 8.36827 6.02811C9.02843 5.10302 9.83843 4.23166 10.5628 3.69674C10.7205 3.58025 10.8315 3.53671 10.9081 3.56102C10.9791 3.58364 11.2185 3.51183 11.5559 3.36707C11.8505 3.24098 12.1389 3.1375 12.1963 3.1375C12.2983 3.1375 12.7264 2.99953 13.0925 2.84855C13.244 2.78635 13.3071 2.78635 13.4586 2.84742C13.5595 2.88813 13.7251 2.94185 13.827 2.9673C13.9402 2.99557 14.1278 3.13411 14.3114 3.32636L14.6106 3.63906L15.0274 3.61361C16.8242 3.50448 17.467 3.48186 17.5222 3.5271C17.5565 3.55481 17.6354 3.58817 17.6973 3.60061C17.7593 3.61361 17.5188 3.65659 17.1622 3.69617C15.6999 3.85845 14.8646 4.07785 13.8952 4.5534C13.0232 4.98089 12.4188 5.4095 11.7474 6.07674C11.2934 6.52854 10.9211 6.96281 10.6113 7.41348ZM7.30479 19.9321C6.58999 20.0373 4.85565 20.1238 4.54472 20.0695C4.46698 20.0559 4.17577 20.0164 3.89694 19.9819C3.37309 19.9163 2.77545 19.7319 2.82558 19.6505C2.8605 19.594 2.72137 19.5357 2.55126 19.5357C2.39749 19.5357 2.06121 19.2343 1.92996 18.9793C1.84998 18.8232 1.8359 18.6672 1.8511 18.0887C1.86068 17.7031 1.88715 17.387 1.90856 17.387C1.93053 17.387 1.99699 17.495 2.0567 17.6273C2.30624 18.1809 2.76982 18.5286 3.67163 18.8396C4.23153 19.0325 4.70976 19.1246 5.38964 19.1704C5.77605 19.1964 6.06388 19.2473 6.22048 19.318C6.62491 19.5001 7.01301 19.5487 7.99876 19.5408C8.55922 19.5369 8.93324 19.555 8.91409 19.5855C8.87072 19.6567 8.21506 19.7975 7.30479 19.9321ZM33.6241 8.41603C33.4157 8.81468 33.24 9.04878 32.8321 9.46834C32.5437 9.76521 32.35 9.93767 32.4018 9.85229C32.4542 9.76691 32.4812 9.69679 32.4632 9.69679C32.4452 9.69679 32.4547 9.63063 32.4857 9.54977C32.5702 9.32585 32.4632 9.00919 32.2643 8.89667C32.1449 8.82938 32.083 8.8209 32.0385 8.86557C31.9512 8.95321 31.959 8.83503 32.0469 8.73325C32.0858 8.68915 32.0526 8.7095 31.9731 8.77849C31.7061 9.01202 31.7416 8.90798 32.0554 8.53704C32.7279 7.74088 33.0603 6.999 33.0681 6.27578C33.0727 5.876 33.0518 5.77761 32.8873 5.4276C32.7854 5.20989 32.6463 4.97071 32.5787 4.8955C32.4773 4.78354 32.4733 4.76545 32.5544 4.79485C32.6744 4.83839 32.9437 4.72586 32.898 4.65122C32.8012 4.49403 33.2394 4.81577 33.4748 5.07475C33.9947 5.64643 34.2285 6.37473 34.1159 7.0759C34.0421 7.53392 33.9446 7.80082 33.6241 8.41603ZM31.7439 8.05527C31.8284 7.93087 31.9033 7.79403 31.9681 7.64927C31.7473 8.18024 31.4132 8.71459 31.015 9.14547C30.7638 9.41745 30.5368 9.64024 30.5109 9.64024C30.4849 9.64024 30.4297 9.60632 30.3886 9.56504C30.3475 9.52376 30.2501 9.47343 30.1718 9.45421C30.094 9.43442 29.9605 9.34564 29.876 9.25686L29.7217 9.09514L29.9408 8.7881C30.3036 8.27919 30.646 7.60969 30.7581 7.19634C30.7542 7.21274 30.7502 7.22914 30.7457 7.24497C30.6821 7.49321 30.6438 7.7454 30.6607 7.8059C30.699 7.93879 31.2837 8.3363 31.4414 8.3363C31.5135 8.33687 31.6222 8.23565 31.7439 8.05527ZM6.70208 18.8979C6.84628 18.8029 6.85022 18.7905 6.76799 18.6649C6.69532 18.5535 6.6159 18.5258 6.27512 18.493C6.08191 18.4744 5.88476 18.4467 5.6893 18.4105C6.04248 18.4636 6.4441 18.4862 7.05132 18.5032L8.23421 18.5354L8.39643 18.7266C8.48543 18.8317 8.54908 18.9267 8.53725 18.938C8.52542 18.9488 8.17619 18.9861 7.76161 19.0206C7.34648 19.0551 6.92852 19.0794 6.8322 19.0749C6.49029 19.0585 6.19006 19.0398 5.91912 19.0166C6.24582 19.0121 6.60013 18.9652 6.70208 18.8979ZM18.7191 17.4758C18.2257 17.5583 17.73 17.5708 17.2433 17.5154C17.6787 17.547 18.2792 17.5312 18.7191 17.4758ZM21.1069 16.4591C20.6636 16.7995 20.196 17.0528 19.679 17.2326C20.1859 17.0494 20.663 16.791 21.1069 16.4591ZM5.11307 18.925C4.74919 18.8696 4.42981 18.7989 4.10029 18.7051C3.73979 18.6022 3.5218 18.5072 3.26888 18.329C3.666 18.6033 4.10029 18.7418 5.11307 18.925ZM23.3758 22.0079C22.3174 22.6423 21.1531 23.0953 19.9048 23.3537C21.1345 23.0992 22.3033 22.6452 23.3758 22.0079ZM19.7792 20.2793C18.7569 20.5089 17.6787 20.5592 16.6248 20.4105C17.6613 20.5564 18.7495 20.5072 19.7792 20.2793ZM32.1675 7.05554C32.2452 6.72475 32.2717 6.38774 32.2384 6.09257C32.2508 6.18927 32.2576 6.28935 32.2576 6.39113C32.2582 6.59639 32.226 6.82145 32.1675 7.05554ZM25.4486 20.4003C25.2143 20.6304 24.9721 20.8487 24.7226 21.0557C24.9552 20.8561 25.2239 20.6129 25.4486 20.4003ZM4.10874 17.9163C4.02706 17.8744 3.95214 17.832 3.88624 17.789C3.43899 17.499 3.15679 17.1733 3.03794 16.808C3.10215 16.9974 3.21199 17.1789 3.36802 17.3576C3.53757 17.5521 3.81245 17.7557 4.10874 17.9163ZM30.8516 6.41827C30.8505 6.02415 30.7812 5.64134 30.6494 5.37218C30.7846 5.64812 30.8533 6.02245 30.8516 6.41827ZM16.1111 17.2609C15.3929 17.0155 14.7159 16.6174 14.1194 16.0802C14.7074 16.6095 15.3783 17.007 16.1111 17.2609ZM9.55229 9.72506C9.48413 9.96425 9.41766 10.148 9.35795 10.2639C9.4171 10.148 9.483 9.96482 9.55116 9.72506C9.5996 9.55373 9.65255 9.38635 9.71057 9.22124C9.6548 9.38353 9.60185 9.55147 9.55229 9.72506ZM3.05089 18.1634C2.70448 17.8812 2.47747 17.5617 2.42509 17.2829C2.47691 17.5583 2.70222 17.875 3.05089 18.1634Z" fill="white"/>
<path d="M24.9079 12.7015C25.0088 12.6314 25.1119 12.5528 25.2031 12.4737C25.273 12.4137 25.3163 12.3289 25.3 12.2848C25.2831 12.2413 25.3214 12.1587 25.3839 12.1016C25.447 12.0445 25.4988 11.9495 25.4988 11.8907C25.4988 11.8319 25.5704 11.7425 25.6577 11.6922C25.9044 11.5497 26.0728 11.2483 26.0818 10.9317C26.0891 10.697 26.0683 10.6382 25.9388 10.5302C25.7608 10.3815 25.7056 10.1332 25.8441 10.105C25.8943 10.0954 25.9771 10.1282 26.0272 10.1785C26.1083 10.2605 26.1224 10.261 26.1517 10.1841C26.1877 10.0903 26.0841 9.7148 25.9894 9.59549C25.9579 9.55535 25.9337 9.40493 25.9354 9.26187C25.9388 9.04644 25.9106 8.97123 25.7709 8.82591C25.6785 8.72978 25.5377 8.55505 25.4588 8.43857C25.3794 8.32209 25.3084 8.22652 25.3006 8.22652C25.2932 8.22652 25.3242 8.33453 25.3698 8.46684C25.3997 8.55392 25.4183 8.64213 25.4262 8.72978C25.3997 8.54996 25.2932 8.33792 25.0319 7.88725C24.6883 7.29409 24.4635 6.98252 23.9216 6.34921C23.6896 6.07779 23.4429 5.78093 23.3736 5.69045C23.3043 5.59941 23.1775 5.50838 23.0919 5.48745C23.0063 5.46653 22.7292 5.31273 22.4768 5.14535C21.5457 4.52731 20.5296 4.09587 19.4543 3.8612C18.8025 3.71871 17.4828 3.68591 16.5669 3.77016C16.7539 3.74415 16.9516 3.71927 17.1623 3.69609C17.5188 3.65651 17.7593 3.61353 17.6974 3.60053C17.6354 3.58809 17.5566 3.55473 17.5222 3.52702C17.467 3.48178 16.8243 3.5044 15.0274 3.61353L14.6106 3.63898L14.3115 3.32628C14.1279 3.13403 13.9403 2.99549 13.8271 2.96722C13.7251 2.94177 13.5595 2.88805 13.4587 2.84734C13.3072 2.78627 13.2441 2.78627 13.0926 2.84847C12.7264 2.99945 12.2983 3.13742 12.1964 3.13742C12.1389 3.13742 11.8505 3.2409 11.5559 3.36699C11.2185 3.51175 10.9791 3.58356 10.9082 3.56095C10.8315 3.53663 10.7206 3.58017 10.5629 3.69666C10.2795 3.90531 9.98325 4.16598 9.68809 4.46115C10.2739 3.86799 10.8451 3.45068 11.6967 2.93668C12.6684 2.34974 12.8312 2.26718 13.5528 1.9952C15.5806 1.2307 17.5639 1.04919 19.5427 1.44671C20.7149 1.6825 21.8938 2.10603 21.8938 2.2915C21.8938 2.3209 21.9992 2.42155 22.1276 2.51485C22.3078 2.64604 22.4216 2.68505 22.6233 2.68505C22.9472 2.68505 23.2682 2.84225 23.9498 3.33363C24.9941 4.08739 26.1072 5.24827 26.8248 6.33225C27.459 7.29013 27.8359 8.10382 28.202 9.30711C28.2138 9.34669 28.2257 9.38401 28.2364 9.41907C28.3141 9.66957 28.3564 9.80697 28.3254 9.92459C28.2837 10.0829 28.1096 10.2068 27.7097 10.5257C27.454 10.7292 27.245 10.9164 27.245 10.9418C27.245 10.9673 27.1498 11.0465 27.0338 11.1177C26.9177 11.1889 26.7972 11.2755 26.7662 11.3105C26.7352 11.345 26.5955 11.4598 26.4564 11.5655C26.3173 11.6713 26.1905 11.7725 26.1748 11.79C26.0655 11.9156 25.5709 12.2656 24.9079 12.7015ZM22.1935 8.79481C22.1631 8.75466 22.1383 8.72413 22.1208 8.70886C22.0132 8.61103 22.0132 8.61499 22.1265 8.85022C22.1907 8.98423 22.2797 9.21664 22.3247 9.36761C22.4335 9.73573 22.8148 10.1937 23.1606 10.3724C23.3916 10.4917 23.5178 10.5166 23.8918 10.5166C24.3807 10.5166 24.6973 10.4205 25.0178 10.1751C25.2352 10.0088 25.2735 10.0032 25.2735 10.1395C25.2735 10.196 25.0961 10.4222 24.8792 10.6422C24.6466 10.8785 24.4849 11.09 24.4849 11.159C24.4849 11.2919 24.1723 11.6758 24.0636 11.6758C24.0242 11.6758 23.8952 11.7651 23.7769 11.8737C23.5572 12.0756 23.302 12.1383 23.302 11.9908C23.302 11.9444 23.2356 11.902 23.1471 11.8918C23.0288 11.8777 22.9658 11.8183 22.8796 11.6379C22.7956 11.4626 22.7252 11.3936 22.6036 11.3693C22.4458 11.3371 22.1191 11.0521 22.1191 10.9464C22.1191 10.9175 22.0048 10.8384 21.8645 10.7705C21.7248 10.7027 21.5863 10.6014 21.5564 10.546C21.5001 10.4408 21.3232 10.3877 20.8546 10.3368C20.7008 10.3198 20.5121 10.265 20.4355 10.2141C20.3555 10.1615 20.1139 10.1072 19.8722 10.0874C19.6396 10.0682 19.4396 10.0241 19.4278 9.98905C19.4137 9.94551 19.3664 9.9523 19.2785 10.0105C19.1653 10.0852 19.1084 10.0852 18.7997 10.0128C18.575 9.96021 18.4043 9.88161 18.3215 9.79227C18.2511 9.71537 18.1153 9.63564 18.0196 9.61472C17.9244 9.5938 17.814 9.53782 17.7757 9.49088C17.7368 9.44395 17.6118 9.358 17.498 9.29976C17.3836 9.24152 16.9916 8.9062 16.6266 8.55449C15.9839 7.93588 15.758 7.62205 15.7552 7.34272C15.7518 6.99722 16.6773 6.6636 17.81 6.60197C18.3468 6.57256 18.4398 6.55673 18.2607 6.5228C18.1857 6.50867 18.1058 6.49736 18.0224 6.48944L18.0348 6.49001C18.8256 6.52563 19.3196 6.65116 20.0632 7.00514C20.921 7.41396 21.6544 8.03144 22.1935 8.79481ZM28.5653 12.5856C28.4966 12.6976 28.3687 12.6269 28.2876 12.4324C28.1671 12.1429 28.1795 11.9246 28.3214 11.8251C28.3868 11.7787 28.4256 11.7177 28.4076 11.6888C28.3671 11.6227 28.5158 11.4886 29.0193 11.1386C29.4548 10.8355 29.8079 10.5443 29.7392 10.5455C29.715 10.546 29.4294 10.7247 29.1038 10.943C28.7783 11.1618 28.4572 11.3546 28.3902 11.3716C28.2465 11.4083 27.9446 11.207 27.9029 11.0465C27.8821 10.9673 28.0505 10.7745 28.5715 10.282C29.3444 9.55195 29.9583 8.80555 30.3487 8.13492C30.2248 8.36054 30.0845 8.58672 29.9409 8.78802L29.7217 9.09506L29.8761 9.25679C29.9606 9.34556 30.0941 9.43434 30.1718 9.45413C30.2501 9.47335 30.3476 9.52368 30.3887 9.56496C30.4298 9.60624 30.485 9.64016 30.5109 9.64016C30.5368 9.64016 30.7638 9.41737 31.015 9.14539C31.2708 8.86832 31.5006 8.54827 31.6904 8.21408C31.5693 8.44366 31.4414 8.6591 31.3254 8.82195C31.1621 9.05209 31.095 9.1878 31.1452 9.1878C31.1891 9.1878 31.2832 9.12503 31.3547 9.0487C31.4262 8.97236 31.5 8.91186 31.5192 8.91412C31.6454 8.92939 31.7377 8.84796 32.1422 8.36506C32.5044 7.93305 32.7618 7.51744 32.915 7.11936C32.755 7.57682 32.47 8.04671 32.0554 8.53696C31.7417 8.9079 31.7062 9.01194 31.9732 8.77841C32.0526 8.70942 32.0858 8.68907 32.047 8.73317C31.9591 8.83495 31.9512 8.95313 32.0385 8.86549C32.083 8.82082 32.145 8.8293 32.2644 8.89659C32.4632 9.00912 32.5703 9.32577 32.4858 9.54969C32.4548 9.63055 32.4452 9.69671 32.4632 9.69671C32.4813 9.69671 32.4542 9.76683 32.4018 9.85221C32.35 9.93759 32.5438 9.76513 32.8322 9.46827C33.0203 9.27431 33.1595 9.12051 33.2744 8.97123C33.2135 9.0617 33.1538 9.14369 33.0986 9.21268C32.7071 9.70067 31.9371 10.4493 31.4747 10.7909C31.286 10.9305 30.9987 11.0872 30.8359 11.1392C30.5464 11.2319 30.2867 11.4423 30.2867 11.5836C30.2867 11.6227 30.2045 11.6979 30.1037 11.7504C30.0028 11.8036 29.7302 11.9636 29.4981 12.1072C29.2661 12.2509 28.9681 12.4058 28.8363 12.4516C28.7045 12.4974 28.5828 12.5579 28.5653 12.5856ZM21.8724 15.7635C22.229 15.3875 22.3394 15.1845 22.1377 15.2625C22.0859 15.2823 22.0279 15.2727 22.0082 15.241C21.9462 15.1398 21.2984 15.0799 21.0928 15.1562C20.9915 15.1935 20.6591 15.319 20.3549 15.435C20.0508 15.5503 19.7905 15.634 19.7776 15.6204C19.7641 15.6069 20.0125 15.4859 20.3307 15.3518C20.734 15.1811 21.4359 14.8141 22.0938 14.4426C21.9226 14.5421 21.757 14.6371 21.5981 14.7264C21.1413 14.9832 20.7673 15.2009 20.7673 15.2099C20.7673 15.241 21.2461 15.1081 21.3086 15.0601C21.3429 15.0335 21.4821 14.9758 21.6184 14.9328C22.278 14.7236 23.9994 13.9625 25.478 13.2269C26.3804 12.7784 27.1481 12.4109 27.1842 12.4109C27.2197 12.4109 27.298 12.5251 27.3577 12.6654C27.4771 12.9447 27.5458 12.9781 27.6523 12.8067C27.73 12.6823 28.0009 12.6512 28.0674 12.7592C28.126 12.8542 27.8809 13.0329 27.6911 13.0329C27.588 13.0329 27.5092 13.0736 27.4703 13.146C27.4371 13.2082 27.3864 13.2591 27.3577 13.2591C27.3284 13.2591 26.9301 13.4225 26.4722 13.6221C25.2363 14.161 24.1689 14.5873 23.186 14.9345C22.3242 15.2393 22.305 15.2495 22.0876 15.53C22.0307 15.6029 21.9592 15.6849 21.8769 15.7708L21.8724 15.7635ZM26.101 14.2096C26.2784 14.118 26.5133 14.0038 26.7662 13.8873C27.2929 13.6442 27.9012 13.3529 28.1181 13.2393C28.7276 12.9209 28.7338 12.9249 28.6881 13.5842C28.6414 14.2582 28.4273 15.3439 28.2037 16.0451C28.1136 16.3278 27.9316 16.7547 27.7232 17.1918C27.766 17.0759 27.7587 17.0369 27.7018 17.072C27.6263 17.1189 27.583 16.8158 27.6376 16.6235C27.6641 16.5302 27.739 16.2741 27.8032 16.0541C27.9429 15.5803 27.9514 15.3739 27.8364 15.2585C27.7897 15.2116 27.752 15.0736 27.752 14.9515C27.752 14.8158 27.7137 14.6903 27.6534 14.6292C27.5993 14.5743 27.5114 14.4624 27.4585 14.3798C27.3013 14.1372 26.6367 13.9902 26.4395 14.1548C26.3944 14.1921 26.3218 14.2085 26.2773 14.1915C26.2429 14.1779 26.1759 14.1876 26.101 14.2096ZM2.02915 17.5684C1.97789 17.4644 1.9272 17.3869 1.90861 17.3869C1.88721 17.3869 1.86073 17.703 1.85116 18.0886C1.83595 18.6671 1.85003 18.8232 1.93002 18.9792C2.06126 19.2343 2.39754 19.5356 2.55131 19.5356C2.72143 19.5356 2.86056 19.5939 2.82563 19.6504C2.7755 19.7319 3.37314 19.9162 3.89699 19.9818C4.17582 20.0163 4.46703 20.0559 4.54477 20.0694C4.55772 20.0717 4.57293 20.074 4.59039 20.0757C4.5611 20.0734 4.53632 20.0711 4.5166 20.0683C4.42366 20.0547 4.14484 20.0168 3.89699 19.9835C2.54005 19.8031 1.49685 19.2088 1.2552 18.4788C1.10537 18.0253 1.19662 17.3061 1.47319 16.7587C1.74075 16.2294 2.07365 15.7584 2.55413 15.2303C2.97659 14.766 3.72407 14.0728 3.89699 13.9851C3.95895 13.954 3.80067 14.1231 3.54551 14.3612C3.00926 14.8616 2.48034 15.5475 2.19307 16.1146C1.94579 16.6026 1.8827 17.1675 2.02915 17.5684ZM5.11312 18.925C5.20043 18.9408 5.29168 18.9566 5.388 18.973C5.27647 18.9628 5.16381 18.9515 5.05172 18.9391L4.74192 18.9046L4.93906 19.0363C5.13565 19.1675 5.14072 19.1681 6.75846 19.1523L8.38071 19.1364L8.71924 19.3462C8.94568 19.4865 9.03299 19.569 8.98399 19.5967C8.93892 19.6216 8.7536 19.6674 8.50238 19.72C8.74516 19.6651 8.89442 19.6182 8.91414 19.5854C8.93329 19.5549 8.55927 19.5368 7.99881 19.5407C7.01307 19.5487 6.62496 19.5 6.22053 19.3179C6.06394 19.2473 5.7761 19.1964 5.38969 19.1704C4.70981 19.1246 4.23158 19.0324 3.67168 18.8396C2.80366 18.5404 2.34177 18.2068 2.08604 17.6889C2.23813 17.958 2.5868 18.3363 2.61778 18.243C2.6313 18.2012 2.67017 18.2029 2.7417 18.2481C2.82225 18.2984 2.86619 18.2962 2.93547 18.2385C3.01602 18.1712 3.00363 18.1418 2.82056 17.9637C2.68932 17.8353 2.58962 17.6985 2.52259 17.552C2.63017 17.7562 2.81211 17.9688 3.05094 18.1633C3.06052 18.1712 3.07066 18.1791 3.08024 18.187C3.14389 18.2385 3.20585 18.2854 3.26894 18.329C3.52185 18.5071 3.73984 18.6021 4.10034 18.705C4.42986 18.7989 4.74924 18.8695 5.11312 18.925ZM33.3121 4.91295C33.0828 4.7043 32.8209 4.52618 32.8981 4.65114C32.9437 4.72579 32.6745 4.83831 32.5545 4.79477C32.4734 4.76537 32.4773 4.78346 32.5787 4.89542C32.6463 4.97063 32.7854 5.20982 32.8874 5.42752C33.0062 5.67971 33.0502 5.80128 33.0637 5.99976C32.9989 5.55418 32.7742 5.13913 32.3889 4.75858C32.0149 4.38934 31.7011 4.16259 31.2443 3.93188C30.8432 3.72945 30.0163 3.44729 29.5685 3.36078C29.2249 3.29405 29.0897 3.19396 29.3432 3.19396C29.5635 3.19396 30.5746 3.46143 31.1598 3.6746C32.0937 4.01444 32.8136 4.43062 33.3121 4.91295ZM25.7523 12.9311C25.0792 13.2727 24.8792 13.3507 24.8792 13.2727C24.8792 13.2178 25.0792 13.0674 25.8644 12.5308C26.3595 12.1926 26.6254 12.1005 26.6254 12.2667C26.6254 12.4228 26.3685 12.6184 25.7523 12.9311ZM23.284 13.7307C23.4282 13.6362 23.5414 13.5559 23.6118 13.4971C23.7048 13.4191 23.7808 13.3111 23.7808 13.2568C23.7808 13.051 24.2191 12.7162 24.3982 12.7852C24.472 12.8135 24.4748 12.8356 24.4162 12.9062C24.3086 13.0369 24.468 12.9786 24.6956 12.8401C24.2647 13.1205 23.7769 13.4282 23.284 13.7307ZM29.1275 3.1951C29.1979 3.26578 29.0351 3.25673 28.4842 3.15947L28.0618 3.08483L28.567 3.11254C28.8453 3.12781 29.0976 3.16513 29.1275 3.1951ZM32.1675 7.05547C32.2261 6.82137 32.2582 6.59631 32.2576 6.39105C32.2576 6.28927 32.2509 6.18919 32.2385 6.09249C32.2261 5.98732 32.2069 5.8878 32.1793 5.79563C32.1072 5.55192 31.994 5.3263 31.8386 5.11821C32.252 5.66218 32.3647 6.31359 32.1726 7.0696C32.154 7.14255 32.1275 7.22623 32.0949 7.31671C32.1225 7.23076 32.1467 7.14368 32.1675 7.05547ZM13.3443 4.84397C12.7653 5.18437 12.2307 5.59659 11.7474 6.07666C12.2679 5.55927 12.7484 5.1855 13.3443 4.84397ZM2.41725 17.0346C2.42063 16.7553 2.50851 16.442 2.67974 16.0864C2.74903 15.9433 2.94111 15.6498 3.1084 15.4163C2.93773 15.6572 2.73945 15.9642 2.66341 16.1231C2.53047 16.4002 2.43697 16.761 2.41725 17.0346ZM7.30484 19.932C7.44961 19.9105 7.58818 19.8891 7.71829 19.8676C7.52058 19.9015 7.32231 19.9326 7.14375 19.9569C6.83225 20.0005 6.26953 20.0395 5.73949 20.0621C6.31009 20.0344 6.9404 19.9858 7.30484 19.932ZM6.82944 9.18158C6.74213 9.55308 6.73142 9.83864 6.80972 9.9981C6.81254 10.0038 6.81535 10.0094 6.81873 10.0151C6.75283 9.89801 6.73593 9.77135 6.75734 9.5627C6.76916 9.4513 6.79395 9.32294 6.82944 9.18158ZM33.8033 8.05802C33.9858 7.67577 34.0585 7.43432 34.1159 7.07582C34.1221 7.0385 34.1272 7.00062 34.1311 6.96273C34.112 7.16912 34.068 7.38173 33.9987 7.59887C33.9599 7.72101 33.8906 7.88216 33.8033 8.05802ZM16.9065 6.52394C16.5303 6.57483 16.1467 6.66134 15.8014 6.77839C15.4364 6.90279 15.1367 7.03115 14.8613 7.18948C15.1367 7.03115 15.4364 6.90279 15.8014 6.77783C16.1664 6.65343 16.5252 6.5703 16.9065 6.52394ZM25.4245 8.93504C25.3974 9.20985 25.2701 9.47279 25.0713 9.6871C25.2487 9.49314 25.3749 9.24943 25.42 8.96727C25.4217 8.95653 25.4233 8.94578 25.4245 8.93504ZM21.1069 16.459C21.1109 16.4567 21.1142 16.4539 21.1176 16.4511C20.9498 16.5823 20.787 16.6976 20.6479 16.7802C20.5893 16.8147 20.5262 16.8497 20.4597 16.8848C20.6828 16.761 20.8974 16.6196 21.1069 16.459ZM23.8856 10.1983C23.6355 10.2011 23.4119 10.1474 23.2091 10.0349C23.4226 10.1451 23.6546 10.1971 23.8856 10.1983ZM27.1594 18.2713C27.0929 18.3844 27.0304 18.4873 26.9724 18.5744C26.8665 18.7344 26.7392 18.9108 26.5978 19.0935C26.8102 18.8158 26.9876 18.5563 27.1594 18.2713ZM23.1832 22.1203C22.1772 22.696 21.0788 23.1105 19.9054 23.3536C21.072 23.1122 22.1749 22.6954 23.1832 22.1203ZM8.49731 5.85048C8.45394 5.90929 8.41057 5.96866 8.36832 6.02803C8.29002 6.12529 8.21342 6.22764 8.13737 6.33903C8.21285 6.22594 8.28833 6.1202 8.36212 6.02464C8.40775 5.96527 8.45281 5.90702 8.49731 5.85048ZM25.4487 20.4002L25.4622 20.3872C25.4053 20.4443 25.349 20.4992 25.2944 20.5512C25.0814 20.7542 24.8606 20.947 24.6331 21.1308C24.6624 21.1065 24.6922 21.0816 24.7226 21.0556C24.9722 20.8486 25.2144 20.6304 25.4487 20.4002ZM22.763 9.65487C22.6734 9.54743 22.5872 9.42416 22.5044 9.28336C22.5884 9.41624 22.6802 9.548 22.763 9.65487ZM25.4267 15.5667C25.5157 15.3417 25.5873 15.1183 25.6385 14.8989C25.6532 14.8373 25.6678 14.7762 25.6825 14.7191C25.6689 14.7762 25.6543 14.8373 25.6397 14.8989C25.5878 15.1183 25.5157 15.3422 25.4267 15.5667ZM24.3154 17.4276C23.7222 18.1672 22.9905 18.8334 22.2126 19.3168C22.9905 18.8334 23.7222 18.1667 24.3154 17.4276ZM23.4795 21.9451C23.382 22.005 23.2829 22.0638 23.1832 22.1203C23.248 22.0836 23.3122 22.0457 23.3758 22.0078C23.4107 21.9869 23.4451 21.966 23.4795 21.9451ZM34.0534 6.09589C34.0365 6.03595 34.0168 5.97714 33.9954 5.9189C34.0173 5.97714 34.0365 6.03595 34.0534 6.09589Z" fill="white"/>
</g>
<path d="M46.9893 19.7C44.7893 19.7 43.0426 19.0733 41.7493 17.82C40.4693 16.5667 39.8293 14.8933 39.8293 12.8C39.8293 10.7067 40.4693 9.03333 41.7493 7.78C43.0426 6.52667 44.7893 5.9 46.9893 5.9C49.0826 5.9 50.7426 6.39333 51.9693 7.38C53.2093 8.35333 53.8293 9.68667 53.8293 11.38V11.68H50.4893V11.38C50.4893 10.4867 50.216 9.83333 49.6693 9.42C49.1226 8.99333 48.2493 8.78 47.0493 8.78C45.5693 8.78 44.5226 9.08 43.9093 9.68C43.3093 10.28 43.0093 11.32 43.0093 12.8C43.0093 14.28 43.3093 15.32 43.9093 15.92C44.5226 16.52 45.5693 16.82 47.0493 16.82C48.2493 16.82 49.1226 16.6133 49.6693 16.2C50.216 15.7733 50.4893 15.1133 50.4893 14.22V13.92H53.8293V14.22C53.8293 15.9133 53.2093 17.2533 51.9693 18.24C50.7426 19.2133 49.0826 19.7 46.9893 19.7ZM64.4093 18.28C63.3693 19.2267 61.9893 19.7 60.2693 19.7C58.5493 19.7 57.1626 19.2267 56.1093 18.28C55.0693 17.3333 54.5493 16.0733 54.5493 14.5C54.5493 12.9133 55.0693 11.6467 56.1093 10.7C57.1626 9.75333 58.5493 9.28 60.2693 9.28C61.9893 9.28 63.3693 9.75333 64.4093 10.7C65.4626 11.6467 65.9893 12.9133 65.9893 14.5C65.9893 16.0733 65.4626 17.3333 64.4093 18.28ZM58.1493 16.44C58.5626 16.84 59.2693 17.04 60.2693 17.04C61.2693 17.04 61.976 16.84 62.3893 16.44C62.8026 16.04 63.0093 15.3933 63.0093 14.5C63.0093 13.6067 62.796 12.9533 62.3693 12.54C61.956 12.1267 61.256 11.92 60.2693 11.92C59.2693 11.92 58.5626 12.1267 58.1493 12.54C57.736 12.94 57.5293 13.5933 57.5293 14.5C57.5293 15.3933 57.736 16.04 58.1493 16.44ZM70.0145 19.5H67.0145V9.48H69.7945V12.52H69.9545C70.0878 11.5733 70.4545 10.8 71.0545 10.2C71.6545 9.58667 72.5411 9.28 73.7145 9.28C74.8211 9.28 75.6878 9.58 76.3145 10.18C76.9411 10.78 77.3145 11.5733 77.4345 12.56H77.6145C77.7478 11.6 78.1211 10.8133 78.7345 10.2C79.3478 9.58667 80.2545 9.28 81.4545 9.28C82.6945 9.28 83.6411 9.64667 84.2945 10.38C84.9611 11.1133 85.2945 12.0733 85.2945 13.26V19.5H82.2945V14.26C82.2945 13.42 82.1211 12.8333 81.7745 12.5C81.4411 12.1533 80.8478 11.98 79.9945 11.98C79.1011 11.98 78.4878 12.1667 78.1545 12.54C77.8211 12.9133 77.6545 13.5467 77.6545 14.44V19.5H74.6545V14.26C74.6545 13.42 74.4811 12.8333 74.1345 12.5C73.8011 12.1533 73.2078 11.98 72.3545 11.98C71.4611 11.98 70.8478 12.1667 70.5145 12.54C70.1811 12.9133 70.0145 13.5467 70.0145 14.44V19.5ZM91.9391 19.7C90.2058 19.7 88.8325 19.2667 87.8191 18.4C86.8191 17.52 86.3191 16.22 86.3191 14.5C86.3191 12.9133 86.8258 11.6467 87.8391 10.7C88.8658 9.75333 90.2125 9.28 91.8791 9.28C93.5458 9.28 94.8725 9.70667 95.8591 10.56C96.8458 11.4 97.3391 12.5933 97.3391 14.14C97.3391 14.3267 97.3125 14.6467 97.2591 15.1H89.0991C89.1391 15.8867 89.3658 16.4533 89.7791 16.8C90.1925 17.1333 90.8791 17.3 91.8391 17.3C92.7058 17.3 93.3191 17.1933 93.6791 16.98C94.0525 16.7533 94.2391 16.42 94.2391 15.98V15.78H97.2391V16C97.2391 17.0933 96.7525 17.9867 95.7791 18.68C94.8058 19.36 93.5258 19.7 91.9391 19.7ZM93.7591 12.08C93.3458 11.7733 92.6991 11.62 91.8191 11.62C90.9391 11.62 90.2858 11.7733 89.8591 12.08C89.4458 12.3867 89.2058 12.8667 89.1391 13.52H94.4591C94.4191 12.8533 94.1858 12.3733 93.7591 12.08ZM105.471 19.5H102.991C100.485 19.5 99.2313 18.2933 99.2313 15.88V11.96H97.6513V9.48H99.2313V7.54H102.231V9.48H105.471V11.96H102.231V15.54C102.231 16.0333 102.331 16.3667 102.531 16.54C102.745 16.7133 103.125 16.8 103.671 16.8H105.471V19.5ZM111.741 19.5H108.381L114.241 6.1H118.521L124.421 19.5H120.981L119.721 16.54H113.021L111.741 19.5ZM115.441 10.92L114.181 13.84H118.561L117.301 10.92L116.481 8.84H116.261L115.441 10.92ZM131.241 19.7C129.201 19.7 127.587 19.08 126.401 17.84C125.214 16.5867 124.621 14.9067 124.621 12.8C124.621 10.6933 125.287 9.02 126.621 7.78C127.954 6.52667 129.767 5.9 132.061 5.9C134.167 5.9 135.834 6.36667 137.061 7.3C138.301 8.22 138.921 9.48 138.921 11.08V11.24H135.581V11.08C135.581 10.2933 135.294 9.71333 134.721 9.34C134.161 8.96667 133.247 8.78 131.981 8.78C130.447 8.78 129.367 9.08 128.741 9.68C128.114 10.28 127.801 11.32 127.801 12.8C127.801 14.28 128.101 15.32 128.701 15.92C129.314 16.52 130.361 16.82 131.841 16.82C133.387 16.82 134.447 16.6733 135.021 16.38C135.594 16.0733 135.901 15.4933 135.941 14.64H131.401V12.42H138.941V19.5H136.161V16.62H136.001C135.467 18.6733 133.881 19.7 131.241 19.7ZM146.289 19.7C144.249 19.7 142.682 19.3 141.589 18.5C140.496 17.7 139.949 16.5267 139.949 14.98V14.86H142.949V15.22C142.949 15.86 143.176 16.3133 143.629 16.58C144.082 16.8333 144.969 16.96 146.289 16.96C147.449 16.96 148.229 16.8667 148.629 16.68C149.042 16.4933 149.249 16.1667 149.249 15.7C149.249 15.3 149.116 15.0067 148.849 14.82C148.582 14.62 148.102 14.46 147.409 14.34L143.649 13.8C141.102 13.4 139.829 12.1467 139.829 10.04C139.829 8.89333 140.329 7.92 141.329 7.12C142.342 6.30667 143.889 5.9 145.969 5.9C147.969 5.9 149.476 6.32 150.489 7.16C151.502 8 152.009 9.15333 152.009 10.62V10.74H148.989V10.46C148.989 9.79333 148.756 9.32667 148.289 9.06C147.836 8.78 146.962 8.64 145.669 8.64C144.616 8.64 143.882 8.74667 143.469 8.96C143.056 9.16 142.849 9.48 142.849 9.92C142.849 10.3067 142.962 10.5867 143.189 10.76C143.429 10.9333 143.836 11.0733 144.409 11.18L148.169 11.78C150.889 12.22 152.249 13.48 152.249 15.56C152.249 16.7467 151.756 17.7333 150.769 18.52C149.782 19.3067 148.289 19.7 146.289 19.7Z" fill="url(#paint0_linear_3150_245)"/>
<defs>
<linearGradient id="paint0_linear_3150_245" x1="39" y1="13" x2="153" y2="13" gradientUnits="userSpaceOnUse">
<stop stop-color="white"/>
<stop offset="1" stop-color="white"/>
</linearGradient>
<clipPath id="clip0_3150_245">
<rect width="35" height="26" fill="white"/>
</clipPath>
</defs>
</svg>
