<svg width="8" height="9" viewBox="0 0 8 9" fill="none" xmlns="http://www.w3.org/2000/svg">
<path d="M0.656542 6.49983V0.928547C0.656542 0.7579 0.803827 0.619031 0.984814 0.619031H4.92407C5.10506 0.619031 5.25234 0.7579 5.25234 0.928547H5.90888C5.90888 0.416505 5.46703 0 4.92407 0H0.984814C0.441853 0 0 0.416505 0 0.928547V6.49983C0 7.01187 0.441853 7.42837 0.984814 7.42837H1.64136V6.80934H0.984814C0.803827 6.80934 0.656542 6.67047 0.656542 6.49983Z" fill="white"/>
<path d="M6.8938 1.23828H2.95454C2.41158 1.23828 1.96973 1.65479 1.96973 2.16683V7.73811C1.96973 8.25015 2.41158 8.66665 2.95454 8.66665H6.8938C7.43676 8.66665 7.87861 8.25015 7.87861 7.73811V2.16683C7.87861 1.65479 7.43676 1.23828 6.8938 1.23828ZM7.22207 7.73811C7.22207 7.90875 7.07478 8.04762 6.8938 8.04762H2.95454C2.77355 8.04762 2.62627 7.90875 2.62627 7.73811V2.16683C2.62627 1.99618 2.77355 1.85731 2.95454 1.85731H6.8938C7.07478 1.85731 7.22207 1.99618 7.22207 2.16683V7.73811Z" fill="white"/>
</svg>
