<svg width="20" height="20" viewBox="0 0 20 20" fill="none" xmlns="http://www.w3.org/2000/svg">
<path d="M12.9833 9.99994C12.9833 11.6499 11.6499 12.9833 9.99994 12.9833C8.34993 12.9833 7.0166 11.6499 7.0166 9.99994C7.0166 8.34993 8.34993 7.0166 9.99994 7.0166C11.6499 7.0166 12.9833 8.34993 12.9833 9.99994Z" stroke="#425B80" stroke-width="1.25" stroke-linecap="round" stroke-linejoin="round"/>
<path d="M9.99987 17.1249C12.9415 17.1249 15.6832 15.3916 17.5915 12.3916C18.3415 11.2166 18.3415 9.24158 17.5915 8.06658C15.6832 5.06658 12.9415 3.33325 9.99987 3.33325C7.0582 3.33325 4.31654 5.06658 2.4082 8.06658C1.6582 9.24158 1.6582 11.2166 2.4082 12.3916C4.31654 15.3916 7.0582 17.1249 9.99987 17.1249Z" stroke="#425B80" stroke-width="1.25" stroke-linecap="round" stroke-linejoin="round"/>
</svg>
