<svg width="44" height="44" viewBox="0 0 44 44" fill="none" xmlns="http://www.w3.org/2000/svg">
<rect width="44" height="44" rx="22" fill="black" fill-opacity="0.01"/>
<g clip-path="url(#clip0_3012_2217)">
<path d="M26.2722 16.0079C26.6191 16.6013 27.263 17 28 17C29.1046 17 30 16.1046 30 15C30 13.8954 29.1046 13 28 13C26.8954 13 26 13.8954 26 15C26 15.3676 26.0991 15.712 26.2722 16.0079ZM26.2722 16.0079L17.7278 20.9921M17.7278 20.9921C17.3809 20.3987 16.737 20 16 20C14.8954 20 14 20.8954 14 22C14 23.1046 14.8954 24 16 24C16.737 24 17.3809 23.6013 17.7278 23.0079M17.7278 20.9921C17.9009 21.288 18 21.6324 18 22C18 22.3676 17.9009 22.712 17.7278 23.0079M17.7278 23.0079L26.2722 27.9921M26.2722 27.9921C26.6191 27.3987 27.263 27 28 27C29.1046 27 30 27.8954 30 29C30 30.1046 29.1046 31 28 31C26.8954 31 26 30.1046 26 29C26 28.6324 26.0991 28.288 26.2722 27.9921Z" stroke="white" stroke-linecap="round" stroke-linejoin="round"/>
</g>
<defs>
<clipPath id="clip0_3012_2217">
<rect width="24" height="24" fill="white" transform="translate(10 10)"/>
</clipPath>
</defs>
</svg>
