<svg width="353" height="130" viewBox="0 0 353 130" fill="none" xmlns="http://www.w3.org/2000/svg">
<g clip-path="url(#clip0_3012_2304)">
<rect width="353" height="130" rx="12" fill="#8307FF"/>
<circle cx="322.5" cy="46.5" r="73.5" fill="#962EFF"/>
<circle cx="270.5" cy="119.5" r="14.5" fill="#962EFF"/>
</g>
<rect x="0.5" y="0.5" width="352" height="129" rx="11.5" stroke="#8307FF"/>
<path d="M19.052 29.5H16.42V20.12H19.99L21.712 24.012L22.636 26.434H22.818L23.7 24.012L25.338 20.12H28.908V29.5H26.276V25.622L26.374 24.054H26.192L25.66 25.622L24.26 28.94H21.068L19.668 25.622L19.136 24.054H18.954L19.052 25.622V29.5ZM32.0321 29.64C31.2387 29.64 30.6227 29.472 30.1841 29.136C29.7547 28.7907 29.5401 28.3147 29.5401 27.708C29.5401 26.616 30.3007 25.9953 31.8221 25.846L34.6921 25.566V25.426C34.6921 25.0807 34.6034 24.8567 34.4261 24.754C34.2581 24.6513 33.9314 24.6 33.4461 24.6C33.0074 24.6 32.7087 24.656 32.5501 24.768C32.3914 24.8707 32.3121 25.0667 32.3121 25.356V25.412H29.6801V25.384C29.6801 24.4507 30.0394 23.704 30.7581 23.144C31.4861 22.584 32.4474 22.304 33.6421 22.304C34.8461 22.304 35.7561 22.584 36.3721 23.144C36.9881 23.6947 37.2961 24.474 37.2961 25.482V29.5H34.8321V28.016H34.6921C34.4027 29.0987 33.5161 29.64 32.0321 29.64ZM32.1861 27.54C32.1861 27.7173 32.3961 27.806 32.8161 27.806C33.4787 27.806 33.9454 27.7547 34.2161 27.652C34.4867 27.54 34.6407 27.33 34.6781 27.022L32.5221 27.274C32.2981 27.302 32.1861 27.3907 32.1861 27.54ZM41.8703 29.64C40.6383 29.64 39.6909 29.416 39.0283 28.968C38.3749 28.5107 38.0483 27.8713 38.0483 27.05V26.994H40.6803V27.134C40.6803 27.3207 40.7549 27.442 40.9043 27.498C41.0629 27.5447 41.3896 27.568 41.8843 27.568C42.3136 27.568 42.5936 27.5447 42.7243 27.498C42.8643 27.4513 42.9343 27.3627 42.9343 27.232C42.9343 27.12 42.8876 27.0453 42.7943 27.008C42.7009 26.9613 42.4909 26.9193 42.1643 26.882L40.1203 26.658C38.6269 26.4993 37.8803 25.8227 37.8803 24.628C37.8803 23.9467 38.1743 23.3913 38.7623 22.962C39.3596 22.5233 40.2789 22.304 41.5203 22.304C44.0216 22.304 45.2723 23.1767 45.2723 24.922V24.978H42.6403V24.894C42.6403 24.698 42.5656 24.5627 42.4163 24.488C42.2669 24.404 41.9403 24.362 41.4363 24.362C41.0349 24.362 40.7736 24.39 40.6523 24.446C40.5309 24.502 40.4703 24.6 40.4703 24.74C40.4703 24.8427 40.5263 24.922 40.6383 24.978C40.7596 25.034 41.0163 25.0807 41.4083 25.118L42.8083 25.272C43.8069 25.384 44.5069 25.608 44.9083 25.944C45.3189 26.28 45.5243 26.756 45.5243 27.372C45.5243 28.044 45.2023 28.59 44.5583 29.01C43.9143 29.43 43.0183 29.64 41.8703 29.64ZM51.4343 29.5H49.5863C48.681 29.5 47.9857 29.276 47.5003 28.828C47.015 28.38 46.7723 27.708 46.7723 26.812V24.6H45.7363V22.444H46.7723V21.226H49.4043V22.444H51.4343V24.6H49.4043V26.434C49.4043 26.714 49.4557 26.9007 49.5583 26.994C49.6703 27.0873 49.8757 27.134 50.1743 27.134H51.4343V29.5ZM55.9966 29.64C54.7272 29.64 53.7286 29.346 53.0006 28.758C52.2819 28.17 51.9226 27.2413 51.9226 25.972C51.9226 24.8427 52.2912 23.9513 53.0286 23.298C53.7752 22.6353 54.7459 22.304 55.9406 22.304C57.1819 22.304 58.1572 22.6073 58.8666 23.214C59.5759 23.8113 59.9306 24.67 59.9306 25.79C59.9306 25.986 59.9166 26.21 59.8886 26.462H54.3586C54.3772 26.882 54.4939 27.1713 54.7086 27.33C54.9326 27.4793 55.3292 27.554 55.8986 27.554C56.4119 27.554 56.7619 27.5073 56.9486 27.414C57.1446 27.3207 57.2426 27.1667 57.2426 26.952V26.798H59.8746V26.966C59.8746 27.7593 59.5199 28.4033 58.8106 28.898C58.1106 29.3927 57.1726 29.64 55.9966 29.64ZM55.8846 24.32C55.3992 24.32 55.0446 24.3807 54.8206 24.502C54.5966 24.6233 54.4566 24.8333 54.4006 25.132H57.3826C57.3359 24.8333 57.1959 24.6233 56.9626 24.502C56.7386 24.3807 56.3792 24.32 55.8846 24.32ZM63.2668 29.5H60.6348V22.444H63.0988V24.292H63.2388C63.3415 23.676 63.5842 23.1907 63.9668 22.836C64.3588 22.4813 64.8908 22.304 65.5628 22.304C66.3095 22.304 66.8555 22.5233 67.2008 22.962C67.5555 23.4007 67.7328 23.9933 67.7328 24.74V26.14H65.1008V25.314C65.1008 25.0153 65.0355 24.81 64.9048 24.698C64.7742 24.5767 64.5362 24.516 64.1908 24.516C63.8362 24.516 63.5935 24.572 63.4628 24.684C63.3322 24.796 63.2668 24.9967 63.2668 25.286V29.5ZM72.6402 29.5H69.6862L73.7322 20.12H77.4982L81.5582 29.5H78.5342L77.8202 27.764H73.3682L72.6402 29.5ZM74.9082 24.082L74.3622 25.398H76.8542L76.3082 24.082L75.6922 22.5H75.5102L74.9082 24.082ZM86.3759 29.64C84.9106 29.64 83.7626 29.206 82.9319 28.338C82.1106 27.4607 81.6999 26.2847 81.6999 24.81C81.6999 23.3353 82.1806 22.164 83.1419 21.296C84.1126 20.4187 85.4426 19.98 87.1319 19.98C88.7186 19.98 89.9599 20.3113 90.8559 20.974C91.7519 21.6273 92.1999 22.5373 92.1999 23.704V23.802H89.2599V23.704C89.2599 23.2653 89.0966 22.9573 88.7699 22.78C88.4526 22.5933 87.8833 22.5 87.0619 22.5C86.0446 22.5 85.3633 22.654 85.0179 22.962C84.6726 23.27 84.4999 23.886 84.4999 24.81C84.4999 25.734 84.6633 26.35 84.9899 26.658C85.3166 26.966 85.9606 27.12 86.9219 27.12C87.9299 27.12 88.6019 27.0733 88.9379 26.98C89.2833 26.8773 89.4886 26.6533 89.5539 26.308H86.6699V24.376H92.2139V29.5H89.7639V27.498H89.6239C89.2973 28.926 88.2146 29.64 86.3759 29.64ZM97.5462 29.64C94.4662 29.64 92.9262 28.506 92.9262 26.238V26.154H95.5582V26.448C95.5582 26.7747 95.6748 26.9893 95.9082 27.092C96.1415 27.1947 96.6875 27.246 97.5462 27.246C98.3115 27.246 98.7968 27.2133 99.0022 27.148C99.2075 27.0733 99.3102 26.924 99.3102 26.7C99.3102 26.532 99.2448 26.406 99.1142 26.322C98.9835 26.238 98.7315 26.1727 98.3582 26.126L95.4182 25.734C93.6635 25.4913 92.7862 24.5953 92.7862 23.046C92.7862 22.1967 93.1502 21.4733 93.8782 20.876C94.6155 20.2787 95.7682 19.98 97.3362 19.98C98.7922 19.98 99.8888 20.2787 100.626 20.876C101.373 21.4733 101.746 22.3087 101.746 23.382V23.466H99.1142V23.256C99.1142 22.9013 98.9835 22.6633 98.7222 22.542C98.4608 22.4207 97.9055 22.36 97.0562 22.36C96.4122 22.36 95.9782 22.4067 95.7542 22.5C95.5302 22.584 95.4182 22.7333 95.4182 22.948C95.4182 23.0973 95.4648 23.2093 95.5582 23.284C95.6608 23.3587 95.8382 23.4147 96.0902 23.452L99.0302 23.886C100.972 24.166 101.942 25.0713 101.942 26.602C101.942 27.4793 101.578 28.2073 100.85 28.786C100.132 29.3553 99.0302 29.64 97.5462 29.64ZM108.862 29.64C105.875 29.64 104.382 28.716 104.382 26.868C104.382 26.168 104.592 25.6313 105.012 25.258C105.432 24.8753 106.006 24.6607 106.734 24.614V24.432C106.108 24.376 105.632 24.166 105.306 23.802C104.979 23.438 104.816 22.9853 104.816 22.444C104.816 20.764 106.113 19.924 108.708 19.924H110.178V22.318H108.33C108.003 22.318 107.774 22.36 107.644 22.444C107.513 22.528 107.448 22.71 107.448 22.99C107.448 23.2607 107.508 23.438 107.63 23.522C107.76 23.5967 107.97 23.634 108.26 23.634H110.696V22.444H113.286V23.634H114.644V25.79H113.286V26.028C113.286 27.2133 112.954 28.114 112.292 28.73C111.629 29.3367 110.486 29.64 108.862 29.64ZM107.42 27.106C107.672 27.1993 108.185 27.246 108.96 27.246C109.734 27.246 110.215 27.19 110.402 27.078C110.598 26.966 110.696 26.6627 110.696 26.168V25.79H107.91C107.62 25.79 107.406 25.8413 107.266 25.944C107.126 26.0373 107.056 26.2287 107.056 26.518C107.056 26.8073 107.177 27.0033 107.42 27.106ZM119.937 29.5H117.305V20.12H122.779C124.011 20.12 124.949 20.3673 125.593 20.862C126.237 21.3567 126.559 22.066 126.559 22.99C126.559 23.746 126.353 24.3387 125.943 24.768C125.541 25.1973 124.902 25.468 124.025 25.58V25.72C124.473 25.832 124.804 25.9953 125.019 26.21C125.243 26.4247 125.453 26.7373 125.649 27.148L126.811 29.5H123.773L122.653 27.204C122.485 26.8493 122.293 26.6113 122.079 26.49C121.873 26.3687 121.519 26.308 121.015 26.308H119.937V29.5ZM119.937 22.486V24.348H122.751C123.152 24.348 123.427 24.2873 123.577 24.166C123.726 24.0447 123.801 23.7927 123.801 23.41C123.801 23.046 123.721 22.8033 123.563 22.682C123.413 22.5513 123.143 22.486 122.751 22.486H119.937ZM131.165 29.64C129.895 29.64 128.897 29.346 128.169 28.758C127.45 28.17 127.091 27.2413 127.091 25.972C127.091 24.8427 127.459 23.9513 128.197 23.298C128.943 22.6353 129.914 22.304 131.109 22.304C132.35 22.304 133.325 22.6073 134.035 23.214C134.744 23.8113 135.099 24.67 135.099 25.79C135.099 25.986 135.085 26.21 135.057 26.462H129.527C129.545 26.882 129.662 27.1713 129.877 27.33C130.101 27.4793 130.497 27.554 131.067 27.554C131.58 27.554 131.93 27.5073 132.117 27.414C132.313 27.3207 132.411 27.1667 132.411 26.952V26.798H135.043V26.966C135.043 27.7593 134.688 28.4033 133.979 28.898C133.279 29.3927 132.341 29.64 131.165 29.64ZM131.053 24.32C130.567 24.32 130.213 24.3807 129.989 24.502C129.765 24.6233 129.625 24.8333 129.569 25.132H132.551C132.504 24.8333 132.364 24.6233 132.131 24.502C131.907 24.3807 131.547 24.32 131.053 24.32ZM138.085 29.64C137.291 29.64 136.675 29.472 136.237 29.136C135.807 28.7907 135.593 28.3147 135.593 27.708C135.593 26.616 136.353 25.9953 137.875 25.846L140.745 25.566V25.426C140.745 25.0807 140.656 24.8567 140.479 24.754C140.311 24.6513 139.984 24.6 139.499 24.6C139.06 24.6 138.761 24.656 138.603 24.768C138.444 24.8707 138.365 25.0667 138.365 25.356V25.412H135.733V25.384C135.733 24.4507 136.092 23.704 136.811 23.144C137.539 22.584 138.5 22.304 139.695 22.304C140.899 22.304 141.809 22.584 142.425 23.144C143.041 23.6947 143.349 24.474 143.349 25.482V29.5H140.885V28.016H140.745C140.455 29.0987 139.569 29.64 138.085 29.64ZM138.239 27.54C138.239 27.7173 138.449 27.806 138.869 27.806C139.531 27.806 139.998 27.7547 140.269 27.652C140.539 27.54 140.693 27.33 140.731 27.022L138.575 27.274C138.351 27.302 138.239 27.3907 138.239 27.54ZM146.761 29.5H144.129V20.12H146.761V29.5ZM152.189 29.5H149.557V20.12H155.031C156.263 20.12 157.201 20.3673 157.845 20.862C158.489 21.3567 158.811 22.066 158.811 22.99C158.811 23.746 158.605 24.3387 158.195 24.768C157.793 25.1973 157.154 25.468 156.277 25.58V25.72C156.725 25.832 157.056 25.9953 157.271 26.21C157.495 26.4247 157.705 26.7373 157.901 27.148L159.063 29.5H156.025L154.905 27.204C154.737 26.8493 154.545 26.6113 154.331 26.49C154.125 26.3687 153.771 26.308 153.267 26.308H152.189V29.5ZM152.189 22.486V24.348H155.003C155.404 24.348 155.679 24.2873 155.829 24.166C155.978 24.0447 156.053 23.7927 156.053 23.41C156.053 23.046 155.973 22.8033 155.815 22.682C155.665 22.5513 155.395 22.486 155.003 22.486H152.189ZM163.417 29.64C162.147 29.64 161.149 29.346 160.421 28.758C159.702 28.17 159.343 27.2413 159.343 25.972C159.343 24.8427 159.711 23.9513 160.449 23.298C161.195 22.6353 162.166 22.304 163.361 22.304C164.602 22.304 165.577 22.6073 166.287 23.214C166.996 23.8113 167.351 24.67 167.351 25.79C167.351 25.986 167.337 26.21 167.309 26.462H161.779C161.797 26.882 161.914 27.1713 162.129 27.33C162.353 27.4793 162.749 27.554 163.319 27.554C163.832 27.554 164.182 27.5073 164.369 27.414C164.565 27.3207 164.663 27.1667 164.663 26.952V26.798H167.294V26.966C167.294 27.7593 166.94 28.4033 166.231 28.898C165.531 29.3927 164.593 29.64 163.417 29.64ZM163.305 24.32C162.819 24.32 162.465 24.3807 162.241 24.502C162.017 24.6233 161.877 24.8333 161.821 25.132H164.803C164.756 24.8333 164.616 24.6233 164.383 24.502C164.159 24.3807 163.799 24.32 163.305 24.32ZM172.633 29.5H169.343L167.565 22.444H170.295L170.799 24.992L171.065 27.512H171.247L171.835 24.712L172.535 22.444H175.923L176.623 24.712L177.211 27.512H177.393L177.673 24.992L178.163 22.444H180.851L178.989 29.5H175.699L174.789 26.672L174.271 24.558H174.089L173.557 26.672L172.633 29.5ZM183.489 29.64C182.696 29.64 182.08 29.472 181.641 29.136C181.212 28.7907 180.997 28.3147 180.997 27.708C180.997 26.616 181.758 25.9953 183.279 25.846L186.149 25.566V25.426C186.149 25.0807 186.06 24.8567 185.883 24.754C185.715 24.6513 185.388 24.6 184.903 24.6C184.464 24.6 184.166 24.656 184.007 24.768C183.848 24.8707 183.769 25.0667 183.769 25.356V25.412H181.137V25.384C181.137 24.4507 181.496 23.704 182.215 23.144C182.943 22.584 183.904 22.304 185.099 22.304C186.303 22.304 187.213 22.584 187.829 23.144C188.445 23.6947 188.753 24.474 188.753 25.482V29.5H186.289V28.016H186.149C185.86 29.0987 184.973 29.64 183.489 29.64ZM183.643 27.54C183.643 27.7173 183.853 27.806 184.273 27.806C184.936 27.806 185.402 27.7547 185.673 27.652C185.944 27.54 186.098 27.33 186.135 27.022L183.979 27.274C183.755 27.302 183.643 27.3907 183.643 27.54ZM192.165 29.5H189.533V22.444H191.997V24.292H192.137C192.24 23.676 192.483 23.1907 192.865 22.836C193.257 22.4813 193.789 22.304 194.461 22.304C195.208 22.304 195.754 22.5233 196.099 22.962C196.454 23.4007 196.631 23.9933 196.631 24.74V26.14H193.999V25.314C193.999 25.0153 193.934 24.81 193.803 24.698C193.673 24.5767 193.435 24.516 193.089 24.516C192.735 24.516 192.492 24.572 192.361 24.684C192.231 24.796 192.165 24.9967 192.165 25.286V29.5ZM200.396 29.64C199.322 29.64 198.496 29.318 197.918 28.674C197.339 28.0207 197.05 27.12 197.05 25.972C197.05 24.8147 197.33 23.914 197.89 23.27C198.459 22.626 199.257 22.304 200.284 22.304C201.824 22.304 202.71 22.9573 202.944 24.264H203.084V20.12H205.716V29.5H203.252V27.596H203.112C203 28.296 202.724 28.814 202.286 29.15C201.847 29.4767 201.217 29.64 200.396 29.64ZM200.074 24.992C199.831 25.1787 199.71 25.5053 199.71 25.972C199.71 26.4387 199.831 26.7653 200.074 26.952C200.316 27.1387 200.741 27.232 201.348 27.232C201.973 27.232 202.416 27.148 202.678 26.98C202.948 26.8027 203.084 26.4713 203.084 25.986V25.888C203.084 25.412 202.948 25.0947 202.678 24.936C202.416 24.7773 201.973 24.698 201.348 24.698C200.741 24.698 200.316 24.796 200.074 24.992ZM210.349 29.64C209.117 29.64 208.169 29.416 207.507 28.968C206.853 28.5107 206.527 27.8713 206.527 27.05V26.994H209.159V27.134C209.159 27.3207 209.233 27.442 209.383 27.498C209.541 27.5447 209.868 27.568 210.363 27.568C210.792 27.568 211.072 27.5447 211.203 27.498C211.343 27.4513 211.413 27.3627 211.413 27.232C211.413 27.12 211.366 27.0453 211.273 27.008C211.179 26.9613 210.969 26.9193 210.643 26.882L208.599 26.658C207.105 26.4993 206.359 25.8227 206.359 24.628C206.359 23.9467 206.653 23.3913 207.241 22.962C207.838 22.5233 208.757 22.304 209.999 22.304C212.5 22.304 213.751 23.1767 213.751 24.922V24.978H211.119V24.894C211.119 24.698 211.044 24.5627 210.895 24.488C210.745 24.404 210.419 24.362 209.915 24.362C209.513 24.362 209.252 24.39 209.131 24.446C209.009 24.502 208.949 24.6 208.949 24.74C208.949 24.8427 209.005 24.922 209.117 24.978C209.238 25.034 209.495 25.0807 209.887 25.118L211.287 25.272C212.285 25.384 212.985 25.608 213.387 25.944C213.797 26.28 214.003 26.756 214.003 27.372C214.003 28.044 213.681 28.59 213.037 29.01C212.393 29.43 211.497 29.64 210.349 29.64Z" fill="#FFD96D"/>
<path d="M20.836 53.728H16.36V52.18H20.836V53.728ZM23.4714 56.5H21.6714V48.46H23.4714V56.5ZM26.2136 56.5H24.4136V50.488H26.0816V52.336H26.1896C26.2776 51.776 26.5216 51.308 26.9216 50.932C27.3296 50.556 27.9016 50.368 28.6376 50.368C29.4296 50.368 30.0296 50.592 30.4376 51.04C30.8536 51.48 31.0616 52.052 31.0616 52.756V56.5H29.2616V53.356C29.2616 52.868 29.1456 52.52 28.9136 52.312C28.6896 52.096 28.3056 51.988 27.7616 51.988C27.2016 51.988 26.8016 52.104 26.5616 52.336C26.3296 52.568 26.2136 52.944 26.2136 53.464V56.5ZM35.6718 56.62C35.0238 56.62 34.5158 56.48 34.1478 56.2C33.7798 55.912 33.5958 55.516 33.5958 55.012C33.5958 54.1 34.2438 53.576 35.5398 53.44L38.1198 53.176V52.948C38.1198 52.564 38.0238 52.304 37.8318 52.168C37.6398 52.024 37.2998 51.952 36.8118 51.952C36.3478 51.952 36.0158 52.024 35.8158 52.168C35.6238 52.304 35.5278 52.54 35.5278 52.876V52.924H33.7158V52.888C33.7158 52.136 34.0078 51.528 34.5918 51.064C35.1758 50.6 35.9598 50.368 36.9438 50.368C37.9198 50.368 38.6558 50.6 39.1518 51.064C39.6478 51.528 39.8958 52.164 39.8958 52.972V56.5H38.2158V55.12H38.1198C37.9758 55.592 37.6958 55.96 37.2798 56.224C36.8638 56.488 36.3278 56.62 35.6718 56.62ZM35.4078 54.892C35.4078 55.196 35.6678 55.348 36.1878 55.348C36.8198 55.348 37.2918 55.264 37.6038 55.096C37.9238 54.92 38.0958 54.624 38.1198 54.208L36.0318 54.448C35.6158 54.48 35.4078 54.628 35.4078 54.892ZM42.6081 56.5H40.8081V48.46H42.6081V56.5ZM46.1903 55.888C45.3023 55.888 44.6103 55.644 44.1143 55.156C43.6183 54.66 43.3703 53.984 43.3703 53.128C43.3703 52.28 43.6263 51.608 44.1383 51.112C44.6583 50.616 45.3663 50.368 46.2623 50.368C46.8863 50.368 47.3983 50.504 47.7983 50.776C48.2063 51.04 48.4583 51.428 48.5543 51.94H48.6503V50.488H50.3303V55.624C50.3303 57.648 49.1903 58.66 46.9103 58.66C45.9263 58.66 45.1503 58.452 44.5823 58.036C44.0223 57.62 43.7423 57.036 43.7423 56.284H45.5423C45.5423 56.628 45.6383 56.86 45.8303 56.98C46.0303 57.1 46.4303 57.16 47.0303 57.16C47.6223 57.16 48.0183 57.068 48.2183 56.884C48.4263 56.7 48.5303 56.32 48.5303 55.744V54.388H48.4343C48.3303 54.852 48.0903 55.22 47.7143 55.492C47.3463 55.756 46.8383 55.888 46.1903 55.888ZM45.5663 52.204C45.3103 52.38 45.1823 52.688 45.1823 53.128C45.1823 53.568 45.3103 53.88 45.5663 54.064C45.8223 54.248 46.2383 54.34 46.8143 54.34C47.3983 54.34 47.8303 54.252 48.1103 54.076C48.3903 53.892 48.5303 53.596 48.5303 53.188V53.056C48.5303 52.656 48.3903 52.368 48.1103 52.192C47.8383 52.016 47.4143 51.928 46.8383 51.928C46.2543 51.928 45.8303 52.02 45.5663 52.204ZM56.9727 55.768C56.3487 56.336 55.5207 56.62 54.4887 56.62C53.4567 56.62 52.6247 56.336 51.9927 55.768C51.3687 55.2 51.0567 54.444 51.0567 53.5C51.0567 52.548 51.3687 51.788 51.9927 51.22C52.6247 50.652 53.4567 50.368 54.4887 50.368C55.5207 50.368 56.3487 50.652 56.9727 51.22C57.6047 51.788 57.9207 52.548 57.9207 53.5C57.9207 54.444 57.6047 55.2 56.9727 55.768ZM53.2167 54.664C53.4647 54.904 53.8887 55.024 54.4887 55.024C55.0887 55.024 55.5127 54.904 55.7607 54.664C56.0087 54.424 56.1327 54.036 56.1327 53.5C56.1327 52.964 56.0047 52.572 55.7487 52.324C55.5007 52.076 55.0807 51.952 54.4887 51.952C53.8887 51.952 53.4647 52.076 53.2167 52.324C52.9687 52.564 52.8447 52.956 52.8447 53.5C52.8447 54.036 52.9687 54.424 53.2167 54.664ZM60.4558 56.5H58.6558V50.488H60.3238V52.084H60.4318C60.5198 51.564 60.7318 51.148 61.0678 50.836C61.4118 50.524 61.8718 50.368 62.4478 50.368C63.0878 50.368 63.5638 50.56 63.8758 50.944C64.1878 51.328 64.3438 51.836 64.3438 52.468V53.464H62.5438V52.84C62.5438 52.504 62.4678 52.264 62.3158 52.12C62.1638 51.968 61.9078 51.892 61.5478 51.892C61.1558 51.892 60.8758 51.984 60.7078 52.168C60.5398 52.352 60.4558 52.636 60.4558 53.02V56.5ZM66.7956 49.876H64.9956V48.46H66.7956V49.876ZM66.7956 56.5H64.9956V50.488H66.7956V56.5ZM71.9738 56.5H70.4858C68.9818 56.5 68.2298 55.776 68.2298 54.328V51.976H67.2818V50.488H68.2298V49.324H70.0298V50.488H71.9738V51.976H70.0298V54.124C70.0298 54.42 70.0898 54.62 70.2098 54.724C70.3378 54.828 70.5658 54.88 70.8938 54.88H71.9738V56.5ZM74.448 56.5H72.648V48.46H74.448V52.324H74.544C74.648 51.756 74.9 51.288 75.3 50.92C75.7 50.552 76.26 50.368 76.98 50.368C77.764 50.368 78.36 50.596 78.768 51.052C79.184 51.5 79.392 52.088 79.392 52.816V56.5H77.592V53.356C77.592 52.852 77.472 52.5 77.232 52.3C77 52.092 76.6 51.988 76.032 51.988C75.448 51.988 75.036 52.108 74.796 52.348C74.564 52.588 74.448 52.968 74.448 53.488V56.5ZM82.1003 56.5H80.3003V50.488H81.9683V52.312H82.0643C82.1443 51.744 82.3643 51.28 82.7243 50.92C83.0843 50.552 83.6163 50.368 84.3203 50.368C84.9843 50.368 85.5043 50.548 85.8803 50.908C86.2563 51.268 86.4803 51.744 86.5523 52.336H86.6603C86.7403 51.76 86.9643 51.288 87.3323 50.92C87.7003 50.552 88.2443 50.368 88.9643 50.368C89.7083 50.368 90.2763 50.588 90.6683 51.028C91.0683 51.468 91.2683 52.044 91.2683 52.756V56.5H89.4683V53.356C89.4683 52.852 89.3643 52.5 89.1563 52.3C88.9563 52.092 88.6003 51.988 88.0883 51.988C87.5523 51.988 87.1843 52.1 86.9843 52.324C86.7843 52.548 86.6843 52.928 86.6843 53.464V56.5H84.8843V53.356C84.8843 52.852 84.7803 52.5 84.5723 52.3C84.3723 52.092 84.0163 51.988 83.5043 51.988C82.9683 51.988 82.6003 52.1 82.4003 52.324C82.2003 52.548 82.1003 52.928 82.1003 53.464V56.5ZM93.9831 49.876H92.1831V48.46H93.9831V49.876ZM93.9831 56.5H92.1831V50.488H93.9831V56.5ZM98.1293 56.62C97.0973 56.62 96.2733 56.34 95.6573 55.78C95.0493 55.212 94.7453 54.452 94.7453 53.5C94.7453 52.54 95.0493 51.78 95.6573 51.22C96.2733 50.652 97.0973 50.368 98.1293 50.368C99.0973 50.368 99.8813 50.608 100.481 51.088C101.081 51.56 101.381 52.184 101.381 52.96V53.128H99.5933V53.032C99.5933 52.336 99.0933 51.988 98.0933 51.988C97.5493 51.988 97.1533 52.104 96.9053 52.336C96.6573 52.568 96.5333 52.956 96.5333 53.5C96.5333 54.044 96.6573 54.432 96.9053 54.664C97.1533 54.888 97.5493 55 98.0933 55C99.0933 55 99.5933 54.652 99.5933 53.956V53.86H101.381V54.028C101.381 54.804 101.081 55.432 100.481 55.912C99.8813 56.384 99.0973 56.62 98.1293 56.62ZM106.647 55.888C105.759 55.888 105.067 55.644 104.571 55.156C104.075 54.66 103.827 53.984 103.827 53.128C103.827 52.28 104.083 51.608 104.595 51.112C105.115 50.616 105.823 50.368 106.719 50.368C107.343 50.368 107.855 50.504 108.255 50.776C108.663 51.04 108.915 51.428 109.011 51.94H109.107V50.488H110.787V55.624C110.787 57.648 109.647 58.66 107.367 58.66C106.383 58.66 105.607 58.452 105.039 58.036C104.479 57.62 104.199 57.036 104.199 56.284H105.999C105.999 56.628 106.095 56.86 106.287 56.98C106.487 57.1 106.887 57.16 107.487 57.16C108.079 57.16 108.475 57.068 108.675 56.884C108.883 56.7 108.987 56.32 108.987 55.744V54.388H108.891C108.787 54.852 108.547 55.22 108.171 55.492C107.803 55.756 107.295 55.888 106.647 55.888ZM106.023 52.204C105.767 52.38 105.639 52.688 105.639 53.128C105.639 53.568 105.767 53.88 106.023 54.064C106.279 54.248 106.695 54.34 107.271 54.34C107.855 54.34 108.287 54.252 108.567 54.076C108.847 53.892 108.987 53.596 108.987 53.188V53.056C108.987 52.656 108.847 52.368 108.567 52.192C108.295 52.016 107.871 51.928 107.295 51.928C106.711 51.928 106.287 52.02 106.023 52.204ZM113.542 56.5H111.742V50.488H113.41V52.084H113.518C113.606 51.564 113.818 51.148 114.154 50.836C114.498 50.524 114.958 50.368 115.534 50.368C116.174 50.368 116.65 50.56 116.962 50.944C117.274 51.328 117.43 51.836 117.43 52.468V53.464H115.63V52.84C115.63 52.504 115.554 52.264 115.402 52.12C115.25 51.968 114.994 51.892 114.634 51.892C114.242 51.892 113.962 51.984 113.794 52.168C113.626 52.352 113.542 52.636 113.542 53.02V56.5ZM119.882 49.876H118.082V48.46H119.882V49.876ZM119.882 56.5H118.082V50.488H119.882V56.5ZM123.512 56.62C122.592 56.62 121.876 56.34 121.364 55.78C120.86 55.22 120.608 54.46 120.608 53.5C120.608 52.532 120.852 51.768 121.34 51.208C121.836 50.648 122.528 50.368 123.416 50.368C124.104 50.368 124.644 50.524 125.036 50.836C125.428 51.14 125.676 51.556 125.78 52.084H125.888V48.46H127.688V56.5H126.008V54.832H125.912C125.68 56.024 124.88 56.62 123.512 56.62ZM122.432 53.5C122.432 54.036 122.564 54.416 122.828 54.64C123.1 54.864 123.532 54.976 124.124 54.976C124.716 54.976 125.156 54.864 125.444 54.64C125.74 54.416 125.888 54.048 125.888 53.536V53.44C125.888 52.928 125.74 52.564 125.444 52.348C125.156 52.124 124.716 52.012 124.124 52.012C123.532 52.012 123.1 52.124 122.828 52.348C122.564 52.572 122.432 52.956 122.432 53.5ZM134.728 56.5H133.24C131.736 56.5 130.984 55.776 130.984 54.328V51.976H130.036V50.488H130.984V49.324H132.784V50.488H134.728V51.976H132.784V54.124C132.784 54.42 132.844 54.62 132.964 54.724C133.092 54.828 133.32 54.88 133.648 54.88H134.728V56.5ZM137.202 56.5H135.402V50.488H137.07V52.084H137.178C137.266 51.564 137.478 51.148 137.814 50.836C138.158 50.524 138.618 50.368 139.194 50.368C139.834 50.368 140.31 50.56 140.622 50.944C140.934 51.328 141.09 51.836 141.09 52.468V53.464H139.29V52.84C139.29 52.504 139.214 52.264 139.062 52.12C138.91 51.968 138.654 51.892 138.294 51.892C137.902 51.892 137.622 51.984 137.454 52.168C137.286 52.352 137.202 52.636 137.202 53.02V56.5ZM143.59 56.62C142.942 56.62 142.434 56.48 142.066 56.2C141.698 55.912 141.514 55.516 141.514 55.012C141.514 54.1 142.162 53.576 143.458 53.44L146.038 53.176V52.948C146.038 52.564 145.942 52.304 145.75 52.168C145.558 52.024 145.218 51.952 144.73 51.952C144.266 51.952 143.934 52.024 143.734 52.168C143.542 52.304 143.446 52.54 143.446 52.876V52.924H141.634V52.888C141.634 52.136 141.926 51.528 142.51 51.064C143.094 50.6 143.878 50.368 144.862 50.368C145.838 50.368 146.574 50.6 147.07 51.064C147.566 51.528 147.814 52.164 147.814 52.972V56.5H146.134V55.12H146.038C145.894 55.592 145.614 55.96 145.198 56.224C144.782 56.488 144.246 56.62 143.59 56.62ZM143.326 54.892C143.326 55.196 143.586 55.348 144.106 55.348C144.738 55.348 145.21 55.264 145.522 55.096C145.842 54.92 146.014 54.624 146.038 54.208L143.95 54.448C143.534 54.48 143.326 54.628 143.326 54.892ZM151.414 56.62C150.494 56.62 149.778 56.34 149.266 55.78C148.762 55.22 148.51 54.46 148.51 53.5C148.51 52.532 148.754 51.768 149.242 51.208C149.738 50.648 150.43 50.368 151.318 50.368C152.006 50.368 152.546 50.524 152.938 50.836C153.33 51.14 153.578 51.556 153.682 52.084H153.79V48.46H155.59V56.5H153.91V54.832H153.814C153.582 56.024 152.782 56.62 151.414 56.62ZM150.334 53.5C150.334 54.036 150.466 54.416 150.73 54.64C151.002 54.864 151.434 54.976 152.026 54.976C152.618 54.976 153.058 54.864 153.346 54.64C153.642 54.416 153.79 54.048 153.79 53.536V53.44C153.79 52.928 153.642 52.564 153.346 52.348C153.058 52.124 152.618 52.012 152.026 52.012C151.434 52.012 151.002 52.124 150.73 52.348C150.466 52.572 150.334 52.956 150.334 53.5ZM158.343 49.876H156.543V48.46H158.343V49.876ZM158.343 56.5H156.543V50.488H158.343V56.5ZM161.085 56.5H159.285V50.488H160.953V52.336H161.061C161.149 51.776 161.393 51.308 161.793 50.932C162.201 50.556 162.773 50.368 163.509 50.368C164.301 50.368 164.901 50.592 165.309 51.04C165.725 51.48 165.933 52.052 165.933 52.756V56.5H164.133V53.356C164.133 52.868 164.017 52.52 163.785 52.312C163.561 52.096 163.177 51.988 162.633 51.988C162.073 51.988 161.673 52.104 161.433 52.336C161.201 52.568 161.085 52.944 161.085 53.464V56.5ZM169.483 55.888C168.595 55.888 167.903 55.644 167.407 55.156C166.911 54.66 166.663 53.984 166.663 53.128C166.663 52.28 166.919 51.608 167.431 51.112C167.951 50.616 168.659 50.368 169.555 50.368C170.179 50.368 170.691 50.504 171.091 50.776C171.499 51.04 171.751 51.428 171.847 51.94H171.943V50.488H173.623V55.624C173.623 57.648 172.483 58.66 170.203 58.66C169.219 58.66 168.443 58.452 167.875 58.036C167.315 57.62 167.035 57.036 167.035 56.284H168.835C168.835 56.628 168.931 56.86 169.123 56.98C169.323 57.1 169.723 57.16 170.323 57.16C170.915 57.16 171.311 57.068 171.511 56.884C171.719 56.7 171.823 56.32 171.823 55.744V54.388H171.727C171.623 54.852 171.383 55.22 171.007 55.492C170.639 55.756 170.131 55.888 169.483 55.888ZM168.859 52.204C168.603 52.38 168.475 52.688 168.475 53.128C168.475 53.568 168.603 53.88 168.859 54.064C169.115 54.248 169.531 54.34 170.107 54.34C170.691 54.34 171.123 54.252 171.403 54.076C171.683 53.892 171.823 53.596 171.823 53.188V53.056C171.823 52.656 171.683 52.368 171.403 52.192C171.131 52.016 170.707 51.928 170.131 51.928C169.547 51.928 169.123 52.02 168.859 52.204ZM175.166 58.192H174.53V57.076H175.118C175.246 57.076 175.338 57.052 175.394 57.004C175.45 56.956 175.478 56.856 175.478 56.704V56.5H174.458V54.4H176.774V56.692C176.774 57.692 176.238 58.192 175.166 58.192ZM183.7 56.5H182.212C180.708 56.5 179.956 55.776 179.956 54.328V51.976H179.008V50.488H179.956V49.324H181.756V50.488H183.7V51.976H181.756V54.124C181.756 54.42 181.816 54.62 181.936 54.724C182.064 54.828 182.292 54.88 182.62 54.88H183.7V56.5ZM187.567 56.62C186.527 56.62 185.703 56.36 185.095 55.84C184.495 55.312 184.195 54.532 184.195 53.5C184.195 52.548 184.499 51.788 185.107 51.22C185.723 50.652 186.531 50.368 187.531 50.368C188.531 50.368 189.327 50.624 189.919 51.136C190.511 51.64 190.807 52.356 190.807 53.284C190.807 53.396 190.791 53.588 190.759 53.86H185.863C185.887 54.332 186.023 54.672 186.271 54.88C186.519 55.08 186.931 55.18 187.507 55.18C188.027 55.18 188.395 55.116 188.611 54.988C188.835 54.852 188.947 54.652 188.947 54.388V54.268H190.747V54.4C190.747 55.056 190.455 55.592 189.871 56.008C189.287 56.416 188.519 56.62 187.567 56.62ZM188.659 52.048C188.411 51.864 188.023 51.772 187.495 51.772C186.967 51.772 186.575 51.864 186.319 52.048C186.071 52.232 185.927 52.52 185.887 52.912H189.079C189.055 52.512 188.915 52.224 188.659 52.048ZM194.774 56.62C193.742 56.62 192.918 56.34 192.302 55.78C191.694 55.212 191.39 54.452 191.39 53.5C191.39 52.54 191.694 51.78 192.302 51.22C192.918 50.652 193.742 50.368 194.774 50.368C195.742 50.368 196.526 50.608 197.126 51.088C197.726 51.56 198.026 52.184 198.026 52.96V53.128H196.238V53.032C196.238 52.336 195.738 51.988 194.738 51.988C194.194 51.988 193.798 52.104 193.55 52.336C193.302 52.568 193.178 52.956 193.178 53.5C193.178 54.044 193.302 54.432 193.55 54.664C193.798 54.888 194.194 55 194.738 55C195.738 55 196.238 54.652 196.238 53.956V53.86H198.026V54.028C198.026 54.804 197.726 55.432 197.126 55.912C196.526 56.384 195.742 56.62 194.774 56.62ZM200.6 56.5H198.8V48.46H200.6V52.324H200.696C200.8 51.756 201.052 51.288 201.452 50.92C201.852 50.552 202.412 50.368 203.132 50.368C203.916 50.368 204.512 50.596 204.92 51.052C205.336 51.5 205.544 52.088 205.544 52.816V56.5H203.744V53.356C203.744 52.852 203.624 52.5 203.384 52.3C203.152 52.092 202.752 51.988 202.184 51.988C201.6 51.988 201.188 52.108 200.948 52.348C200.716 52.588 200.6 52.968 200.6 53.488V56.5ZM208.253 56.5H206.453V50.488H208.121V52.336H208.229C208.317 51.776 208.561 51.308 208.961 50.932C209.369 50.556 209.941 50.368 210.677 50.368C211.469 50.368 212.069 50.592 212.477 51.04C212.893 51.48 213.101 52.052 213.101 52.756V56.5H211.301V53.356C211.301 52.868 211.185 52.52 210.953 52.312C210.729 52.096 210.345 51.988 209.801 51.988C209.241 51.988 208.841 52.104 208.601 52.336C208.369 52.568 208.253 52.944 208.253 53.464V56.5ZM219.699 55.768C219.075 56.336 218.247 56.62 217.215 56.62C216.183 56.62 215.351 56.336 214.719 55.768C214.095 55.2 213.783 54.444 213.783 53.5C213.783 52.548 214.095 51.788 214.719 51.22C215.351 50.652 216.183 50.368 217.215 50.368C218.247 50.368 219.075 50.652 219.699 51.22C220.331 51.788 220.647 52.548 220.647 53.5C220.647 54.444 220.331 55.2 219.699 55.768ZM215.943 54.664C216.191 54.904 216.615 55.024 217.215 55.024C217.815 55.024 218.239 54.904 218.487 54.664C218.735 54.424 218.859 54.036 218.859 53.5C218.859 52.964 218.731 52.572 218.475 52.324C218.227 52.076 217.807 51.952 217.215 51.952C216.615 51.952 216.191 52.076 215.943 52.324C215.695 52.564 215.571 52.956 215.571 53.5C215.571 54.036 215.695 54.424 215.943 54.664ZM223.182 56.5H221.382V48.46H223.182V56.5ZM229.813 55.768C229.189 56.336 228.361 56.62 227.329 56.62C226.297 56.62 225.465 56.336 224.833 55.768C224.209 55.2 223.897 54.444 223.897 53.5C223.897 52.548 224.209 51.788 224.833 51.22C225.465 50.652 226.297 50.368 227.329 50.368C228.361 50.368 229.189 50.652 229.813 51.22C230.445 51.788 230.761 52.548 230.761 53.5C230.761 54.444 230.445 55.2 229.813 55.768ZM226.057 54.664C226.305 54.904 226.729 55.024 227.329 55.024C227.929 55.024 228.353 54.904 228.601 54.664C228.849 54.424 228.973 54.036 228.973 53.5C228.973 52.964 228.845 52.572 228.589 52.324C228.341 52.076 227.921 51.952 227.329 51.952C226.729 51.952 226.305 52.076 226.057 52.324C225.809 52.564 225.685 52.956 225.685 53.5C225.685 54.036 225.809 54.424 226.057 54.664ZM234.136 55.888C233.248 55.888 232.556 55.644 232.06 55.156C231.564 54.66 231.316 53.984 231.316 53.128C231.316 52.28 231.572 51.608 232.084 51.112C232.604 50.616 233.312 50.368 234.208 50.368C234.832 50.368 235.344 50.504 235.744 50.776C236.152 51.04 236.404 51.428 236.5 51.94H236.596V50.488H238.276V55.624C238.276 57.648 237.136 58.66 234.856 58.66C233.872 58.66 233.096 58.452 232.528 58.036C231.968 57.62 231.688 57.036 231.688 56.284H233.488C233.488 56.628 233.584 56.86 233.776 56.98C233.976 57.1 234.376 57.16 234.976 57.16C235.568 57.16 235.964 57.068 236.164 56.884C236.372 56.7 236.476 56.32 236.476 55.744V54.388H236.38C236.276 54.852 236.036 55.22 235.66 55.492C235.292 55.756 234.784 55.888 234.136 55.888ZM233.512 52.204C233.256 52.38 233.128 52.688 233.128 53.128C233.128 53.568 233.256 53.88 233.512 54.064C233.768 54.248 234.184 54.34 234.76 54.34C235.344 54.34 235.776 54.252 236.056 54.076C236.336 53.892 236.476 53.596 236.476 53.188V53.056C236.476 52.656 236.336 52.368 236.056 52.192C235.784 52.016 235.36 51.928 234.784 51.928C234.2 51.928 233.776 52.02 233.512 52.204ZM240.382 58.54H239.398V56.908H240.874C241.258 56.908 241.51 56.78 241.63 56.524L238.69 50.488H240.73L242.002 53.236L242.506 54.652H242.626L243.106 53.224L244.246 50.488H246.25L243.274 56.932C242.994 57.548 242.638 57.968 242.206 58.192C241.774 58.424 241.166 58.54 240.382 58.54ZM251.727 56.62C250.687 56.62 249.863 56.36 249.255 55.84C248.655 55.312 248.355 54.532 248.355 53.5C248.355 52.548 248.659 51.788 249.267 51.22C249.883 50.652 250.691 50.368 251.691 50.368C252.691 50.368 253.487 50.624 254.079 51.136C254.671 51.64 254.967 52.356 254.967 53.284C254.967 53.396 254.951 53.588 254.919 53.86H250.023C250.047 54.332 250.183 54.672 250.431 54.88C250.679 55.08 251.091 55.18 251.667 55.18C252.187 55.18 252.555 55.116 252.771 54.988C252.995 54.852 253.107 54.652 253.107 54.388V54.268H254.907V54.4C254.907 55.056 254.615 55.592 254.031 56.008C253.447 56.416 252.679 56.62 251.727 56.62ZM252.819 52.048C252.571 51.864 252.183 51.772 251.655 51.772C251.127 51.772 250.735 51.864 250.479 52.048C250.231 52.232 250.087 52.52 250.047 52.912H253.239C253.215 52.512 253.075 52.224 252.819 52.048ZM257.374 56.5H255.202L257.602 53.56V53.464L255.202 50.488H257.398L258.994 52.516H259.09L260.638 50.488H262.81L260.41 53.428V53.536L262.81 56.5H260.614L259.018 54.484H258.922L257.374 56.5ZM266.434 56.62C265.394 56.62 264.57 56.36 263.962 55.84C263.362 55.312 263.062 54.532 263.062 53.5C263.062 52.548 263.366 51.788 263.974 51.22C264.59 50.652 265.398 50.368 266.398 50.368C267.398 50.368 268.194 50.624 268.786 51.136C269.378 51.64 269.674 52.356 269.674 53.284C269.674 53.396 269.658 53.588 269.626 53.86H264.73C264.754 54.332 264.89 54.672 265.138 54.88C265.386 55.08 265.798 55.18 266.374 55.18C266.894 55.18 267.262 55.116 267.478 54.988C267.702 54.852 267.814 54.652 267.814 54.388V54.268H269.614V54.4C269.614 55.056 269.322 55.592 268.738 56.008C268.154 56.416 267.386 56.62 266.434 56.62ZM267.526 52.048C267.278 51.864 266.89 51.772 266.362 51.772C265.834 51.772 265.442 51.864 265.186 52.048C264.938 52.232 264.794 52.52 264.754 52.912H267.946C267.922 52.512 267.782 52.224 267.526 52.048ZM273.641 56.62C272.609 56.62 271.785 56.34 271.169 55.78C270.561 55.212 270.257 54.452 270.257 53.5C270.257 52.54 270.561 51.78 271.169 51.22C271.785 50.652 272.609 50.368 273.641 50.368C274.609 50.368 275.393 50.608 275.993 51.088C276.593 51.56 276.893 52.184 276.893 52.96V53.128H275.105V53.032C275.105 52.336 274.605 51.988 273.605 51.988C273.061 51.988 272.665 52.104 272.417 52.336C272.169 52.568 272.045 52.956 272.045 53.5C272.045 54.044 272.169 54.432 272.417 54.664C272.665 54.888 273.061 55 273.605 55C274.605 55 275.105 54.652 275.105 53.956V53.86H276.893V54.028C276.893 54.804 276.593 55.432 275.993 55.912C275.393 56.384 274.609 56.62 273.641 56.62ZM280.152 56.62C279.336 56.62 278.716 56.4 278.292 55.96C277.868 55.512 277.656 54.936 277.656 54.232V50.488H279.456V53.632C279.456 54.12 279.572 54.472 279.804 54.688C280.044 54.904 280.444 55.012 281.004 55.012C281.58 55.012 281.988 54.896 282.228 54.664C282.476 54.432 282.6 54.056 282.6 53.536V50.488H284.4V56.5H282.72V54.664H282.624C282.536 55.224 282.284 55.692 281.868 56.068C281.46 56.436 280.888 56.62 280.152 56.62ZM289.556 56.5H288.068C286.564 56.5 285.812 55.776 285.812 54.328V51.976H284.864V50.488H285.812V49.324H287.612V50.488H289.556V51.976H287.612V54.124C287.612 54.42 287.672 54.62 287.792 54.724C287.92 54.828 288.148 54.88 288.476 54.88H289.556V56.5ZM293.422 56.62C292.382 56.62 291.558 56.36 290.95 55.84C290.35 55.312 290.05 54.532 290.05 53.5C290.05 52.548 290.354 51.788 290.962 51.22C291.578 50.652 292.386 50.368 293.386 50.368C294.386 50.368 295.182 50.624 295.774 51.136C296.366 51.64 296.662 52.356 296.662 53.284C296.662 53.396 296.646 53.588 296.614 53.86H291.718C291.742 54.332 291.878 54.672 292.126 54.88C292.374 55.08 292.786 55.18 293.362 55.18C293.882 55.18 294.25 55.116 294.466 54.988C294.69 54.852 294.802 54.652 294.802 54.388V54.268H296.602V54.4C296.602 55.056 296.31 55.592 295.726 56.008C295.142 56.416 294.374 56.62 293.422 56.62ZM294.514 52.048C294.266 51.864 293.878 51.772 293.35 51.772C292.822 51.772 292.43 51.864 292.174 52.048C291.926 52.232 291.782 52.52 291.742 52.912H294.934C294.91 52.512 294.77 52.224 294.514 52.048ZM300.461 56.62C299.453 56.62 298.677 56.432 298.133 56.056C297.589 55.672 297.317 55.132 297.317 54.436V54.4H299.117V54.508C299.117 54.772 299.213 54.952 299.405 55.048C299.597 55.144 299.953 55.192 300.473 55.192C300.937 55.192 301.249 55.152 301.409 55.072C301.577 54.992 301.661 54.86 301.661 54.676C301.661 54.508 301.601 54.392 301.481 54.328C301.369 54.256 301.133 54.196 300.773 54.148L299.081 53.944C297.833 53.808 297.209 53.248 297.209 52.264C297.209 51.704 297.457 51.248 297.953 50.896C298.449 50.544 299.189 50.368 300.173 50.368C301.165 50.368 301.925 50.556 302.453 50.932C302.989 51.3 303.257 51.848 303.257 52.576V52.612H301.457V52.54C301.457 52.276 301.365 52.088 301.181 51.976C300.997 51.856 300.641 51.796 300.113 51.796C299.673 51.796 299.373 51.836 299.213 51.916C299.061 51.996 298.985 52.136 298.985 52.336C298.985 52.496 299.049 52.616 299.177 52.696C299.305 52.768 299.561 52.828 299.945 52.876L301.229 53.032C302.021 53.12 302.585 53.304 302.921 53.584C303.265 53.856 303.437 54.244 303.437 54.748C303.437 55.316 303.169 55.772 302.633 56.116C302.105 56.452 301.381 56.62 300.461 56.62ZM310.251 56.5H308.763C307.259 56.5 306.507 55.776 306.507 54.328V51.976H305.559V50.488H306.507V49.324H308.307V50.488H310.251V51.976H308.307V54.124C308.307 54.42 308.367 54.62 308.487 54.724C308.615 54.828 308.843 54.88 309.171 54.88H310.251V56.5ZM312.725 56.5H310.925V48.46H312.725V52.324H312.821C312.925 51.756 313.177 51.288 313.577 50.92C313.977 50.552 314.537 50.368 315.257 50.368C316.041 50.368 316.637 50.596 317.045 51.052C317.461 51.5 317.669 52.088 317.669 52.816V56.5H315.869V53.356C315.869 52.852 315.749 52.5 315.509 52.3C315.277 52.092 314.877 51.988 314.309 51.988C313.725 51.988 313.313 52.108 313.073 52.348C312.841 52.588 312.725 52.968 312.725 53.488V56.5ZM321.77 56.62C320.73 56.62 319.906 56.36 319.298 55.84C318.698 55.312 318.398 54.532 318.398 53.5C318.398 52.548 318.702 51.788 319.31 51.22C319.926 50.652 320.734 50.368 321.734 50.368C322.734 50.368 323.53 50.624 324.122 51.136C324.714 51.64 325.01 52.356 325.01 53.284C325.01 53.396 324.994 53.588 324.962 53.86H320.066C320.09 54.332 320.226 54.672 320.474 54.88C320.722 55.08 321.134 55.18 321.71 55.18C322.23 55.18 322.598 55.116 322.814 54.988C323.038 54.852 323.15 54.652 323.15 54.388V54.268H324.95V54.4C324.95 55.056 324.658 55.592 324.074 56.008C323.49 56.416 322.722 56.62 321.77 56.62ZM322.862 52.048C322.614 51.864 322.226 51.772 321.698 51.772C321.17 51.772 320.778 51.864 320.522 52.048C320.274 52.232 320.13 52.52 320.09 52.912H323.282C323.258 52.512 323.118 52.224 322.862 52.048ZM18.28 76.54H16.48V68.488H18.148V70.132H18.268C18.492 68.956 19.292 68.368 20.668 68.368C21.58 68.368 22.288 68.648 22.792 69.208C23.296 69.768 23.548 70.532 23.548 71.5C23.548 72.468 23.3 73.232 22.804 73.792C22.316 74.344 21.624 74.62 20.728 74.62C20.048 74.62 19.508 74.468 19.108 74.164C18.716 73.852 18.468 73.424 18.364 72.88H18.28V76.54ZM18.28 71.584C18.28 72.08 18.424 72.436 18.712 72.652C19.008 72.868 19.448 72.976 20.032 72.976C20.624 72.976 21.052 72.864 21.316 72.64C21.588 72.416 21.724 72.036 21.724 71.5C21.724 70.964 21.588 70.584 21.316 70.36C21.052 70.136 20.628 70.024 20.044 70.024C19.444 70.024 19 70.14 18.712 70.372C18.424 70.596 18.28 70.968 18.28 71.488V71.584ZM26.0964 74.5H24.2964V66.46H26.0964V74.5ZM28.8866 74.62C28.2386 74.62 27.7306 74.48 27.3626 74.2C26.9946 73.912 26.8106 73.516 26.8106 73.012C26.8106 72.1 27.4586 71.576 28.7546 71.44L31.3346 71.176V70.948C31.3346 70.564 31.2386 70.304 31.0466 70.168C30.8546 70.024 30.5146 69.952 30.0266 69.952C29.5626 69.952 29.2306 70.024 29.0306 70.168C28.8386 70.304 28.7426 70.54 28.7426 70.876V70.924H26.9306V70.888C26.9306 70.136 27.2226 69.528 27.8066 69.064C28.3906 68.6 29.1746 68.368 30.1586 68.368C31.1346 68.368 31.8706 68.6 32.3666 69.064C32.8626 69.528 33.1106 70.164 33.1106 70.972V74.5H31.4306V73.12H31.3346C31.1906 73.592 30.9106 73.96 30.4946 74.224C30.0786 74.488 29.5426 74.62 28.8866 74.62ZM28.6226 72.892C28.6226 73.196 28.8826 73.348 29.4026 73.348C30.0346 73.348 30.5066 73.264 30.8186 73.096C31.1386 72.92 31.3106 72.624 31.3346 72.208L29.2466 72.448C28.8306 72.48 28.6226 72.628 28.6226 72.892ZM35.823 74.5H34.023V68.488H35.691V70.336H35.799C35.887 69.776 36.131 69.308 36.531 68.932C36.939 68.556 37.511 68.368 38.247 68.368C39.039 68.368 39.639 68.592 40.047 69.04C40.463 69.48 40.671 70.052 40.671 70.756V74.5H38.871V71.356C38.871 70.868 38.755 70.52 38.523 70.312C38.299 70.096 37.915 69.988 37.371 69.988C36.811 69.988 36.411 70.104 36.171 70.336C35.939 70.568 35.823 70.944 35.823 71.464V74.5ZM42.1696 76.192H41.5336V75.076H42.1216C42.2496 75.076 42.3416 75.052 42.3976 75.004C42.4536 74.956 42.4816 74.856 42.4816 74.704V74.5H41.4616V72.4H43.7776V74.692C43.7776 75.692 43.2416 76.192 42.1696 76.192ZM49.8763 74.5H47.6323L45.9883 68.488H47.8483L48.5563 71.236L48.8083 73.108H48.9283L49.4083 71.056L50.3203 68.488H52.6363L53.5363 71.056L54.0163 73.108H54.1363L54.4003 71.236L55.0963 68.488H56.9323L55.2283 74.5H52.9843L51.9523 71.608L51.5083 69.952H51.3763L50.9203 71.608L49.8763 74.5ZM59.2136 74.5H57.4136V66.46H59.2136V70.324H59.3096C59.4136 69.756 59.6656 69.288 60.0656 68.92C60.4656 68.552 61.0256 68.368 61.7456 68.368C62.5296 68.368 63.1256 68.596 63.5336 69.052C63.9496 69.5 64.1576 70.088 64.1576 70.816V74.5H62.3576V71.356C62.3576 70.852 62.2376 70.5 61.9976 70.3C61.7656 70.092 61.3656 69.988 60.7976 69.988C60.2136 69.988 59.8016 70.108 59.5616 70.348C59.3296 70.588 59.2136 70.968 59.2136 71.488V74.5ZM66.8659 67.876H65.0659V66.46H66.8659V67.876ZM66.8659 74.5H65.0659V68.488H66.8659V74.5ZM69.6081 74.5H67.8081V66.46H69.6081V74.5ZM73.7423 74.62C72.7023 74.62 71.8783 74.36 71.2703 73.84C70.6703 73.312 70.3703 72.532 70.3703 71.5C70.3703 70.548 70.6743 69.788 71.2823 69.22C71.8983 68.652 72.7063 68.368 73.7063 68.368C74.7063 68.368 75.5023 68.624 76.0943 69.136C76.6863 69.64 76.9823 70.356 76.9823 71.284C76.9823 71.396 76.9663 71.588 76.9343 71.86H72.0383C72.0623 72.332 72.1983 72.672 72.4463 72.88C72.6943 73.08 73.1063 73.18 73.6823 73.18C74.2023 73.18 74.5703 73.116 74.7863 72.988C75.0103 72.852 75.1223 72.652 75.1223 72.388V72.268H76.9223V72.4C76.9223 73.056 76.6303 73.592 76.0463 74.008C75.4623 74.416 74.6943 74.62 73.7423 74.62ZM74.8343 70.048C74.5863 69.864 74.1983 69.772 73.6703 69.772C73.1423 69.772 72.7503 69.864 72.4943 70.048C72.2463 70.232 72.1023 70.52 72.0623 70.912H75.2543C75.2303 70.512 75.0903 70.224 74.8343 70.048ZM83.0052 74.5H80.7612L79.1172 68.488H80.9772L81.6852 71.236L81.9372 73.108H82.0572L82.5372 71.056L83.4492 68.488H85.7652L86.6652 71.056L87.1452 73.108H87.2652L87.5292 71.236L88.2252 68.488H90.0612L88.3572 74.5H86.1132L85.0812 71.608L84.6372 69.952H84.5052L84.0492 71.608L83.0052 74.5ZM92.3425 67.876H90.5425V66.46H92.3425V67.876ZM92.3425 74.5H90.5425V68.488H92.3425V74.5ZM96.3207 74.62C95.3127 74.62 94.5367 74.432 93.9927 74.056C93.4487 73.672 93.1767 73.132 93.1767 72.436V72.4H94.9767V72.508C94.9767 72.772 95.0727 72.952 95.2647 73.048C95.4567 73.144 95.8127 73.192 96.3327 73.192C96.7967 73.192 97.1087 73.152 97.2687 73.072C97.4367 72.992 97.5207 72.86 97.5207 72.676C97.5207 72.508 97.4607 72.392 97.3407 72.328C97.2287 72.256 96.9927 72.196 96.6327 72.148L94.9407 71.944C93.6927 71.808 93.0687 71.248 93.0687 70.264C93.0687 69.704 93.3167 69.248 93.8127 68.896C94.3087 68.544 95.0487 68.368 96.0327 68.368C97.0247 68.368 97.7847 68.556 98.3127 68.932C98.8487 69.3 99.1167 69.848 99.1167 70.576V70.612H97.3167V70.54C97.3167 70.276 97.2247 70.088 97.0407 69.976C96.8567 69.856 96.5007 69.796 95.9727 69.796C95.5327 69.796 95.2327 69.836 95.0727 69.916C94.9207 69.996 94.8447 70.136 94.8447 70.336C94.8447 70.496 94.9087 70.616 95.0367 70.696C95.1647 70.768 95.4207 70.828 95.8047 70.876L97.0887 71.032C97.8807 71.12 98.4447 71.304 98.7807 71.584C99.1247 71.856 99.2967 72.244 99.2967 72.748C99.2967 73.316 99.0287 73.772 98.4927 74.116C97.9647 74.452 97.2407 74.62 96.3207 74.62ZM102.711 74.62C101.791 74.62 101.075 74.34 100.563 73.78C100.059 73.22 99.807 72.46 99.807 71.5C99.807 70.532 100.051 69.768 100.539 69.208C101.035 68.648 101.727 68.368 102.615 68.368C103.303 68.368 103.843 68.524 104.235 68.836C104.627 69.14 104.875 69.556 104.979 70.084H105.087V66.46H106.887V74.5H105.207V72.832H105.111C104.879 74.024 104.079 74.62 102.711 74.62ZM101.631 71.5C101.631 72.036 101.763 72.416 102.027 72.64C102.299 72.864 102.731 72.976 103.323 72.976C103.915 72.976 104.355 72.864 104.643 72.64C104.939 72.416 105.087 72.048 105.087 71.536V71.44C105.087 70.928 104.939 70.564 104.643 70.348C104.355 70.124 103.915 70.012 103.323 70.012C102.731 70.012 102.299 70.124 102.027 70.348C101.763 70.572 101.631 70.956 101.631 71.5ZM113.527 73.768C112.903 74.336 112.075 74.62 111.043 74.62C110.011 74.62 109.179 74.336 108.547 73.768C107.923 73.2 107.611 72.444 107.611 71.5C107.611 70.548 107.923 69.788 108.547 69.22C109.179 68.652 110.011 68.368 111.043 68.368C112.075 68.368 112.903 68.652 113.527 69.22C114.159 69.788 114.475 70.548 114.475 71.5C114.475 72.444 114.159 73.2 113.527 73.768ZM109.771 72.664C110.019 72.904 110.443 73.024 111.043 73.024C111.643 73.024 112.067 72.904 112.315 72.664C112.563 72.424 112.687 72.036 112.687 71.5C112.687 70.964 112.559 70.572 112.303 70.324C112.055 70.076 111.635 69.952 111.043 69.952C110.443 69.952 110.019 70.076 109.771 70.324C109.523 70.564 109.399 70.956 109.399 71.5C109.399 72.036 109.523 72.424 109.771 72.664ZM117.01 74.5H115.21V68.488H116.878V70.312H116.974C117.054 69.744 117.274 69.28 117.634 68.92C117.994 68.552 118.526 68.368 119.23 68.368C119.894 68.368 120.414 68.548 120.79 68.908C121.166 69.268 121.39 69.744 121.462 70.336H121.57C121.65 69.76 121.874 69.288 122.242 68.92C122.61 68.552 123.154 68.368 123.874 68.368C124.618 68.368 125.186 68.588 125.578 69.028C125.978 69.468 126.178 70.044 126.178 70.756V74.5H124.378V71.356C124.378 70.852 124.274 70.5 124.066 70.3C123.866 70.092 123.51 69.988 122.998 69.988C122.462 69.988 122.094 70.1 121.894 70.324C121.694 70.548 121.594 70.928 121.594 71.464V74.5H119.794V71.356C119.794 70.852 119.69 70.5 119.482 70.3C119.282 70.092 118.926 69.988 118.414 69.988C117.878 69.988 117.51 70.1 117.31 70.324C117.11 70.548 117.01 70.928 117.01 71.464V74.5ZM131.633 74.62C130.713 74.62 129.997 74.34 129.485 73.78C128.981 73.22 128.729 72.46 128.729 71.5C128.729 70.532 128.973 69.768 129.461 69.208C129.957 68.648 130.649 68.368 131.537 68.368C132.225 68.368 132.765 68.524 133.157 68.836C133.549 69.14 133.797 69.556 133.901 70.084H134.009V66.46H135.809V74.5H134.129V72.832H134.033C133.801 74.024 133.001 74.62 131.633 74.62ZM130.553 71.5C130.553 72.036 130.685 72.416 130.949 72.64C131.221 72.864 131.653 72.976 132.245 72.976C132.837 72.976 133.277 72.864 133.565 72.64C133.861 72.416 134.009 72.048 134.009 71.536V71.44C134.009 70.928 133.861 70.564 133.565 70.348C133.277 70.124 132.837 70.012 132.245 70.012C131.653 70.012 131.221 70.124 130.949 70.348C130.685 70.572 130.553 70.956 130.553 71.5ZM139.953 74.62C138.913 74.62 138.089 74.36 137.481 73.84C136.881 73.312 136.581 72.532 136.581 71.5C136.581 70.548 136.885 69.788 137.493 69.22C138.109 68.652 138.917 68.368 139.917 68.368C140.917 68.368 141.713 68.624 142.305 69.136C142.897 69.64 143.193 70.356 143.193 71.284C143.193 71.396 143.177 71.588 143.145 71.86H138.249C138.273 72.332 138.409 72.672 138.657 72.88C138.905 73.08 139.317 73.18 139.893 73.18C140.413 73.18 140.781 73.116 140.997 72.988C141.221 72.852 141.333 72.652 141.333 72.388V72.268H143.133V72.4C143.133 73.056 142.841 73.592 142.257 74.008C141.673 74.416 140.905 74.62 139.953 74.62ZM141.045 70.048C140.797 69.864 140.409 69.772 139.881 69.772C139.353 69.772 138.961 69.864 138.705 70.048C138.457 70.232 138.313 70.52 138.273 70.912H141.465C141.441 70.512 141.301 70.224 141.045 70.048ZM146.237 74.5H144.437V69.976H143.585V68.488H144.473C144.569 67.864 144.881 67.372 145.409 67.012C145.945 66.644 146.665 66.46 147.569 66.46H148.097V67.768H147.281C146.865 67.768 146.569 67.82 146.393 67.924C146.217 68.02 146.141 68.208 146.165 68.488H148.097V69.976H146.237V74.5ZM150.497 67.876H148.697V66.46H150.497V67.876ZM150.497 74.5H148.697V68.488H150.497V74.5ZM153.245 74.5H151.445V68.488H153.113V70.336H153.221C153.309 69.776 153.553 69.308 153.953 68.932C154.361 68.556 154.933 68.368 155.669 68.368C156.461 68.368 157.061 68.592 157.469 69.04C157.885 69.48 158.093 70.052 158.093 70.756V74.5H156.293V71.356C156.293 70.868 156.177 70.52 155.945 70.312C155.721 70.096 155.337 69.988 154.793 69.988C154.233 69.988 153.833 70.104 153.593 70.336C153.361 70.568 153.245 70.944 153.245 71.464V74.5ZM162.195 74.62C161.155 74.62 160.331 74.36 159.723 73.84C159.123 73.312 158.823 72.532 158.823 71.5C158.823 70.548 159.127 69.788 159.735 69.22C160.351 68.652 161.159 68.368 162.159 68.368C163.159 68.368 163.955 68.624 164.547 69.136C165.139 69.64 165.435 70.356 165.435 71.284C165.435 71.396 165.419 71.588 165.387 71.86H160.491C160.515 72.332 160.651 72.672 160.899 72.88C161.147 73.08 161.559 73.18 162.135 73.18C162.655 73.18 163.023 73.116 163.239 72.988C163.463 72.852 163.575 72.652 163.575 72.388V72.268H165.375V72.4C165.375 73.056 165.083 73.592 164.499 74.008C163.915 74.416 163.147 74.62 162.195 74.62ZM163.287 70.048C163.039 69.864 162.651 69.772 162.123 69.772C161.595 69.772 161.203 69.864 160.947 70.048C160.699 70.232 160.555 70.52 160.515 70.912H163.707C163.683 70.512 163.543 70.224 163.287 70.048ZM169.235 74.62C168.227 74.62 167.451 74.432 166.907 74.056C166.363 73.672 166.091 73.132 166.091 72.436V72.4H167.891V72.508C167.891 72.772 167.987 72.952 168.179 73.048C168.371 73.144 168.727 73.192 169.247 73.192C169.711 73.192 170.023 73.152 170.183 73.072C170.351 72.992 170.435 72.86 170.435 72.676C170.435 72.508 170.375 72.392 170.255 72.328C170.143 72.256 169.907 72.196 169.547 72.148L167.855 71.944C166.607 71.808 165.983 71.248 165.983 70.264C165.983 69.704 166.231 69.248 166.727 68.896C167.223 68.544 167.963 68.368 168.947 68.368C169.939 68.368 170.699 68.556 171.227 68.932C171.763 69.3 172.031 69.848 172.031 70.576V70.612H170.231V70.54C170.231 70.276 170.139 70.088 169.955 69.976C169.771 69.856 169.415 69.796 168.887 69.796C168.447 69.796 168.147 69.836 167.987 69.916C167.835 69.996 167.759 70.136 167.759 70.336C167.759 70.496 167.823 70.616 167.951 70.696C168.079 70.768 168.335 70.828 168.719 70.876L170.003 71.032C170.795 71.12 171.359 71.304 171.695 71.584C172.039 71.856 172.211 72.244 172.211 72.748C172.211 73.316 171.943 73.772 171.407 74.116C170.879 74.452 170.155 74.62 169.235 74.62ZM179.025 74.5H177.537C176.033 74.5 175.281 73.776 175.281 72.328V69.976H174.333V68.488H175.281V67.324H177.081V68.488H179.025V69.976H177.081V72.124C177.081 72.42 177.141 72.62 177.261 72.724C177.389 72.828 177.617 72.88 177.945 72.88H179.025V74.5ZM181.499 74.5H179.699V66.46H181.499V70.324H181.595C181.699 69.756 181.951 69.288 182.351 68.92C182.751 68.552 183.311 68.368 184.031 68.368C184.815 68.368 185.411 68.596 185.819 69.052C186.235 69.5 186.443 70.088 186.443 70.816V74.5H184.643V71.356C184.643 70.852 184.523 70.5 184.283 70.3C184.051 70.092 183.651 69.988 183.083 69.988C182.499 69.988 182.087 70.108 181.847 70.348C181.615 70.588 181.499 70.968 181.499 71.488V74.5ZM190.543 74.62C189.503 74.62 188.679 74.36 188.071 73.84C187.471 73.312 187.171 72.532 187.171 71.5C187.171 70.548 187.475 69.788 188.083 69.22C188.699 68.652 189.507 68.368 190.507 68.368C191.507 68.368 192.303 68.624 192.895 69.136C193.487 69.64 193.783 70.356 193.783 71.284C193.783 71.396 193.767 71.588 193.735 71.86H188.839C188.863 72.332 188.999 72.672 189.247 72.88C189.495 73.08 189.907 73.18 190.483 73.18C191.003 73.18 191.371 73.116 191.587 72.988C191.811 72.852 191.923 72.652 191.923 72.388V72.268H193.723V72.4C193.723 73.056 193.431 73.592 192.847 74.008C192.263 74.416 191.495 74.62 190.543 74.62ZM191.635 70.048C191.387 69.864 190.999 69.772 190.471 69.772C189.943 69.772 189.551 69.864 189.295 70.048C189.047 70.232 188.903 70.52 188.863 70.912H192.055C192.031 70.512 191.891 70.224 191.635 70.048ZM199.602 74.62C198.57 74.62 197.746 74.34 197.13 73.78C196.522 73.212 196.218 72.452 196.218 71.5C196.218 70.54 196.522 69.78 197.13 69.22C197.746 68.652 198.57 68.368 199.602 68.368C200.57 68.368 201.354 68.608 201.954 69.088C202.554 69.56 202.854 70.184 202.854 70.96V71.128H201.066V71.032C201.066 70.336 200.566 69.988 199.566 69.988C199.022 69.988 198.626 70.104 198.378 70.336C198.13 70.568 198.006 70.956 198.006 71.5C198.006 72.044 198.13 72.432 198.378 72.664C198.626 72.888 199.022 73 199.566 73C200.566 73 201.066 72.652 201.066 71.956V71.86H202.854V72.028C202.854 72.804 202.554 73.432 201.954 73.912C201.354 74.384 200.57 74.62 199.602 74.62ZM209.316 73.768C208.692 74.336 207.864 74.62 206.832 74.62C205.8 74.62 204.968 74.336 204.336 73.768C203.712 73.2 203.4 72.444 203.4 71.5C203.4 70.548 203.712 69.788 204.336 69.22C204.968 68.652 205.8 68.368 206.832 68.368C207.864 68.368 208.692 68.652 209.316 69.22C209.948 69.788 210.264 70.548 210.264 71.5C210.264 72.444 209.948 73.2 209.316 73.768ZM205.56 72.664C205.808 72.904 206.232 73.024 206.832 73.024C207.432 73.024 207.856 72.904 208.104 72.664C208.352 72.424 208.476 72.036 208.476 71.5C208.476 70.964 208.348 70.572 208.092 70.324C207.844 70.076 207.424 69.952 206.832 69.952C206.232 69.952 205.808 70.076 205.56 70.324C205.312 70.564 205.188 70.956 205.188 71.5C205.188 72.036 205.312 72.424 205.56 72.664ZM212.8 74.5H211V68.488H212.668V70.312H212.764C212.844 69.744 213.064 69.28 213.424 68.92C213.784 68.552 214.316 68.368 215.02 68.368C215.684 68.368 216.204 68.548 216.58 68.908C216.956 69.268 217.18 69.744 217.252 70.336H217.36C217.44 69.76 217.664 69.288 218.032 68.92C218.4 68.552 218.944 68.368 219.664 68.368C220.408 68.368 220.976 68.588 221.368 69.028C221.768 69.468 221.968 70.044 221.968 70.756V74.5H220.168V71.356C220.168 70.852 220.064 70.5 219.856 70.3C219.656 70.092 219.3 69.988 218.788 69.988C218.252 69.988 217.884 70.1 217.684 70.324C217.484 70.548 217.384 70.928 217.384 71.464V74.5H215.584V71.356C215.584 70.852 215.48 70.5 215.272 70.3C215.072 70.092 214.716 69.988 214.204 69.988C213.668 69.988 213.3 70.1 213.1 70.324C212.9 70.548 212.8 70.928 212.8 71.464V74.5ZM224.682 76.54H222.882V68.488H224.55V70.132H224.67C224.894 68.956 225.694 68.368 227.07 68.368C227.982 68.368 228.69 68.648 229.194 69.208C229.698 69.768 229.95 70.532 229.95 71.5C229.95 72.468 229.702 73.232 229.206 73.792C228.718 74.344 228.026 74.62 227.13 74.62C226.45 74.62 225.91 74.468 225.51 74.164C225.118 73.852 224.87 73.424 224.766 72.88H224.682V76.54ZM224.682 71.584C224.682 72.08 224.826 72.436 225.114 72.652C225.41 72.868 225.85 72.976 226.434 72.976C227.026 72.976 227.454 72.864 227.718 72.64C227.99 72.416 228.126 72.036 228.126 71.5C228.126 70.964 227.99 70.584 227.718 70.36C227.454 70.136 227.03 70.024 226.446 70.024C225.846 70.024 225.402 70.14 225.114 70.372C224.826 70.596 224.682 70.968 224.682 71.488V71.584ZM233.891 74.62C232.851 74.62 232.027 74.36 231.419 73.84C230.819 73.312 230.519 72.532 230.519 71.5C230.519 70.548 230.823 69.788 231.431 69.22C232.047 68.652 232.855 68.368 233.855 68.368C234.855 68.368 235.651 68.624 236.243 69.136C236.835 69.64 237.131 70.356 237.131 71.284C237.131 71.396 237.115 71.588 237.083 71.86H232.187C232.211 72.332 232.347 72.672 232.595 72.88C232.843 73.08 233.255 73.18 233.831 73.18C234.351 73.18 234.719 73.116 234.935 72.988C235.159 72.852 235.271 72.652 235.271 72.388V72.268H237.071V72.4C237.071 73.056 236.779 73.592 236.195 74.008C235.611 74.416 234.843 74.62 233.891 74.62ZM234.983 70.048C234.735 69.864 234.347 69.772 233.819 69.772C233.291 69.772 232.899 69.864 232.643 70.048C232.395 70.232 232.251 70.52 232.211 70.912H235.403C235.379 70.512 235.239 70.224 234.983 70.048ZM242.13 74.5H240.642C239.138 74.5 238.386 73.776 238.386 72.328V69.976H237.438V68.488H238.386V67.324H240.186V68.488H242.13V69.976H240.186V72.124C240.186 72.42 240.246 72.62 240.366 72.724C240.494 72.828 240.722 72.88 241.05 72.88H242.13V74.5ZM244.604 67.876H242.804V66.46H244.604V67.876ZM244.604 74.5H242.804V68.488H244.604V74.5ZM249.782 74.5H248.294C246.79 74.5 246.038 73.776 246.038 72.328V69.976H245.09V68.488H246.038V67.324H247.838V68.488H249.782V69.976H247.838V72.124C247.838 72.42 247.898 72.62 248.018 72.724C248.146 72.828 248.374 72.88 248.702 72.88H249.782V74.5ZM252.257 67.876H250.457V66.46H252.257V67.876ZM252.257 74.5H250.457V68.488H252.257V74.5ZM257.675 74.5H255.455L252.719 68.488H254.723L256.523 72.748H256.643L258.455 68.488H260.423L257.675 74.5ZM264.09 74.62C263.05 74.62 262.226 74.36 261.618 73.84C261.018 73.312 260.718 72.532 260.718 71.5C260.718 70.548 261.022 69.788 261.63 69.22C262.246 68.652 263.054 68.368 264.054 68.368C265.054 68.368 265.85 68.624 266.442 69.136C267.034 69.64 267.33 70.356 267.33 71.284C267.33 71.396 267.314 71.588 267.282 71.86H262.386C262.41 72.332 262.546 72.672 262.794 72.88C263.042 73.08 263.454 73.18 264.03 73.18C264.55 73.18 264.918 73.116 265.134 72.988C265.358 72.852 265.47 72.652 265.47 72.388V72.268H267.27V72.4C267.27 73.056 266.978 73.592 266.394 74.008C265.81 74.416 265.042 74.62 264.09 74.62ZM265.182 70.048C264.934 69.864 264.546 69.772 264.018 69.772C263.49 69.772 263.098 69.864 262.842 70.048C262.594 70.232 262.45 70.52 262.41 70.912H265.602C265.578 70.512 265.438 70.224 265.182 70.048ZM273.137 74.62C272.097 74.62 271.273 74.36 270.665 73.84C270.065 73.312 269.765 72.532 269.765 71.5C269.765 70.548 270.069 69.788 270.677 69.22C271.293 68.652 272.101 68.368 273.101 68.368C274.101 68.368 274.897 68.624 275.489 69.136C276.081 69.64 276.377 70.356 276.377 71.284C276.377 71.396 276.361 71.588 276.329 71.86H271.433C271.457 72.332 271.593 72.672 271.841 72.88C272.089 73.08 272.501 73.18 273.077 73.18C273.597 73.18 273.965 73.116 274.181 72.988C274.405 72.852 274.517 72.652 274.517 72.388V72.268H276.317V72.4C276.317 73.056 276.025 73.592 275.441 74.008C274.857 74.416 274.089 74.62 273.137 74.62ZM274.229 70.048C273.981 69.864 273.593 69.772 273.065 69.772C272.537 69.772 272.145 69.864 271.889 70.048C271.641 70.232 271.497 70.52 271.457 70.912H274.649C274.625 70.512 274.485 70.224 274.229 70.048ZM279.828 74.62C278.908 74.62 278.192 74.34 277.68 73.78C277.176 73.22 276.924 72.46 276.924 71.5C276.924 70.532 277.168 69.768 277.656 69.208C278.152 68.648 278.844 68.368 279.732 68.368C280.42 68.368 280.96 68.524 281.352 68.836C281.744 69.14 281.992 69.556 282.096 70.084H282.204V66.46H284.004V74.5H282.324V72.832H282.228C281.996 74.024 281.196 74.62 279.828 74.62ZM278.748 71.5C278.748 72.036 278.88 72.416 279.144 72.64C279.416 72.864 279.848 72.976 280.44 72.976C281.032 72.976 281.472 72.864 281.76 72.64C282.056 72.416 282.204 72.048 282.204 71.536V71.44C282.204 70.928 282.056 70.564 281.76 70.348C281.472 70.124 281.032 70.012 280.44 70.012C279.848 70.012 279.416 70.124 279.144 70.348C278.88 70.572 278.748 70.956 278.748 71.5ZM287.597 73.888C286.709 73.888 286.017 73.644 285.521 73.156C285.025 72.66 284.777 71.984 284.777 71.128C284.777 70.28 285.033 69.608 285.545 69.112C286.065 68.616 286.773 68.368 287.669 68.368C288.293 68.368 288.805 68.504 289.205 68.776C289.613 69.04 289.865 69.428 289.961 69.94H290.057V68.488H291.737V73.624C291.737 75.648 290.597 76.66 288.317 76.66C287.333 76.66 286.557 76.452 285.989 76.036C285.429 75.62 285.149 75.036 285.149 74.284H286.949C286.949 74.628 287.045 74.86 287.237 74.98C287.437 75.1 287.837 75.16 288.437 75.16C289.029 75.16 289.425 75.068 289.625 74.884C289.833 74.7 289.937 74.32 289.937 73.744V72.388H289.841C289.737 72.852 289.497 73.22 289.121 73.492C288.753 73.756 288.245 73.888 287.597 73.888ZM286.973 70.204C286.717 70.38 286.589 70.688 286.589 71.128C286.589 71.568 286.717 71.88 286.973 72.064C287.229 72.248 287.645 72.34 288.221 72.34C288.805 72.34 289.237 72.252 289.517 72.076C289.797 71.892 289.937 71.596 289.937 71.188V71.056C289.937 70.656 289.797 70.368 289.517 70.192C289.245 70.016 288.821 69.928 288.245 69.928C287.661 69.928 287.237 70.02 286.973 70.204ZM295.883 74.62C294.843 74.62 294.019 74.36 293.411 73.84C292.811 73.312 292.511 72.532 292.511 71.5C292.511 70.548 292.815 69.788 293.423 69.22C294.039 68.652 294.847 68.368 295.847 68.368C296.847 68.368 297.643 68.624 298.235 69.136C298.827 69.64 299.123 70.356 299.123 71.284C299.123 71.396 299.107 71.588 299.075 71.86H294.179C294.203 72.332 294.339 72.672 294.587 72.88C294.835 73.08 295.247 73.18 295.823 73.18C296.343 73.18 296.711 73.116 296.927 72.988C297.151 72.852 297.263 72.652 297.263 72.388V72.268H299.063V72.4C299.063 73.056 298.771 73.592 298.187 74.008C297.603 74.416 296.835 74.62 295.883 74.62ZM296.975 70.048C296.727 69.864 296.339 69.772 295.811 69.772C295.283 69.772 294.891 69.864 294.635 70.048C294.387 70.232 294.243 70.52 294.203 70.912H297.395C297.371 70.512 297.231 70.224 296.975 70.048ZM302.082 74.5H299.766V72.4H302.082V74.5ZM20.836 89.728H16.36V88.18H20.836V89.728ZM24.9474 92.62C23.6914 92.62 22.7794 92.332 22.2114 91.756C21.6514 91.18 21.3714 90.34 21.3714 89.236V88.888H23.2794V89.236C23.2794 89.86 23.3834 90.288 23.5914 90.52C23.8074 90.752 24.2594 90.868 24.9474 90.868C25.6274 90.868 26.0794 90.756 26.3034 90.532C26.5274 90.308 26.6394 89.904 26.6394 89.32V84.46H28.5474V89.32C28.5474 90.392 28.2634 91.212 27.6954 91.78C27.1274 92.34 26.2114 92.62 24.9474 92.62ZM35.1407 91.768C34.5167 92.336 33.6887 92.62 32.6567 92.62C31.6247 92.62 30.7927 92.336 30.1607 91.768C29.5367 91.2 29.2247 90.444 29.2247 89.5C29.2247 88.548 29.5367 87.788 30.1607 87.22C30.7927 86.652 31.6247 86.368 32.6567 86.368C33.6887 86.368 34.5167 86.652 35.1407 87.22C35.7727 87.788 36.0887 88.548 36.0887 89.5C36.0887 90.444 35.7727 91.2 35.1407 91.768ZM31.3847 90.664C31.6327 90.904 32.0567 91.024 32.6567 91.024C33.2567 91.024 33.6807 90.904 33.9287 90.664C34.1767 90.424 34.3007 90.036 34.3007 89.5C34.3007 88.964 34.1727 88.572 33.9167 88.324C33.6687 88.076 33.2487 87.952 32.6567 87.952C32.0567 87.952 31.6327 88.076 31.3847 88.324C31.1367 88.564 31.0127 88.956 31.0127 89.5C31.0127 90.036 31.1367 90.424 31.3847 90.664ZM38.6238 85.876H36.8238V84.46H38.6238V85.876ZM38.6238 92.5H36.8238V86.488H38.6238V92.5ZM41.3659 92.5H39.5659V86.488H41.2339V88.336H41.3419C41.4299 87.776 41.6739 87.308 42.0739 86.932C42.4819 86.556 43.0539 86.368 43.7899 86.368C44.5819 86.368 45.1819 86.592 45.5899 87.04C46.0059 87.48 46.2139 88.052 46.2139 88.756V92.5H44.4139V89.356C44.4139 88.868 44.2979 88.52 44.0659 88.312C43.8419 88.096 43.4579 87.988 42.9139 87.988C42.3539 87.988 41.9539 88.104 41.7139 88.336C41.4819 88.568 41.3659 88.944 41.3659 89.464V92.5ZM54.6641 91.768C54.0401 92.336 53.2121 92.62 52.1801 92.62C51.1481 92.62 50.3161 92.336 49.6841 91.768C49.0601 91.2 48.7481 90.444 48.7481 89.5C48.7481 88.548 49.0601 87.788 49.6841 87.22C50.3161 86.652 51.1481 86.368 52.1801 86.368C53.2121 86.368 54.0401 86.652 54.6641 87.22C55.2961 87.788 55.6121 88.548 55.6121 89.5C55.6121 90.444 55.2961 91.2 54.6641 91.768ZM50.9081 90.664C51.1561 90.904 51.5801 91.024 52.1801 91.024C52.7801 91.024 53.2041 90.904 53.4521 90.664C53.7001 90.424 53.8241 90.036 53.8241 89.5C53.8241 88.964 53.6961 88.572 53.4401 88.324C53.1921 88.076 52.7721 87.952 52.1801 87.952C51.5801 87.952 51.1561 88.076 50.9081 88.324C50.6601 88.564 50.5361 88.956 50.5361 89.5C50.5361 90.036 50.6601 90.424 50.9081 90.664ZM58.8312 92.62C58.0152 92.62 57.3952 92.4 56.9712 91.96C56.5472 91.512 56.3352 90.936 56.3352 90.232V86.488H58.1352V89.632C58.1352 90.12 58.2512 90.472 58.4832 90.688C58.7232 90.904 59.1232 91.012 59.6832 91.012C60.2592 91.012 60.6672 90.896 60.9072 90.664C61.1552 90.432 61.2792 90.056 61.2792 89.536V86.488H63.0792V92.5H61.3992V90.664H61.3032C61.2152 91.224 60.9632 91.692 60.5472 92.068C60.1392 92.436 59.5672 92.62 58.8312 92.62ZM65.7995 92.5H63.9995V86.488H65.6675V88.084H65.7755C65.8635 87.564 66.0755 87.148 66.4115 86.836C66.7555 86.524 67.2155 86.368 67.7915 86.368C68.4315 86.368 68.9075 86.56 69.2195 86.944C69.5315 87.328 69.6875 87.836 69.6875 88.468V89.464H67.8875V88.84C67.8875 88.504 67.8115 88.264 67.6595 88.12C67.5075 87.968 67.2515 87.892 66.8915 87.892C66.4995 87.892 66.2195 87.984 66.0515 88.168C65.8835 88.352 65.7995 88.636 65.7995 89.02V92.5ZM79.1269 92.5H71.9869V91.348C71.9869 90.636 72.1589 90.076 72.5029 89.668C72.8469 89.26 73.4429 88.916 74.2909 88.636L76.3549 87.964C76.7229 87.836 76.9789 87.7 77.1229 87.556C77.2669 87.404 77.3389 87.2 77.3389 86.944C77.3389 86.616 77.2189 86.376 76.9789 86.224C76.7389 86.064 76.3069 85.984 75.6829 85.984C74.9709 85.984 74.4709 86.092 74.1829 86.308C73.9029 86.516 73.7629 86.852 73.7629 87.316V87.472H71.9989V87.316C71.9989 86.46 72.3069 85.752 72.9229 85.192C73.5469 84.624 74.4869 84.34 75.7429 84.34C76.9029 84.34 77.7589 84.576 78.3109 85.048C78.8709 85.52 79.1509 86.16 79.1509 86.968C79.1509 87.648 78.9469 88.188 78.5389 88.588C78.1309 88.988 77.5469 89.292 76.7869 89.5L75.0349 89.98C74.6189 90.108 74.3229 90.248 74.1469 90.4C73.9709 90.552 73.8829 90.78 73.8829 91.084L75.9829 90.88H79.1269V92.5ZM84.2696 89.728H79.7936V88.18H84.2696V89.728ZM87.793 92.62C86.873 92.62 86.157 92.34 85.645 91.78C85.141 91.22 84.889 90.46 84.889 89.5C84.889 88.532 85.133 87.768 85.621 87.208C86.117 86.648 86.809 86.368 87.697 86.368C88.385 86.368 88.925 86.524 89.317 86.836C89.709 87.14 89.957 87.556 90.061 88.084H90.169V84.46H91.969V92.5H90.289V90.832H90.193C89.961 92.024 89.161 92.62 87.793 92.62ZM86.713 89.5C86.713 90.036 86.845 90.416 87.109 90.64C87.381 90.864 87.813 90.976 88.405 90.976C88.997 90.976 89.437 90.864 89.725 90.64C90.021 90.416 90.169 90.048 90.169 89.536V89.44C90.169 88.928 90.021 88.564 89.725 88.348C89.437 88.124 88.997 88.012 88.405 88.012C87.813 88.012 87.381 88.124 87.109 88.348C86.845 88.572 86.713 88.956 86.713 89.5ZM94.7694 92.62C94.1214 92.62 93.6134 92.48 93.2454 92.2C92.8774 91.912 92.6934 91.516 92.6934 91.012C92.6934 90.1 93.3414 89.576 94.6374 89.44L97.2174 89.176V88.948C97.2174 88.564 97.1214 88.304 96.9294 88.168C96.7374 88.024 96.3974 87.952 95.9094 87.952C95.4454 87.952 95.1134 88.024 94.9134 88.168C94.7214 88.304 94.6254 88.54 94.6254 88.876V88.924H92.8134V88.888C92.8134 88.136 93.1054 87.528 93.6894 87.064C94.2734 86.6 95.0574 86.368 96.0414 86.368C97.0174 86.368 97.7534 86.6 98.2494 87.064C98.7454 87.528 98.9934 88.164 98.9934 88.972V92.5H97.3134V91.12H97.2174C97.0734 91.592 96.7934 91.96 96.3774 92.224C95.9614 92.488 95.4254 92.62 94.7694 92.62ZM94.5054 90.892C94.5054 91.196 94.7654 91.348 95.2854 91.348C95.9174 91.348 96.3894 91.264 96.7014 91.096C97.0214 90.92 97.1934 90.624 97.2174 90.208L95.1294 90.448C94.7134 90.48 94.5054 90.628 94.5054 90.892ZM101.058 94.54H100.074V92.908H101.55C101.934 92.908 102.186 92.78 102.306 92.524L99.3658 86.488H101.406L102.678 89.236L103.182 90.652H103.302L103.782 89.224L104.922 86.488H106.926L103.95 92.932C103.67 93.548 103.314 93.968 102.882 94.192C102.45 94.424 101.842 94.54 101.058 94.54ZM111.01 85.876H109.21V84.46H111.01V85.876ZM111.01 92.5H109.21V86.488H111.01V92.5ZM113.753 92.5H111.953V86.488H113.621V88.336H113.729C113.817 87.776 114.061 87.308 114.461 86.932C114.869 86.556 115.441 86.368 116.177 86.368C116.969 86.368 117.569 86.592 117.977 87.04C118.393 87.48 118.601 88.052 118.601 88.756V92.5H116.801V89.356C116.801 88.868 116.685 88.52 116.453 88.312C116.229 88.096 115.845 87.988 115.301 87.988C114.741 87.988 114.341 88.104 114.101 88.336C113.869 88.568 113.753 88.944 113.753 89.464V92.5ZM123.747 92.5H122.259C120.755 92.5 120.003 91.776 120.003 90.328V87.976H119.055V86.488H120.003V85.324H121.803V86.488H123.747V87.976H121.803V90.124C121.803 90.42 121.863 90.62 121.983 90.724C122.111 90.828 122.339 90.88 122.667 90.88H123.747V92.5ZM127.613 92.62C126.573 92.62 125.749 92.36 125.141 91.84C124.541 91.312 124.241 90.532 124.241 89.5C124.241 88.548 124.545 87.788 125.153 87.22C125.769 86.652 126.577 86.368 127.577 86.368C128.577 86.368 129.373 86.624 129.965 87.136C130.557 87.64 130.853 88.356 130.853 89.284C130.853 89.396 130.837 89.588 130.805 89.86H125.909C125.933 90.332 126.069 90.672 126.317 90.88C126.565 91.08 126.977 91.18 127.553 91.18C128.073 91.18 128.441 91.116 128.657 90.988C128.881 90.852 128.993 90.652 128.993 90.388V90.268H130.793V90.4C130.793 91.056 130.501 91.592 129.917 92.008C129.333 92.416 128.565 92.62 127.613 92.62ZM128.705 88.048C128.457 87.864 128.069 87.772 127.541 87.772C127.013 87.772 126.621 87.864 126.365 88.048C126.117 88.232 125.973 88.52 125.933 88.912H129.125C129.101 88.512 128.961 88.224 128.705 88.048ZM133.417 92.5H131.617V86.488H133.285V88.084H133.393C133.481 87.564 133.693 87.148 134.029 86.836C134.373 86.524 134.833 86.368 135.409 86.368C136.049 86.368 136.525 86.56 136.837 86.944C137.149 87.328 137.305 87.836 137.305 88.468V89.464H135.505V88.84C135.505 88.504 135.429 88.264 135.277 88.12C135.125 87.968 134.869 87.892 134.509 87.892C134.117 87.892 133.837 87.984 133.669 88.168C133.501 88.352 133.417 88.636 133.417 89.02V92.5ZM139.757 92.5H137.957V86.488H139.625V88.336H139.733C139.821 87.776 140.065 87.308 140.465 86.932C140.873 86.556 141.445 86.368 142.181 86.368C142.973 86.368 143.573 86.592 143.981 87.04C144.397 87.48 144.605 88.052 144.605 88.756V92.5H142.805V89.356C142.805 88.868 142.689 88.52 142.457 88.312C142.233 88.096 141.849 87.988 141.305 87.988C140.745 87.988 140.345 88.104 140.105 88.336C139.873 88.568 139.757 88.944 139.757 89.464V92.5ZM148.551 92.62C147.543 92.62 146.767 92.432 146.223 92.056C145.679 91.672 145.407 91.132 145.407 90.436V90.4H147.207V90.508C147.207 90.772 147.303 90.952 147.495 91.048C147.687 91.144 148.043 91.192 148.563 91.192C149.027 91.192 149.339 91.152 149.499 91.072C149.667 90.992 149.751 90.86 149.751 90.676C149.751 90.508 149.691 90.392 149.571 90.328C149.459 90.256 149.223 90.196 148.863 90.148L147.171 89.944C145.923 89.808 145.299 89.248 145.299 88.264C145.299 87.704 145.547 87.248 146.043 86.896C146.539 86.544 147.279 86.368 148.263 86.368C149.255 86.368 150.015 86.556 150.543 86.932C151.079 87.3 151.347 87.848 151.347 88.576V88.612H149.547V88.54C149.547 88.276 149.455 88.088 149.271 87.976C149.087 87.856 148.731 87.796 148.203 87.796C147.763 87.796 147.463 87.836 147.303 87.916C147.151 87.996 147.075 88.136 147.075 88.336C147.075 88.496 147.139 88.616 147.267 88.696C147.395 88.768 147.651 88.828 148.035 88.876L149.319 89.032C150.111 89.12 150.675 89.304 151.011 89.584C151.355 89.856 151.527 90.244 151.527 90.748C151.527 91.316 151.259 91.772 150.723 92.116C150.195 92.452 149.471 92.62 148.551 92.62ZM154.053 92.5H152.253V84.46H154.053V88.324H154.149C154.253 87.756 154.505 87.288 154.905 86.92C155.305 86.552 155.865 86.368 156.585 86.368C157.369 86.368 157.965 86.596 158.373 87.052C158.789 87.5 158.997 88.088 158.997 88.816V92.5H157.197V89.356C157.197 88.852 157.077 88.5 156.837 88.3C156.605 88.092 156.205 87.988 155.637 87.988C155.053 87.988 154.641 88.108 154.401 88.348C154.169 88.588 154.053 88.968 154.053 89.488V92.5ZM161.706 85.876H159.906V84.46H161.706V85.876ZM161.706 92.5H159.906V86.488H161.706V92.5ZM164.448 94.54H162.648V86.488H164.316V88.132H164.436C164.66 86.956 165.46 86.368 166.836 86.368C167.748 86.368 168.456 86.648 168.96 87.208C169.464 87.768 169.716 88.532 169.716 89.5C169.716 90.468 169.468 91.232 168.972 91.792C168.484 92.344 167.792 92.62 166.896 92.62C166.216 92.62 165.676 92.468 165.276 92.164C164.884 91.852 164.636 91.424 164.532 90.88H164.448V94.54ZM164.448 89.584C164.448 90.08 164.592 90.436 164.88 90.652C165.176 90.868 165.616 90.976 166.2 90.976C166.792 90.976 167.22 90.864 167.484 90.64C167.756 90.416 167.892 90.036 167.892 89.5C167.892 88.964 167.756 88.584 167.484 88.36C167.22 88.136 166.796 88.024 166.212 88.024C165.612 88.024 165.168 88.14 164.88 88.372C164.592 88.596 164.448 88.968 164.448 89.488V89.584ZM176.552 92.5H175.064C173.56 92.5 172.808 91.776 172.808 90.328V87.976H171.86V86.488H172.808V85.324H174.608V86.488H176.552V87.976H174.608V90.124C174.608 90.42 174.668 90.62 174.788 90.724C174.916 90.828 175.144 90.88 175.472 90.88H176.552V92.5ZM179.026 92.5H177.226V86.488H178.894V88.084H179.002C179.09 87.564 179.302 87.148 179.638 86.836C179.982 86.524 180.442 86.368 181.018 86.368C181.658 86.368 182.134 86.56 182.446 86.944C182.758 87.328 182.914 87.836 182.914 88.468V89.464H181.114V88.84C181.114 88.504 181.038 88.264 180.886 88.12C180.734 87.968 180.478 87.892 180.118 87.892C179.726 87.892 179.446 87.984 179.278 88.168C179.11 88.352 179.026 88.636 179.026 89.02V92.5ZM185.366 85.876H183.566V84.46H185.366V85.876ZM185.366 92.5H183.566V86.488H185.366V92.5ZM188.156 92.62C187.508 92.62 187 92.48 186.632 92.2C186.264 91.912 186.08 91.516 186.08 91.012C186.08 90.1 186.728 89.576 188.024 89.44L190.604 89.176V88.948C190.604 88.564 190.508 88.304 190.316 88.168C190.124 88.024 189.784 87.952 189.296 87.952C188.832 87.952 188.5 88.024 188.3 88.168C188.108 88.304 188.012 88.54 188.012 88.876V88.924H186.2V88.888C186.2 88.136 186.492 87.528 187.076 87.064C187.66 86.6 188.444 86.368 189.428 86.368C190.404 86.368 191.14 86.6 191.636 87.064C192.132 87.528 192.38 88.164 192.38 88.972V92.5H190.7V91.12H190.604C190.46 91.592 190.18 91.96 189.764 92.224C189.348 92.488 188.812 92.62 188.156 92.62ZM187.892 90.892C187.892 91.196 188.152 91.348 188.672 91.348C189.304 91.348 189.776 91.264 190.088 91.096C190.408 90.92 190.58 90.624 190.604 90.208L188.516 90.448C188.1 90.48 187.892 90.628 187.892 90.892ZM195.093 92.5H193.293V84.46H195.093V92.5ZM199.734 92.62C199.086 92.62 198.578 92.48 198.21 92.2C197.842 91.912 197.658 91.516 197.658 91.012C197.658 90.1 198.306 89.576 199.602 89.44L202.182 89.176V88.948C202.182 88.564 202.086 88.304 201.894 88.168C201.702 88.024 201.362 87.952 200.874 87.952C200.41 87.952 200.078 88.024 199.878 88.168C199.686 88.304 199.59 88.54 199.59 88.876V88.924H197.778V88.888C197.778 88.136 198.07 87.528 198.654 87.064C199.238 86.6 200.022 86.368 201.006 86.368C201.982 86.368 202.718 86.6 203.214 87.064C203.71 87.528 203.958 88.164 203.958 88.972V92.5H202.278V91.12H202.182C202.038 91.592 201.758 91.96 201.342 92.224C200.926 92.488 200.39 92.62 199.734 92.62ZM199.47 90.892C199.47 91.196 199.73 91.348 200.25 91.348C200.882 91.348 201.354 91.264 201.666 91.096C201.986 90.92 202.158 90.624 202.182 90.208L200.094 90.448C199.678 90.48 199.47 90.628 199.47 90.892ZM206.671 92.5H204.871V86.488H206.539V88.336H206.647C206.735 87.776 206.979 87.308 207.379 86.932C207.787 86.556 208.359 86.368 209.095 86.368C209.887 86.368 210.487 86.592 210.895 87.04C211.311 87.48 211.519 88.052 211.519 88.756V92.5H209.719V89.356C209.719 88.868 209.603 88.52 209.371 88.312C209.147 88.096 208.763 87.988 208.219 87.988C207.659 87.988 207.259 88.104 207.019 88.336C206.787 88.568 206.671 88.944 206.671 89.464V92.5ZM215.117 92.62C214.197 92.62 213.481 92.34 212.969 91.78C212.465 91.22 212.213 90.46 212.213 89.5C212.213 88.532 212.457 87.768 212.945 87.208C213.441 86.648 214.133 86.368 215.021 86.368C215.709 86.368 216.249 86.524 216.641 86.836C217.033 87.14 217.281 87.556 217.385 88.084H217.493V84.46H219.293V92.5H217.613V90.832H217.517C217.285 92.024 216.485 92.62 215.117 92.62ZM214.037 89.5C214.037 90.036 214.169 90.416 214.433 90.64C214.705 90.864 215.137 90.976 215.729 90.976C216.321 90.976 216.761 90.864 217.049 90.64C217.345 90.416 217.493 90.048 217.493 89.536V89.44C217.493 88.928 217.345 88.564 217.049 88.348C216.761 88.124 216.321 88.012 215.729 88.012C215.137 88.012 214.705 88.124 214.433 88.348C214.169 88.572 214.037 88.956 214.037 89.5ZM223.897 92.5H222.097V86.488H223.765V88.084H223.873C223.961 87.564 224.173 87.148 224.509 86.836C224.853 86.524 225.313 86.368 225.889 86.368C226.529 86.368 227.005 86.56 227.317 86.944C227.629 87.328 227.785 87.836 227.785 88.468V89.464H225.985V88.84C225.985 88.504 225.909 88.264 225.757 88.12C225.605 87.968 225.349 87.892 224.989 87.892C224.597 87.892 224.317 87.984 224.149 88.168C223.981 88.352 223.897 88.636 223.897 89.02V92.5ZM231.629 92.62C230.589 92.62 229.765 92.36 229.157 91.84C228.557 91.312 228.257 90.532 228.257 89.5C228.257 88.548 228.561 87.788 229.169 87.22C229.785 86.652 230.593 86.368 231.593 86.368C232.593 86.368 233.389 86.624 233.981 87.136C234.573 87.64 234.869 88.356 234.869 89.284C234.869 89.396 234.853 89.588 234.821 89.86H229.925C229.949 90.332 230.085 90.672 230.333 90.88C230.581 91.08 230.993 91.18 231.569 91.18C232.089 91.18 232.457 91.116 232.673 90.988C232.897 90.852 233.009 90.652 233.009 90.388V90.268H234.809V90.4C234.809 91.056 234.517 91.592 233.933 92.008C233.349 92.416 232.581 92.62 231.629 92.62ZM232.721 88.048C232.473 87.864 232.085 87.772 231.557 87.772C231.029 87.772 230.637 87.864 230.381 88.048C230.133 88.232 229.989 88.52 229.949 88.912H233.141C233.117 88.512 232.977 88.224 232.721 88.048ZM238.836 92.62C237.804 92.62 236.98 92.34 236.364 91.78C235.756 91.212 235.452 90.452 235.452 89.5C235.452 88.54 235.756 87.78 236.364 87.22C236.98 86.652 237.804 86.368 238.836 86.368C239.804 86.368 240.588 86.608 241.188 87.088C241.788 87.56 242.088 88.184 242.088 88.96V89.128H240.3V89.032C240.3 88.336 239.8 87.988 238.8 87.988C238.256 87.988 237.86 88.104 237.612 88.336C237.364 88.568 237.24 88.956 237.24 89.5C237.24 90.044 237.364 90.432 237.612 90.664C237.86 90.888 238.256 91 238.8 91C239.8 91 240.3 90.652 240.3 89.956V89.86H242.088V90.028C242.088 90.804 241.788 91.432 241.188 91.912C240.588 92.384 239.804 92.62 238.836 92.62ZM246.055 92.62C245.015 92.62 244.191 92.36 243.583 91.84C242.983 91.312 242.683 90.532 242.683 89.5C242.683 88.548 242.987 87.788 243.595 87.22C244.211 86.652 245.019 86.368 246.019 86.368C247.019 86.368 247.815 86.624 248.407 87.136C248.999 87.64 249.295 88.356 249.295 89.284C249.295 89.396 249.279 89.588 249.247 89.86H244.351C244.375 90.332 244.511 90.672 244.759 90.88C245.007 91.08 245.419 91.18 245.995 91.18C246.515 91.18 246.883 91.116 247.099 90.988C247.323 90.852 247.435 90.652 247.435 90.388V90.268H249.235V90.4C249.235 91.056 248.943 91.592 248.359 92.008C247.775 92.416 247.007 92.62 246.055 92.62ZM247.147 88.048C246.899 87.864 246.511 87.772 245.983 87.772C245.455 87.772 245.063 87.864 244.807 88.048C244.559 88.232 244.415 88.52 244.375 88.912H247.567C247.543 88.512 247.403 88.224 247.147 88.048ZM251.858 85.876H250.058V84.46H251.858V85.876ZM251.858 92.5H250.058V86.488H251.858V92.5ZM257.276 92.5H255.056L252.32 86.488H254.324L256.124 90.748H256.244L258.056 86.488H260.024L257.276 92.5ZM263.692 92.62C262.652 92.62 261.828 92.36 261.22 91.84C260.62 91.312 260.32 90.532 260.32 89.5C260.32 88.548 260.624 87.788 261.232 87.22C261.848 86.652 262.656 86.368 263.656 86.368C264.656 86.368 265.452 86.624 266.044 87.136C266.636 87.64 266.932 88.356 266.932 89.284C266.932 89.396 266.916 89.588 266.884 89.86H261.988C262.012 90.332 262.148 90.672 262.396 90.88C262.644 91.08 263.056 91.18 263.632 91.18C264.152 91.18 264.52 91.116 264.736 90.988C264.96 90.852 265.072 90.652 265.072 90.388V90.268H266.872V90.4C266.872 91.056 266.58 91.592 265.996 92.008C265.412 92.416 264.644 92.62 263.692 92.62ZM264.784 88.048C264.536 87.864 264.148 87.772 263.62 87.772C263.092 87.772 262.7 87.864 262.444 88.048C262.196 88.232 262.052 88.52 262.012 88.912H265.204C265.18 88.512 265.04 88.224 264.784 88.048ZM271.394 92.62C270.746 92.62 270.238 92.48 269.87 92.2C269.502 91.912 269.318 91.516 269.318 91.012C269.318 90.1 269.966 89.576 271.262 89.44L273.842 89.176V88.948C273.842 88.564 273.746 88.304 273.554 88.168C273.362 88.024 273.022 87.952 272.534 87.952C272.07 87.952 271.738 88.024 271.538 88.168C271.346 88.304 271.25 88.54 271.25 88.876V88.924H269.438V88.888C269.438 88.136 269.73 87.528 270.314 87.064C270.898 86.6 271.682 86.368 272.666 86.368C273.642 86.368 274.378 86.6 274.874 87.064C275.37 87.528 275.618 88.164 275.618 88.972V92.5H273.938V91.12H273.842C273.698 91.592 273.418 91.96 273.002 92.224C272.586 92.488 272.05 92.62 271.394 92.62ZM271.13 90.892C271.13 91.196 271.39 91.348 271.91 91.348C272.542 91.348 273.014 91.264 273.326 91.096C273.646 90.92 273.818 90.624 273.842 90.208L271.754 90.448C271.338 90.48 271.13 90.628 271.13 90.892ZM282.618 92.5H281.13C279.626 92.5 278.874 91.776 278.874 90.328V87.976H277.926V86.488H278.874V85.324H280.674V86.488H282.618V87.976H280.674V90.124C280.674 90.42 280.734 90.62 280.854 90.724C280.982 90.828 281.21 90.88 281.538 90.88H282.618V92.5ZM288.98 91.768C288.357 92.336 287.529 92.62 286.497 92.62C285.465 92.62 284.633 92.336 284.001 91.768C283.377 91.2 283.065 90.444 283.065 89.5C283.065 88.548 283.377 87.788 284.001 87.22C284.633 86.652 285.465 86.368 286.497 86.368C287.529 86.368 288.357 86.652 288.98 87.22C289.613 87.788 289.929 88.548 289.929 89.5C289.929 90.444 289.613 91.2 288.98 91.768ZM285.225 90.664C285.473 90.904 285.897 91.024 286.497 91.024C287.097 91.024 287.521 90.904 287.769 90.664C288.017 90.424 288.141 90.036 288.141 89.5C288.141 88.964 288.013 88.572 287.757 88.324C287.509 88.076 287.089 87.952 286.497 87.952C285.897 87.952 285.473 88.076 285.225 88.324C284.977 88.564 284.853 88.956 284.853 89.5C284.853 90.036 284.977 90.424 285.225 90.664ZM294.9 92.5H293.412C291.908 92.5 291.156 91.776 291.156 90.328V87.976H290.208V86.488H291.156V85.324H292.956V86.488H294.9V87.976H292.956V90.124C292.956 90.42 293.016 90.62 293.136 90.724C293.264 90.828 293.492 90.88 293.82 90.88H294.9V92.5ZM297.422 92.62C296.774 92.62 296.266 92.48 295.898 92.2C295.53 91.912 295.346 91.516 295.346 91.012C295.346 90.1 295.994 89.576 297.29 89.44L299.87 89.176V88.948C299.87 88.564 299.774 88.304 299.582 88.168C299.39 88.024 299.05 87.952 298.562 87.952C298.098 87.952 297.766 88.024 297.566 88.168C297.374 88.304 297.278 88.54 297.278 88.876V88.924H295.466V88.888C295.466 88.136 295.758 87.528 296.342 87.064C296.926 86.6 297.71 86.368 298.694 86.368C299.67 86.368 300.406 86.6 300.902 87.064C301.398 87.528 301.646 88.164 301.646 88.972V92.5H299.966V91.12H299.87C299.726 91.592 299.446 91.96 299.03 92.224C298.614 92.488 298.078 92.62 297.422 92.62ZM297.158 90.892C297.158 91.196 297.418 91.348 297.938 91.348C298.57 91.348 299.042 91.264 299.354 91.096C299.674 90.92 299.846 90.624 299.87 90.208L297.782 90.448C297.366 90.48 297.158 90.628 297.158 90.892ZM304.358 92.5H302.558V84.46H304.358V92.5ZM18.28 110.5H16.48V104.488H18.148V106.084H18.256C18.344 105.564 18.556 105.148 18.892 104.836C19.236 104.524 19.696 104.368 20.272 104.368C20.912 104.368 21.388 104.56 21.7 104.944C22.012 105.328 22.168 105.836 22.168 106.468V107.464H20.368V106.84C20.368 106.504 20.292 106.264 20.14 106.12C19.988 105.968 19.732 105.892 19.372 105.892C18.98 105.892 18.7 105.984 18.532 106.168C18.364 106.352 18.28 106.636 18.28 107.02V110.5ZM26.0118 110.62C24.9718 110.62 24.1478 110.36 23.5398 109.84C22.9398 109.312 22.6398 108.532 22.6398 107.5C22.6398 106.548 22.9438 105.788 23.5518 105.22C24.1678 104.652 24.9758 104.368 25.9758 104.368C26.9758 104.368 27.7718 104.624 28.3638 105.136C28.9558 105.64 29.2518 106.356 29.2518 107.284C29.2518 107.396 29.2358 107.588 29.2038 107.86H24.3078C24.3318 108.332 24.4678 108.672 24.7158 108.88C24.9638 109.08 25.3758 109.18 25.9518 109.18C26.4718 109.18 26.8398 109.116 27.0558 108.988C27.2798 108.852 27.3918 108.652 27.3918 108.388V108.268H29.1918V108.4C29.1918 109.056 28.8998 109.592 28.3158 110.008C27.7318 110.416 26.9638 110.62 26.0118 110.62ZM27.1038 106.048C26.8558 105.864 26.4678 105.772 25.9398 105.772C25.4118 105.772 25.0198 105.864 24.7638 106.048C24.5158 106.232 24.3718 106.52 24.3318 106.912H27.5238C27.4998 106.512 27.3598 106.224 27.1038 106.048ZM33.4232 110.5H31.1792L29.5352 104.488H31.3952L32.1032 107.236L32.3552 109.108H32.4752L32.9552 107.056L33.8672 104.488H36.1832L37.0832 107.056L37.5632 109.108H37.6832L37.9472 107.236L38.6432 104.488H40.4792L38.7752 110.5H36.5312L35.4992 107.608L35.0552 105.952H34.9232L34.4672 107.608L33.4232 110.5ZM42.8085 110.62C42.1605 110.62 41.6525 110.48 41.2845 110.2C40.9165 109.912 40.7325 109.516 40.7325 109.012C40.7325 108.1 41.3805 107.576 42.6765 107.44L45.2565 107.176V106.948C45.2565 106.564 45.1605 106.304 44.9685 106.168C44.7765 106.024 44.4365 105.952 43.9485 105.952C43.4845 105.952 43.1525 106.024 42.9525 106.168C42.7605 106.304 42.6645 106.54 42.6645 106.876V106.924H40.8525V106.888C40.8525 106.136 41.1445 105.528 41.7285 105.064C42.3125 104.6 43.0965 104.368 44.0805 104.368C45.0565 104.368 45.7925 104.6 46.2885 105.064C46.7845 105.528 47.0325 106.164 47.0325 106.972V110.5H45.3525V109.12H45.2565C45.1125 109.592 44.8325 109.96 44.4165 110.224C44.0005 110.488 43.4645 110.62 42.8085 110.62ZM42.5445 108.892C42.5445 109.196 42.8045 109.348 43.3245 109.348C43.9565 109.348 44.4285 109.264 44.7405 109.096C45.0605 108.92 45.2325 108.624 45.2565 108.208L43.1685 108.448C42.7525 108.48 42.5445 108.628 42.5445 108.892ZM49.7448 110.5H47.9448V104.488H49.6128V106.084H49.7208C49.8088 105.564 50.0208 105.148 50.3568 104.836C50.7008 104.524 51.1608 104.368 51.7368 104.368C52.3768 104.368 52.8528 104.56 53.1648 104.944C53.4768 105.328 53.6328 105.836 53.6328 106.468V107.464H51.8328V106.84C51.8328 106.504 51.7568 106.264 51.6048 106.12C51.4528 105.968 51.1968 105.892 50.8368 105.892C50.4448 105.892 50.1648 105.984 49.9968 106.168C49.8288 106.352 49.7448 106.636 49.7448 107.02V110.5ZM56.9727 110.62C56.0527 110.62 55.3367 110.34 54.8247 109.78C54.3207 109.22 54.0687 108.46 54.0687 107.5C54.0687 106.532 54.3127 105.768 54.8007 105.208C55.2967 104.648 55.9887 104.368 56.8767 104.368C57.5647 104.368 58.1047 104.524 58.4967 104.836C58.8887 105.14 59.1367 105.556 59.2407 106.084H59.3487V102.46H61.1487V110.5H59.4687V108.832H59.3727C59.1407 110.024 58.3407 110.62 56.9727 110.62ZM55.8927 107.5C55.8927 108.036 56.0247 108.416 56.2887 108.64C56.5607 108.864 56.9927 108.976 57.5847 108.976C58.1767 108.976 58.6167 108.864 58.9047 108.64C59.2007 108.416 59.3487 108.048 59.3487 107.536V107.44C59.3487 106.928 59.2007 106.564 58.9047 106.348C58.6167 106.124 58.1767 106.012 57.5847 106.012C56.9927 106.012 56.5607 106.124 56.2887 106.348C56.0247 106.572 55.8927 106.956 55.8927 107.5ZM69.6407 109.768C69.0167 110.336 68.1887 110.62 67.1567 110.62C66.1247 110.62 65.2927 110.336 64.6607 109.768C64.0367 109.2 63.7247 108.444 63.7247 107.5C63.7247 106.548 64.0367 105.788 64.6607 105.22C65.2927 104.652 66.1247 104.368 67.1567 104.368C68.1887 104.368 69.0167 104.652 69.6407 105.22C70.2727 105.788 70.5887 106.548 70.5887 107.5C70.5887 108.444 70.2727 109.2 69.6407 109.768ZM65.8847 108.664C66.1327 108.904 66.5567 109.024 67.1567 109.024C67.7567 109.024 68.1807 108.904 68.4287 108.664C68.6767 108.424 68.8007 108.036 68.8007 107.5C68.8007 106.964 68.6727 106.572 68.4167 106.324C68.1687 106.076 67.7487 105.952 67.1567 105.952C66.5567 105.952 66.1327 106.076 65.8847 106.324C65.6367 106.564 65.5127 106.956 65.5127 107.5C65.5127 108.036 65.6367 108.424 65.8847 108.664ZM73.6038 110.5H71.8038V105.976H70.9518V104.488H71.8398C71.9358 103.864 72.2478 103.372 72.7758 103.012C73.3118 102.644 74.0318 102.46 74.9358 102.46H75.4638V103.768H74.6478C74.2318 103.768 73.9358 103.82 73.7598 103.924C73.5838 104.02 73.5078 104.208 73.5318 104.488H75.4638V105.976H73.6038V110.5ZM84.5097 110.5H82.7097V108.964H77.6097V107.74L82.4217 102.46H84.5097V107.344H85.7337V108.964H84.5097V110.5ZM80.1177 107.344H82.7097V104.536H82.5777L80.1177 107.212V107.344ZM92.1219 110.62C90.8339 110.62 89.8539 110.316 89.1819 109.708C88.5099 109.092 88.1739 108.236 88.1739 107.14V102.46H89.9739V107.008C89.9739 107.696 90.1299 108.18 90.4419 108.46C90.7539 108.732 91.3139 108.868 92.1219 108.868C92.9379 108.868 93.4979 108.732 93.8019 108.46C94.1139 108.18 94.2699 107.696 94.2699 107.008V102.46H96.0699V107.14C96.0699 108.236 95.7339 109.092 95.0619 109.708C94.3979 110.316 93.4179 110.62 92.1219 110.62ZM100.624 110.62C99.4001 110.62 98.4601 110.38 97.8041 109.9C97.1481 109.42 96.8201 108.716 96.8201 107.788V107.716H98.6201V107.932C98.6201 108.316 98.7561 108.588 99.0281 108.748C99.3001 108.9 99.8321 108.976 100.624 108.976C101.32 108.976 101.788 108.92 102.028 108.808C102.276 108.696 102.4 108.5 102.4 108.22C102.4 107.98 102.32 107.804 102.16 107.692C102 107.572 101.712 107.476 101.296 107.404L99.0401 107.08C97.5121 106.84 96.7481 106.088 96.7481 104.824C96.7481 104.136 97.0481 103.552 97.6481 103.072C98.2561 102.584 99.1841 102.34 100.432 102.34C101.632 102.34 102.536 102.592 103.144 103.096C103.752 103.6 104.056 104.292 104.056 105.172V105.244H102.244V105.076C102.244 104.676 102.104 104.396 101.824 104.236C101.552 104.068 101.028 103.984 100.252 103.984C99.6201 103.984 99.1801 104.048 98.9321 104.176C98.6841 104.296 98.5601 104.488 98.5601 104.752C98.5601 104.984 98.6281 105.152 98.7641 105.256C98.9081 105.36 99.1521 105.444 99.4961 105.508L101.752 105.868C103.384 106.132 104.2 106.888 104.2 108.136C104.2 108.848 103.904 109.44 103.312 109.912C102.72 110.384 101.824 110.62 100.624 110.62ZM108.905 110.5H105.029V102.46H108.905C110.201 102.46 111.225 102.816 111.977 103.528C112.737 104.24 113.117 105.224 113.117 106.48C113.117 107.736 112.737 108.72 111.977 109.432C111.225 110.144 110.201 110.5 108.905 110.5ZM108.905 104.08H106.829V108.88H108.905C109.753 108.88 110.345 108.716 110.681 108.388C111.025 108.052 111.197 107.416 111.197 106.48C111.197 105.544 111.025 104.912 110.681 104.584C110.345 104.248 109.753 104.08 108.905 104.08ZM118.374 110.5H116.574V104.08H113.586V102.46H121.362V104.08H118.374V110.5ZM124.203 110.5H121.887V108.4H124.203V110.5Z" fill="white"/>
<defs>
<clipPath id="clip0_3012_2304">
<rect width="353" height="130" rx="12" fill="white"/>
</clipPath>
</defs>
</svg>
