<svg width="353" height="130" viewBox="0 0 353 130" fill="none" xmlns="http://www.w3.org/2000/svg">
<g clip-path="url(#clip0_3012_2316)">
<rect width="353" height="130" rx="12" fill="#8307FF"/>
<circle cx="322.5" cy="46.5" r="73.5" fill="#962EFF"/>
<circle cx="270.5" cy="119.5" r="14.5" fill="#962EFF"/>
</g>
<rect x="0.5" y="0.5" width="352" height="129" rx="11.5" stroke="#8307FF"/>
<path d="M19.052 29.5H16.42V20.12H24.806V22.486H19.052V23.886H24.596V26.238H19.052V29.5ZM28.1301 21.8H25.4981V20.12H28.1301V21.8ZM28.1301 29.5H25.4981V22.444H28.1301V29.5ZM34.8648 29.5H31.6168L28.4808 22.444H31.4208L33.1848 26.938H33.3668L35.1448 22.444H38.0288L34.8648 29.5ZM42.311 29.64C41.0417 29.64 40.043 29.346 39.315 28.758C38.5964 28.17 38.237 27.2413 38.237 25.972C38.237 24.8427 38.6057 23.9513 39.343 23.298C40.0897 22.6353 41.0604 22.304 42.255 22.304C43.4964 22.304 44.4717 22.6073 45.181 23.214C45.8904 23.8113 46.245 24.67 46.245 25.79C46.245 25.986 46.231 26.21 46.203 26.462H40.673C40.6917 26.882 40.8084 27.1713 41.023 27.33C41.247 27.4793 41.6437 27.554 42.213 27.554C42.7264 27.554 43.0764 27.5073 43.263 27.414C43.459 27.3207 43.557 27.1667 43.557 26.952V26.798H46.189V26.966C46.189 27.7593 45.8344 28.4033 45.125 28.898C44.425 29.3927 43.487 29.64 42.311 29.64ZM42.199 24.32C41.7137 24.32 41.359 24.3807 41.135 24.502C40.911 24.6233 40.771 24.8333 40.715 25.132H43.697C43.6504 24.8333 43.5104 24.6233 43.277 24.502C43.053 24.3807 42.6937 24.32 42.199 24.32ZM52.8433 26.462H46.9493V24.222H52.8433V26.462ZM61.7395 29.5H53.6895V20.12H56.3215V27.134H61.7395V29.5ZM66.3735 29.64C65.1042 29.64 64.1055 29.346 63.3775 28.758C62.6589 28.17 62.2995 27.2413 62.2995 25.972C62.2995 24.8427 62.6682 23.9513 63.4055 23.298C64.1522 22.6353 65.1229 22.304 66.3175 22.304C67.5589 22.304 68.5342 22.6073 69.2435 23.214C69.9529 23.8113 70.3075 24.67 70.3075 25.79C70.3075 25.986 70.2935 26.21 70.2655 26.462H64.7355C64.7542 26.882 64.8709 27.1713 65.0855 27.33C65.3095 27.4793 65.7062 27.554 66.2755 27.554C66.7889 27.554 67.1389 27.5073 67.3255 27.414C67.5215 27.3207 67.6195 27.1667 67.6195 26.952V26.798H70.2515V26.966C70.2515 27.7593 69.8969 28.4033 69.1875 28.898C68.4875 29.3927 67.5495 29.64 66.3735 29.64ZM66.2615 24.32C65.7762 24.32 65.4215 24.3807 65.1975 24.502C64.9735 24.6233 64.8335 24.8333 64.7775 25.132H67.7595C67.7129 24.8333 67.5729 24.6233 67.3395 24.502C67.1155 24.3807 66.7562 24.32 66.2615 24.32ZM76.9058 29.5H73.6578L70.5218 22.444H73.4618L75.2258 26.938H75.4078L77.1858 22.444H80.0698L76.9058 29.5ZM84.352 29.64C83.0827 29.64 82.084 29.346 81.356 28.758C80.6374 28.17 80.278 27.2413 80.278 25.972C80.278 24.8427 80.6467 23.9513 81.384 23.298C82.1307 22.6353 83.1014 22.304 84.296 22.304C85.5374 22.304 86.5127 22.6073 87.222 23.214C87.9314 23.8113 88.286 24.67 88.286 25.79C88.286 25.986 88.272 26.21 88.244 26.462H82.714C82.7327 26.882 82.8494 27.1713 83.064 27.33C83.288 27.4793 83.6847 27.554 84.254 27.554C84.7674 27.554 85.1174 27.5073 85.304 27.414C85.5 27.3207 85.598 27.1667 85.598 26.952V26.798H88.23V26.966C88.23 27.7593 87.8754 28.4033 87.166 28.898C86.466 29.3927 85.528 29.64 84.352 29.64ZM84.24 24.32C83.7547 24.32 83.4 24.3807 83.176 24.502C82.952 24.6233 82.812 24.8333 82.756 25.132H85.738C85.6914 24.8333 85.5514 24.6233 85.318 24.502C85.094 24.3807 84.7347 24.32 84.24 24.32ZM91.6223 29.5H88.9903V20.12H91.6223V29.5ZM97.05 29.5H94.418V20.12H99.892C101.124 20.12 102.062 20.3673 102.706 20.862C103.35 21.3567 103.672 22.066 103.672 22.99C103.672 23.746 103.467 24.3387 103.056 24.768C102.655 25.1973 102.015 25.468 101.138 25.58V25.72C101.586 25.832 101.917 25.9953 102.132 26.21C102.356 26.4247 102.566 26.7373 102.762 27.148L103.924 29.5H100.886L99.766 27.204C99.598 26.8493 99.4067 26.6113 99.192 26.49C98.9867 26.3687 98.632 26.308 98.128 26.308H97.05V29.5ZM97.05 22.486V24.348H99.864C100.265 24.348 100.541 24.2873 100.69 24.166C100.839 24.0447 100.914 23.7927 100.914 23.41C100.914 23.046 100.835 22.8033 100.676 22.682C100.527 22.5513 100.256 22.486 99.864 22.486H97.05ZM108.278 29.64C107.008 29.64 106.01 29.346 105.282 28.758C104.563 28.17 104.204 27.2413 104.204 25.972C104.204 24.8427 104.572 23.9513 105.31 23.298C106.056 22.6353 107.027 22.304 108.222 22.304C109.463 22.304 110.438 22.6073 111.148 23.214C111.857 23.8113 112.212 24.67 112.212 25.79C112.212 25.986 112.198 26.21 112.17 26.462H106.64C106.658 26.882 106.775 27.1713 106.99 27.33C107.214 27.4793 107.61 27.554 108.18 27.554C108.693 27.554 109.043 27.5073 109.23 27.414C109.426 27.3207 109.524 27.1667 109.524 26.952V26.798H112.156V26.966C112.156 27.7593 111.801 28.4033 111.092 28.898C110.392 29.3927 109.454 29.64 108.278 29.64ZM108.166 24.32C107.68 24.32 107.326 24.3807 107.102 24.502C106.878 24.6233 106.738 24.8333 106.682 25.132H109.664C109.617 24.8333 109.477 24.6233 109.244 24.502C109.02 24.3807 108.66 24.32 108.166 24.32ZM116.15 29.5H113.518V24.6H112.566V22.444H113.574C113.723 21.744 114.129 21.184 114.792 20.764C115.464 20.3347 116.355 20.12 117.466 20.12H118.026V21.996H117.046C116.654 21.996 116.374 22.0287 116.206 22.094C116.047 22.15 115.973 22.2667 115.982 22.444H118.026V24.6H116.15V29.5ZM122.524 29.64C121.255 29.64 120.256 29.346 119.528 28.758C118.809 28.17 118.45 27.2413 118.45 25.972C118.45 24.8427 118.819 23.9513 119.556 23.298C120.303 22.6353 121.273 22.304 122.468 22.304C123.709 22.304 124.685 22.6073 125.394 23.214C126.103 23.8113 126.458 24.67 126.458 25.79C126.458 25.986 126.444 26.21 126.416 26.462H120.886C120.905 26.882 121.021 27.1713 121.236 27.33C121.46 27.4793 121.857 27.554 122.426 27.554C122.939 27.554 123.289 27.5073 123.476 27.414C123.672 27.3207 123.77 27.1667 123.77 26.952V26.798H126.402V26.966C126.402 27.7593 126.047 28.4033 125.338 28.898C124.638 29.3927 123.7 29.64 122.524 29.64ZM122.412 24.32C121.927 24.32 121.572 24.3807 121.348 24.502C121.124 24.6233 120.984 24.8333 120.928 25.132H123.91C123.863 24.8333 123.723 24.6233 123.49 24.502C123.266 24.3807 122.907 24.32 122.412 24.32ZM129.794 29.5H127.162V22.444H129.626V24.292H129.766C129.869 23.676 130.112 23.1907 130.494 22.836C130.886 22.4813 131.418 22.304 132.09 22.304C132.837 22.304 133.383 22.5233 133.728 22.962C134.083 23.4007 134.26 23.9933 134.26 24.74V26.14H131.628V25.314C131.628 25.0153 131.563 24.81 131.432 24.698C131.302 24.5767 131.064 24.516 130.718 24.516C130.364 24.516 130.121 24.572 129.99 24.684C129.86 24.796 129.794 24.9967 129.794 25.286V29.5ZM137.45 29.5H134.818V22.444H137.282V24.292H137.422C137.525 23.676 137.768 23.1907 138.15 22.836C138.542 22.4813 139.074 22.304 139.746 22.304C140.493 22.304 141.039 22.5233 141.384 22.962C141.739 23.4007 141.916 23.9933 141.916 24.74V26.14H139.284V25.314C139.284 25.0153 139.219 24.81 139.088 24.698C138.958 24.5767 138.72 24.516 138.374 24.516C138.02 24.516 137.777 24.572 137.646 24.684C137.516 24.796 137.45 24.9967 137.45 25.286V29.5ZM144.757 29.64C143.963 29.64 143.347 29.472 142.909 29.136C142.479 28.7907 142.265 28.3147 142.265 27.708C142.265 26.616 143.025 25.9953 144.547 25.846L147.417 25.566V25.426C147.417 25.0807 147.328 24.8567 147.151 24.754C146.983 24.6513 146.656 24.6 146.171 24.6C145.732 24.6 145.433 24.656 145.275 24.768C145.116 24.8707 145.037 25.0667 145.037 25.356V25.412H142.405V25.384C142.405 24.4507 142.764 23.704 143.483 23.144C144.211 22.584 145.172 22.304 146.367 22.304C147.571 22.304 148.481 22.584 149.097 23.144C149.713 23.6947 150.021 24.474 150.021 25.482V29.5H147.557V28.016H147.417C147.127 29.0987 146.241 29.64 144.757 29.64ZM144.911 27.54C144.911 27.7173 145.121 27.806 145.541 27.806C146.203 27.806 146.67 27.7547 146.941 27.652C147.211 27.54 147.365 27.33 147.403 27.022L145.247 27.274C145.023 27.302 144.911 27.3907 144.911 27.54ZM153.433 29.5H150.801V20.12H153.433V29.5ZM158.861 29.5H156.229V20.12H161.703C162.935 20.12 163.873 20.3673 164.517 20.862C165.161 21.3567 165.483 22.066 165.483 22.99C165.483 23.746 165.277 24.3387 164.867 24.768C164.465 25.1973 163.826 25.468 162.949 25.58V25.72C163.397 25.832 163.728 25.9953 163.943 26.21C164.167 26.4247 164.377 26.7373 164.573 27.148L165.735 29.5H162.697L161.577 27.204C161.409 26.8493 161.217 26.6113 161.003 26.49C160.797 26.3687 160.443 26.308 159.939 26.308H158.861V29.5ZM158.861 22.486V24.348H161.675C162.076 24.348 162.351 24.2873 162.501 24.166C162.65 24.0447 162.725 23.7927 162.725 23.41C162.725 23.046 162.645 22.8033 162.487 22.682C162.337 22.5513 162.067 22.486 161.675 22.486H158.861ZM170.088 29.64C168.819 29.64 167.82 29.346 167.092 28.758C166.374 28.17 166.014 27.2413 166.014 25.972C166.014 24.8427 166.383 23.9513 167.12 23.298C167.867 22.6353 168.838 22.304 170.032 22.304C171.274 22.304 172.249 22.6073 172.958 23.214C173.668 23.8113 174.022 24.67 174.022 25.79C174.022 25.986 174.008 26.21 173.98 26.462H168.45C168.469 26.882 168.586 27.1713 168.8 27.33C169.024 27.4793 169.421 27.554 169.99 27.554C170.504 27.554 170.854 27.5073 171.04 27.414C171.236 27.3207 171.334 27.1667 171.334 26.952V26.798H173.966V26.966C173.966 27.7593 173.612 28.4033 172.902 28.898C172.202 29.3927 171.264 29.64 170.088 29.64ZM169.976 24.32C169.491 24.32 169.136 24.3807 168.912 24.502C168.688 24.6233 168.548 24.8333 168.492 25.132H171.474C171.428 24.8333 171.288 24.6233 171.054 24.502C170.83 24.3807 170.471 24.32 169.976 24.32ZM179.305 29.5H176.015L174.237 22.444H176.967L177.471 24.992L177.737 27.512H177.919L178.507 24.712L179.207 22.444H182.595L183.295 24.712L183.883 27.512H184.065L184.345 24.992L184.835 22.444H187.523L185.661 29.5H182.371L181.461 26.672L180.943 24.558H180.761L180.229 26.672L179.305 29.5ZM190.161 29.64C189.368 29.64 188.752 29.472 188.313 29.136C187.884 28.7907 187.669 28.3147 187.669 27.708C187.669 26.616 188.43 25.9953 189.951 25.846L192.821 25.566V25.426C192.821 25.0807 192.732 24.8567 192.555 24.754C192.387 24.6513 192.06 24.6 191.575 24.6C191.136 24.6 190.838 24.656 190.679 24.768C190.52 24.8707 190.441 25.0667 190.441 25.356V25.412H187.809V25.384C187.809 24.4507 188.168 23.704 188.887 23.144C189.615 22.584 190.576 22.304 191.771 22.304C192.975 22.304 193.885 22.584 194.501 23.144C195.117 23.6947 195.425 24.474 195.425 25.482V29.5H192.961V28.016H192.821C192.532 29.0987 191.645 29.64 190.161 29.64ZM190.315 27.54C190.315 27.7173 190.525 27.806 190.945 27.806C191.608 27.806 192.074 27.7547 192.345 27.652C192.616 27.54 192.77 27.33 192.807 27.022L190.651 27.274C190.427 27.302 190.315 27.3907 190.315 27.54ZM198.837 29.5H196.205V22.444H198.669V24.292H198.809C198.912 23.676 199.154 23.1907 199.537 22.836C199.929 22.4813 200.461 22.304 201.133 22.304C201.88 22.304 202.426 22.5233 202.771 22.962C203.126 23.4007 203.303 23.9933 203.303 24.74V26.14H200.671V25.314C200.671 25.0153 200.606 24.81 200.475 24.698C200.344 24.5767 200.106 24.516 199.761 24.516C199.406 24.516 199.164 24.572 199.033 24.684C198.902 24.796 198.837 24.9967 198.837 25.286V29.5ZM207.067 29.64C205.994 29.64 205.168 29.318 204.589 28.674C204.011 28.0207 203.721 27.12 203.721 25.972C203.721 24.8147 204.001 23.914 204.561 23.27C205.131 22.626 205.929 22.304 206.955 22.304C208.495 22.304 209.382 22.9573 209.615 24.264H209.755V20.12H212.387V29.5H209.923V27.596H209.783C209.671 28.296 209.396 28.814 208.957 29.15C208.519 29.4767 207.889 29.64 207.067 29.64ZM206.745 24.992C206.503 25.1787 206.381 25.5053 206.381 25.972C206.381 26.4387 206.503 26.7653 206.745 26.952C206.988 27.1387 207.413 27.232 208.019 27.232C208.645 27.232 209.088 27.148 209.349 26.98C209.62 26.8027 209.755 26.4713 209.755 25.986V25.888C209.755 25.412 209.62 25.0947 209.349 24.936C209.088 24.7773 208.645 24.698 208.019 24.698C207.413 24.698 206.988 24.796 206.745 24.992ZM217.021 29.64C215.789 29.64 214.841 29.416 214.179 28.968C213.525 28.5107 213.199 27.8713 213.199 27.05V26.994H215.831V27.134C215.831 27.3207 215.905 27.442 216.055 27.498C216.213 27.5447 216.54 27.568 217.035 27.568C217.464 27.568 217.744 27.5447 217.875 27.498C218.015 27.4513 218.085 27.3627 218.085 27.232C218.085 27.12 218.038 27.0453 217.945 27.008C217.851 26.9613 217.641 26.9193 217.315 26.882L215.271 26.658C213.777 26.4993 213.031 25.8227 213.031 24.628C213.031 23.9467 213.325 23.3913 213.913 22.962C214.51 22.5233 215.429 22.304 216.671 22.304C219.172 22.304 220.423 23.1767 220.423 24.922V24.978H217.791V24.894C217.791 24.698 217.716 24.5627 217.567 24.488C217.417 24.404 217.091 24.362 216.587 24.362C216.185 24.362 215.924 24.39 215.803 24.446C215.681 24.502 215.621 24.6 215.621 24.74C215.621 24.8427 215.677 24.922 215.789 24.978C215.91 25.034 216.167 25.0807 216.559 25.118L217.959 25.272C218.957 25.384 219.657 25.608 220.059 25.944C220.469 26.28 220.675 26.756 220.675 27.372C220.675 28.044 220.353 28.59 219.709 29.01C219.065 29.43 218.169 29.64 217.021 29.64Z" fill="#FFD96D"/>
<path d="M20.836 53.728H16.36V52.18H20.836V53.728ZM25.3194 56.62C24.0954 56.62 23.1554 56.38 22.4994 55.9C21.8434 55.42 21.5154 54.716 21.5154 53.788V53.716H23.3154V53.932C23.3154 54.316 23.4514 54.588 23.7234 54.748C23.9954 54.9 24.5274 54.976 25.3194 54.976C26.0154 54.976 26.4834 54.92 26.7234 54.808C26.9714 54.696 27.0954 54.5 27.0954 54.22C27.0954 53.98 27.0154 53.804 26.8554 53.692C26.6954 53.572 26.4074 53.476 25.9914 53.404L23.7354 53.08C22.2074 52.84 21.4434 52.088 21.4434 50.824C21.4434 50.136 21.7434 49.552 22.3434 49.072C22.9514 48.584 23.8794 48.34 25.1274 48.34C26.3274 48.34 27.2314 48.592 27.8394 49.096C28.4474 49.6 28.7514 50.292 28.7514 51.172V51.244H26.9394V51.076C26.9394 50.676 26.7994 50.396 26.5194 50.236C26.2474 50.068 25.7234 49.984 24.9474 49.984C24.3154 49.984 23.8754 50.048 23.6274 50.176C23.3794 50.296 23.2554 50.488 23.2554 50.752C23.2554 50.984 23.3234 51.152 23.4594 51.256C23.6034 51.36 23.8474 51.444 24.1914 51.508L26.4474 51.868C28.0794 52.132 28.8954 52.888 28.8954 54.136C28.8954 54.848 28.5994 55.44 28.0074 55.912C27.4154 56.384 26.5194 56.62 25.3194 56.62ZM30.7804 58.54H29.7964V56.908H31.2724C31.6564 56.908 31.9084 56.78 32.0284 56.524L29.0884 50.488H31.1284L32.4004 53.236L32.9044 54.652H33.0244L33.5044 53.224L34.6444 50.488H36.6484L33.6724 56.932C33.3924 57.548 33.0364 57.968 32.6044 58.192C32.1724 58.424 31.5644 58.54 30.7804 58.54ZM40.1176 56.62C39.1096 56.62 38.3336 56.432 37.7896 56.056C37.2456 55.672 36.9736 55.132 36.9736 54.436V54.4H38.7736V54.508C38.7736 54.772 38.8696 54.952 39.0616 55.048C39.2536 55.144 39.6096 55.192 40.1296 55.192C40.5936 55.192 40.9056 55.152 41.0656 55.072C41.2336 54.992 41.3176 54.86 41.3176 54.676C41.3176 54.508 41.2576 54.392 41.1376 54.328C41.0256 54.256 40.7896 54.196 40.4296 54.148L38.7376 53.944C37.4896 53.808 36.8656 53.248 36.8656 52.264C36.8656 51.704 37.1136 51.248 37.6096 50.896C38.1056 50.544 38.8456 50.368 39.8296 50.368C40.8216 50.368 41.5816 50.556 42.1096 50.932C42.6456 51.3 42.9136 51.848 42.9136 52.576V52.612H41.1136V52.54C41.1136 52.276 41.0216 52.088 40.8376 51.976C40.6536 51.856 40.2976 51.796 39.7696 51.796C39.3296 51.796 39.0296 51.836 38.8696 51.916C38.7176 51.996 38.6416 52.136 38.6416 52.336C38.6416 52.496 38.7056 52.616 38.8336 52.696C38.9616 52.768 39.2176 52.828 39.6016 52.876L40.8856 53.032C41.6776 53.12 42.2416 53.304 42.5776 53.584C42.9216 53.856 43.0936 54.244 43.0936 54.748C43.0936 55.316 42.8256 55.772 42.2896 56.116C41.7616 56.452 41.0376 56.62 40.1176 56.62ZM48.0558 56.5H46.5678C45.0638 56.5 44.3118 55.776 44.3118 54.328V51.976H43.3638V50.488H44.3118V49.324H46.1118V50.488H48.0558V51.976H46.1118V54.124C46.1118 54.42 46.1718 54.62 46.2918 54.724C46.4198 54.828 46.6478 54.88 46.9758 54.88H48.0558V56.5ZM51.922 56.62C50.882 56.62 50.058 56.36 49.45 55.84C48.85 55.312 48.55 54.532 48.55 53.5C48.55 52.548 48.854 51.788 49.462 51.22C50.078 50.652 50.886 50.368 51.886 50.368C52.886 50.368 53.682 50.624 54.274 51.136C54.866 51.64 55.162 52.356 55.162 53.284C55.162 53.396 55.146 53.588 55.114 53.86H50.218C50.242 54.332 50.378 54.672 50.626 54.88C50.874 55.08 51.286 55.18 51.862 55.18C52.382 55.18 52.75 55.116 52.966 54.988C53.19 54.852 53.302 54.652 53.302 54.388V54.268H55.102V54.4C55.102 55.056 54.81 55.592 54.226 56.008C53.642 56.416 52.874 56.62 51.922 56.62ZM53.014 52.048C52.766 51.864 52.378 51.772 51.85 51.772C51.322 51.772 50.93 51.864 50.674 52.048C50.426 52.232 50.282 52.52 50.242 52.912H53.434C53.41 52.512 53.27 52.224 53.014 52.048ZM57.7253 56.5H55.9253V50.488H57.5933V52.312H57.6893C57.7693 51.744 57.9893 51.28 58.3493 50.92C58.7093 50.552 59.2413 50.368 59.9453 50.368C60.6093 50.368 61.1293 50.548 61.5053 50.908C61.8813 51.268 62.1053 51.744 62.1773 52.336H62.2853C62.3653 51.76 62.5893 51.288 62.9573 50.92C63.3253 50.552 63.8693 50.368 64.5893 50.368C65.3333 50.368 65.9013 50.588 66.2933 51.028C66.6933 51.468 66.8933 52.044 66.8933 52.756V56.5H65.0933V53.356C65.0933 52.852 64.9893 52.5 64.7813 52.3C64.5813 52.092 64.2253 51.988 63.7133 51.988C63.1773 51.988 62.8093 52.1 62.6093 52.324C62.4093 52.548 62.3093 52.928 62.3093 53.464V56.5H60.5093V53.356C60.5093 52.852 60.4053 52.5 60.1973 52.3C59.9973 52.092 59.6413 51.988 59.1293 51.988C58.5933 51.988 58.2253 52.1 58.0253 52.324C57.8253 52.548 57.7253 52.928 57.7253 53.464V56.5ZM73.5477 56.62C72.2597 56.62 71.2797 56.316 70.6077 55.708C69.9357 55.092 69.5997 54.236 69.5997 53.14V48.46H71.3997V53.008C71.3997 53.696 71.5557 54.18 71.8677 54.46C72.1797 54.732 72.7397 54.868 73.5477 54.868C74.3637 54.868 74.9237 54.732 75.2277 54.46C75.5397 54.18 75.6957 53.696 75.6957 53.008V48.46H77.4957V53.14C77.4957 54.236 77.1597 55.092 76.4877 55.708C75.8237 56.316 74.8437 56.62 73.5477 56.62ZM80.2019 56.5H78.4019V50.488H80.0699V52.336H80.1779C80.2659 51.776 80.5099 51.308 80.9099 50.932C81.3179 50.556 81.8899 50.368 82.6259 50.368C83.4179 50.368 84.0179 50.592 84.4259 51.04C84.8419 51.48 85.0499 52.052 85.0499 52.756V56.5H83.2499V53.356C83.2499 52.868 83.1339 52.52 82.9019 52.312C82.6779 52.096 82.2939 51.988 81.7499 51.988C81.1899 51.988 80.7899 52.104 80.5499 52.336C80.3179 52.568 80.2019 52.944 80.2019 53.464V56.5ZM87.7605 56.5H85.9605V48.46H87.7605V56.5ZM94.3907 55.768C93.7667 56.336 92.9387 56.62 91.9067 56.62C90.8747 56.62 90.0427 56.336 89.4107 55.768C88.7867 55.2 88.4747 54.444 88.4747 53.5C88.4747 52.548 88.7867 51.788 89.4107 51.22C90.0427 50.652 90.8747 50.368 91.9067 50.368C92.9387 50.368 93.7667 50.652 94.3907 51.22C95.0227 51.788 95.3387 52.548 95.3387 53.5C95.3387 54.444 95.0227 55.2 94.3907 55.768ZM90.6347 54.664C90.8827 54.904 91.3067 55.024 91.9067 55.024C92.5067 55.024 92.9307 54.904 93.1787 54.664C93.4267 54.424 93.5507 54.036 93.5507 53.5C93.5507 52.964 93.4227 52.572 93.1667 52.324C92.9187 52.076 92.4987 51.952 91.9067 51.952C91.3067 51.952 90.8827 52.076 90.6347 52.324C90.3867 52.564 90.2627 52.956 90.2627 53.5C90.2627 54.036 90.3867 54.424 90.6347 54.664ZM99.2778 56.62C98.2458 56.62 97.4218 56.34 96.8058 55.78C96.1978 55.212 95.8938 54.452 95.8938 53.5C95.8938 52.54 96.1978 51.78 96.8058 51.22C97.4218 50.652 98.2458 50.368 99.2778 50.368C100.246 50.368 101.03 50.608 101.63 51.088C102.23 51.56 102.53 52.184 102.53 52.96V53.128H100.742V53.032C100.742 52.336 100.242 51.988 99.2418 51.988C98.6978 51.988 98.3018 52.104 98.0538 52.336C97.8058 52.568 97.6818 52.956 97.6818 53.5C97.6818 54.044 97.8058 54.432 98.0538 54.664C98.3018 54.888 98.6978 55 99.2418 55C100.242 55 100.742 54.652 100.742 53.956V53.86H102.53V54.028C102.53 54.804 102.23 55.432 101.63 55.912C101.03 56.384 100.246 56.62 99.2778 56.62ZM105.104 56.5H103.304V48.46H105.104V52.72H106.472L108.008 50.488H110.144L107.948 53.392L110.108 56.5H107.984L106.484 54.328H105.104V56.5ZM114.281 56.62C113.633 56.62 113.125 56.48 112.757 56.2C112.389 55.912 112.205 55.516 112.205 55.012C112.205 54.1 112.853 53.576 114.149 53.44L116.729 53.176V52.948C116.729 52.564 116.633 52.304 116.441 52.168C116.249 52.024 115.909 51.952 115.421 51.952C114.957 51.952 114.625 52.024 114.425 52.168C114.233 52.304 114.137 52.54 114.137 52.876V52.924H112.325V52.888C112.325 52.136 112.617 51.528 113.201 51.064C113.785 50.6 114.569 50.368 115.553 50.368C116.529 50.368 117.265 50.6 117.761 51.064C118.257 51.528 118.505 52.164 118.505 52.972V56.5H116.825V55.12H116.729C116.585 55.592 116.305 55.96 115.889 56.224C115.473 56.488 114.937 56.62 114.281 56.62ZM114.017 54.892C114.017 55.196 114.277 55.348 114.797 55.348C115.429 55.348 115.901 55.264 116.213 55.096C116.533 54.92 116.705 54.624 116.729 54.208L114.641 54.448C114.225 54.48 114.017 54.628 114.017 54.892ZM121.218 56.5H119.418V50.488H121.086V52.336H121.194C121.282 51.776 121.526 51.308 121.926 50.932C122.334 50.556 122.906 50.368 123.642 50.368C124.434 50.368 125.034 50.592 125.442 51.04C125.858 51.48 126.066 52.052 126.066 52.756V56.5H124.266V53.356C124.266 52.868 124.15 52.52 123.918 52.312C123.694 52.096 123.31 51.988 122.766 51.988C122.206 51.988 121.806 52.104 121.566 52.336C121.334 52.568 121.218 52.944 121.218 53.464V56.5ZM132.02 56.62C130.98 56.62 130.156 56.36 129.548 55.84C128.948 55.312 128.648 54.532 128.648 53.5C128.648 52.548 128.952 51.788 129.56 51.22C130.176 50.652 130.984 50.368 131.984 50.368C132.984 50.368 133.78 50.624 134.372 51.136C134.964 51.64 135.26 52.356 135.26 53.284C135.26 53.396 135.244 53.588 135.212 53.86H130.316C130.34 54.332 130.476 54.672 130.724 54.88C130.972 55.08 131.384 55.18 131.96 55.18C132.48 55.18 132.848 55.116 133.064 54.988C133.288 54.852 133.4 54.652 133.4 54.388V54.268H135.2V54.4C135.2 55.056 134.908 55.592 134.324 56.008C133.74 56.416 132.972 56.62 132.02 56.62ZM133.112 52.048C132.864 51.864 132.476 51.772 131.948 51.772C131.42 51.772 131.028 51.864 130.772 52.048C130.524 52.232 130.38 52.52 130.34 52.912H133.532C133.508 52.512 133.368 52.224 133.112 52.048ZM137.667 56.5H135.495L137.895 53.56V53.464L135.495 50.488H137.691L139.287 52.516H139.383L140.931 50.488H143.103L140.703 53.428V53.536L143.103 56.5H140.907L139.311 54.484H139.215L137.667 56.5ZM146.739 56.62C145.707 56.62 144.883 56.34 144.267 55.78C143.659 55.212 143.355 54.452 143.355 53.5C143.355 52.54 143.659 51.78 144.267 51.22C144.883 50.652 145.707 50.368 146.739 50.368C147.707 50.368 148.491 50.608 149.091 51.088C149.691 51.56 149.991 52.184 149.991 52.96V53.128H148.203V53.032C148.203 52.336 147.703 51.988 146.703 51.988C146.159 51.988 145.763 52.104 145.515 52.336C145.267 52.568 145.143 52.956 145.143 53.5C145.143 54.044 145.267 54.432 145.515 54.664C145.763 54.888 146.159 55 146.703 55C147.703 55 148.203 54.652 148.203 53.956V53.86H149.991V54.028C149.991 54.804 149.691 55.432 149.091 55.912C148.491 56.384 147.707 56.62 146.739 56.62ZM152.565 56.5H150.765V48.46H152.565V56.5ZM155.991 56.62C155.175 56.62 154.555 56.4 154.131 55.96C153.707 55.512 153.495 54.936 153.495 54.232V50.488H155.295V53.632C155.295 54.12 155.411 54.472 155.643 54.688C155.883 54.904 156.283 55.012 156.843 55.012C157.419 55.012 157.827 54.896 158.067 54.664C158.315 54.432 158.439 54.056 158.439 53.536V50.488H160.239V56.5H158.559V54.664H158.463C158.375 55.224 158.123 55.692 157.707 56.068C157.299 56.436 156.727 56.62 155.991 56.62ZM164.196 56.62C163.188 56.62 162.412 56.432 161.868 56.056C161.324 55.672 161.052 55.132 161.052 54.436V54.4H162.852V54.508C162.852 54.772 162.948 54.952 163.14 55.048C163.332 55.144 163.688 55.192 164.208 55.192C164.672 55.192 164.984 55.152 165.144 55.072C165.312 54.992 165.396 54.86 165.396 54.676C165.396 54.508 165.336 54.392 165.216 54.328C165.104 54.256 164.868 54.196 164.508 54.148L162.816 53.944C161.568 53.808 160.944 53.248 160.944 52.264C160.944 51.704 161.192 51.248 161.688 50.896C162.184 50.544 162.924 50.368 163.908 50.368C164.9 50.368 165.66 50.556 166.188 50.932C166.724 51.3 166.992 51.848 166.992 52.576V52.612H165.192V52.54C165.192 52.276 165.1 52.088 164.916 51.976C164.732 51.856 164.376 51.796 163.848 51.796C163.408 51.796 163.108 51.836 162.948 51.916C162.796 51.996 162.72 52.136 162.72 52.336C162.72 52.496 162.784 52.616 162.912 52.696C163.04 52.768 163.296 52.828 163.68 52.876L164.964 53.032C165.756 53.12 166.32 53.304 166.656 53.584C167 53.856 167.172 54.244 167.172 54.748C167.172 55.316 166.904 55.772 166.368 56.116C165.84 56.452 165.116 56.62 164.196 56.62ZM169.698 49.876H167.898V48.46H169.698V49.876ZM169.698 56.5H167.898V50.488H169.698V56.5ZM175.116 56.5H172.896L170.16 50.488H172.164L173.964 54.748H174.084L175.896 50.488H177.864L175.116 56.5ZM181.531 56.62C180.491 56.62 179.667 56.36 179.059 55.84C178.459 55.312 178.159 54.532 178.159 53.5C178.159 52.548 178.463 51.788 179.071 51.22C179.687 50.652 180.495 50.368 181.495 50.368C182.495 50.368 183.291 50.624 183.883 51.136C184.475 51.64 184.771 52.356 184.771 53.284C184.771 53.396 184.755 53.588 184.723 53.86H179.827C179.851 54.332 179.987 54.672 180.235 54.88C180.483 55.08 180.895 55.18 181.471 55.18C181.991 55.18 182.359 55.116 182.575 54.988C182.799 54.852 182.911 54.652 182.911 54.388V54.268H184.711V54.4C184.711 55.056 184.419 55.592 183.835 56.008C183.251 56.416 182.483 56.62 181.531 56.62ZM182.623 52.048C182.375 51.864 181.987 51.772 181.459 51.772C180.931 51.772 180.539 51.864 180.283 52.048C180.035 52.232 179.891 52.52 179.851 52.912H183.043C183.019 52.512 182.879 52.224 182.623 52.048ZM189.186 56.5H187.386V50.488H189.054V52.336H189.162C189.25 51.776 189.494 51.308 189.894 50.932C190.302 50.556 190.874 50.368 191.61 50.368C192.402 50.368 193.002 50.592 193.41 51.04C193.826 51.48 194.034 52.052 194.034 52.756V56.5H192.234V53.356C192.234 52.868 192.118 52.52 191.886 52.312C191.662 52.096 191.278 51.988 190.734 51.988C190.174 51.988 189.774 52.104 189.534 52.336C189.302 52.568 189.186 52.944 189.186 53.464V56.5ZM198.137 56.62C197.097 56.62 196.273 56.36 195.665 55.84C195.065 55.312 194.765 54.532 194.765 53.5C194.765 52.548 195.069 51.788 195.677 51.22C196.293 50.652 197.101 50.368 198.101 50.368C199.101 50.368 199.897 50.624 200.489 51.136C201.081 51.64 201.377 52.356 201.377 53.284C201.377 53.396 201.361 53.588 201.329 53.86H196.433C196.457 54.332 196.593 54.672 196.841 54.88C197.089 55.08 197.501 55.18 198.077 55.18C198.597 55.18 198.965 55.116 199.181 54.988C199.405 54.852 199.517 54.652 199.517 54.388V54.268H201.317V54.4C201.317 55.056 201.025 55.592 200.441 56.008C199.857 56.416 199.089 56.62 198.137 56.62ZM199.229 52.048C198.981 51.864 198.593 51.772 198.065 51.772C197.537 51.772 197.145 51.864 196.889 52.048C196.641 52.232 196.497 52.52 196.457 52.912H199.649C199.625 52.512 199.485 52.224 199.229 52.048ZM206.376 56.5H204.888C203.384 56.5 202.632 55.776 202.632 54.328V51.976H201.684V50.488H202.632V49.324H204.432V50.488H206.376V51.976H204.432V54.124C204.432 54.42 204.492 54.62 204.612 54.724C204.74 54.828 204.968 54.88 205.296 54.88H206.376V56.5ZM210.458 56.5H208.214L206.57 50.488H208.43L209.138 53.236L209.39 55.108H209.51L209.99 53.056L210.902 50.488H213.218L214.118 53.056L214.598 55.108H214.718L214.982 53.236L215.678 50.488H217.514L215.81 56.5H213.566L212.534 53.608L212.09 51.952H211.958L211.502 53.608L210.458 56.5ZM223.684 55.768C223.06 56.336 222.232 56.62 221.2 56.62C220.168 56.62 219.336 56.336 218.704 55.768C218.08 55.2 217.768 54.444 217.768 53.5C217.768 52.548 218.08 51.788 218.704 51.22C219.336 50.652 220.168 50.368 221.2 50.368C222.232 50.368 223.06 50.652 223.684 51.22C224.316 51.788 224.632 52.548 224.632 53.5C224.632 54.444 224.316 55.2 223.684 55.768ZM219.928 54.664C220.176 54.904 220.6 55.024 221.2 55.024C221.8 55.024 222.224 54.904 222.472 54.664C222.72 54.424 222.844 54.036 222.844 53.5C222.844 52.964 222.716 52.572 222.46 52.324C222.212 52.076 221.792 51.952 221.2 51.952C220.6 51.952 220.176 52.076 219.928 52.324C219.68 52.564 219.556 52.956 219.556 53.5C219.556 54.036 219.68 54.424 219.928 54.664ZM227.167 56.5H225.367V50.488H227.035V52.084H227.143C227.231 51.564 227.443 51.148 227.779 50.836C228.123 50.524 228.583 50.368 229.159 50.368C229.799 50.368 230.275 50.56 230.587 50.944C230.899 51.328 231.055 51.836 231.055 52.468V53.464H229.255V52.84C229.255 52.504 229.179 52.264 229.027 52.12C228.875 51.968 228.619 51.892 228.259 51.892C227.867 51.892 227.587 51.984 227.419 52.168C227.251 52.352 227.167 52.636 227.167 53.02V56.5ZM233.507 56.5H231.707V48.46H233.507V52.72H234.875L236.411 50.488H238.547L236.351 53.392L238.511 56.5H236.387L234.887 54.328H233.507V56.5ZM246.523 55.768C245.899 56.336 245.071 56.62 244.039 56.62C243.007 56.62 242.175 56.336 241.543 55.768C240.919 55.2 240.607 54.444 240.607 53.5C240.607 52.548 240.919 51.788 241.543 51.22C242.175 50.652 243.007 50.368 244.039 50.368C245.071 50.368 245.899 50.652 246.523 51.22C247.155 51.788 247.471 52.548 247.471 53.5C247.471 54.444 247.155 55.2 246.523 55.768ZM242.767 54.664C243.015 54.904 243.439 55.024 244.039 55.024C244.639 55.024 245.063 54.904 245.311 54.664C245.559 54.424 245.683 54.036 245.683 53.5C245.683 52.964 245.555 52.572 245.299 52.324C245.051 52.076 244.631 51.952 244.039 51.952C243.439 51.952 243.015 52.076 242.767 52.324C242.519 52.564 242.395 52.956 242.395 53.5C242.395 54.036 242.519 54.424 242.767 54.664ZM250.487 56.5H248.687V51.976H247.835V50.488H248.723C248.819 49.864 249.131 49.372 249.659 49.012C250.195 48.644 250.915 48.46 251.819 48.46H252.347V49.768H251.531C251.115 49.768 250.819 49.82 250.643 49.924C250.467 50.02 250.391 50.208 250.415 50.488H252.347V51.976H250.487V56.5ZM256.593 56.5H254.793V50.488H256.461V52.084H256.569C256.657 51.564 256.869 51.148 257.205 50.836C257.549 50.524 258.009 50.368 258.585 50.368C259.225 50.368 259.701 50.56 260.013 50.944C260.325 51.328 260.48 51.836 260.48 52.468V53.464H258.681V52.84C258.681 52.504 258.605 52.264 258.453 52.12C258.301 51.968 258.045 51.892 257.685 51.892C257.293 51.892 257.013 51.984 256.845 52.168C256.677 52.352 256.593 52.636 256.593 53.02V56.5ZM264.324 56.62C263.284 56.62 262.46 56.36 261.852 55.84C261.252 55.312 260.952 54.532 260.952 53.5C260.952 52.548 261.256 51.788 261.864 51.22C262.48 50.652 263.288 50.368 264.288 50.368C265.288 50.368 266.084 50.624 266.676 51.136C267.268 51.64 267.564 52.356 267.564 53.284C267.564 53.396 267.548 53.588 267.516 53.86H262.62C262.644 54.332 262.78 54.672 263.028 54.88C263.276 55.08 263.688 55.18 264.264 55.18C264.784 55.18 265.152 55.116 265.368 54.988C265.592 54.852 265.704 54.652 265.704 54.388V54.268H267.504V54.4C267.504 55.056 267.212 55.592 266.628 56.008C266.044 56.416 265.276 56.62 264.324 56.62ZM265.416 52.048C265.168 51.864 264.78 51.772 264.252 51.772C263.724 51.772 263.332 51.864 263.076 52.048C262.828 52.232 262.684 52.52 262.644 52.912H265.836C265.812 52.512 265.672 52.224 265.416 52.048ZM271.736 56.5H269.492L267.848 50.488H269.708L270.416 53.236L270.668 55.108H270.788L271.268 53.056L272.18 50.488H274.496L275.396 53.056L275.876 55.108H275.996L276.26 53.236L276.956 50.488H278.792L277.088 56.5H274.844L273.812 53.608L273.368 51.952H273.236L272.78 53.608L271.736 56.5ZM281.121 56.62C280.473 56.62 279.965 56.48 279.597 56.2C279.229 55.912 279.045 55.516 279.045 55.012C279.045 54.1 279.693 53.576 280.989 53.44L283.569 53.176V52.948C283.569 52.564 283.473 52.304 283.281 52.168C283.089 52.024 282.749 51.952 282.261 51.952C281.797 51.952 281.465 52.024 281.265 52.168C281.073 52.304 280.977 52.54 280.977 52.876V52.924H279.165V52.888C279.165 52.136 279.457 51.528 280.041 51.064C280.625 50.6 281.409 50.368 282.393 50.368C283.369 50.368 284.105 50.6 284.601 51.064C285.097 51.528 285.345 52.164 285.345 52.972V56.5H283.665V55.12H283.569C283.425 55.592 283.145 55.96 282.729 56.224C282.313 56.488 281.777 56.62 281.121 56.62ZM280.857 54.892C280.857 55.196 281.117 55.348 281.637 55.348C282.269 55.348 282.741 55.264 283.053 55.096C283.373 54.92 283.545 54.624 283.569 54.208L281.481 54.448C281.065 54.48 280.857 54.628 280.857 54.892ZM288.057 56.5H286.257V50.488H287.925V52.084H288.033C288.121 51.564 288.333 51.148 288.669 50.836C289.013 50.524 289.473 50.368 290.049 50.368C290.689 50.368 291.165 50.56 291.477 50.944C291.789 51.328 291.945 51.836 291.945 52.468V53.464H290.145V52.84C290.145 52.504 290.069 52.264 289.917 52.12C289.765 51.968 289.509 51.892 289.149 51.892C288.757 51.892 288.477 51.984 288.309 52.168C288.141 52.352 288.057 52.636 288.057 53.02V56.5ZM295.285 56.62C294.365 56.62 293.649 56.34 293.137 55.78C292.633 55.22 292.381 54.46 292.381 53.5C292.381 52.532 292.625 51.768 293.113 51.208C293.609 50.648 294.301 50.368 295.189 50.368C295.877 50.368 296.417 50.524 296.809 50.836C297.201 51.14 297.449 51.556 297.553 52.084H297.661V48.46H299.461V56.5H297.781V54.832H297.685C297.453 56.024 296.653 56.62 295.285 56.62ZM294.205 53.5C294.205 54.036 294.337 54.416 294.601 54.64C294.873 54.864 295.305 54.976 295.897 54.976C296.489 54.976 296.929 54.864 297.217 54.64C297.513 54.416 297.661 54.048 297.661 53.536V53.44C297.661 52.928 297.513 52.564 297.217 52.348C296.929 52.124 296.489 52.012 295.897 52.012C295.305 52.012 294.873 52.124 294.601 52.348C294.337 52.572 294.205 52.956 294.205 53.5ZM303.45 56.62C302.442 56.62 301.666 56.432 301.122 56.056C300.578 55.672 300.306 55.132 300.306 54.436V54.4H302.106V54.508C302.106 54.772 302.202 54.952 302.394 55.048C302.586 55.144 302.942 55.192 303.462 55.192C303.926 55.192 304.238 55.152 304.398 55.072C304.566 54.992 304.65 54.86 304.65 54.676C304.65 54.508 304.59 54.392 304.47 54.328C304.358 54.256 304.122 54.196 303.762 54.148L302.07 53.944C300.822 53.808 300.198 53.248 300.198 52.264C300.198 51.704 300.446 51.248 300.942 50.896C301.438 50.544 302.178 50.368 303.162 50.368C304.154 50.368 304.914 50.556 305.442 50.932C305.978 51.3 306.246 51.848 306.246 52.576V52.612H304.446V52.54C304.446 52.276 304.354 52.088 304.17 51.976C303.986 51.856 303.63 51.796 303.102 51.796C302.662 51.796 302.362 51.836 302.202 51.916C302.05 51.996 301.974 52.136 301.974 52.336C301.974 52.496 302.038 52.616 302.166 52.696C302.294 52.768 302.55 52.828 302.934 52.876L304.218 53.032C305.01 53.12 305.574 53.304 305.91 53.584C306.254 53.856 306.426 54.244 306.426 54.748C306.426 55.316 306.158 55.772 305.622 56.116C305.094 56.452 304.37 56.62 303.45 56.62ZM309.348 56.5H307.032V54.4H309.348V56.5ZM18.28 74.5H16.48V66.46H18.28V74.5ZM21.0222 74.5H19.2222V68.488H20.8902V70.336H20.9982C21.0862 69.776 21.3302 69.308 21.7302 68.932C22.1382 68.556 22.7102 68.368 23.4462 68.368C24.2382 68.368 24.8382 68.592 25.2462 69.04C25.6622 69.48 25.8702 70.052 25.8702 70.756V74.5H24.0702V71.356C24.0702 70.868 23.9542 70.52 23.7222 70.312C23.4982 70.096 23.1142 69.988 22.5702 69.988C22.0102 69.988 21.6102 70.104 21.3702 70.336C21.1382 70.568 21.0222 70.944 21.0222 71.464V74.5ZM31.2568 74.5H29.0368L26.3008 68.488H28.3048L30.1048 72.748H30.2248L32.0368 68.488H34.0048L31.2568 74.5ZM36.28 67.876H34.48V66.46H36.28V67.876ZM36.28 74.5H34.48V68.488H36.28V74.5ZM41.4582 74.5H39.9702C38.4662 74.5 37.7142 73.776 37.7142 72.328V69.976H36.7662V68.488H37.7142V67.324H39.5142V68.488H41.4582V69.976H39.5142V72.124C39.5142 72.42 39.5742 72.62 39.6942 72.724C39.8222 72.828 40.0502 72.88 40.3782 72.88H41.4582V74.5ZM45.3243 74.62C44.2843 74.62 43.4603 74.36 42.8523 73.84C42.2523 73.312 41.9523 72.532 41.9523 71.5C41.9523 70.548 42.2563 69.788 42.8643 69.22C43.4803 68.652 44.2883 68.368 45.2883 68.368C46.2883 68.368 47.0843 68.624 47.6763 69.136C48.2683 69.64 48.5643 70.356 48.5643 71.284C48.5643 71.396 48.5483 71.588 48.5163 71.86H43.6203C43.6443 72.332 43.7803 72.672 44.0283 72.88C44.2763 73.08 44.6883 73.18 45.2643 73.18C45.7843 73.18 46.1523 73.116 46.3683 72.988C46.5923 72.852 46.7043 72.652 46.7043 72.388V72.268H48.5043V72.4C48.5043 73.056 48.2123 73.592 47.6283 74.008C47.0443 74.416 46.2763 74.62 45.3243 74.62ZM46.4163 70.048C46.1683 69.864 45.7803 69.772 45.2523 69.772C44.7243 69.772 44.3323 69.864 44.0763 70.048C43.8283 70.232 43.6843 70.52 43.6443 70.912H46.8363C46.8123 70.512 46.6723 70.224 46.4163 70.048ZM49.9157 76.192H49.2797V75.076H49.8677C49.9957 75.076 50.0877 75.052 50.1437 75.004C50.1997 74.956 50.2277 74.856 50.2277 74.704V74.5H49.2077V72.4H51.5237V74.692C51.5237 75.692 50.9877 76.192 49.9157 76.192ZM57.4064 74.62C56.3664 74.62 55.5424 74.36 54.9344 73.84C54.3344 73.312 54.0344 72.532 54.0344 71.5C54.0344 70.548 54.3384 69.788 54.9464 69.22C55.5624 68.652 56.3704 68.368 57.3704 68.368C58.3704 68.368 59.1664 68.624 59.7584 69.136C60.3504 69.64 60.6464 70.356 60.6464 71.284C60.6464 71.396 60.6304 71.588 60.5984 71.86H55.7024C55.7264 72.332 55.8624 72.672 56.1104 72.88C56.3584 73.08 56.7704 73.18 57.3464 73.18C57.8664 73.18 58.2344 73.116 58.4504 72.988C58.6744 72.852 58.7864 72.652 58.7864 72.388V72.268H60.5864V72.4C60.5864 73.056 60.2944 73.592 59.7104 74.008C59.1264 74.416 58.3584 74.62 57.4064 74.62ZM58.4984 70.048C58.2504 69.864 57.8624 69.772 57.3344 69.772C56.8064 69.772 56.4144 69.864 56.1584 70.048C55.9104 70.232 55.7664 70.52 55.7264 70.912H58.9184C58.8944 70.512 58.7544 70.224 58.4984 70.048ZM63.2097 74.5H61.4097V66.46H63.2097V74.5ZM67.3439 74.62C66.3039 74.62 65.4799 74.36 64.8719 73.84C64.2719 73.312 63.9719 72.532 63.9719 71.5C63.9719 70.548 64.2759 69.788 64.8839 69.22C65.4999 68.652 66.3079 68.368 67.3079 68.368C68.3079 68.368 69.1039 68.624 69.6959 69.136C70.2879 69.64 70.5839 70.356 70.5839 71.284C70.5839 71.396 70.5679 71.588 70.5359 71.86H65.6399C65.6639 72.332 65.7999 72.672 66.0479 72.88C66.2959 73.08 66.7079 73.18 67.2839 73.18C67.8039 73.18 68.1719 73.116 68.3879 72.988C68.6119 72.852 68.7239 72.652 68.7239 72.388V72.268H70.5239V72.4C70.5239 73.056 70.2319 73.592 69.6479 74.008C69.0639 74.416 68.2959 74.62 67.3439 74.62ZM68.4359 70.048C68.1879 69.864 67.7999 69.772 67.2719 69.772C66.7439 69.772 66.3519 69.864 66.0959 70.048C65.8479 70.232 65.7039 70.52 65.6639 70.912H68.8559C68.8319 70.512 68.6919 70.224 68.4359 70.048ZM75.8232 74.5H73.6032L70.8672 68.488H72.8712L74.6712 72.748H74.7912L76.6032 68.488H78.5712L75.8232 74.5ZM80.8944 74.62C80.2464 74.62 79.7384 74.48 79.3704 74.2C79.0024 73.912 78.8184 73.516 78.8184 73.012C78.8184 72.1 79.4664 71.576 80.7624 71.44L83.3424 71.176V70.948C83.3424 70.564 83.2464 70.304 83.0544 70.168C82.8624 70.024 82.5224 69.952 82.0344 69.952C81.5704 69.952 81.2384 70.024 81.0384 70.168C80.8464 70.304 80.7504 70.54 80.7504 70.876V70.924H78.9384V70.888C78.9384 70.136 79.2304 69.528 79.8144 69.064C80.3984 68.6 81.1824 68.368 82.1664 68.368C83.1424 68.368 83.8784 68.6 84.3744 69.064C84.8704 69.528 85.1184 70.164 85.1184 70.972V74.5H83.4384V73.12H83.3424C83.1984 73.592 82.9184 73.96 82.5024 74.224C82.0864 74.488 81.5504 74.62 80.8944 74.62ZM80.6304 72.892C80.6304 73.196 80.8904 73.348 81.4104 73.348C82.0424 73.348 82.5144 73.264 82.8264 73.096C83.1464 72.92 83.3184 72.624 83.3424 72.208L81.2544 72.448C80.8384 72.48 80.6304 72.628 80.6304 72.892ZM90.2668 74.5H88.7788C87.2748 74.5 86.5228 73.776 86.5228 72.328V69.976H85.5748V68.488H86.5228V67.324H88.3228V68.488H90.2668V69.976H88.3228V72.124C88.3228 72.42 88.3828 72.62 88.5028 72.724C88.6308 72.828 88.8588 72.88 89.1868 72.88H90.2668V74.5ZM94.1329 74.62C93.0929 74.62 92.2689 74.36 91.6609 73.84C91.0609 73.312 90.7609 72.532 90.7609 71.5C90.7609 70.548 91.0649 69.788 91.6729 69.22C92.2889 68.652 93.0969 68.368 94.0969 68.368C95.0969 68.368 95.8929 68.624 96.4849 69.136C97.0769 69.64 97.3729 70.356 97.3729 71.284C97.3729 71.396 97.3569 71.588 97.3249 71.86H92.4289C92.4529 72.332 92.5889 72.672 92.8369 72.88C93.0849 73.08 93.4969 73.18 94.0729 73.18C94.5929 73.18 94.9609 73.116 95.1769 72.988C95.4009 72.852 95.5129 72.652 95.5129 72.388V72.268H97.3129V72.4C97.3129 73.056 97.0209 73.592 96.4369 74.008C95.8529 74.416 95.0849 74.62 94.1329 74.62ZM95.2249 70.048C94.9769 69.864 94.5889 69.772 94.0609 69.772C93.5329 69.772 93.1409 69.864 92.8849 70.048C92.6369 70.232 92.4929 70.52 92.4529 70.912H95.6449C95.6209 70.512 95.4809 70.224 95.2249 70.048ZM98.7243 76.192H98.0883V75.076H98.6763C98.8043 75.076 98.8963 75.052 98.9523 75.004C99.0083 74.956 99.0363 74.856 99.0363 74.704V74.5H98.0163V72.4H100.332V74.692C100.332 75.692 99.7963 76.192 98.7243 76.192ZM104.871 74.62C104.223 74.62 103.715 74.48 103.347 74.2C102.979 73.912 102.795 73.516 102.795 73.012C102.795 72.1 103.443 71.576 104.739 71.44L107.319 71.176V70.948C107.319 70.564 107.223 70.304 107.031 70.168C106.839 70.024 106.499 69.952 106.011 69.952C105.547 69.952 105.215 70.024 105.015 70.168C104.823 70.304 104.727 70.54 104.727 70.876V70.924H102.915V70.888C102.915 70.136 103.207 69.528 103.791 69.064C104.375 68.6 105.159 68.368 106.143 68.368C107.119 68.368 107.855 68.6 108.351 69.064C108.847 69.528 109.095 70.164 109.095 70.972V74.5H107.415V73.12H107.319C107.175 73.592 106.895 73.96 106.479 74.224C106.063 74.488 105.527 74.62 104.871 74.62ZM104.607 72.892C104.607 73.196 104.867 73.348 105.387 73.348C106.019 73.348 106.491 73.264 106.803 73.096C107.123 72.92 107.295 72.624 107.319 72.208L105.231 72.448C104.815 72.48 104.607 72.628 104.607 72.892ZM111.807 74.5H110.007V68.488H111.675V70.336H111.783C111.871 69.776 112.115 69.308 112.515 68.932C112.923 68.556 113.495 68.368 114.231 68.368C115.023 68.368 115.623 68.592 116.031 69.04C116.447 69.48 116.655 70.052 116.655 70.756V74.5H114.855V71.356C114.855 70.868 114.739 70.52 114.507 70.312C114.283 70.096 113.899 69.988 113.355 69.988C112.795 69.988 112.395 70.104 112.155 70.336C111.923 70.568 111.807 70.944 111.807 71.464V74.5ZM120.254 74.62C119.334 74.62 118.618 74.34 118.106 73.78C117.602 73.22 117.35 72.46 117.35 71.5C117.35 70.532 117.594 69.768 118.082 69.208C118.578 68.648 119.27 68.368 120.158 68.368C120.846 68.368 121.386 68.524 121.778 68.836C122.17 69.14 122.418 69.556 122.522 70.084H122.63V66.46H124.43V74.5H122.75V72.832H122.654C122.422 74.024 121.622 74.62 120.254 74.62ZM119.174 71.5C119.174 72.036 119.306 72.416 119.57 72.64C119.842 72.864 120.274 72.976 120.866 72.976C121.458 72.976 121.898 72.864 122.186 72.64C122.482 72.416 122.63 72.048 122.63 71.536V71.44C122.63 70.928 122.482 70.564 122.186 70.348C121.898 70.124 121.458 70.012 120.866 70.012C120.274 70.012 119.842 70.124 119.57 70.348C119.306 70.572 119.174 70.956 119.174 71.5ZM128.902 74.5H127.234V66.46H129.034V70.084H129.13C129.234 69.556 129.482 69.14 129.874 68.836C130.266 68.524 130.806 68.368 131.494 68.368C132.382 68.368 133.07 68.648 133.558 69.208C134.054 69.768 134.302 70.532 134.302 71.5C134.302 72.46 134.05 73.22 133.546 73.78C133.042 74.34 132.33 74.62 131.41 74.62C130.026 74.62 129.226 74.024 129.01 72.832H128.902V74.5ZM129.034 71.536C129.034 72.048 129.178 72.416 129.466 72.64C129.762 72.864 130.202 72.976 130.786 72.976C131.378 72.976 131.806 72.864 132.07 72.64C132.342 72.416 132.478 72.036 132.478 71.5C132.478 70.956 132.346 70.572 132.082 70.348C131.818 70.124 131.39 70.012 130.798 70.012C130.198 70.012 129.754 70.124 129.466 70.348C129.178 70.564 129.034 70.928 129.034 71.44V71.536ZM137.534 74.62C136.718 74.62 136.098 74.4 135.674 73.96C135.25 73.512 135.038 72.936 135.038 72.232V68.488H136.838V71.632C136.838 72.12 136.954 72.472 137.186 72.688C137.426 72.904 137.826 73.012 138.386 73.012C138.962 73.012 139.37 72.896 139.61 72.664C139.858 72.432 139.982 72.056 139.982 71.536V68.488H141.782V74.5H140.102V72.664H140.006C139.918 73.224 139.666 73.692 139.25 74.068C138.842 74.436 138.27 74.62 137.534 74.62ZM144.503 67.876H142.703V66.46H144.503V67.876ZM144.503 74.5H142.703V68.488H144.503V74.5ZM147.245 74.5H145.445V66.46H147.245V74.5ZM150.875 74.62C149.955 74.62 149.239 74.34 148.727 73.78C148.223 73.22 147.971 72.46 147.971 71.5C147.971 70.532 148.215 69.768 148.703 69.208C149.199 68.648 149.891 68.368 150.779 68.368C151.467 68.368 152.007 68.524 152.399 68.836C152.791 69.14 153.039 69.556 153.143 70.084H153.251V66.46H155.051V74.5H153.371V72.832H153.275C153.043 74.024 152.243 74.62 150.875 74.62ZM149.795 71.5C149.795 72.036 149.927 72.416 150.191 72.64C150.463 72.864 150.895 72.976 151.487 72.976C152.079 72.976 152.519 72.864 152.807 72.64C153.103 72.416 153.251 72.048 153.251 71.536V71.44C153.251 70.928 153.103 70.564 152.807 70.348C152.519 70.124 152.079 70.012 151.487 70.012C150.895 70.012 150.463 70.124 150.191 70.348C149.927 70.572 149.795 70.956 149.795 71.5ZM159.655 74.5H157.855V66.46H159.655V74.5ZM162.445 74.62C161.797 74.62 161.289 74.48 160.921 74.2C160.553 73.912 160.369 73.516 160.369 73.012C160.369 72.1 161.017 71.576 162.313 71.44L164.893 71.176V70.948C164.893 70.564 164.797 70.304 164.605 70.168C164.413 70.024 164.073 69.952 163.585 69.952C163.121 69.952 162.789 70.024 162.589 70.168C162.397 70.304 162.301 70.54 162.301 70.876V70.924H160.489V70.888C160.489 70.136 160.781 69.528 161.365 69.064C161.949 68.6 162.733 68.368 163.717 68.368C164.693 68.368 165.429 68.6 165.925 69.064C166.421 69.528 166.669 70.164 166.669 70.972V74.5H164.989V73.12H164.893C164.749 73.592 164.469 73.96 164.053 74.224C163.637 74.488 163.101 74.62 162.445 74.62ZM162.181 72.892C162.181 73.196 162.441 73.348 162.961 73.348C163.593 73.348 164.065 73.264 164.377 73.096C164.697 72.92 164.869 72.624 164.893 72.208L162.805 72.448C162.389 72.48 162.181 72.628 162.181 72.892ZM170.618 74.62C169.61 74.62 168.834 74.432 168.29 74.056C167.746 73.672 167.474 73.132 167.474 72.436V72.4H169.274V72.508C169.274 72.772 169.37 72.952 169.562 73.048C169.754 73.144 170.11 73.192 170.63 73.192C171.094 73.192 171.406 73.152 171.566 73.072C171.734 72.992 171.818 72.86 171.818 72.676C171.818 72.508 171.758 72.392 171.638 72.328C171.526 72.256 171.29 72.196 170.93 72.148L169.238 71.944C167.99 71.808 167.366 71.248 167.366 70.264C167.366 69.704 167.614 69.248 168.11 68.896C168.606 68.544 169.346 68.368 170.33 68.368C171.322 68.368 172.082 68.556 172.61 68.932C173.146 69.3 173.414 69.848 173.414 70.576V70.612H171.614V70.54C171.614 70.276 171.522 70.088 171.338 69.976C171.154 69.856 170.798 69.796 170.27 69.796C169.83 69.796 169.53 69.836 169.37 69.916C169.218 69.996 169.142 70.136 169.142 70.336C169.142 70.496 169.206 70.616 169.334 70.696C169.462 70.768 169.718 70.828 170.102 70.876L171.386 71.032C172.178 71.12 172.742 71.304 173.078 71.584C173.422 71.856 173.594 72.244 173.594 72.748C173.594 73.316 173.326 73.772 172.79 74.116C172.262 74.452 171.538 74.62 170.618 74.62ZM178.556 74.5H177.068C175.564 74.5 174.812 73.776 174.812 72.328V69.976H173.864V68.488H174.812V67.324H176.612V68.488H178.556V69.976H176.612V72.124C176.612 72.42 176.672 72.62 176.792 72.724C176.92 72.828 177.148 72.88 177.476 72.88H178.556V74.5ZM181.03 67.876H179.23V66.46H181.03V67.876ZM181.03 74.5H179.23V68.488H181.03V74.5ZM183.772 74.5H181.972V68.488H183.64V70.336H183.748C183.836 69.776 184.08 69.308 184.48 68.932C184.888 68.556 185.46 68.368 186.196 68.368C186.988 68.368 187.588 68.592 187.996 69.04C188.412 69.48 188.62 70.052 188.62 70.756V74.5H186.82V71.356C186.82 70.868 186.704 70.52 186.472 70.312C186.248 70.096 185.864 69.988 185.32 69.988C184.76 69.988 184.36 70.104 184.12 70.336C183.888 70.568 183.772 70.944 183.772 71.464V74.5ZM192.171 73.888C191.283 73.888 190.591 73.644 190.095 73.156C189.599 72.66 189.351 71.984 189.351 71.128C189.351 70.28 189.607 69.608 190.119 69.112C190.639 68.616 191.347 68.368 192.243 68.368C192.867 68.368 193.379 68.504 193.779 68.776C194.187 69.04 194.439 69.428 194.535 69.94H194.631V68.488H196.311V73.624C196.311 75.648 195.171 76.66 192.891 76.66C191.907 76.66 191.131 76.452 190.563 76.036C190.003 75.62 189.723 75.036 189.723 74.284H191.523C191.523 74.628 191.619 74.86 191.811 74.98C192.011 75.1 192.411 75.16 193.011 75.16C193.603 75.16 193.999 75.068 194.199 74.884C194.407 74.7 194.511 74.32 194.511 73.744V72.388H194.415C194.311 72.852 194.071 73.22 193.695 73.492C193.327 73.756 192.819 73.888 192.171 73.888ZM191.547 70.204C191.291 70.38 191.163 70.688 191.163 71.128C191.163 71.568 191.291 71.88 191.547 72.064C191.803 72.248 192.219 72.34 192.795 72.34C193.379 72.34 193.811 72.252 194.091 72.076C194.371 71.892 194.511 71.596 194.511 71.188V71.056C194.511 70.656 194.371 70.368 194.091 70.192C193.819 70.016 193.395 69.928 192.819 69.928C192.235 69.928 191.811 70.02 191.547 70.204ZM202.321 74.62C201.289 74.62 200.465 74.34 199.849 73.78C199.241 73.212 198.937 72.452 198.937 71.5C198.937 70.54 199.241 69.78 199.849 69.22C200.465 68.652 201.289 68.368 202.321 68.368C203.289 68.368 204.073 68.608 204.673 69.088C205.273 69.56 205.573 70.184 205.573 70.96V71.128H203.785V71.032C203.785 70.336 203.285 69.988 202.285 69.988C201.741 69.988 201.345 70.104 201.097 70.336C200.849 70.568 200.725 70.956 200.725 71.5C200.725 72.044 200.849 72.432 201.097 72.664C201.345 72.888 201.741 73 202.285 73C203.285 73 203.785 72.652 203.785 71.956V71.86H205.573V72.028C205.573 72.804 205.273 73.432 204.673 73.912C204.073 74.384 203.289 74.62 202.321 74.62ZM208.147 74.5H206.347V68.488H208.015V70.084H208.123C208.211 69.564 208.423 69.148 208.759 68.836C209.103 68.524 209.563 68.368 210.139 68.368C210.779 68.368 211.255 68.56 211.567 68.944C211.879 69.328 212.035 69.836 212.035 70.468V71.464H210.235V70.84C210.235 70.504 210.159 70.264 210.007 70.12C209.855 69.968 209.599 69.892 209.239 69.892C208.847 69.892 208.567 69.984 208.399 70.168C208.231 70.352 208.147 70.636 208.147 71.02V74.5ZM213.839 76.54H212.855V74.908H214.331C214.715 74.908 214.967 74.78 215.087 74.524L212.147 68.488H214.187L215.459 71.236L215.963 72.652H216.083L216.563 71.224L217.703 68.488H219.707L216.731 74.932C216.451 75.548 216.095 75.968 215.663 76.192C215.231 76.424 214.623 76.54 213.839 76.54ZM221.94 76.54H220.14V68.488H221.808V70.132H221.928C222.152 68.956 222.952 68.368 224.328 68.368C225.24 68.368 225.948 68.648 226.452 69.208C226.956 69.768 227.208 70.532 227.208 71.5C227.208 72.468 226.96 73.232 226.464 73.792C225.976 74.344 225.284 74.62 224.388 74.62C223.708 74.62 223.168 74.468 222.768 74.164C222.376 73.852 222.128 73.424 222.024 72.88H221.94V76.54ZM221.94 71.584C221.94 72.08 222.084 72.436 222.372 72.652C222.668 72.868 223.108 72.976 223.692 72.976C224.284 72.976 224.712 72.864 224.976 72.64C225.248 72.416 225.384 72.036 225.384 71.5C225.384 70.964 225.248 70.584 224.976 70.36C224.712 70.136 224.288 70.024 223.704 70.024C223.104 70.024 222.66 70.14 222.372 70.372C222.084 70.596 221.94 70.968 221.94 71.488V71.584ZM232.193 74.5H230.705C229.201 74.5 228.449 73.776 228.449 72.328V69.976H227.501V68.488H228.449V67.324H230.249V68.488H232.193V69.976H230.249V72.124C230.249 72.42 230.309 72.62 230.429 72.724C230.557 72.828 230.785 72.88 231.113 72.88H232.193V74.5ZM238.555 73.768C237.931 74.336 237.103 74.62 236.071 74.62C235.039 74.62 234.207 74.336 233.575 73.768C232.951 73.2 232.639 72.444 232.639 71.5C232.639 70.548 232.951 69.788 233.575 69.22C234.207 68.652 235.039 68.368 236.071 68.368C237.103 68.368 237.931 68.652 238.555 69.22C239.187 69.788 239.503 70.548 239.503 71.5C239.503 72.444 239.187 73.2 238.555 73.768ZM234.799 72.664C235.047 72.904 235.471 73.024 236.071 73.024C236.671 73.024 237.095 72.904 237.343 72.664C237.591 72.424 237.715 72.036 237.715 71.5C237.715 70.964 237.587 70.572 237.331 70.324C237.083 70.076 236.663 69.952 236.071 69.952C235.471 69.952 235.047 70.076 234.799 70.324C234.551 70.564 234.427 70.956 234.427 71.5C234.427 72.036 234.551 72.424 234.799 72.664ZM245.497 74.5H243.253L241.609 68.488H243.469L244.177 71.236L244.429 73.108H244.549L245.029 71.056L245.941 68.488H248.257L249.157 71.056L249.637 73.108H249.757L250.021 71.236L250.717 68.488H252.553L250.849 74.5H248.605L247.573 71.608L247.129 69.952H246.997L246.541 71.608L245.497 74.5ZM256.227 74.62C255.187 74.62 254.363 74.36 253.755 73.84C253.155 73.312 252.855 72.532 252.855 71.5C252.855 70.548 253.159 69.788 253.767 69.22C254.383 68.652 255.191 68.368 256.191 68.368C257.191 68.368 257.987 68.624 258.579 69.136C259.171 69.64 259.467 70.356 259.467 71.284C259.467 71.396 259.451 71.588 259.419 71.86H254.523C254.547 72.332 254.683 72.672 254.931 72.88C255.179 73.08 255.591 73.18 256.167 73.18C256.687 73.18 257.055 73.116 257.271 72.988C257.495 72.852 257.607 72.652 257.607 72.388V72.268H259.407V72.4C259.407 73.056 259.115 73.592 258.531 74.008C257.947 74.416 257.179 74.62 256.227 74.62ZM257.319 70.048C257.071 69.864 256.683 69.772 256.155 69.772C255.627 69.772 255.235 69.864 254.979 70.048C254.731 70.232 254.587 70.52 254.547 70.912H257.739C257.715 70.512 257.575 70.224 257.319 70.048ZM262.078 74.62C261.43 74.62 260.922 74.48 260.554 74.2C260.186 73.912 260.002 73.516 260.002 73.012C260.002 72.1 260.65 71.576 261.946 71.44L264.526 71.176V70.948C264.526 70.564 264.43 70.304 264.238 70.168C264.046 70.024 263.706 69.952 263.218 69.952C262.754 69.952 262.422 70.024 262.222 70.168C262.03 70.304 261.934 70.54 261.934 70.876V70.924H260.122V70.888C260.122 70.136 260.414 69.528 260.998 69.064C261.582 68.6 262.366 68.368 263.35 68.368C264.326 68.368 265.062 68.6 265.558 69.064C266.054 69.528 266.302 70.164 266.302 70.972V74.5H264.622V73.12H264.526C264.382 73.592 264.102 73.96 263.686 74.224C263.27 74.488 262.734 74.62 262.078 74.62ZM261.814 72.892C261.814 73.196 262.074 73.348 262.594 73.348C263.226 73.348 263.698 73.264 264.01 73.096C264.33 72.92 264.502 72.624 264.526 72.208L262.438 72.448C262.022 72.48 261.814 72.628 261.814 72.892ZM269.014 74.5H267.214V66.46H269.014V74.5ZM274.193 74.5H272.705C271.201 74.5 270.449 73.776 270.449 72.328V69.976H269.501V68.488H270.449V67.324H272.249V68.488H274.193V69.976H272.249V72.124C272.249 72.42 272.309 72.62 272.429 72.724C272.557 72.828 272.785 72.88 273.113 72.88H274.193V74.5ZM276.667 74.5H274.867V66.46H276.667V70.324H276.763C276.867 69.756 277.119 69.288 277.519 68.92C277.919 68.552 278.479 68.368 279.199 68.368C279.983 68.368 280.579 68.596 280.987 69.052C281.403 69.5 281.611 70.088 281.611 70.816V74.5H279.811V71.356C279.811 70.852 279.691 70.5 279.451 70.3C279.219 70.092 278.819 69.988 278.251 69.988C277.667 69.988 277.255 70.108 277.015 70.348C276.783 70.588 276.667 70.968 276.667 71.488V74.5ZM20.716 92.5H19.228C17.724 92.5 16.972 91.776 16.972 90.328V87.976H16.024V86.488H16.972V85.324H18.772V86.488H20.716V87.976H18.772V90.124C18.772 90.42 18.832 90.62 18.952 90.724C19.08 90.828 19.308 90.88 19.636 90.88H20.716V92.5ZM27.0782 91.768C26.4542 92.336 25.6262 92.62 24.5942 92.62C23.5622 92.62 22.7302 92.336 22.0982 91.768C21.4742 91.2 21.1622 90.444 21.1622 89.5C21.1622 88.548 21.4742 87.788 22.0982 87.22C22.7302 86.652 23.5622 86.368 24.5942 86.368C25.6262 86.368 26.4542 86.652 27.0782 87.22C27.7102 87.788 28.0262 88.548 28.0262 89.5C28.0262 90.444 27.7102 91.2 27.0782 91.768ZM23.3222 90.664C23.5702 90.904 23.9942 91.024 24.5942 91.024C25.1942 91.024 25.6182 90.904 25.8662 90.664C26.1142 90.424 26.2382 90.036 26.2382 89.5C26.2382 88.964 26.1102 88.572 25.8542 88.324C25.6062 88.076 25.1862 87.952 24.5942 87.952C23.9942 87.952 23.5702 88.076 23.3222 88.324C23.0742 88.564 22.9502 88.956 22.9502 89.5C22.9502 90.036 23.0742 90.424 23.3222 90.664ZM31.4013 91.888C30.5133 91.888 29.8213 91.644 29.3253 91.156C28.8293 90.66 28.5813 89.984 28.5813 89.128C28.5813 88.28 28.8373 87.608 29.3493 87.112C29.8693 86.616 30.5773 86.368 31.4733 86.368C32.0973 86.368 32.6093 86.504 33.0093 86.776C33.4173 87.04 33.6693 87.428 33.7653 87.94H33.8613V86.488H35.5413V91.624C35.5413 93.648 34.4013 94.66 32.1213 94.66C31.1373 94.66 30.3613 94.452 29.7933 94.036C29.2333 93.62 28.9533 93.036 28.9533 92.284H30.7533C30.7533 92.628 30.8493 92.86 31.0413 92.98C31.2413 93.1 31.6413 93.16 32.2413 93.16C32.8333 93.16 33.2293 93.068 33.4293 92.884C33.6373 92.7 33.7413 92.32 33.7413 91.744V90.388H33.6453C33.5413 90.852 33.3013 91.22 32.9253 91.492C32.5573 91.756 32.0493 91.888 31.4013 91.888ZM30.7773 88.204C30.5213 88.38 30.3933 88.688 30.3933 89.128C30.3933 89.568 30.5213 89.88 30.7773 90.064C31.0333 90.248 31.4493 90.34 32.0253 90.34C32.6093 90.34 33.0413 90.252 33.3213 90.076C33.6013 89.892 33.7413 89.596 33.7413 89.188V89.056C33.7413 88.656 33.6013 88.368 33.3213 88.192C33.0493 88.016 32.6253 87.928 32.0493 87.928C31.4653 87.928 31.0413 88.02 30.7773 88.204ZM39.6876 92.62C38.6476 92.62 37.8236 92.36 37.2156 91.84C36.6156 91.312 36.3156 90.532 36.3156 89.5C36.3156 88.548 36.6196 87.788 37.2276 87.22C37.8436 86.652 38.6516 86.368 39.6516 86.368C40.6516 86.368 41.4476 86.624 42.0396 87.136C42.6316 87.64 42.9276 88.356 42.9276 89.284C42.9276 89.396 42.9116 89.588 42.8796 89.86H37.9836C38.0076 90.332 38.1436 90.672 38.3916 90.88C38.6396 91.08 39.0516 91.18 39.6276 91.18C40.1476 91.18 40.5156 91.116 40.7316 90.988C40.9556 90.852 41.0676 90.652 41.0676 90.388V90.268H42.8676V90.4C42.8676 91.056 42.5756 91.592 41.9916 92.008C41.4076 92.416 40.6396 92.62 39.6876 92.62ZM40.7796 88.048C40.5316 87.864 40.1436 87.772 39.6156 87.772C39.0876 87.772 38.6956 87.864 38.4396 88.048C38.1916 88.232 38.0476 88.52 38.0076 88.912H41.1996C41.1756 88.512 41.0356 88.224 40.7796 88.048ZM47.9269 92.5H46.4389C44.9349 92.5 44.1829 91.776 44.1829 90.328V87.976H43.2349V86.488H44.1829V85.324H45.9829V86.488H47.9269V87.976H45.9829V90.124C45.9829 90.42 46.0429 90.62 46.1629 90.724C46.2909 90.828 46.5189 90.88 46.8469 90.88H47.9269V92.5ZM50.4011 92.5H48.6011V84.46H50.4011V88.324H50.4971C50.6011 87.756 50.8531 87.288 51.2531 86.92C51.6531 86.552 52.2131 86.368 52.9331 86.368C53.7171 86.368 54.3131 86.596 54.7211 87.052C55.1371 87.5 55.3451 88.088 55.3451 88.816V92.5H53.5451V89.356C53.5451 88.852 53.4251 88.5 53.1851 88.3C52.9531 88.092 52.5531 87.988 51.9851 87.988C51.4011 87.988 50.9891 88.108 50.7491 88.348C50.5171 88.588 50.4011 88.968 50.4011 89.488V92.5ZM59.4454 92.62C58.4054 92.62 57.5814 92.36 56.9734 91.84C56.3734 91.312 56.0734 90.532 56.0734 89.5C56.0734 88.548 56.3774 87.788 56.9854 87.22C57.6014 86.652 58.4094 86.368 59.4094 86.368C60.4094 86.368 61.2054 86.624 61.7974 87.136C62.3894 87.64 62.6854 88.356 62.6854 89.284C62.6854 89.396 62.6694 89.588 62.6374 89.86H57.7414C57.7654 90.332 57.9014 90.672 58.1494 90.88C58.3974 91.08 58.8094 91.18 59.3854 91.18C59.9054 91.18 60.2734 91.116 60.4894 90.988C60.7134 90.852 60.8254 90.652 60.8254 90.388V90.268H62.6254V90.4C62.6254 91.056 62.3334 91.592 61.7494 92.008C61.1654 92.416 60.3974 92.62 59.4454 92.62ZM60.5374 88.048C60.2894 87.864 59.9014 87.772 59.3734 87.772C58.8454 87.772 58.4534 87.864 58.1974 88.048C57.9494 88.232 57.8054 88.52 57.7654 88.912H60.9574C60.9334 88.512 60.7934 88.224 60.5374 88.048ZM65.2488 92.5H63.4488V86.488H65.1168V88.084H65.2248C65.3128 87.564 65.5248 87.148 65.8608 86.836C66.2048 86.524 66.6648 86.368 67.2408 86.368C67.8808 86.368 68.3568 86.56 68.6688 86.944C68.9808 87.328 69.1367 87.836 69.1367 88.468V89.464H67.3368V88.84C67.3368 88.504 67.2608 88.264 67.1088 88.12C66.9568 87.968 66.7008 87.892 66.3408 87.892C65.9488 87.892 65.6688 87.984 65.5008 88.168C65.3328 88.352 65.2488 88.636 65.2488 89.02V92.5ZM71.9846 92.5H69.6686V90.4H71.9846V92.5ZM20.836 107.728H16.36V106.18H20.836V107.728ZM26.1474 110.5H24.3474V104.08H21.3594V102.46H29.1354V104.08H26.1474V110.5ZM32.9728 110.62C31.9328 110.62 31.1088 110.36 30.5008 109.84C29.9008 109.312 29.6008 108.532 29.6008 107.5C29.6008 106.548 29.9048 105.788 30.5128 105.22C31.1288 104.652 31.9368 104.368 32.9368 104.368C33.9368 104.368 34.7328 104.624 35.3248 105.136C35.9168 105.64 36.2128 106.356 36.2128 107.284C36.2128 107.396 36.1968 107.588 36.1648 107.86H31.2688C31.2928 108.332 31.4288 108.672 31.6768 108.88C31.9248 109.08 32.3368 109.18 32.9128 109.18C33.4328 109.18 33.8008 109.116 34.0168 108.988C34.2408 108.852 34.3528 108.652 34.3528 108.388V108.268H36.1528V108.4C36.1528 109.056 35.8608 109.592 35.2768 110.008C34.6928 110.416 33.9248 110.62 32.9728 110.62ZM34.0648 106.048C33.8168 105.864 33.4288 105.772 32.9008 105.772C32.3728 105.772 31.9808 105.864 31.7248 106.048C31.4768 106.232 31.3328 106.52 31.2928 106.912H34.4848C34.4608 106.512 34.3208 106.224 34.0648 106.048ZM38.8241 110.62C38.1761 110.62 37.6681 110.48 37.3001 110.2C36.9321 109.912 36.7481 109.516 36.7481 109.012C36.7481 108.1 37.3961 107.576 38.6921 107.44L41.2721 107.176V106.948C41.2721 106.564 41.1761 106.304 40.9841 106.168C40.7921 106.024 40.4521 105.952 39.9641 105.952C39.5001 105.952 39.1681 106.024 38.9681 106.168C38.7761 106.304 38.6801 106.54 38.6801 106.876V106.924H36.8681V106.888C36.8681 106.136 37.1601 105.528 37.7441 105.064C38.3281 104.6 39.1121 104.368 40.0961 104.368C41.0721 104.368 41.8081 104.6 42.3041 105.064C42.8001 105.528 43.0481 106.164 43.0481 106.972V110.5H41.3681V109.12H41.2721C41.1281 109.592 40.8481 109.96 40.4321 110.224C40.0161 110.488 39.4801 110.62 38.8241 110.62ZM38.5601 108.892C38.5601 109.196 38.8201 109.348 39.3401 109.348C39.9721 109.348 40.4441 109.264 40.7561 109.096C41.0761 108.92 41.2481 108.624 41.2721 108.208L39.1841 108.448C38.7681 108.48 38.5601 108.628 38.5601 108.892ZM45.7605 110.5H43.9605V104.488H45.6285V106.312H45.7245C45.8045 105.744 46.0245 105.28 46.3845 104.92C46.7445 104.552 47.2765 104.368 47.9805 104.368C48.6445 104.368 49.1645 104.548 49.5405 104.908C49.9165 105.268 50.1405 105.744 50.2125 106.336H50.3205C50.4005 105.76 50.6245 105.288 50.9925 104.92C51.3605 104.552 51.9045 104.368 52.6245 104.368C53.3685 104.368 53.9365 104.588 54.3285 105.028C54.7285 105.468 54.9285 106.044 54.9285 106.756V110.5H53.1285V107.356C53.1285 106.852 53.0245 106.5 52.8165 106.3C52.6165 106.092 52.2605 105.988 51.7485 105.988C51.2125 105.988 50.8445 106.1 50.6445 106.324C50.4445 106.548 50.3445 106.928 50.3445 107.464V110.5H48.5445V107.356C48.5445 106.852 48.4405 106.5 48.2325 106.3C48.0325 106.092 47.6765 105.988 47.1645 105.988C46.6285 105.988 46.2605 106.1 46.0605 106.324C45.8605 106.548 45.7605 106.928 45.7605 107.464V110.5ZM61.8108 110.62C60.4908 110.62 59.4428 110.244 58.6668 109.492C57.8988 108.74 57.5148 107.736 57.5148 106.48C57.5148 105.224 57.8988 104.22 58.6668 103.468C59.4428 102.716 60.4908 102.34 61.8108 102.34C63.0668 102.34 64.0628 102.636 64.7988 103.228C65.5428 103.812 65.9148 104.612 65.9148 105.628V105.808H63.9108V105.628C63.9108 105.092 63.7468 104.7 63.4188 104.452C63.0908 104.196 62.5668 104.068 61.8468 104.068C60.9588 104.068 60.3308 104.248 59.9628 104.608C59.6028 104.968 59.4228 105.592 59.4228 106.48C59.4228 107.368 59.6028 107.992 59.9628 108.352C60.3308 108.712 60.9588 108.892 61.8468 108.892C62.5668 108.892 63.0908 108.768 63.4188 108.52C63.7468 108.264 63.9108 107.868 63.9108 107.332V107.152H65.9148V107.332C65.9148 108.348 65.5428 109.152 64.7988 109.744C64.0628 110.328 63.0668 110.62 61.8108 110.62ZM72.3828 109.768C71.7588 110.336 70.9308 110.62 69.8988 110.62C68.8668 110.62 68.0348 110.336 67.4028 109.768C66.7788 109.2 66.4668 108.444 66.4668 107.5C66.4668 106.548 66.7788 105.788 67.4028 105.22C68.0348 104.652 68.8668 104.368 69.8988 104.368C70.9308 104.368 71.7588 104.652 72.3828 105.22C73.0148 105.788 73.3308 106.548 73.3308 107.5C73.3308 108.444 73.0148 109.2 72.3828 109.768ZM68.6268 108.664C68.8748 108.904 69.2988 109.024 69.8988 109.024C70.4988 109.024 70.9228 108.904 71.1708 108.664C71.4188 108.424 71.5428 108.036 71.5428 107.5C71.5428 106.964 71.4148 106.572 71.1588 106.324C70.9108 106.076 70.4908 105.952 69.8988 105.952C69.2988 105.952 68.8748 106.076 68.6268 106.324C68.3788 106.564 68.2548 106.956 68.2548 107.5C68.2548 108.036 68.3788 108.424 68.6268 108.664ZM75.8659 110.5H74.0659V104.488H75.7339V106.312H75.8299C75.9099 105.744 76.1299 105.28 76.4899 104.92C76.8499 104.552 77.3819 104.368 78.0859 104.368C78.7499 104.368 79.2699 104.548 79.6459 104.908C80.0219 105.268 80.2459 105.744 80.3179 106.336H80.4259C80.5059 105.76 80.7299 105.288 81.0979 104.92C81.4659 104.552 82.0099 104.368 82.7299 104.368C83.4739 104.368 84.0419 104.588 84.4339 105.028C84.8339 105.468 85.0339 106.044 85.0339 106.756V110.5H83.2339V107.356C83.2339 106.852 83.1299 106.5 82.9219 106.3C82.7219 106.092 82.3659 105.988 81.8539 105.988C81.3179 105.988 80.9499 106.1 80.7499 106.324C80.5499 106.548 80.4499 106.928 80.4499 107.464V110.5H78.6499V107.356C78.6499 106.852 78.5459 106.5 78.3379 106.3C78.1379 106.092 77.7819 105.988 77.2699 105.988C76.7339 105.988 76.3659 106.1 76.1659 106.324C75.9659 106.548 75.8659 106.928 75.8659 107.464V110.5ZM87.7488 110.5H85.9488V104.488H87.6168V106.312H87.7128C87.7928 105.744 88.0128 105.28 88.3728 104.92C88.7328 104.552 89.2648 104.368 89.9688 104.368C90.6328 104.368 91.1528 104.548 91.5287 104.908C91.9048 105.268 92.1288 105.744 92.2008 106.336H92.3088C92.3888 105.76 92.6128 105.288 92.9808 104.92C93.3488 104.552 93.8928 104.368 94.6128 104.368C95.3568 104.368 95.9248 104.588 96.3168 105.028C96.7168 105.468 96.9168 106.044 96.9168 106.756V110.5H95.1168V107.356C95.1168 106.852 95.0128 106.5 94.8048 106.3C94.6048 106.092 94.2488 105.988 93.7368 105.988C93.2008 105.988 92.8328 106.1 92.6328 106.324C92.4328 106.548 92.3328 106.928 92.3328 107.464V110.5H90.5328V107.356C90.5328 106.852 90.4288 106.5 90.2208 106.3C90.0208 106.092 89.6648 105.988 89.1528 105.988C88.6168 105.988 88.2488 106.1 88.0488 106.324C87.8488 106.548 87.7488 106.928 87.7488 107.464V110.5ZM99.6316 103.876H97.8316V102.46H99.6316V103.876ZM99.6316 110.5H97.8316V104.488H99.6316V110.5ZM103.61 110.62C102.602 110.62 101.826 110.432 101.282 110.056C100.738 109.672 100.466 109.132 100.466 108.436V108.4H102.266V108.508C102.266 108.772 102.362 108.952 102.554 109.048C102.746 109.144 103.102 109.192 103.622 109.192C104.086 109.192 104.398 109.152 104.558 109.072C104.726 108.992 104.81 108.86 104.81 108.676C104.81 108.508 104.75 108.392 104.63 108.328C104.518 108.256 104.282 108.196 103.922 108.148L102.23 107.944C100.982 107.808 100.358 107.248 100.358 106.264C100.358 105.704 100.606 105.248 101.102 104.896C101.598 104.544 102.338 104.368 103.322 104.368C104.314 104.368 105.074 104.556 105.602 104.932C106.138 105.3 106.406 105.848 106.406 106.576V106.612H104.606V106.54C104.606 106.276 104.514 106.088 104.33 105.976C104.146 105.856 103.79 105.796 103.262 105.796C102.822 105.796 102.522 105.836 102.362 105.916C102.21 105.996 102.134 106.136 102.134 106.336C102.134 106.496 102.198 106.616 102.326 106.696C102.454 106.768 102.71 106.828 103.094 106.876L104.378 107.032C105.17 107.12 105.734 107.304 106.07 107.584C106.414 107.856 106.586 108.244 106.586 108.748C106.586 109.316 106.318 109.772 105.782 110.116C105.254 110.452 104.53 110.62 103.61 110.62ZM110.348 110.62C109.34 110.62 108.564 110.432 108.02 110.056C107.476 109.672 107.204 109.132 107.204 108.436V108.4H109.004V108.508C109.004 108.772 109.1 108.952 109.292 109.048C109.484 109.144 109.84 109.192 110.36 109.192C110.824 109.192 111.136 109.152 111.296 109.072C111.464 108.992 111.548 108.86 111.548 108.676C111.548 108.508 111.488 108.392 111.368 108.328C111.256 108.256 111.02 108.196 110.66 108.148L108.968 107.944C107.72 107.808 107.096 107.248 107.096 106.264C107.096 105.704 107.344 105.248 107.84 104.896C108.336 104.544 109.076 104.368 110.06 104.368C111.052 104.368 111.812 104.556 112.34 104.932C112.876 105.3 113.144 105.848 113.144 106.576V106.612H111.344V106.54C111.344 106.276 111.252 106.088 111.068 105.976C110.884 105.856 110.528 105.796 110 105.796C109.56 105.796 109.26 105.836 109.1 105.916C108.948 105.996 108.872 106.136 108.872 106.336C108.872 106.496 108.936 106.616 109.064 106.696C109.192 106.768 109.448 106.828 109.832 106.876L111.116 107.032C111.908 107.12 112.472 107.304 112.808 107.584C113.152 107.856 113.324 108.244 113.324 108.748C113.324 109.316 113.056 109.772 112.52 110.116C111.992 110.452 111.268 110.62 110.348 110.62ZM115.85 103.876H114.05V102.46H115.85V103.876ZM115.85 110.5H114.05V104.488H115.85V110.5ZM122.48 109.768C121.857 110.336 121.029 110.62 119.997 110.62C118.965 110.62 118.133 110.336 117.501 109.768C116.877 109.2 116.565 108.444 116.565 107.5C116.565 106.548 116.877 105.788 117.501 105.22C118.133 104.652 118.965 104.368 119.997 104.368C121.029 104.368 121.857 104.652 122.48 105.22C123.113 105.788 123.429 106.548 123.429 107.5C123.429 108.444 123.113 109.2 122.48 109.768ZM118.725 108.664C118.973 108.904 119.397 109.024 119.997 109.024C120.597 109.024 121.021 108.904 121.269 108.664C121.517 108.424 121.641 108.036 121.641 107.5C121.641 106.964 121.513 106.572 121.257 106.324C121.009 106.076 120.589 105.952 119.997 105.952C119.397 105.952 118.973 106.076 118.725 106.324C118.477 106.564 118.353 106.956 118.353 107.5C118.353 108.036 118.477 108.424 118.725 108.664ZM125.964 110.5H124.164V104.488H125.832V106.336H125.94C126.028 105.776 126.272 105.308 126.672 104.932C127.08 104.556 127.652 104.368 128.388 104.368C129.18 104.368 129.78 104.592 130.188 105.04C130.604 105.48 130.812 106.052 130.812 106.756V110.5H129.012V107.356C129.012 106.868 128.896 106.52 128.664 106.312C128.44 106.096 128.056 105.988 127.512 105.988C126.952 105.988 126.552 106.104 126.312 106.336C126.08 106.568 125.964 106.944 125.964 107.464V110.5ZM133.918 106.576H131.602V104.488H133.918V106.576ZM133.918 110.5H131.602V108.4H133.918V110.5ZM139.825 110.5H137.749C137.749 109.812 137.829 109.164 137.989 108.556C138.149 107.948 138.337 107.444 138.553 107.044C138.769 106.644 139.057 106.248 139.417 105.856C139.785 105.456 140.097 105.152 140.353 104.944C140.609 104.736 140.933 104.492 141.325 104.212V104.08H136.249V102.46H143.197V103.912C142.581 104.496 142.085 105 141.709 105.424C141.341 105.848 141.001 106.324 140.689 106.852C140.377 107.372 140.153 107.924 140.017 108.508C139.889 109.092 139.825 109.756 139.825 110.5ZM145.511 106.336C144.855 106.336 144.339 106.156 143.963 105.796C143.587 105.428 143.399 104.94 143.399 104.332C143.399 103.724 143.587 103.236 143.963 102.868C144.339 102.5 144.855 102.316 145.511 102.316C146.175 102.316 146.695 102.5 147.071 102.868C147.447 103.236 147.635 103.724 147.635 104.332C147.635 104.94 147.447 105.428 147.071 105.796C146.695 106.156 146.175 106.336 145.511 106.336ZM145.559 110.5H143.819L150.647 102.46H152.387L145.559 110.5ZM144.863 104.98C144.983 105.1 145.199 105.16 145.511 105.16C145.823 105.16 146.039 105.1 146.159 104.98C146.287 104.852 146.351 104.636 146.351 104.332C146.351 104.028 146.287 103.812 146.159 103.684C146.039 103.556 145.823 103.492 145.511 103.492C145.207 103.492 144.991 103.556 144.863 103.684C144.743 103.812 144.683 104.028 144.683 104.332C144.683 104.636 144.743 104.852 144.863 104.98ZM152.231 110.092C151.855 110.452 151.339 110.632 150.683 110.632C150.027 110.632 149.507 110.452 149.123 110.092C148.747 109.724 148.559 109.236 148.559 108.628C148.559 108.02 148.747 107.536 149.123 107.176C149.507 106.808 150.027 106.624 150.683 106.624C151.339 106.624 151.855 106.808 152.231 107.176C152.615 107.536 152.807 108.02 152.807 108.628C152.807 109.236 152.615 109.724 152.231 110.092ZM150.023 109.276C150.151 109.396 150.371 109.456 150.683 109.456C150.995 109.456 151.211 109.396 151.331 109.276C151.459 109.148 151.523 108.932 151.523 108.628C151.523 108.324 151.459 108.108 151.331 107.98C151.211 107.852 150.995 107.788 150.683 107.788C150.371 107.788 150.151 107.852 150.023 107.98C149.903 108.108 149.843 108.324 149.843 108.628C149.843 108.932 149.903 109.148 150.023 109.276ZM155.128 111.7H153.472V101.26H155.128V111.7ZM159.829 110.62C157.269 110.62 155.989 109.748 155.989 108.004V107.896H157.849V108.004C157.849 108.356 157.997 108.608 158.293 108.76C158.589 108.904 159.109 108.976 159.853 108.976C160.533 108.976 161.001 108.888 161.257 108.712C161.521 108.528 161.653 108.216 161.653 107.776C161.653 107.328 161.525 107.016 161.269 106.84C161.013 106.656 160.545 106.564 159.865 106.564C159.297 106.564 158.857 106.604 158.545 106.684C158.241 106.764 158.017 106.908 157.873 107.116L157.741 107.104V107.116L156.049 107.068L156.505 102.46H163.129V104.08H158.101L157.849 106.18L157.957 106.192C158.125 105.912 158.437 105.668 158.893 105.46C159.349 105.244 159.917 105.136 160.597 105.136C161.573 105.136 162.309 105.364 162.805 105.82C163.309 106.268 163.561 106.912 163.561 107.752C163.561 108.648 163.249 109.352 162.625 109.864C162.001 110.368 161.069 110.62 159.829 110.62ZM166.241 106.336C165.585 106.336 165.069 106.156 164.693 105.796C164.317 105.428 164.129 104.94 164.129 104.332C164.129 103.724 164.317 103.236 164.693 102.868C165.069 102.5 165.585 102.316 166.241 102.316C166.905 102.316 167.425 102.5 167.801 102.868C168.177 103.236 168.365 103.724 168.365 104.332C168.365 104.94 168.177 105.428 167.801 105.796C167.425 106.156 166.905 106.336 166.241 106.336ZM166.289 110.5H164.549L171.377 102.46H173.117L166.289 110.5ZM165.593 104.98C165.713 105.1 165.929 105.16 166.241 105.16C166.553 105.16 166.769 105.1 166.889 104.98C167.017 104.852 167.081 104.636 167.081 104.332C167.081 104.028 167.017 103.812 166.889 103.684C166.769 103.556 166.553 103.492 166.241 103.492C165.937 103.492 165.721 103.556 165.593 103.684C165.473 103.812 165.413 104.028 165.413 104.332C165.413 104.636 165.473 104.852 165.593 104.98ZM172.961 110.092C172.585 110.452 172.069 110.632 171.413 110.632C170.757 110.632 170.237 110.452 169.853 110.092C169.477 109.724 169.289 109.236 169.289 108.628C169.289 108.02 169.477 107.536 169.853 107.176C170.237 106.808 170.757 106.624 171.413 106.624C172.069 106.624 172.585 106.808 172.961 107.176C173.345 107.536 173.537 108.02 173.537 108.628C173.537 109.236 173.345 109.724 172.961 110.092ZM170.753 109.276C170.881 109.396 171.101 109.456 171.413 109.456C171.725 109.456 171.941 109.396 172.061 109.276C172.189 109.148 172.253 108.932 172.253 108.628C172.253 108.324 172.189 108.108 172.061 107.98C171.941 107.852 171.725 107.788 171.413 107.788C171.101 107.788 170.881 107.852 170.753 107.98C170.633 108.108 170.573 108.324 170.573 108.628C170.573 108.932 170.633 109.148 170.753 109.276ZM175.859 111.7H174.203V101.26H175.859V111.7ZM183.416 110.5H181.616V108.964H176.516V107.74L181.328 102.46H183.416V107.344H184.64V108.964H183.416V110.5ZM179.024 107.344H181.616V104.536H181.484L179.024 107.212V107.344ZM187.101 106.336C186.445 106.336 185.929 106.156 185.553 105.796C185.177 105.428 184.989 104.94 184.989 104.332C184.989 103.724 185.177 103.236 185.553 102.868C185.929 102.5 186.445 102.316 187.101 102.316C187.765 102.316 188.285 102.5 188.661 102.868C189.037 103.236 189.225 103.724 189.225 104.332C189.225 104.94 189.037 105.428 188.661 105.796C188.285 106.156 187.765 106.336 187.101 106.336ZM187.149 110.5H185.409L192.237 102.46H193.977L187.149 110.5ZM186.453 104.98C186.573 105.1 186.789 105.16 187.101 105.16C187.413 105.16 187.629 105.1 187.749 104.98C187.877 104.852 187.941 104.636 187.941 104.332C187.941 104.028 187.877 103.812 187.749 103.684C187.629 103.556 187.413 103.492 187.101 103.492C186.797 103.492 186.581 103.556 186.453 103.684C186.333 103.812 186.273 104.028 186.273 104.332C186.273 104.636 186.333 104.852 186.453 104.98ZM193.821 110.092C193.445 110.452 192.929 110.632 192.273 110.632C191.617 110.632 191.097 110.452 190.713 110.092C190.337 109.724 190.149 109.236 190.149 108.628C190.149 108.02 190.337 107.536 190.713 107.176C191.097 106.808 191.617 106.624 192.273 106.624C192.929 106.624 193.445 106.808 193.821 107.176C194.205 107.536 194.397 108.02 194.397 108.628C194.397 109.236 194.205 109.724 193.821 110.092ZM191.613 109.276C191.741 109.396 191.961 109.456 192.273 109.456C192.585 109.456 192.801 109.396 192.921 109.276C193.049 109.148 193.113 108.932 193.113 108.628C193.113 108.324 193.049 108.108 192.921 107.98C192.801 107.852 192.585 107.788 192.273 107.788C191.961 107.788 191.741 107.852 191.613 107.98C191.493 108.108 191.433 108.324 191.433 108.628C191.433 108.932 191.493 109.148 191.613 109.276ZM196.718 111.7H195.062V101.26H196.718V111.7ZM201.311 110.62C200.023 110.62 199.063 110.376 198.431 109.888C197.807 109.392 197.495 108.688 197.495 107.776V107.584H199.403V107.776C199.403 108.208 199.515 108.504 199.739 108.664C199.971 108.816 200.467 108.892 201.227 108.892C201.979 108.892 202.495 108.824 202.775 108.688C203.063 108.552 203.207 108.308 203.207 107.956C203.207 107.388 202.827 107.104 202.067 107.104H199.751V105.628H201.899C202.571 105.628 202.907 105.376 202.907 104.872C202.907 104.576 202.787 104.368 202.547 104.248C202.315 104.128 201.867 104.068 201.203 104.068C200.499 104.068 200.023 104.152 199.775 104.32C199.527 104.48 199.403 104.768 199.403 105.184V105.244H197.495V105.184C197.495 104.312 197.819 103.62 198.467 103.108C199.123 102.596 200.087 102.34 201.359 102.34C202.439 102.34 203.263 102.524 203.831 102.892C204.407 103.252 204.695 103.784 204.695 104.488C204.695 104.952 204.559 105.332 204.287 105.628C204.015 105.924 203.619 106.104 203.099 106.168V106.3C204.395 106.484 205.043 107.132 205.043 108.244C205.043 109.012 204.715 109.6 204.059 110.008C203.411 110.416 202.495 110.62 201.311 110.62ZM207.538 106.336C206.882 106.336 206.366 106.156 205.99 105.796C205.614 105.428 205.426 104.94 205.426 104.332C205.426 103.724 205.614 103.236 205.99 102.868C206.366 102.5 206.882 102.316 207.538 102.316C208.202 102.316 208.722 102.5 209.098 102.868C209.474 103.236 209.662 103.724 209.662 104.332C209.662 104.94 209.474 105.428 209.098 105.796C208.722 106.156 208.202 106.336 207.538 106.336ZM207.586 110.5H205.846L212.674 102.46H214.414L207.586 110.5ZM206.89 104.98C207.01 105.1 207.226 105.16 207.538 105.16C207.85 105.16 208.066 105.1 208.186 104.98C208.314 104.852 208.378 104.636 208.378 104.332C208.378 104.028 208.314 103.812 208.186 103.684C208.066 103.556 207.85 103.492 207.538 103.492C207.234 103.492 207.018 103.556 206.89 103.684C206.77 103.812 206.71 104.028 206.71 104.332C206.71 104.636 206.77 104.852 206.89 104.98ZM214.258 110.092C213.882 110.452 213.366 110.632 212.71 110.632C212.054 110.632 211.534 110.452 211.15 110.092C210.774 109.724 210.586 109.236 210.586 108.628C210.586 108.02 210.774 107.536 211.15 107.176C211.534 106.808 212.054 106.624 212.71 106.624C213.366 106.624 213.882 106.808 214.258 107.176C214.642 107.536 214.834 108.02 214.834 108.628C214.834 109.236 214.642 109.724 214.258 110.092ZM212.05 109.276C212.178 109.396 212.398 109.456 212.71 109.456C213.022 109.456 213.238 109.396 213.358 109.276C213.486 109.148 213.55 108.932 213.55 108.628C213.55 108.324 213.486 108.108 213.358 107.98C213.238 107.852 213.022 107.788 212.71 107.788C212.398 107.788 212.178 107.852 212.05 107.98C211.93 108.108 211.87 108.324 211.87 108.628C211.87 108.932 211.93 109.148 212.05 109.276ZM217.156 111.7H215.5V101.26H217.156V111.7ZM225.049 110.5H217.909V109.348C217.909 108.636 218.081 108.076 218.425 107.668C218.769 107.26 219.365 106.916 220.213 106.636L222.277 105.964C222.645 105.836 222.901 105.7 223.045 105.556C223.189 105.404 223.261 105.2 223.261 104.944C223.261 104.616 223.141 104.376 222.901 104.224C222.661 104.064 222.229 103.984 221.605 103.984C220.893 103.984 220.393 104.092 220.105 104.308C219.825 104.516 219.685 104.852 219.685 105.316V105.472H217.921V105.316C217.921 104.46 218.229 103.752 218.845 103.192C219.469 102.624 220.409 102.34 221.665 102.34C222.825 102.34 223.681 102.576 224.233 103.048C224.793 103.52 225.073 104.16 225.073 104.968C225.073 105.648 224.869 106.188 224.461 106.588C224.053 106.988 223.469 107.292 222.709 107.5L220.957 107.98C220.541 108.108 220.245 108.248 220.069 108.4C219.893 108.552 219.805 108.78 219.805 109.084L221.905 108.88H225.049V110.5ZM227.647 106.336C226.991 106.336 226.475 106.156 226.099 105.796C225.723 105.428 225.535 104.94 225.535 104.332C225.535 103.724 225.723 103.236 226.099 102.868C226.475 102.5 226.991 102.316 227.647 102.316C228.311 102.316 228.831 102.5 229.207 102.868C229.583 103.236 229.771 103.724 229.771 104.332C229.771 104.94 229.583 105.428 229.207 105.796C228.831 106.156 228.311 106.336 227.647 106.336ZM227.695 110.5H225.955L232.783 102.46H234.523L227.695 110.5ZM226.999 104.98C227.119 105.1 227.335 105.16 227.647 105.16C227.959 105.16 228.175 105.1 228.295 104.98C228.423 104.852 228.487 104.636 228.487 104.332C228.487 104.028 228.423 103.812 228.295 103.684C228.175 103.556 227.959 103.492 227.647 103.492C227.343 103.492 227.127 103.556 226.999 103.684C226.879 103.812 226.819 104.028 226.819 104.332C226.819 104.636 226.879 104.852 226.999 104.98ZM234.367 110.092C233.991 110.452 233.475 110.632 232.819 110.632C232.163 110.632 231.643 110.452 231.259 110.092C230.883 109.724 230.695 109.236 230.695 108.628C230.695 108.02 230.883 107.536 231.259 107.176C231.643 106.808 232.163 106.624 232.819 106.624C233.475 106.624 233.991 106.808 234.367 107.176C234.751 107.536 234.943 108.02 234.943 108.628C234.943 109.236 234.751 109.724 234.367 110.092ZM232.159 109.276C232.287 109.396 232.507 109.456 232.819 109.456C233.131 109.456 233.347 109.396 233.467 109.276C233.595 109.148 233.659 108.932 233.659 108.628C233.659 108.324 233.595 108.108 233.467 107.98C233.347 107.852 233.131 107.788 232.819 107.788C232.507 107.788 232.287 107.852 232.159 107.98C232.039 108.108 231.979 108.324 231.979 108.628C231.979 108.932 232.039 109.148 232.159 109.276Z" fill="white"/>
<defs>
<clipPath id="clip0_3012_2316">
<rect width="353" height="130" rx="12" fill="white"/>
</clipPath>
</defs>
</svg>
