<svg width="353" height="130" viewBox="0 0 353 130" fill="none" xmlns="http://www.w3.org/2000/svg">
<g clip-path="url(#clip0_3012_2293)">
<rect width="353" height="130" rx="12" fill="#8307FF"/>
<circle cx="322.5" cy="46.5" r="73.5" fill="#962EFF"/>
<circle cx="270.5" cy="119.5" r="14.5" fill="#962EFF"/>
</g>
<rect x="0.5" y="0.5" width="352" height="129" rx="11.5" stroke="#8307FF"/>
<path d="M22.706 28H16.42V18.62H22.384C24.4093 18.62 25.422 19.376 25.422 20.888C25.422 22.2413 24.6427 22.9507 23.084 23.016V23.156C23.9987 23.1933 24.6893 23.408 25.156 23.8C25.6227 24.192 25.856 24.724 25.856 25.396C25.856 27.132 24.806 28 22.706 28ZM19.038 20.986V22.176H22.104C22.3653 22.176 22.5427 22.134 22.636 22.05C22.7387 21.966 22.79 21.812 22.79 21.588C22.79 21.3733 22.7293 21.2193 22.608 21.126C22.496 21.0327 22.3047 20.986 22.034 20.986H19.038ZM19.038 24.332V25.634H22.37C22.6873 25.634 22.902 25.592 23.014 25.508C23.1353 25.4147 23.196 25.2373 23.196 24.976C23.196 24.7147 23.14 24.542 23.028 24.458C22.916 24.374 22.6967 24.332 22.37 24.332H19.038ZM30.3481 28.14C29.0788 28.14 28.0801 27.846 27.3521 27.258C26.6335 26.67 26.2741 25.7413 26.2741 24.472C26.2741 23.3427 26.6428 22.4513 27.3801 21.798C28.1268 21.1353 29.0975 20.804 30.2921 20.804C31.5335 20.804 32.5088 21.1073 33.2181 21.714C33.9275 22.3113 34.2821 23.17 34.2821 24.29C34.2821 24.486 34.2681 24.71 34.2401 24.962H28.7101C28.7288 25.382 28.8455 25.6713 29.0601 25.83C29.2841 25.9793 29.6808 26.054 30.2501 26.054C30.7635 26.054 31.1135 26.0073 31.3001 25.914C31.4961 25.8207 31.5941 25.6667 31.5941 25.452V25.298H34.2261V25.466C34.2261 26.2593 33.8715 26.9033 33.1621 27.398C32.4621 27.8927 31.5241 28.14 30.3481 28.14ZM30.2361 22.82C29.7508 22.82 29.3961 22.8807 29.1721 23.002C28.9481 23.1233 28.8081 23.3333 28.7521 23.632H31.7341C31.6875 23.3333 31.5475 23.1233 31.3141 23.002C31.0901 22.8807 30.7308 22.82 30.2361 22.82ZM38.1224 27.216C37.0771 27.216 36.2697 26.936 35.7004 26.376C35.1311 25.8067 34.8464 25.0133 34.8464 23.996C34.8464 22.9973 35.1404 22.218 35.7284 21.658C36.3257 21.0887 37.1471 20.804 38.1924 20.804C39.7137 20.804 40.5724 21.4013 40.7684 22.596H40.9084V20.944H43.3724V26.81C43.3724 29.2833 41.9677 30.52 39.1584 30.52C37.9264 30.52 36.9697 30.268 36.2884 29.764C35.6071 29.2693 35.2664 28.56 35.2664 27.636H37.8984C37.8984 27.944 37.9731 28.14 38.1224 28.224C38.2811 28.308 38.6871 28.35 39.3404 28.35C39.9191 28.35 40.2971 28.266 40.4744 28.098C40.6517 27.9393 40.7404 27.5707 40.7404 26.992V25.508H40.6004C40.3951 26.6467 39.5691 27.216 38.1224 27.216ZM37.5064 23.996C37.5064 24.3507 37.6137 24.6027 37.8284 24.752C38.0524 24.892 38.4677 24.962 39.0744 24.962C39.6904 24.962 40.1197 24.906 40.3624 24.794C40.6144 24.6727 40.7404 24.4347 40.7404 24.08V23.982C40.7404 23.618 40.6144 23.3753 40.3624 23.254C40.1197 23.1327 39.6904 23.072 39.0744 23.072C38.4677 23.072 38.0524 23.142 37.8284 23.282C37.6137 23.4127 37.5064 23.6507 37.5064 23.996ZM46.8469 20.3H44.2149V18.62H46.8469V20.3ZM46.8469 28H44.2149V20.944H46.8469V28ZM50.3196 28H47.6876V20.944H50.1516V23.086H50.2916C50.3756 22.4233 50.6462 21.8773 51.1036 21.448C51.5609 21.0187 52.2282 20.804 53.1056 20.804C54.0202 20.804 54.7156 21.0513 55.1916 21.546C55.6676 22.0313 55.9056 22.6753 55.9056 23.478V28H53.2736V24.444C53.2736 23.9587 53.1662 23.6227 52.9516 23.436C52.7369 23.2493 52.3402 23.156 51.7616 23.156C51.1922 23.156 50.8096 23.24 50.6136 23.408C50.4176 23.576 50.3196 23.8933 50.3196 24.36V28ZM63.1748 28.14C61.7094 28.14 60.5614 27.706 59.7308 26.838C58.9094 25.9607 58.4988 24.7847 58.4988 23.31C58.4988 21.8353 58.9794 20.664 59.9408 19.796C60.9114 18.9187 62.2414 18.48 63.9308 18.48C65.5174 18.48 66.7588 18.8113 67.6548 19.474C68.5508 20.1273 68.9988 21.0373 68.9988 22.204V22.302H66.0588V22.204C66.0588 21.7653 65.8954 21.4573 65.5688 21.28C65.2514 21.0933 64.6821 21 63.8608 21C62.8434 21 62.1621 21.154 61.8167 21.462C61.4714 21.77 61.2988 22.386 61.2988 23.31C61.2988 24.234 61.4621 24.85 61.7888 25.158C62.1154 25.466 62.7594 25.62 63.7208 25.62C64.7288 25.62 65.4008 25.5733 65.7368 25.48C66.0821 25.3773 66.2874 25.1533 66.3528 24.808H63.4688V22.876H69.0128V28H66.5628V25.998H66.4228C66.0961 27.426 65.0134 28.14 63.1748 28.14ZM72.427 28H69.795V20.944H72.259V22.792H72.399C72.5017 22.176 72.7443 21.6907 73.127 21.336C73.519 20.9813 74.051 20.804 74.723 20.804C75.4697 20.804 76.0157 21.0233 76.361 21.462C76.7157 21.9007 76.893 22.4933 76.893 23.24V24.64H74.261V23.814C74.261 23.5153 74.1957 23.31 74.065 23.198C73.9343 23.0767 73.6963 23.016 73.351 23.016C72.9963 23.016 72.7537 23.072 72.623 23.184C72.4923 23.296 72.427 23.4967 72.427 23.786V28ZM80.0833 20.3H77.4513V18.62H80.0833V20.3ZM80.0833 28H77.4513V20.944H80.0833V28ZM84.1299 28.14C83.0566 28.14 82.2306 27.818 81.6519 27.174C81.0732 26.5207 80.7839 25.62 80.7839 24.472C80.7839 23.3147 81.0639 22.414 81.6239 21.77C82.1932 21.126 82.9912 20.804 84.0179 20.804C85.5579 20.804 86.4446 21.4573 86.6779 22.764H86.8179V18.62H89.4499V28H86.9859V26.096H86.8459C86.7339 26.796 86.4586 27.314 86.0199 27.65C85.5812 27.9767 84.9512 28.14 84.1299 28.14ZM83.8079 23.492C83.5652 23.6787 83.4439 24.0053 83.4439 24.472C83.4439 24.9387 83.5652 25.2653 83.8079 25.452C84.0506 25.6387 84.4752 25.732 85.0819 25.732C85.7072 25.732 86.1506 25.648 86.4119 25.48C86.6826 25.3027 86.8179 24.9713 86.8179 24.486V24.388C86.8179 23.912 86.6826 23.5947 86.4119 23.436C86.1506 23.2773 85.7072 23.198 85.0819 23.198C84.4752 23.198 84.0506 23.296 83.8079 23.492ZM97.9842 28H95.3522V20.986H92.0342V18.62H101.288V20.986H97.9842V28ZM104.556 28H101.924V20.944H104.388V22.792H104.528C104.631 22.176 104.873 21.6907 105.256 21.336C105.648 20.9813 106.18 20.804 106.852 20.804C107.599 20.804 108.145 21.0233 108.49 21.462C108.845 21.9007 109.022 22.4933 109.022 23.24V24.64H106.39V23.814C106.39 23.5153 106.325 23.31 106.194 23.198C106.063 23.0767 105.825 23.016 105.48 23.016C105.125 23.016 104.883 23.072 104.752 23.184C104.621 23.296 104.556 23.4967 104.556 23.786V28ZM111.862 28.14C111.069 28.14 110.453 27.972 110.014 27.636C109.585 27.2907 109.37 26.8147 109.37 26.208C109.37 25.116 110.131 24.4953 111.652 24.346L114.522 24.066V23.926C114.522 23.5807 114.433 23.3567 114.256 23.254C114.088 23.1513 113.761 23.1 113.276 23.1C112.837 23.1 112.539 23.156 112.38 23.268C112.221 23.3707 112.142 23.5667 112.142 23.856V23.912H109.51V23.884C109.51 22.9507 109.869 22.204 110.588 21.644C111.316 21.084 112.277 20.804 113.472 20.804C114.676 20.804 115.586 21.084 116.202 21.644C116.818 22.1947 117.126 22.974 117.126 23.982V28H114.662V26.516H114.522C114.233 27.5987 113.346 28.14 111.862 28.14ZM112.016 26.04C112.016 26.2173 112.226 26.306 112.646 26.306C113.309 26.306 113.775 26.2547 114.046 26.152C114.317 26.04 114.471 25.83 114.508 25.522L112.352 25.774C112.128 25.802 112.016 25.8907 112.016 26.04ZM121.112 28.14C120.039 28.14 119.213 27.818 118.634 27.174C118.056 26.5207 117.766 25.62 117.766 24.472C117.766 23.3147 118.046 22.414 118.606 21.77C119.176 21.126 119.974 20.804 121 20.804C122.54 20.804 123.427 21.4573 123.66 22.764H123.8V18.62H126.432V28H123.968V26.096H123.828C123.716 26.796 123.441 27.314 123.002 27.65C122.564 27.9767 121.934 28.14 121.112 28.14ZM120.79 23.492C120.548 23.6787 120.426 24.0053 120.426 24.472C120.426 24.9387 120.548 25.2653 120.79 25.452C121.033 25.6387 121.458 25.732 122.064 25.732C122.69 25.732 123.133 25.648 123.394 25.48C123.665 25.3027 123.8 24.9713 123.8 24.486V24.388C123.8 23.912 123.665 23.5947 123.394 23.436C123.133 23.2773 122.69 23.198 122.064 23.198C121.458 23.198 121.033 23.296 120.79 23.492ZM129.904 20.3H127.272V18.62H129.904V20.3ZM129.904 28H127.272V20.944H129.904V28ZM133.376 28H130.744V20.944H133.208V23.086H133.348C133.432 22.4233 133.703 21.8773 134.16 21.448C134.618 21.0187 135.285 20.804 136.162 20.804C137.077 20.804 137.772 21.0513 138.248 21.546C138.724 22.0313 138.962 22.6753 138.962 23.478V28H136.33V24.444C136.33 23.9587 136.223 23.6227 136.008 23.436C135.794 23.2493 135.397 23.156 134.818 23.156C134.249 23.156 133.866 23.24 133.67 23.408C133.474 23.576 133.376 23.8933 133.376 24.36V28ZM142.876 27.216C141.831 27.216 141.024 26.936 140.454 26.376C139.885 25.8067 139.6 25.0133 139.6 23.996C139.6 22.9973 139.894 22.218 140.482 21.658C141.08 21.0887 141.901 20.804 142.946 20.804C144.468 20.804 145.326 21.4013 145.522 22.596H145.662V20.944H148.126V26.81C148.126 29.2833 146.722 30.52 143.912 30.52C142.68 30.52 141.724 30.268 141.042 29.764C140.361 29.2693 140.02 28.56 140.02 27.636H142.652C142.652 27.944 142.727 28.14 142.876 28.224C143.035 28.308 143.441 28.35 144.094 28.35C144.673 28.35 145.051 28.266 145.228 28.098C145.406 27.9393 145.494 27.5707 145.494 26.992V25.508H145.354C145.149 26.6467 144.323 27.216 142.876 27.216ZM142.26 23.996C142.26 24.3507 142.368 24.6027 142.582 24.752C142.806 24.892 143.222 24.962 143.828 24.962C144.444 24.962 144.874 24.906 145.116 24.794C145.368 24.6727 145.494 24.4347 145.494 24.08V23.982C145.494 23.618 145.368 23.3753 145.116 23.254C144.874 23.1327 144.444 23.072 143.828 23.072C143.222 23.072 142.806 23.142 142.582 23.282C142.368 23.4127 142.26 23.6507 142.26 23.996ZM155.502 28H152.212L150.434 20.944H153.164L153.668 23.492L153.934 26.012H154.116L154.704 23.212L155.404 20.944H158.792L159.492 23.212L160.08 26.012H160.262L160.542 23.492L161.032 20.944H163.72L161.858 28H158.568L157.658 25.172L157.14 23.058H156.958L156.426 25.172L155.502 28ZM166.708 20.3H164.076V18.62H166.708V20.3ZM166.708 28H164.076V20.944H166.708V28ZM172.827 28H170.979C170.074 28 169.378 27.776 168.893 27.328C168.408 26.88 168.165 26.208 168.165 25.312V23.1H167.129V20.944H168.165V19.726H170.797V20.944H172.827V23.1H170.797V24.934C170.797 25.214 170.848 25.4007 170.951 25.494C171.063 25.5873 171.268 25.634 171.567 25.634H172.827V28ZM176.087 28H173.455V18.62H176.087V23.086H176.227C176.348 22.4233 176.638 21.8773 177.095 21.448C177.552 21.0187 178.201 20.804 179.041 20.804C179.946 20.804 180.632 21.0607 181.099 21.574C181.575 22.078 181.813 22.7407 181.813 23.562V28H179.181V24.444C179.181 23.9493 179.064 23.6133 178.831 23.436C178.607 23.2493 178.196 23.156 177.599 23.156C177.002 23.156 176.6 23.24 176.395 23.408C176.19 23.576 176.087 23.8933 176.087 24.36V28ZM193.965 29.974H190.507L188.981 28.112C187.553 28 186.433 27.5147 185.621 26.656C184.818 25.7973 184.417 24.682 184.417 23.31C184.417 21.8353 184.879 20.664 185.803 19.796C186.727 18.9187 187.996 18.48 189.611 18.48C191.263 18.48 192.551 18.914 193.475 19.782C194.399 20.65 194.861 21.826 194.861 23.31C194.861 24.402 194.609 25.3307 194.105 26.096C193.601 26.8613 192.873 27.4167 191.921 27.762L193.965 29.974ZM189.611 25.62C190.572 25.62 191.221 25.466 191.557 25.158C191.893 24.85 192.061 24.234 192.061 23.31C192.061 22.386 191.893 21.77 191.557 21.462C191.221 21.154 190.572 21 189.611 21C188.659 21 188.019 21.154 187.693 21.462C187.375 21.77 187.217 22.386 187.217 23.31C187.217 24.234 187.375 24.85 187.693 25.158C188.019 25.466 188.659 25.62 189.611 25.62ZM198.461 28.14C197.509 28.14 196.785 27.8973 196.291 27.412C195.805 26.9173 195.563 26.2687 195.563 25.466V20.944H198.195V24.5C198.195 24.9947 198.307 25.3353 198.531 25.522C198.764 25.6993 199.179 25.788 199.777 25.788C200.374 25.788 200.775 25.704 200.981 25.536C201.186 25.368 201.289 25.0507 201.289 24.584V20.944H203.921V28H201.457V25.858H201.317C201.233 26.5207 200.957 27.0667 200.491 27.496C200.033 27.9253 199.357 28.14 198.461 28.14ZM207.341 20.3H204.709V18.62H207.341V20.3ZM207.341 28H204.709V20.944H207.341V28ZM212.144 28.14C210.884 28.14 209.885 27.8133 209.148 27.16C208.41 26.5067 208.042 25.6107 208.042 24.472C208.042 23.3333 208.41 22.4373 209.148 21.784C209.885 21.1307 210.884 20.804 212.144 20.804C213.348 20.804 214.304 21.0887 215.014 21.658C215.732 22.2273 216.092 22.9833 216.092 23.926V24.15H213.474V24.038C213.474 23.6927 213.357 23.4593 213.124 23.338C212.9 23.2167 212.554 23.156 212.088 23.156C211.574 23.156 211.206 23.2447 210.982 23.422C210.767 23.5993 210.66 23.9493 210.66 24.472C210.66 24.9947 210.767 25.3447 210.982 25.522C211.206 25.69 211.574 25.774 212.088 25.774C212.554 25.774 212.9 25.718 213.124 25.606C213.357 25.4847 213.474 25.2513 213.474 24.906V24.78H216.092V25.018C216.092 25.9607 215.732 26.7167 215.014 27.286C214.304 27.8553 213.348 28.14 212.144 28.14ZM219.427 28H216.795V18.62H219.427V23.394H220.673L222.227 20.944H225.335L222.829 24.374L225.293 28H222.185L220.701 25.746H219.427V28ZM235.898 28H227.568V18.62H235.898V20.986H230.2V22.106H235.688V24.458H230.2V25.634H235.898V28ZM239.265 28H236.087L238.719 24.584V24.444L236.087 20.944H239.307L240.749 23.072H240.889L242.275 20.944H245.453L242.821 24.402V24.542L245.453 28H242.233L240.791 25.928H240.651L239.265 28ZM249.672 28.14C248.403 28.14 247.404 27.846 246.676 27.258C245.958 26.67 245.598 25.7413 245.598 24.472C245.598 23.3427 245.967 22.4513 246.704 21.798C247.451 21.1353 248.422 20.804 249.616 20.804C250.858 20.804 251.833 21.1073 252.542 21.714C253.252 22.3113 253.606 23.17 253.606 24.29C253.606 24.486 253.592 24.71 253.564 24.962H248.034C248.053 25.382 248.17 25.6713 248.384 25.83C248.608 25.9793 249.005 26.054 249.574 26.054C250.088 26.054 250.438 26.0073 250.624 25.914C250.82 25.8207 250.918 25.6667 250.918 25.452V25.298H253.55V25.466C253.55 26.2593 253.196 26.9033 252.486 27.398C251.786 27.8927 250.848 28.14 249.672 28.14ZM249.56 22.82C249.075 22.82 248.72 22.8807 248.496 23.002C248.272 23.1233 248.132 23.3333 248.076 23.632H251.058C251.012 23.3333 250.872 23.1233 250.638 23.002C250.414 22.8807 250.055 22.82 249.56 22.82ZM258.273 28.14C257.013 28.14 256.014 27.8133 255.277 27.16C254.539 26.5067 254.171 25.6107 254.171 24.472C254.171 23.3333 254.539 22.4373 255.277 21.784C256.014 21.1307 257.013 20.804 258.273 20.804C259.477 20.804 260.433 21.0887 261.143 21.658C261.861 22.2273 262.221 22.9833 262.221 23.926V24.15H259.603V24.038C259.603 23.6927 259.486 23.4593 259.253 23.338C259.029 23.2167 258.683 23.156 258.217 23.156C257.703 23.156 257.335 23.2447 257.111 23.422C256.896 23.5993 256.789 23.9493 256.789 24.472C256.789 24.9947 256.896 25.3447 257.111 25.522C257.335 25.69 257.703 25.774 258.217 25.774C258.683 25.774 259.029 25.718 259.253 25.606C259.486 25.4847 259.603 25.2513 259.603 24.906V24.78H262.221V25.018C262.221 25.9607 261.861 26.7167 261.143 27.286C260.433 27.8553 259.477 28.14 258.273 28.14ZM265.822 28.14C264.87 28.14 264.147 27.8973 263.652 27.412C263.167 26.9173 262.924 26.2687 262.924 25.466V20.944H265.556V24.5C265.556 24.9947 265.668 25.3353 265.892 25.522C266.125 25.6993 266.541 25.788 267.138 25.788C267.735 25.788 268.137 25.704 268.342 25.536C268.547 25.368 268.65 25.0507 268.65 24.584V20.944H271.282V28H268.818V25.858H268.678C268.594 26.5207 268.319 27.0667 267.852 27.496C267.395 27.9253 266.718 28.14 265.822 28.14ZM277.348 28H275.5C274.595 28 273.9 27.776 273.414 27.328C272.929 26.88 272.686 26.208 272.686 25.312V23.1H271.65V20.944H272.686V19.726H275.318V20.944H277.348V23.1H275.318V24.934C275.318 25.214 275.37 25.4007 275.472 25.494C275.584 25.5873 275.79 25.634 276.088 25.634H277.348V28ZM280.609 20.3H277.977V18.62H280.609V20.3ZM280.609 28H277.977V20.944H280.609V28ZM288.337 27.16C287.591 27.8133 286.597 28.14 285.355 28.14C284.114 28.14 283.115 27.8133 282.359 27.16C281.613 26.4973 281.239 25.6013 281.239 24.472C281.239 23.3333 281.613 22.4373 282.359 21.784C283.115 21.1307 284.114 20.804 285.355 20.804C286.597 20.804 287.591 21.1307 288.337 21.784C289.093 22.4373 289.471 23.3333 289.471 24.472C289.471 25.6013 289.093 26.4973 288.337 27.16ZM284.151 25.536C284.366 25.7227 284.767 25.816 285.355 25.816C285.943 25.816 286.34 25.7227 286.545 25.536C286.76 25.34 286.867 24.9853 286.867 24.472C286.867 23.9587 286.76 23.604 286.545 23.408C286.34 23.212 285.943 23.114 285.355 23.114C284.767 23.114 284.366 23.212 284.151 23.408C283.946 23.604 283.843 23.9587 283.843 24.472C283.843 24.9853 283.946 25.34 284.151 25.536ZM292.736 28H290.104V20.944H292.568V23.086H292.708C292.792 22.4233 293.062 21.8773 293.52 21.448C293.977 21.0187 294.644 20.804 295.522 20.804C296.436 20.804 297.132 21.0513 297.608 21.546C298.084 22.0313 298.322 22.6753 298.322 23.478V28H295.69V24.444C295.69 23.9587 295.582 23.6227 295.368 23.436C295.153 23.2493 294.756 23.156 294.178 23.156C293.608 23.156 293.226 23.24 293.03 23.408C292.834 23.576 292.736 23.8933 292.736 24.36V28ZM303.337 28.14C302.543 28.14 301.927 27.972 301.489 27.636C301.059 27.2907 300.845 26.8147 300.845 26.208C300.845 25.116 301.605 24.4953 303.127 24.346L305.997 24.066V23.926C305.997 23.5807 305.908 23.3567 305.731 23.254C305.563 23.1513 305.236 23.1 304.751 23.1C304.312 23.1 304.013 23.156 303.855 23.268C303.696 23.3707 303.617 23.5667 303.617 23.856V23.912H300.985V23.884C300.985 22.9507 301.344 22.204 302.063 21.644C302.791 21.084 303.752 20.804 304.947 20.804C306.151 20.804 307.061 21.084 307.677 21.644C308.293 22.1947 308.601 22.974 308.601 23.982V28H306.137V26.516H305.997C305.707 27.5987 304.821 28.14 303.337 28.14ZM303.491 26.04C303.491 26.2173 303.701 26.306 304.121 26.306C304.783 26.306 305.25 26.2547 305.521 26.152C305.791 26.04 305.945 25.83 305.983 25.522L303.827 25.774C303.603 25.802 303.491 25.8907 303.491 26.04ZM312.013 28H309.381V20.944H311.845V23.086H311.985C312.069 22.4233 312.34 21.8773 312.797 21.448C313.254 21.0187 313.922 20.804 314.799 20.804C315.714 20.804 316.409 21.0513 316.885 21.546C317.361 22.0313 317.599 22.6753 317.599 23.478V28H314.967V24.444C314.967 23.9587 314.86 23.6227 314.645 23.436C314.43 23.2493 314.034 23.156 313.455 23.156C312.886 23.156 312.503 23.24 312.307 23.408C312.111 23.576 312.013 23.8933 312.013 24.36V28ZM321.583 28.14C320.51 28.14 319.684 27.818 319.105 27.174C318.526 26.5207 318.237 25.62 318.237 24.472C318.237 23.3147 318.517 22.414 319.077 21.77C319.646 21.126 320.444 20.804 321.471 20.804C323.011 20.804 323.898 21.4573 324.131 22.764H324.271V18.62H326.903V28H324.439V26.096H324.299C324.187 26.796 323.912 27.314 323.473 27.65C323.034 27.9767 322.404 28.14 321.583 28.14ZM321.261 23.492C321.018 23.6787 320.897 24.0053 320.897 24.472C320.897 24.9387 321.018 25.2653 321.261 25.452C321.504 25.6387 321.928 25.732 322.535 25.732C323.16 25.732 323.604 25.648 323.865 25.48C324.136 25.3027 324.271 24.9713 324.271 24.486V24.388C324.271 23.912 324.136 23.5947 323.865 23.436C323.604 23.2773 323.16 23.198 322.535 23.198C321.928 23.198 321.504 23.296 321.261 23.492ZM21.32 49H16.574V39.62H21.32C22.8787 39.62 24.1107 40.0353 25.016 40.866C25.9213 41.6873 26.374 42.8353 26.374 44.31C26.374 45.7847 25.9213 46.9373 25.016 47.768C24.1107 48.5893 22.8787 49 21.32 49ZM21.32 41.986H19.206V46.634H21.32C21.7867 46.634 22.1413 46.6153 22.384 46.578C22.636 46.5313 22.86 46.4287 23.056 46.27C23.252 46.1113 23.3827 45.878 23.448 45.57C23.5227 45.262 23.56 44.842 23.56 44.31C23.56 43.778 23.5227 43.358 23.448 43.05C23.3827 42.742 23.252 42.5087 23.056 42.35C22.86 42.1913 22.636 42.0933 22.384 42.056C22.1413 42.0093 21.7867 41.986 21.32 41.986ZM29.3524 49.14C28.5591 49.14 27.9431 48.972 27.5044 48.636C27.0751 48.2907 26.8604 47.8147 26.8604 47.208C26.8604 46.116 27.6211 45.4953 29.1424 45.346L32.0124 45.066V44.926C32.0124 44.5807 31.9237 44.3567 31.7464 44.254C31.5784 44.1513 31.2517 44.1 30.7664 44.1C30.3277 44.1 30.0291 44.156 29.8704 44.268C29.7117 44.3707 29.6324 44.5667 29.6324 44.856V44.912H27.0004V44.884C27.0004 43.9507 27.3597 43.204 28.0784 42.644C28.8064 42.084 29.7677 41.804 30.9624 41.804C32.1664 41.804 33.0764 42.084 33.6924 42.644C34.3084 43.1947 34.6164 43.974 34.6164 44.982V49H32.1524V47.516H32.0124C31.7231 48.5987 30.8364 49.14 29.3524 49.14ZM29.5064 47.04C29.5064 47.2173 29.7164 47.306 30.1364 47.306C30.7991 47.306 31.2657 47.2547 31.5364 47.152C31.8071 47.04 31.9611 46.83 31.9984 46.522L29.8424 46.774C29.6184 46.802 29.5064 46.8907 29.5064 47.04ZM38.0286 41.3H35.3966V39.62H38.0286V41.3ZM38.0286 49H35.3966V41.944H38.0286V49ZM41.5012 49H38.8692V39.62H41.5012V49ZM43.8959 51.38H42.6219V49H44.6659C44.8805 49 45.0439 48.972 45.1559 48.916L41.7819 41.944H44.7779L45.9959 44.716L46.4999 46.34H46.6819L47.1439 44.688L48.1939 41.944H51.1339L47.7879 49.28C47.4239 50.092 46.9479 50.6427 46.3599 50.932C45.7812 51.2307 44.9599 51.38 43.8959 51.38ZM61.7051 49H53.3751V39.62H61.7051V41.986H56.0071V43.106H61.4951V45.458H56.0071V46.634H61.7051V49ZM64.7352 49.14C63.9419 49.14 63.3259 48.972 62.8872 48.636C62.4579 48.2907 62.2432 47.8147 62.2432 47.208C62.2432 46.116 63.0039 45.4953 64.5252 45.346L67.3952 45.066V44.926C67.3952 44.5807 67.3065 44.3567 67.1292 44.254C66.9612 44.1513 66.6345 44.1 66.1492 44.1C65.7105 44.1 65.4119 44.156 65.2532 44.268C65.0945 44.3707 65.0152 44.5667 65.0152 44.856V44.912H62.3832V44.884C62.3832 43.9507 62.7425 43.204 63.4612 42.644C64.1892 42.084 65.1505 41.804 66.3452 41.804C67.5492 41.804 68.4592 42.084 69.0752 42.644C69.6912 43.1947 69.9992 43.974 69.9992 44.982V49H67.5352V47.516H67.3952C67.1059 48.5987 66.2192 49.14 64.7352 49.14ZM64.8892 47.04C64.8892 47.2173 65.0992 47.306 65.5192 47.306C66.1819 47.306 66.6485 47.2547 66.9192 47.152C67.1899 47.04 67.3439 46.83 67.3812 46.522L65.2252 46.774C65.0012 46.802 64.8892 46.8907 64.8892 47.04ZM73.4114 49H70.7794V41.944H73.2434V43.792H73.3834C73.486 43.176 73.7287 42.6907 74.1114 42.336C74.5034 41.9813 75.0354 41.804 75.7074 41.804C76.454 41.804 77 42.0233 77.3454 42.462C77.7 42.9007 77.8774 43.4933 77.8774 44.24V45.64H75.2454V44.814C75.2454 44.5153 75.18 44.31 75.0494 44.198C74.9187 44.0767 74.6807 44.016 74.3354 44.016C73.9807 44.016 73.738 44.072 73.6074 44.184C73.4767 44.296 73.4114 44.4967 73.4114 44.786V49ZM81.0676 49H78.4356V41.944H80.8996V44.086H81.0396C81.1236 43.4233 81.3943 42.8773 81.8516 42.448C82.309 42.0187 82.9763 41.804 83.8536 41.804C84.7683 41.804 85.4636 42.0513 85.9396 42.546C86.4156 43.0313 86.6536 43.6753 86.6536 44.478V49H84.0216V45.444C84.0216 44.9587 83.9143 44.6227 83.6996 44.436C83.485 44.2493 83.0883 44.156 82.5096 44.156C81.9403 44.156 81.5576 44.24 81.3616 44.408C81.1656 44.576 81.0676 44.8933 81.0676 45.36V49ZM90.0637 41.3H87.4317V39.62H90.0637V41.3ZM90.0637 49H87.4317V41.944H90.0637V49ZM93.5364 49H90.9044V41.944H93.3684V44.086H93.5084C93.5924 43.4233 93.863 42.8773 94.3204 42.448C94.7777 42.0187 95.445 41.804 96.3224 41.804C97.237 41.804 97.9324 42.0513 98.4084 42.546C98.8844 43.0313 99.1224 43.6753 99.1224 44.478V49H96.4904V45.444C96.4904 44.9587 96.383 44.6227 96.1684 44.436C95.9537 44.2493 95.557 44.156 94.9784 44.156C94.409 44.156 94.0264 44.24 93.8304 44.408C93.6344 44.576 93.5364 44.8933 93.5364 45.36V49ZM103.036 48.216C101.991 48.216 101.184 47.936 100.614 47.376C100.045 46.8067 99.7605 46.0133 99.7605 44.996C99.7605 43.9973 100.054 43.218 100.642 42.658C101.24 42.0887 102.061 41.804 103.106 41.804C104.628 41.804 105.486 42.4013 105.682 43.596H105.822V41.944H108.286V47.81C108.286 50.2833 106.882 51.52 104.072 51.52C102.84 51.52 101.884 51.268 101.202 50.764C100.521 50.2693 100.18 49.56 100.18 48.636H102.812C102.812 48.944 102.887 49.14 103.036 49.224C103.195 49.308 103.601 49.35 104.254 49.35C104.833 49.35 105.211 49.266 105.388 49.098C105.566 48.9393 105.654 48.5707 105.654 47.992V46.508H105.514C105.309 47.6467 104.483 48.216 103.036 48.216ZM102.42 44.996C102.42 45.3507 102.528 45.6027 102.742 45.752C102.966 45.892 103.382 45.962 103.988 45.962C104.604 45.962 105.034 45.906 105.276 45.794C105.528 45.6727 105.654 45.4347 105.654 45.08V44.982C105.654 44.618 105.528 44.3753 105.276 44.254C105.034 44.1327 104.604 44.072 103.988 44.072C103.382 44.072 102.966 44.142 102.742 44.282C102.528 44.4127 102.42 44.6507 102.42 44.996ZM112.923 49.14C111.691 49.14 110.744 48.916 110.081 48.468C109.428 48.0107 109.101 47.3713 109.101 46.55V46.494H111.733V46.634C111.733 46.8207 111.808 46.942 111.957 46.998C112.116 47.0447 112.442 47.068 112.937 47.068C113.366 47.068 113.646 47.0447 113.777 46.998C113.917 46.9513 113.987 46.8627 113.987 46.732C113.987 46.62 113.94 46.5453 113.847 46.508C113.754 46.4613 113.544 46.4193 113.217 46.382L111.173 46.158C109.68 45.9993 108.933 45.3227 108.933 44.128C108.933 43.4467 109.227 42.8913 109.815 42.462C110.412 42.0233 111.332 41.804 112.573 41.804C115.074 41.804 116.325 42.6767 116.325 44.422V44.478H113.693V44.394C113.693 44.198 113.618 44.0627 113.469 43.988C113.32 43.904 112.993 43.862 112.489 43.862C112.088 43.862 111.826 43.89 111.705 43.946C111.584 44.002 111.523 44.1 111.523 44.24C111.523 44.3427 111.579 44.422 111.691 44.478C111.812 44.534 112.069 44.5807 112.461 44.618L113.861 44.772C114.86 44.884 115.56 45.108 115.961 45.444C116.372 45.78 116.577 46.256 116.577 46.872C116.577 47.544 116.255 48.09 115.611 48.51C114.967 48.93 114.071 49.14 112.923 49.14Z" fill="#FFD96D"/>
<path d="M20.836 73.228H16.36V71.68H20.836V73.228ZM25.3194 76.12C24.0954 76.12 23.1554 75.88 22.4994 75.4C21.8434 74.92 21.5154 74.216 21.5154 73.288V73.216H23.3154V73.432C23.3154 73.816 23.4514 74.088 23.7234 74.248C23.9954 74.4 24.5274 74.476 25.3194 74.476C26.0154 74.476 26.4834 74.42 26.7234 74.308C26.9714 74.196 27.0954 74 27.0954 73.72C27.0954 73.48 27.0154 73.304 26.8554 73.192C26.6954 73.072 26.4074 72.976 25.9914 72.904L23.7354 72.58C22.2074 72.34 21.4434 71.588 21.4434 70.324C21.4434 69.636 21.7434 69.052 22.3434 68.572C22.9514 68.084 23.8794 67.84 25.1274 67.84C26.3274 67.84 27.2314 68.092 27.8394 68.596C28.4474 69.1 28.7514 69.792 28.7514 70.672V70.744H26.9394V70.576C26.9394 70.176 26.7994 69.896 26.5194 69.736C26.2474 69.568 25.7234 69.484 24.9474 69.484C24.3154 69.484 23.8754 69.548 23.6274 69.676C23.3794 69.796 23.2554 69.988 23.2554 70.252C23.2554 70.484 23.3234 70.652 23.4594 70.756C23.6034 70.86 23.8474 70.944 24.1914 71.008L26.4474 71.368C28.0794 71.632 28.8954 72.388 28.8954 73.636C28.8954 74.348 28.5994 74.94 28.0074 75.412C27.4154 75.884 26.5194 76.12 25.3194 76.12ZM33.8644 76H32.3764C30.8724 76 30.1204 75.276 30.1204 73.828V71.476H29.1724V69.988H30.1204V68.824H31.9204V69.988H33.8644V71.476H31.9204V73.624C31.9204 73.92 31.9804 74.12 32.1004 74.224C32.2284 74.328 32.4564 74.38 32.7844 74.38H33.8644V76ZM36.3866 76.12C35.7386 76.12 35.2306 75.98 34.8626 75.7C34.4946 75.412 34.3106 75.016 34.3106 74.512C34.3106 73.6 34.9586 73.076 36.2546 72.94L38.8346 72.676V72.448C38.8346 72.064 38.7386 71.804 38.5466 71.668C38.3546 71.524 38.0146 71.452 37.5266 71.452C37.0626 71.452 36.7306 71.524 36.5306 71.668C36.3386 71.804 36.2426 72.04 36.2426 72.376V72.424H34.4306V72.388C34.4306 71.636 34.7226 71.028 35.3066 70.564C35.8906 70.1 36.6746 69.868 37.6586 69.868C38.6346 69.868 39.3706 70.1 39.8666 70.564C40.3626 71.028 40.6106 71.664 40.6106 72.472V76H38.9306V74.62H38.8346C38.6906 75.092 38.4106 75.46 37.9946 75.724C37.5786 75.988 37.0426 76.12 36.3866 76.12ZM36.1226 74.392C36.1226 74.696 36.3826 74.848 36.9026 74.848C37.5346 74.848 38.0066 74.764 38.3186 74.596C38.6386 74.42 38.8106 74.124 38.8346 73.708L36.7466 73.948C36.3306 73.98 36.1226 74.128 36.1226 74.392ZM43.323 76H41.523V69.988H43.191V71.584H43.299C43.387 71.064 43.599 70.648 43.935 70.336C44.279 70.024 44.739 69.868 45.315 69.868C45.955 69.868 46.431 70.06 46.743 70.444C47.055 70.828 47.211 71.336 47.211 71.968V72.964H45.411V72.34C45.411 72.004 45.335 71.764 45.183 71.62C45.031 71.468 44.775 71.392 44.415 71.392C44.023 71.392 43.743 71.484 43.575 71.668C43.407 71.852 43.323 72.136 43.323 72.52V76ZM52.0988 76H50.6108C49.1068 76 48.3548 75.276 48.3548 73.828V71.476H47.4068V69.988H48.3548V68.824H50.1548V69.988H52.0988V71.476H50.1548V73.624C50.1548 73.92 50.2148 74.12 50.3348 74.224C50.4628 74.328 50.6908 74.38 51.0188 74.38H52.0988V76ZM58.4165 76.12C57.1925 76.12 56.2245 75.748 55.5125 75.004C54.8005 74.252 54.4445 73.244 54.4445 71.98C54.4445 70.716 54.8445 69.712 55.6445 68.968C56.4445 68.216 57.5325 67.84 58.9085 67.84C60.1725 67.84 61.1725 68.12 61.9085 68.68C62.6525 69.232 63.0245 69.988 63.0245 70.948V71.044H61.0205V70.948C61.0205 70.476 60.8485 70.128 60.5045 69.904C60.1685 69.68 59.6205 69.568 58.8605 69.568C57.9405 69.568 57.2925 69.748 56.9165 70.108C56.5405 70.468 56.3525 71.092 56.3525 71.98C56.3525 72.868 56.5325 73.492 56.8925 73.852C57.2605 74.212 57.8885 74.392 58.7765 74.392C59.7045 74.392 60.3405 74.304 60.6845 74.128C61.0285 73.944 61.2125 73.596 61.2365 73.084H58.5125V71.752H63.0365V76H61.3685V74.272H61.2725C60.9525 75.504 60.0005 76.12 58.4165 76.12ZM65.7175 76H63.9175V69.988H65.5855V71.584H65.6935C65.7815 71.064 65.9935 70.648 66.3295 70.336C66.6735 70.024 67.1335 69.868 67.7095 69.868C68.3495 69.868 68.8255 70.06 69.1375 70.444C69.4495 70.828 69.6055 71.336 69.6055 71.968V72.964H67.8055V72.34C67.8055 72.004 67.7295 71.764 67.5775 71.62C67.4255 71.468 67.1695 71.392 66.8095 71.392C66.4175 71.392 66.1375 71.484 65.9695 71.668C65.8015 71.852 65.7175 72.136 65.7175 72.52V76ZM72.0573 69.376H70.2573V67.96H72.0573V69.376ZM72.0573 76H70.2573V69.988H72.0573V76ZM75.6875 76.12C74.7675 76.12 74.0515 75.84 73.5395 75.28C73.0355 74.72 72.7835 73.96 72.7835 73C72.7835 72.032 73.0275 71.268 73.5155 70.708C74.0115 70.148 74.7035 69.868 75.5915 69.868C76.2795 69.868 76.8195 70.024 77.2115 70.336C77.6035 70.64 77.8515 71.056 77.9555 71.584H78.0635V67.96H79.8635V76H78.1835V74.332H78.0875C77.8555 75.524 77.0555 76.12 75.6875 76.12ZM74.6075 73C74.6075 73.536 74.7395 73.916 75.0035 74.14C75.2755 74.364 75.7075 74.476 76.2995 74.476C76.8915 74.476 77.3315 74.364 77.6195 74.14C77.9155 73.916 78.0635 73.548 78.0635 73.036V72.94C78.0635 72.428 77.9155 72.064 77.6195 71.848C77.3315 71.624 76.8915 71.512 76.2995 71.512C75.7075 71.512 75.2755 71.624 75.0035 71.848C74.7395 72.072 74.6075 72.456 74.6075 73ZM87.1435 76H85.3435V69.58H82.3555V67.96H90.1315V69.58H87.1435V76ZM92.5769 76H90.7769V69.988H92.4449V71.584H92.5529C92.6409 71.064 92.8529 70.648 93.1889 70.336C93.5329 70.024 93.9929 69.868 94.5689 69.868C95.2089 69.868 95.6849 70.06 95.9969 70.444C96.3089 70.828 96.4649 71.336 96.4649 71.968V72.964H94.6649V72.34C94.6649 72.004 94.5889 71.764 94.4369 71.62C94.2849 71.468 94.0289 71.392 93.6689 71.392C93.2769 71.392 92.9969 71.484 92.8289 71.668C92.6609 71.852 92.5769 72.136 92.5769 72.52V76ZM98.9647 76.12C98.3167 76.12 97.8087 75.98 97.4407 75.7C97.0727 75.412 96.8887 75.016 96.8887 74.512C96.8887 73.6 97.5367 73.076 98.8327 72.94L101.413 72.676V72.448C101.413 72.064 101.317 71.804 101.125 71.668C100.933 71.524 100.593 71.452 100.105 71.452C99.6407 71.452 99.3087 71.524 99.1087 71.668C98.9167 71.804 98.8207 72.04 98.8207 72.376V72.424H97.0087V72.388C97.0087 71.636 97.3007 71.028 97.8847 70.564C98.4687 70.1 99.2527 69.868 100.237 69.868C101.213 69.868 101.949 70.1 102.445 70.564C102.941 71.028 103.189 71.664 103.189 72.472V76H101.509V74.62H101.413C101.269 75.092 100.989 75.46 100.573 75.724C100.157 75.988 99.6207 76.12 98.9647 76.12ZM98.7007 74.392C98.7007 74.696 98.9607 74.848 99.4807 74.848C100.113 74.848 100.585 74.764 100.897 74.596C101.217 74.42 101.389 74.124 101.413 73.708L99.3247 73.948C98.9087 73.98 98.7007 74.128 98.7007 74.392ZM106.789 76.12C105.869 76.12 105.153 75.84 104.641 75.28C104.137 74.72 103.885 73.96 103.885 73C103.885 72.032 104.129 71.268 104.617 70.708C105.113 70.148 105.805 69.868 106.693 69.868C107.381 69.868 107.921 70.024 108.313 70.336C108.705 70.64 108.953 71.056 109.057 71.584H109.165V67.96H110.965V76H109.285V74.332H109.189C108.957 75.524 108.157 76.12 106.789 76.12ZM105.709 73C105.709 73.536 105.841 73.916 106.105 74.14C106.377 74.364 106.809 74.476 107.401 74.476C107.993 74.476 108.433 74.364 108.721 74.14C109.017 73.916 109.165 73.548 109.165 73.036V72.94C109.165 72.428 109.017 72.064 108.721 71.848C108.433 71.624 107.993 71.512 107.401 71.512C106.809 71.512 106.377 71.624 106.105 71.848C105.841 72.072 105.709 72.456 105.709 73ZM113.718 69.376H111.918V67.96H113.718V69.376ZM113.718 76H111.918V69.988H113.718V76ZM116.46 76H114.66V69.988H116.328V71.836H116.436C116.524 71.276 116.768 70.808 117.168 70.432C117.576 70.056 118.148 69.868 118.884 69.868C119.676 69.868 120.276 70.092 120.684 70.54C121.1 70.98 121.308 71.552 121.308 72.256V76H119.508V72.856C119.508 72.368 119.392 72.02 119.16 71.812C118.936 71.596 118.552 71.488 118.008 71.488C117.448 71.488 117.048 71.604 116.808 71.836C116.576 72.068 116.46 72.444 116.46 72.964V76ZM124.858 75.388C123.97 75.388 123.278 75.144 122.782 74.656C122.286 74.16 122.038 73.484 122.038 72.628C122.038 71.78 122.294 71.108 122.806 70.612C123.326 70.116 124.034 69.868 124.93 69.868C125.554 69.868 126.066 70.004 126.466 70.276C126.874 70.54 127.126 70.928 127.222 71.44H127.318V69.988H128.998V75.124C128.998 77.148 127.858 78.16 125.578 78.16C124.594 78.16 123.818 77.952 123.25 77.536C122.69 77.12 122.41 76.536 122.41 75.784H124.21C124.21 76.128 124.306 76.36 124.498 76.48C124.698 76.6 125.098 76.66 125.698 76.66C126.29 76.66 126.686 76.568 126.886 76.384C127.094 76.2 127.198 75.82 127.198 75.244V73.888H127.102C126.998 74.352 126.758 74.72 126.382 74.992C126.014 75.256 125.506 75.388 124.858 75.388ZM124.234 71.704C123.978 71.88 123.85 72.188 123.85 72.628C123.85 73.068 123.978 73.38 124.234 73.564C124.49 73.748 124.906 73.84 125.482 73.84C126.066 73.84 126.498 73.752 126.778 73.576C127.058 73.392 127.198 73.096 127.198 72.688V72.556C127.198 72.156 127.058 71.868 126.778 71.692C126.506 71.516 126.082 71.428 125.506 71.428C124.922 71.428 124.498 71.52 124.234 71.704ZM135.212 76H132.968L131.324 69.988H133.184L133.892 72.736L134.144 74.608H134.264L134.744 72.556L135.656 69.988H137.972L138.872 72.556L139.352 74.608H139.472L139.736 72.736L140.432 69.988H142.268L140.564 76H138.32L137.288 73.108L136.844 71.452H136.712L136.256 73.108L135.212 76ZM144.55 69.376H142.75V67.96H144.55V69.376ZM144.55 76H142.75V69.988H144.55V76ZM149.728 76H148.24C146.736 76 145.984 75.276 145.984 73.828V71.476H145.036V69.988H145.984V68.824H147.784V69.988H149.728V71.476H147.784V73.624C147.784 73.92 147.844 74.12 147.964 74.224C148.092 74.328 148.32 74.38 148.648 74.38H149.728V76ZM152.202 76H150.402V67.96H152.202V71.824H152.298C152.402 71.256 152.654 70.788 153.054 70.42C153.454 70.052 154.014 69.868 154.734 69.868C155.518 69.868 156.114 70.096 156.522 70.552C156.938 71 157.146 71.588 157.146 72.316V76H155.346V72.856C155.346 72.352 155.226 72 154.986 71.8C154.754 71.592 154.354 71.488 153.786 71.488C153.202 71.488 152.79 71.608 152.55 71.848C152.318 72.088 152.202 72.468 152.202 72.988V76ZM161.706 76H159.906V69.988H161.574V71.812H161.67C161.75 71.244 161.97 70.78 162.33 70.42C162.69 70.052 163.222 69.868 163.926 69.868C164.59 69.868 165.11 70.048 165.486 70.408C165.862 70.768 166.086 71.244 166.158 71.836H166.266C166.346 71.26 166.57 70.788 166.938 70.42C167.306 70.052 167.85 69.868 168.57 69.868C169.314 69.868 169.882 70.088 170.274 70.528C170.674 70.968 170.874 71.544 170.874 72.256V76H169.074V72.856C169.074 72.352 168.97 72 168.762 71.8C168.562 71.592 168.206 71.488 167.694 71.488C167.158 71.488 166.79 71.6 166.59 71.824C166.39 72.048 166.29 72.428 166.29 72.964V76H164.49V72.856C164.49 72.352 164.386 72 164.178 71.8C163.978 71.592 163.622 71.488 163.11 71.488C162.574 71.488 162.206 71.6 162.006 71.824C161.806 72.048 161.706 72.428 161.706 72.964V76ZM173.589 69.376H171.789V67.96H173.589V69.376ZM173.589 76H171.789V69.988H173.589V76ZM176.331 76H174.531V69.988H176.199V71.836H176.307C176.395 71.276 176.639 70.808 177.039 70.432C177.447 70.056 178.019 69.868 178.755 69.868C179.547 69.868 180.147 70.092 180.555 70.54C180.971 70.98 181.179 71.552 181.179 72.256V76H179.379V72.856C179.379 72.368 179.263 72.02 179.031 71.812C178.807 71.596 178.423 71.488 177.879 71.488C177.319 71.488 176.919 71.604 176.679 71.836C176.447 72.068 176.331 72.444 176.331 72.964V76ZM183.889 69.376H182.089V67.96H183.889V69.376ZM183.889 76H182.089V69.988H183.889V76ZM186.632 76H184.832V69.988H186.5V71.812H186.596C186.676 71.244 186.896 70.78 187.256 70.42C187.616 70.052 188.148 69.868 188.852 69.868C189.516 69.868 190.036 70.048 190.412 70.408C190.788 70.768 191.012 71.244 191.084 71.836H191.192C191.272 71.26 191.496 70.788 191.864 70.42C192.232 70.052 192.776 69.868 193.496 69.868C194.24 69.868 194.808 70.088 195.2 70.528C195.6 70.968 195.8 71.544 195.8 72.256V76H194V72.856C194 72.352 193.896 72 193.688 71.8C193.488 71.592 193.132 71.488 192.62 71.488C192.084 71.488 191.716 71.6 191.516 71.824C191.316 72.048 191.216 72.428 191.216 72.964V76H189.416V72.856C189.416 72.352 189.312 72 189.104 71.8C188.904 71.592 188.548 71.488 188.036 71.488C187.5 71.488 187.132 71.6 186.932 71.824C186.732 72.048 186.632 72.428 186.632 72.964V76ZM198.562 76.12C197.914 76.12 197.406 75.98 197.038 75.7C196.67 75.412 196.486 75.016 196.486 74.512C196.486 73.6 197.134 73.076 198.43 72.94L201.01 72.676V72.448C201.01 72.064 200.914 71.804 200.722 71.668C200.53 71.524 200.19 71.452 199.702 71.452C199.238 71.452 198.906 71.524 198.706 71.668C198.514 71.804 198.418 72.04 198.418 72.376V72.424H196.606V72.388C196.606 71.636 196.898 71.028 197.482 70.564C198.066 70.1 198.85 69.868 199.834 69.868C200.81 69.868 201.546 70.1 202.042 70.564C202.538 71.028 202.786 71.664 202.786 72.472V76H201.106V74.62H201.01C200.866 75.092 200.586 75.46 200.17 75.724C199.754 75.988 199.218 76.12 198.562 76.12ZM198.298 74.392C198.298 74.696 198.558 74.848 199.078 74.848C199.71 74.848 200.182 74.764 200.494 74.596C200.814 74.42 200.986 74.124 201.01 73.708L198.922 73.948C198.506 73.98 198.298 74.128 198.298 74.392ZM205.499 76H203.699V67.96H205.499V76ZM213.98 75.268C213.357 75.836 212.529 76.12 211.497 76.12C210.465 76.12 209.633 75.836 209.001 75.268C208.377 74.7 208.065 73.944 208.065 73C208.065 72.048 208.377 71.288 209.001 70.72C209.633 70.152 210.465 69.868 211.497 69.868C212.529 69.868 213.357 70.152 213.98 70.72C214.613 71.288 214.929 72.048 214.929 73C214.929 73.944 214.613 74.7 213.98 75.268ZM210.225 74.164C210.473 74.404 210.897 74.524 211.497 74.524C212.097 74.524 212.521 74.404 212.769 74.164C213.017 73.924 213.141 73.536 213.141 73C213.141 72.464 213.013 72.072 212.757 71.824C212.509 71.576 212.089 71.452 211.497 71.452C210.897 71.452 210.473 71.576 210.225 71.824C209.977 72.064 209.853 72.456 209.853 73C209.853 73.536 209.977 73.924 210.225 74.164ZM217.944 76H216.144V71.476H215.292V69.988H216.18C216.276 69.364 216.588 68.872 217.116 68.512C217.652 68.144 218.372 67.96 219.276 67.96H219.804V69.268H218.988C218.572 69.268 218.276 69.32 218.1 69.424C217.924 69.52 217.848 69.708 217.872 69.988H219.804V71.476H217.944V76ZM225.886 76.12C224.598 76.12 223.638 75.876 223.006 75.388C222.382 74.892 222.07 74.188 222.07 73.276V73.084H223.978V73.276C223.978 73.708 224.09 74.004 224.314 74.164C224.546 74.316 225.042 74.392 225.802 74.392C226.554 74.392 227.07 74.324 227.35 74.188C227.638 74.052 227.782 73.808 227.782 73.456C227.782 72.888 227.402 72.604 226.642 72.604H224.326V71.128H226.474C227.146 71.128 227.482 70.876 227.482 70.372C227.482 70.076 227.362 69.868 227.122 69.748C226.89 69.628 226.442 69.568 225.778 69.568C225.074 69.568 224.598 69.652 224.35 69.82C224.102 69.98 223.978 70.268 223.978 70.684V70.744H222.07V70.684C222.07 69.812 222.394 69.12 223.042 68.608C223.698 68.096 224.662 67.84 225.934 67.84C227.014 67.84 227.838 68.024 228.406 68.392C228.982 68.752 229.27 69.284 229.27 69.988C229.27 70.452 229.134 70.832 228.862 71.128C228.59 71.424 228.194 71.604 227.674 71.668V71.8C228.97 71.984 229.618 72.632 229.618 73.744C229.618 74.512 229.29 75.1 228.634 75.508C227.986 75.916 227.07 76.12 225.886 76.12ZM234.14 76.12C232.86 76.12 231.868 75.748 231.164 75.004C230.468 74.26 230.12 73.252 230.12 71.98C230.12 70.708 230.472 69.7 231.176 68.956C231.88 68.212 232.868 67.84 234.14 67.84C235.412 67.84 236.4 68.216 237.104 68.968C237.808 69.712 238.16 70.716 238.16 71.98C238.16 73.252 237.808 74.26 237.104 75.004C236.4 75.748 235.412 76.12 234.14 76.12ZM234.14 74.368C234.9 74.368 235.436 74.188 235.748 73.828C236.068 73.46 236.228 72.844 236.228 71.98C236.228 71.116 236.068 70.504 235.748 70.144C235.436 69.776 234.9 69.592 234.14 69.592C233.372 69.592 232.832 69.776 232.52 70.144C232.208 70.504 232.052 71.116 232.052 71.98C232.052 72.844 232.208 73.46 232.52 73.828C232.832 74.188 233.372 74.368 234.14 74.368ZM244.665 76.12C243.377 76.12 242.397 75.816 241.725 75.208C241.053 74.592 240.717 73.736 240.717 72.64V67.96H242.517V72.508C242.517 73.196 242.673 73.68 242.985 73.96C243.297 74.232 243.857 74.368 244.665 74.368C245.481 74.368 246.041 74.232 246.345 73.96C246.657 73.68 246.813 73.196 246.813 72.508V67.96H248.613V72.64C248.613 73.736 248.277 74.592 247.605 75.208C246.941 75.816 245.961 76.12 244.665 76.12ZM253.167 76.12C251.943 76.12 251.003 75.88 250.347 75.4C249.691 74.92 249.363 74.216 249.363 73.288V73.216H251.163V73.432C251.163 73.816 251.299 74.088 251.571 74.248C251.843 74.4 252.375 74.476 253.167 74.476C253.863 74.476 254.331 74.42 254.571 74.308C254.819 74.196 254.943 74 254.943 73.72C254.943 73.48 254.863 73.304 254.703 73.192C254.543 73.072 254.255 72.976 253.839 72.904L251.583 72.58C250.055 72.34 249.291 71.588 249.291 70.324C249.291 69.636 249.591 69.052 250.191 68.572C250.799 68.084 251.727 67.84 252.975 67.84C254.175 67.84 255.079 68.092 255.687 68.596C256.295 69.1 256.599 69.792 256.599 70.672V70.744H254.787V70.576C254.787 70.176 254.647 69.896 254.367 69.736C254.095 69.568 253.571 69.484 252.795 69.484C252.163 69.484 251.723 69.548 251.475 69.676C251.227 69.796 251.103 69.988 251.103 70.252C251.103 70.484 251.171 70.652 251.307 70.756C251.451 70.86 251.695 70.944 252.039 71.008L254.295 71.368C255.927 71.632 256.743 72.388 256.743 73.636C256.743 74.348 256.447 74.94 255.855 75.412C255.263 75.884 254.367 76.12 253.167 76.12ZM261.448 76H257.572V67.96H261.448C262.744 67.96 263.768 68.316 264.52 69.028C265.28 69.74 265.66 70.724 265.66 71.98C265.66 73.236 265.28 74.22 264.52 74.932C263.768 75.644 262.744 76 261.448 76ZM261.448 69.58H259.372V74.38H261.448C262.296 74.38 262.888 74.216 263.224 73.888C263.568 73.552 263.74 72.916 263.74 71.98C263.74 71.044 263.568 70.412 263.224 70.084C262.888 69.748 262.296 69.58 261.448 69.58ZM270.917 76H269.117V69.58H266.129V67.96H273.905V69.58H270.917V76ZM282.09 75.268C281.466 75.836 280.638 76.12 279.606 76.12C278.574 76.12 277.742 75.836 277.11 75.268C276.486 74.7 276.174 73.944 276.174 73C276.174 72.048 276.486 71.288 277.11 70.72C277.742 70.152 278.574 69.868 279.606 69.868C280.638 69.868 281.466 70.152 282.09 70.72C282.722 71.288 283.038 72.048 283.038 73C283.038 73.944 282.722 74.7 282.09 75.268ZM278.334 74.164C278.582 74.404 279.006 74.524 279.606 74.524C280.206 74.524 280.63 74.404 280.878 74.164C281.126 73.924 281.25 73.536 281.25 73C281.25 72.464 281.122 72.072 280.866 71.824C280.618 71.576 280.198 71.452 279.606 71.452C279.006 71.452 278.582 71.576 278.334 71.824C278.086 72.064 277.962 72.456 277.962 73C277.962 73.536 278.086 73.924 278.334 74.164ZM285.573 76H283.773V69.988H285.441V71.584H285.549C285.637 71.064 285.849 70.648 286.185 70.336C286.529 70.024 286.989 69.868 287.565 69.868C288.205 69.868 288.681 70.06 288.993 70.444C289.305 70.828 289.461 71.336 289.461 71.968V72.964H287.661V72.34C287.661 72.004 287.585 71.764 287.433 71.62C287.281 71.468 287.025 71.392 286.665 71.392C286.273 71.392 285.993 71.484 285.825 71.668C285.657 71.852 285.573 72.136 285.573 72.52V76ZM293.764 76H291.964V69.988H293.632V71.812H293.728C293.808 71.244 294.028 70.78 294.388 70.42C294.748 70.052 295.28 69.868 295.984 69.868C296.648 69.868 297.168 70.048 297.544 70.408C297.92 70.768 298.144 71.244 298.216 71.836H298.324C298.404 71.26 298.628 70.788 298.996 70.42C299.364 70.052 299.908 69.868 300.628 69.868C301.372 69.868 301.94 70.088 302.332 70.528C302.732 70.968 302.932 71.544 302.932 72.256V76H301.132V72.856C301.132 72.352 301.028 72 300.82 71.8C300.62 71.592 300.264 71.488 299.752 71.488C299.216 71.488 298.848 71.6 298.648 71.824C298.448 72.048 298.348 72.428 298.348 72.964V76H296.548V72.856C296.548 72.352 296.444 72 296.236 71.8C296.036 71.592 295.68 71.488 295.168 71.488C294.632 71.488 294.264 71.6 294.064 71.824C293.864 72.048 293.764 72.428 293.764 72.964V76ZM309.535 75.268C308.911 75.836 308.083 76.12 307.051 76.12C306.019 76.12 305.187 75.836 304.555 75.268C303.931 74.7 303.619 73.944 303.619 73C303.619 72.048 303.931 71.288 304.555 70.72C305.187 70.152 306.019 69.868 307.051 69.868C308.083 69.868 308.911 70.152 309.535 70.72C310.167 71.288 310.483 72.048 310.483 73C310.483 73.944 310.167 74.7 309.535 75.268ZM305.779 74.164C306.027 74.404 306.451 74.524 307.051 74.524C307.651 74.524 308.075 74.404 308.323 74.164C308.571 73.924 308.695 73.536 308.695 73C308.695 72.464 308.567 72.072 308.311 71.824C308.063 71.576 307.643 71.452 307.051 71.452C306.451 71.452 306.027 71.576 305.779 71.824C305.531 72.064 305.407 72.456 305.407 73C305.407 73.536 305.531 73.924 305.779 74.164ZM313.018 76H311.218V69.988H312.886V71.584H312.994C313.082 71.064 313.294 70.648 313.63 70.336C313.974 70.024 314.434 69.868 315.01 69.868C315.65 69.868 316.126 70.06 316.438 70.444C316.75 70.828 316.906 71.336 316.906 71.968V72.964H315.106V72.34C315.106 72.004 315.03 71.764 314.878 71.62C314.726 71.468 314.47 71.392 314.11 71.392C313.718 71.392 313.438 71.484 313.27 71.668C313.102 71.852 313.018 72.136 313.018 72.52V76ZM320.75 76.12C319.71 76.12 318.886 75.86 318.278 75.34C317.678 74.812 317.378 74.032 317.378 73C317.378 72.048 317.682 71.288 318.29 70.72C318.906 70.152 319.714 69.868 320.714 69.868C321.714 69.868 322.51 70.124 323.102 70.636C323.694 71.14 323.99 71.856 323.99 72.784C323.99 72.896 323.974 73.088 323.942 73.36H319.046C319.07 73.832 319.206 74.172 319.454 74.38C319.702 74.58 320.114 74.68 320.69 74.68C321.21 74.68 321.578 74.616 321.794 74.488C322.018 74.352 322.13 74.152 322.13 73.888V73.768H323.93V73.9C323.93 74.556 323.638 75.092 323.054 75.508C322.47 75.916 321.702 76.12 320.75 76.12ZM321.842 71.548C321.594 71.364 321.206 71.272 320.678 71.272C320.15 71.272 319.758 71.364 319.502 71.548C319.254 71.732 319.11 72.02 319.07 72.412H322.262C322.238 72.012 322.098 71.724 321.842 71.548ZM326.949 76H324.633V73.9H326.949V76ZM20.836 91.228H16.36V89.68H20.836V91.228ZM25.6434 94H21.7674V85.96H25.6434C26.9394 85.96 27.9634 86.316 28.7154 87.028C29.4754 87.74 29.8554 88.724 29.8554 89.98C29.8554 91.236 29.4754 92.22 28.7154 92.932C27.9634 93.644 26.9394 94 25.6434 94ZM25.6434 87.58H23.5674V92.38H25.6434C26.4914 92.38 27.0834 92.216 27.4194 91.888C27.7634 91.552 27.9354 90.916 27.9354 89.98C27.9354 89.044 27.7634 88.412 27.4194 88.084C27.0834 87.748 26.4914 87.58 25.6434 87.58ZM32.4843 94.12C31.8363 94.12 31.3283 93.98 30.9603 93.7C30.5923 93.412 30.4083 93.016 30.4083 92.512C30.4083 91.6 31.0563 91.076 32.3523 90.94L34.9323 90.676V90.448C34.9323 90.064 34.8363 89.804 34.6443 89.668C34.4523 89.524 34.1123 89.452 33.6243 89.452C33.1603 89.452 32.8283 89.524 32.6283 89.668C32.4363 89.804 32.3403 90.04 32.3403 90.376V90.424H30.5283V90.388C30.5283 89.636 30.8203 89.028 31.4043 88.564C31.9883 88.1 32.7723 87.868 33.7563 87.868C34.7323 87.868 35.4683 88.1 35.9643 88.564C36.4603 89.028 36.7083 89.664 36.7083 90.472V94H35.0283V92.62H34.9323C34.7883 93.092 34.5083 93.46 34.0923 93.724C33.6763 93.988 33.1403 94.12 32.4843 94.12ZM32.2203 92.392C32.2203 92.696 32.4803 92.848 33.0003 92.848C33.6323 92.848 34.1043 92.764 34.4163 92.596C34.7363 92.42 34.9083 92.124 34.9323 91.708L32.8443 91.948C32.4283 91.98 32.2203 92.128 32.2203 92.392ZM39.4206 87.376H37.6206V85.96H39.4206V87.376ZM39.4206 94H37.6206V87.988H39.4206V94ZM42.1628 94H40.3628V85.96H42.1628V94ZM44.257 96.04H43.273V94.408H44.749C45.133 94.408 45.385 94.28 45.505 94.024L42.565 87.988H44.605L45.877 90.736L46.381 92.152H46.501L46.981 90.724L48.121 87.988H50.125L47.149 94.432C46.869 95.048 46.513 95.468 46.081 95.692C45.649 95.924 45.041 96.04 44.257 96.04ZM57.1737 94H55.3617V91.336L51.7977 85.96H54.0177L55.5537 88.312L56.2257 89.392H56.3577L57.0297 88.312L58.5657 85.96H60.7977L57.1737 91.348V94ZM62.9402 87.376H61.1402V85.96H62.9402V87.376ZM62.9402 94H61.1402V87.988H62.9402V94ZM67.0743 94.12C66.0343 94.12 65.2103 93.86 64.6023 93.34C64.0023 92.812 63.7023 92.032 63.7023 91C63.7023 90.048 64.0063 89.288 64.6143 88.72C65.2303 88.152 66.0383 87.868 67.0383 87.868C68.0383 87.868 68.8343 88.124 69.4263 88.636C70.0183 89.14 70.3143 89.856 70.3143 90.784C70.3143 90.896 70.2983 91.088 70.2663 91.36H65.3703C65.3943 91.832 65.5303 92.172 65.7783 92.38C66.0263 92.58 66.4383 92.68 67.0143 92.68C67.5343 92.68 67.9023 92.616 68.1183 92.488C68.3423 92.352 68.4543 92.152 68.4543 91.888V91.768H70.2543V91.9C70.2543 92.556 69.9623 93.092 69.3783 93.508C68.7943 93.916 68.0263 94.12 67.0743 94.12ZM68.1663 89.548C67.9183 89.364 67.5303 89.272 67.0023 89.272C66.4743 89.272 66.0823 89.364 65.8263 89.548C65.5783 89.732 65.4343 90.02 65.3943 90.412H68.5863C68.5623 90.012 68.4223 89.724 68.1663 89.548ZM72.8777 94H71.0777V85.96H72.8777V94ZM76.5078 94.12C75.5878 94.12 74.8718 93.84 74.3598 93.28C73.8558 92.72 73.6038 91.96 73.6038 91C73.6038 90.032 73.8478 89.268 74.3358 88.708C74.8318 88.148 75.5238 87.868 76.4118 87.868C77.0998 87.868 77.6398 88.024 78.0318 88.336C78.4238 88.64 78.6718 89.056 78.7758 89.584H78.8838V85.96H80.6838V94H79.0038V92.332H78.9078C78.6758 93.524 77.8758 94.12 76.5078 94.12ZM75.4278 91C75.4278 91.536 75.5598 91.916 75.8238 92.14C76.0958 92.364 76.5278 92.476 77.1198 92.476C77.7118 92.476 78.1518 92.364 78.4398 92.14C78.7358 91.916 78.8838 91.548 78.8838 91.036V90.94C78.8838 90.428 78.7358 90.064 78.4398 89.848C78.1518 89.624 77.7118 89.512 77.1198 89.512C76.5278 89.512 76.0958 89.624 75.8238 89.848C75.5598 90.072 75.4278 90.456 75.4278 91ZM86.9918 94H85.1918V88.192H83.1278V86.956H83.4638C83.9358 86.956 84.3198 86.884 84.6158 86.74C84.9118 86.596 85.1558 86.336 85.3478 85.96H86.9918V94ZM90.1487 94H87.8327V91.9H90.1487V94ZM97.9238 94H90.7838V92.848C90.7838 92.136 90.9558 91.576 91.2998 91.168C91.6438 90.76 92.2398 90.416 93.0878 90.136L95.1518 89.464C95.5198 89.336 95.7758 89.2 95.9198 89.056C96.0638 88.904 96.1358 88.7 96.1358 88.444C96.1358 88.116 96.0158 87.876 95.7758 87.724C95.5358 87.564 95.1038 87.484 94.4798 87.484C93.7678 87.484 93.2678 87.592 92.9798 87.808C92.6998 88.016 92.5598 88.352 92.5598 88.816V88.972H90.7958V88.816C90.7958 87.96 91.1038 87.252 91.7198 86.692C92.3438 86.124 93.2838 85.84 94.5398 85.84C95.6998 85.84 96.5558 86.076 97.1078 86.548C97.6678 87.02 97.9478 87.66 97.9478 88.468C97.9478 89.148 97.7438 89.688 97.3358 90.088C96.9278 90.488 96.3438 90.792 95.5838 91L93.8318 91.48C93.4158 91.608 93.1198 91.748 92.9438 91.9C92.7678 92.052 92.6798 92.28 92.6798 92.584L94.7798 92.38H97.9238V94ZM100.522 89.836C99.8665 89.836 99.3505 89.656 98.9745 89.296C98.5985 88.928 98.4105 88.44 98.4105 87.832C98.4105 87.224 98.5985 86.736 98.9745 86.368C99.3505 86 99.8665 85.816 100.522 85.816C101.186 85.816 101.706 86 102.082 86.368C102.458 86.736 102.646 87.224 102.646 87.832C102.646 88.44 102.458 88.928 102.082 89.296C101.706 89.656 101.186 89.836 100.522 89.836ZM100.57 94H98.8305L105.658 85.96H107.398L100.57 94ZM99.8745 88.48C99.9945 88.6 100.21 88.66 100.522 88.66C100.834 88.66 101.05 88.6 101.17 88.48C101.298 88.352 101.362 88.136 101.362 87.832C101.362 87.528 101.298 87.312 101.17 87.184C101.05 87.056 100.834 86.992 100.522 86.992C100.218 86.992 100.002 87.056 99.8745 87.184C99.7545 87.312 99.6945 87.528 99.6945 87.832C99.6945 88.136 99.7545 88.352 99.8745 88.48ZM107.242 93.592C106.866 93.952 106.35 94.132 105.694 94.132C105.038 94.132 104.518 93.952 104.134 93.592C103.758 93.224 103.57 92.736 103.57 92.128C103.57 91.52 103.758 91.036 104.134 90.676C104.518 90.308 105.038 90.124 105.694 90.124C106.35 90.124 106.866 90.308 107.242 90.676C107.626 91.036 107.818 91.52 107.818 92.128C107.818 92.736 107.626 93.224 107.242 93.592ZM105.034 92.776C105.162 92.896 105.382 92.956 105.694 92.956C106.006 92.956 106.222 92.896 106.342 92.776C106.47 92.648 106.534 92.432 106.534 92.128C106.534 91.824 106.47 91.608 106.342 91.48C106.222 91.352 106.006 91.288 105.694 91.288C105.382 91.288 105.162 91.352 105.034 91.48C104.914 91.608 104.854 91.824 104.854 92.128C104.854 92.432 104.914 92.648 105.034 92.776ZM114.571 94H113.083C111.579 94 110.827 93.276 110.827 91.828V89.476H109.879V87.988H110.827V86.824H112.627V87.988H114.571V89.476H112.627V91.624C112.627 91.92 112.687 92.12 112.807 92.224C112.935 92.328 113.163 92.38 113.491 92.38H114.571V94ZM120.934 93.268C120.31 93.836 119.482 94.12 118.45 94.12C117.418 94.12 116.586 93.836 115.954 93.268C115.33 92.7 115.018 91.944 115.018 91C115.018 90.048 115.33 89.288 115.954 88.72C116.586 88.152 117.418 87.868 118.45 87.868C119.482 87.868 120.31 88.152 120.934 88.72C121.566 89.288 121.882 90.048 121.882 91C121.882 91.944 121.566 92.7 120.934 93.268ZM117.178 92.164C117.426 92.404 117.85 92.524 118.45 92.524C119.05 92.524 119.474 92.404 119.722 92.164C119.97 91.924 120.094 91.536 120.094 91C120.094 90.464 119.966 90.072 119.71 89.824C119.462 89.576 119.042 89.452 118.45 89.452C117.85 89.452 117.426 89.576 117.178 89.824C116.93 90.064 116.806 90.456 116.806 91C116.806 91.536 116.93 91.924 117.178 92.164ZM131.404 94H124.264V92.848C124.264 92.136 124.436 91.576 124.78 91.168C125.124 90.76 125.72 90.416 126.568 90.136L128.632 89.464C129 89.336 129.256 89.2 129.4 89.056C129.544 88.904 129.616 88.7 129.616 88.444C129.616 88.116 129.496 87.876 129.256 87.724C129.016 87.564 128.584 87.484 127.96 87.484C127.248 87.484 126.748 87.592 126.46 87.808C126.18 88.016 126.04 88.352 126.04 88.816V88.972H124.276V88.816C124.276 87.96 124.584 87.252 125.2 86.692C125.824 86.124 126.764 85.84 128.02 85.84C129.18 85.84 130.036 86.076 130.588 86.548C131.148 87.02 131.428 87.66 131.428 88.468C131.428 89.148 131.224 89.688 130.816 90.088C130.408 90.488 129.824 90.792 129.064 91L127.312 91.48C126.896 91.608 126.6 91.748 126.424 91.9C126.248 92.052 126.16 92.28 126.16 92.584L128.26 92.38H131.404V94ZM134.387 94H132.071V91.9H134.387V94ZM141.826 94H140.026V92.464H134.926V91.24L139.738 85.96H141.826V90.844H143.05V92.464H141.826V94ZM137.434 90.844H140.026V88.036H139.894L137.434 90.712V90.844ZM145.511 89.836C144.855 89.836 144.339 89.656 143.963 89.296C143.587 88.928 143.399 88.44 143.399 87.832C143.399 87.224 143.587 86.736 143.963 86.368C144.339 86 144.855 85.816 145.511 85.816C146.175 85.816 146.695 86 147.071 86.368C147.447 86.736 147.635 87.224 147.635 87.832C147.635 88.44 147.447 88.928 147.071 89.296C146.695 89.656 146.175 89.836 145.511 89.836ZM145.559 94H143.819L150.647 85.96H152.387L145.559 94ZM144.863 88.48C144.983 88.6 145.199 88.66 145.511 88.66C145.823 88.66 146.039 88.6 146.159 88.48C146.287 88.352 146.351 88.136 146.351 87.832C146.351 87.528 146.287 87.312 146.159 87.184C146.039 87.056 145.823 86.992 145.511 86.992C145.207 86.992 144.991 87.056 144.863 87.184C144.743 87.312 144.683 87.528 144.683 87.832C144.683 88.136 144.743 88.352 144.863 88.48ZM152.231 93.592C151.855 93.952 151.339 94.132 150.683 94.132C150.027 94.132 149.507 93.952 149.123 93.592C148.747 93.224 148.559 92.736 148.559 92.128C148.559 91.52 148.747 91.036 149.123 90.676C149.507 90.308 150.027 90.124 150.683 90.124C151.339 90.124 151.855 90.308 152.231 90.676C152.615 91.036 152.807 91.52 152.807 92.128C152.807 92.736 152.615 93.224 152.231 93.592ZM150.023 92.776C150.151 92.896 150.371 92.956 150.683 92.956C150.995 92.956 151.211 92.896 151.331 92.776C151.459 92.648 151.523 92.432 151.523 92.128C151.523 91.824 151.459 91.608 151.331 91.48C151.211 91.352 150.995 91.288 150.683 91.288C150.371 91.288 150.151 91.352 150.023 91.48C149.903 91.608 149.843 91.824 149.843 92.128C149.843 92.432 149.903 92.648 150.023 92.776ZM155.668 94H153.352V91.9H155.668V94ZM20.836 109.228H16.36V107.68H20.836V109.228ZM25.8114 112.12C24.4834 112.12 23.4314 111.744 22.6554 110.992C21.8794 110.24 21.4914 109.236 21.4914 107.98C21.4914 106.724 21.8794 105.72 22.6554 104.968C23.4314 104.216 24.4834 103.84 25.8114 103.84C27.1634 103.84 28.2274 104.216 29.0034 104.968C29.7874 105.712 30.1794 106.716 30.1794 107.98C30.1794 109.244 29.7874 110.252 29.0034 111.004C28.2274 111.748 27.1634 112.12 25.8114 112.12ZM23.9394 109.852C24.2994 110.212 24.9234 110.392 25.8114 110.392C26.6994 110.392 27.3274 110.212 27.6954 109.852C28.0714 109.492 28.2594 108.868 28.2594 107.98C28.2594 107.092 28.0714 106.468 27.6954 106.108C27.3274 105.748 26.6994 105.568 25.8114 105.568C24.9234 105.568 24.2994 105.748 23.9394 106.108C23.5794 106.468 23.3994 107.092 23.3994 107.98C23.3994 108.868 23.5794 109.492 23.9394 109.852ZM32.7644 114.04H30.9644V105.988H32.6324V107.632H32.7524C32.9764 106.456 33.7764 105.868 35.1524 105.868C36.0644 105.868 36.7724 106.148 37.2764 106.708C37.7804 107.268 38.0324 108.032 38.0324 109C38.0324 109.968 37.7844 110.732 37.2884 111.292C36.8004 111.844 36.1084 112.12 35.2124 112.12C34.5324 112.12 33.9924 111.968 33.5924 111.664C33.2004 111.352 32.9524 110.924 32.8484 110.38H32.7644V114.04ZM32.7644 109.084C32.7644 109.58 32.9084 109.936 33.1964 110.152C33.4924 110.368 33.9324 110.476 34.5164 110.476C35.1084 110.476 35.5364 110.364 35.8004 110.14C36.0724 109.916 36.2084 109.536 36.2084 109C36.2084 108.464 36.0724 108.084 35.8004 107.86C35.5364 107.636 35.1124 107.524 34.5284 107.524C33.9284 107.524 33.4844 107.64 33.1964 107.872C32.9084 108.096 32.7644 108.468 32.7644 108.988V109.084ZM41.9728 112.12C40.9328 112.12 40.1088 111.86 39.5008 111.34C38.9008 110.812 38.6008 110.032 38.6008 109C38.6008 108.048 38.9048 107.288 39.5128 106.72C40.1288 106.152 40.9368 105.868 41.9368 105.868C42.9368 105.868 43.7328 106.124 44.3248 106.636C44.9168 107.14 45.2128 107.856 45.2128 108.784C45.2128 108.896 45.1968 109.088 45.1648 109.36H40.2688C40.2928 109.832 40.4288 110.172 40.6768 110.38C40.9248 110.58 41.3368 110.68 41.9128 110.68C42.4328 110.68 42.8008 110.616 43.0168 110.488C43.2408 110.352 43.3528 110.152 43.3528 109.888V109.768H45.1528V109.9C45.1528 110.556 44.8608 111.092 44.2768 111.508C43.6928 111.916 42.9248 112.12 41.9728 112.12ZM43.0648 107.548C42.8168 107.364 42.4288 107.272 41.9008 107.272C41.3728 107.272 40.9808 107.364 40.7248 107.548C40.4768 107.732 40.3328 108.02 40.2928 108.412H43.4848C43.4608 108.012 43.3208 107.724 43.0648 107.548ZM47.7761 112H45.9761V105.988H47.6441V107.584H47.7521C47.8401 107.064 48.0521 106.648 48.3881 106.336C48.7321 106.024 49.1921 105.868 49.7681 105.868C50.4081 105.868 50.8841 106.06 51.1961 106.444C51.5081 106.828 51.6641 107.336 51.6641 107.968V108.964H49.8641V108.34C49.8641 108.004 49.7881 107.764 49.6361 107.62C49.4841 107.468 49.2281 107.392 48.8681 107.392C48.4761 107.392 48.1961 107.484 48.0281 107.668C47.8601 107.852 47.7761 108.136 47.7761 108.52V112ZM54.1639 112.12C53.5159 112.12 53.0079 111.98 52.6399 111.7C52.2719 111.412 52.0879 111.016 52.0879 110.512C52.0879 109.6 52.7359 109.076 54.0319 108.94L56.6119 108.676V108.448C56.6119 108.064 56.5159 107.804 56.3239 107.668C56.1319 107.524 55.7919 107.452 55.3039 107.452C54.8399 107.452 54.5079 107.524 54.3079 107.668C54.1159 107.804 54.0199 108.04 54.0199 108.376V108.424H52.2079V108.388C52.2079 107.636 52.4999 107.028 53.0839 106.564C53.6679 106.1 54.4519 105.868 55.4359 105.868C56.4119 105.868 57.1479 106.1 57.6439 106.564C58.1399 107.028 58.3879 107.664 58.3879 108.472V112H56.7079V110.62H56.6119C56.4679 111.092 56.1879 111.46 55.7719 111.724C55.3559 111.988 54.8199 112.12 54.1639 112.12ZM53.8999 110.392C53.8999 110.696 54.1599 110.848 54.6799 110.848C55.3119 110.848 55.7839 110.764 56.0959 110.596C56.4159 110.42 56.5879 110.124 56.6119 109.708L54.5239 109.948C54.1079 109.98 53.8999 110.128 53.8999 110.392ZM63.5363 112H62.0483C60.5443 112 59.7923 111.276 59.7923 109.828V107.476H58.8443V105.988H59.7923V104.824H61.5923V105.988H63.5363V107.476H61.5923V109.624C61.5923 109.92 61.6523 110.12 61.7723 110.224C61.9003 110.328 62.1283 110.38 62.4563 110.38H63.5363V112ZM66.0105 105.376H64.2105V103.96H66.0105V105.376ZM66.0105 112H64.2105V105.988H66.0105V112ZM72.6407 111.268C72.0167 111.836 71.1887 112.12 70.1567 112.12C69.1247 112.12 68.2927 111.836 67.6607 111.268C67.0367 110.7 66.7247 109.944 66.7247 109C66.7247 108.048 67.0367 107.288 67.6607 106.72C68.2927 106.152 69.1247 105.868 70.1567 105.868C71.1887 105.868 72.0167 106.152 72.6407 106.72C73.2727 107.288 73.5887 108.048 73.5887 109C73.5887 109.944 73.2727 110.7 72.6407 111.268ZM68.8847 110.164C69.1327 110.404 69.5567 110.524 70.1567 110.524C70.7567 110.524 71.1807 110.404 71.4287 110.164C71.6767 109.924 71.8007 109.536 71.8007 109C71.8007 108.464 71.6727 108.072 71.4167 107.824C71.1687 107.576 70.7487 107.452 70.1567 107.452C69.5567 107.452 69.1327 107.576 68.8847 107.824C68.6367 108.064 68.5127 108.456 68.5127 109C68.5127 109.536 68.6367 109.924 68.8847 110.164ZM76.1238 112H74.3238V105.988H75.9918V107.836H76.0998C76.1878 107.276 76.4318 106.808 76.8318 106.432C77.2398 106.056 77.8118 105.868 78.5478 105.868C79.3398 105.868 79.9398 106.092 80.3478 106.54C80.7638 106.98 80.9718 107.552 80.9718 108.256V112H79.1718V108.856C79.1718 108.368 79.0558 108.02 78.8238 107.812C78.5998 107.596 78.2158 107.488 77.6718 107.488C77.1118 107.488 76.7118 107.604 76.4718 107.836C76.2398 108.068 76.1238 108.444 76.1238 108.964V112ZM85.5339 112H83.7339V103.96H88.1739C89.1659 103.96 89.9299 104.172 90.4659 104.596C91.0099 105.012 91.2819 105.604 91.2819 106.372C91.2819 107.716 90.5259 108.46 89.0139 108.604V108.7C89.3499 108.788 89.6059 108.92 89.7819 109.096C89.9659 109.272 90.1419 109.52 90.3099 109.84L91.4739 112H89.3859L88.2819 109.912C88.1139 109.592 87.9259 109.376 87.7179 109.264C87.5099 109.144 87.1779 109.084 86.7219 109.084H85.5339V112ZM85.5339 105.58V107.728H88.1619C88.6019 107.728 88.9179 107.652 89.1099 107.5C89.3019 107.34 89.3979 107.056 89.3979 106.648C89.3979 106.256 89.2979 105.98 89.0979 105.82C88.9059 105.66 88.5939 105.58 88.1619 105.58H85.5339ZM94.5265 112.12C93.7105 112.12 93.0905 111.9 92.6665 111.46C92.2425 111.012 92.0305 110.436 92.0305 109.732V105.988H93.8305V109.132C93.8305 109.62 93.9465 109.972 94.1785 110.188C94.4185 110.404 94.8185 110.512 95.3785 110.512C95.9545 110.512 96.3625 110.396 96.6025 110.164C96.8505 109.932 96.9745 109.556 96.9745 109.036V105.988H98.7745V112H97.0945V110.164H96.9985C96.9105 110.724 96.6585 111.192 96.2425 111.568C95.8345 111.936 95.2625 112.12 94.5265 112.12ZM101.495 112H99.6948V105.988H101.363V107.836H101.471C101.559 107.276 101.803 106.808 102.203 106.432C102.611 106.056 103.183 105.868 103.919 105.868C104.711 105.868 105.311 106.092 105.719 106.54C106.135 106.98 106.343 107.552 106.343 108.256V112H104.543V108.856C104.543 108.368 104.427 108.02 104.195 107.812C103.971 107.596 103.587 107.488 103.043 107.488C102.483 107.488 102.083 107.604 101.843 107.836C101.611 108.068 101.495 108.444 101.495 108.964V112ZM109.053 112H107.253V105.988H108.921V107.836H109.029C109.117 107.276 109.361 106.808 109.761 106.432C110.169 106.056 110.741 105.868 111.477 105.868C112.269 105.868 112.869 106.092 113.277 106.54C113.693 106.98 113.901 107.552 113.901 108.256V112H112.101V108.856C112.101 108.368 111.985 108.02 111.753 107.812C111.529 107.596 111.145 107.488 110.601 107.488C110.041 107.488 109.641 107.604 109.401 107.836C109.169 108.068 109.053 108.444 109.053 108.964V112ZM116.612 105.376H114.812V103.96H116.612V105.376ZM116.612 112H114.812V105.988H116.612V112ZM119.354 112H117.554V105.988H119.222V107.836H119.33C119.418 107.276 119.662 106.808 120.062 106.432C120.47 106.056 121.042 105.868 121.778 105.868C122.57 105.868 123.17 106.092 123.578 106.54C123.994 106.98 124.202 107.552 124.202 108.256V112H122.402V108.856C122.402 108.368 122.286 108.02 122.054 107.812C121.83 107.596 121.446 107.488 120.902 107.488C120.342 107.488 119.942 107.604 119.702 107.836C119.47 108.068 119.354 108.444 119.354 108.964V112ZM127.753 111.388C126.865 111.388 126.173 111.144 125.677 110.656C125.181 110.16 124.933 109.484 124.933 108.628C124.933 107.78 125.189 107.108 125.701 106.612C126.221 106.116 126.929 105.868 127.825 105.868C128.449 105.868 128.961 106.004 129.361 106.276C129.769 106.54 130.021 106.928 130.117 107.44H130.213V105.988H131.893V111.124C131.893 113.148 130.753 114.16 128.473 114.16C127.489 114.16 126.713 113.952 126.145 113.536C125.585 113.12 125.305 112.536 125.305 111.784H127.105C127.105 112.128 127.201 112.36 127.393 112.48C127.593 112.6 127.993 112.66 128.593 112.66C129.185 112.66 129.581 112.568 129.781 112.384C129.989 112.2 130.093 111.82 130.093 111.244V109.888H129.997C129.893 110.352 129.653 110.72 129.277 110.992C128.909 111.256 128.401 111.388 127.753 111.388ZM127.129 107.704C126.873 107.88 126.745 108.188 126.745 108.628C126.745 109.068 126.873 109.38 127.129 109.564C127.385 109.748 127.801 109.84 128.377 109.84C128.961 109.84 129.393 109.752 129.673 109.576C129.953 109.392 130.093 109.096 130.093 108.688V108.556C130.093 108.156 129.953 107.868 129.673 107.692C129.401 107.516 128.977 107.428 128.401 107.428C127.817 107.428 127.393 107.52 127.129 107.704ZM138.935 112H137.447C135.943 112 135.191 111.276 135.191 109.828V107.476H134.243V105.988H135.191V104.824H136.991V105.988H138.935V107.476H136.991V109.624C136.991 109.92 137.051 110.12 137.171 110.224C137.299 110.328 137.527 110.38 137.855 110.38H138.935V112ZM141.409 105.376H139.609V103.96H141.409V105.376ZM141.409 112H139.609V105.988H141.409V112ZM144.151 112H142.351V105.988H144.019V107.812H144.115C144.195 107.244 144.415 106.78 144.775 106.42C145.135 106.052 145.667 105.868 146.371 105.868C147.035 105.868 147.555 106.048 147.931 106.408C148.307 106.768 148.531 107.244 148.603 107.836H148.711C148.791 107.26 149.015 106.788 149.383 106.42C149.751 106.052 150.295 105.868 151.015 105.868C151.759 105.868 152.327 106.088 152.719 106.528C153.119 106.968 153.319 107.544 153.319 108.256V112H151.519V108.856C151.519 108.352 151.415 108 151.207 107.8C151.007 107.592 150.651 107.488 150.139 107.488C149.603 107.488 149.235 107.6 149.035 107.824C148.835 108.048 148.735 108.428 148.735 108.964V112H146.935V108.856C146.935 108.352 146.831 108 146.623 107.8C146.423 107.592 146.067 107.488 145.555 107.488C145.019 107.488 144.651 107.6 144.451 107.824C144.251 108.048 144.151 108.428 144.151 108.964V112ZM157.426 112.12C156.386 112.12 155.562 111.86 154.954 111.34C154.354 110.812 154.054 110.032 154.054 109C154.054 108.048 154.358 107.288 154.966 106.72C155.582 106.152 156.39 105.868 157.39 105.868C158.39 105.868 159.186 106.124 159.778 106.636C160.37 107.14 160.666 107.856 160.666 108.784C160.666 108.896 160.65 109.088 160.618 109.36H155.722C155.746 109.832 155.882 110.172 156.13 110.38C156.378 110.58 156.79 110.68 157.366 110.68C157.886 110.68 158.254 110.616 158.47 110.488C158.694 110.352 158.806 110.152 158.806 109.888V109.768H160.606V109.9C160.606 110.556 160.314 111.092 159.73 111.508C159.146 111.916 158.378 112.12 157.426 112.12ZM158.518 107.548C158.27 107.364 157.882 107.272 157.354 107.272C156.826 107.272 156.434 107.364 156.178 107.548C155.93 107.732 155.786 108.02 155.746 108.412H158.938C158.914 108.012 158.774 107.724 158.518 107.548ZM167.169 112.12C165.881 112.12 164.901 111.816 164.229 111.208C163.557 110.592 163.221 109.736 163.221 108.64V103.96H165.021V108.508C165.021 109.196 165.177 109.68 165.489 109.96C165.801 110.232 166.361 110.368 167.169 110.368C167.985 110.368 168.545 110.232 168.849 109.96C169.161 109.68 169.317 109.196 169.317 108.508V103.96H171.117V108.64C171.117 109.736 170.781 110.592 170.109 111.208C169.445 111.816 168.465 112.12 167.169 112.12ZM173.823 114.04H172.023V105.988H173.691V107.632H173.811C174.035 106.456 174.835 105.868 176.211 105.868C177.123 105.868 177.831 106.148 178.335 106.708C178.839 107.268 179.091 108.032 179.091 109C179.091 109.968 178.843 110.732 178.347 111.292C177.859 111.844 177.167 112.12 176.271 112.12C175.591 112.12 175.051 111.968 174.651 111.664C174.259 111.352 174.011 110.924 173.907 110.38H173.823V114.04ZM173.823 109.084C173.823 109.58 173.967 109.936 174.255 110.152C174.551 110.368 174.991 110.476 175.575 110.476C176.167 110.476 176.595 110.364 176.859 110.14C177.131 109.916 177.267 109.536 177.267 109C177.267 108.464 177.131 108.084 176.859 107.86C176.595 107.636 176.171 107.524 175.587 107.524C174.987 107.524 174.543 107.64 174.255 107.872C173.967 108.096 173.823 108.468 173.823 108.988V109.084ZM184.075 112H182.587C181.083 112 180.331 111.276 180.331 109.828V107.476H179.383V105.988H180.331V104.824H182.131V105.988H184.075V107.476H182.131V109.624C182.131 109.92 182.191 110.12 182.311 110.224C182.439 110.328 182.667 110.38 182.995 110.38H184.075V112ZM190.438 111.268C189.814 111.836 188.986 112.12 187.954 112.12C186.922 112.12 186.09 111.836 185.458 111.268C184.834 110.7 184.522 109.944 184.522 109C184.522 108.048 184.834 107.288 185.458 106.72C186.09 106.152 186.922 105.868 187.954 105.868C188.986 105.868 189.814 106.152 190.438 106.72C191.07 107.288 191.386 108.048 191.386 109C191.386 109.944 191.07 110.7 190.438 111.268ZM186.682 110.164C186.93 110.404 187.354 110.524 187.954 110.524C188.554 110.524 188.978 110.404 189.226 110.164C189.474 109.924 189.598 109.536 189.598 109C189.598 108.464 189.47 108.072 189.214 107.824C188.966 107.576 188.546 107.452 187.954 107.452C187.354 107.452 186.93 107.576 186.682 107.824C186.434 108.064 186.31 108.456 186.31 109C186.31 109.536 186.434 109.924 186.682 110.164ZM197.476 112H195.676V106.192H193.612V104.956H193.948C194.42 104.956 194.804 104.884 195.1 104.74C195.396 104.596 195.64 104.336 195.832 103.96H197.476V112ZM202.277 112.12C200.997 112.12 200.005 111.748 199.301 111.004C198.605 110.26 198.257 109.252 198.257 107.98C198.257 106.708 198.609 105.7 199.313 104.956C200.017 104.212 201.005 103.84 202.277 103.84C203.549 103.84 204.537 104.216 205.241 104.968C205.945 105.712 206.297 106.716 206.297 107.98C206.297 109.252 205.945 110.26 205.241 111.004C204.537 111.748 203.549 112.12 202.277 112.12ZM202.277 110.368C203.037 110.368 203.573 110.188 203.885 109.828C204.205 109.46 204.365 108.844 204.365 107.98C204.365 107.116 204.205 106.504 203.885 106.144C203.573 105.776 203.037 105.592 202.277 105.592C201.509 105.592 200.969 105.776 200.657 106.144C200.345 106.504 200.189 107.116 200.189 107.98C200.189 108.844 200.345 109.46 200.657 109.828C200.969 110.188 201.509 110.368 202.277 110.368ZM211.95 112.12C210.942 112.12 210.166 111.932 209.622 111.556C209.078 111.172 208.806 110.632 208.806 109.936V109.9H210.606V110.008C210.606 110.272 210.702 110.452 210.894 110.548C211.086 110.644 211.442 110.692 211.962 110.692C212.426 110.692 212.738 110.652 212.898 110.572C213.066 110.492 213.15 110.36 213.15 110.176C213.15 110.008 213.09 109.892 212.97 109.828C212.858 109.756 212.622 109.696 212.262 109.648L210.57 109.444C209.322 109.308 208.698 108.748 208.698 107.764C208.698 107.204 208.946 106.748 209.442 106.396C209.938 106.044 210.678 105.868 211.662 105.868C212.654 105.868 213.414 106.056 213.942 106.432C214.478 106.8 214.746 107.348 214.746 108.076V108.112H212.946V108.04C212.946 107.776 212.854 107.588 212.67 107.476C212.486 107.356 212.13 107.296 211.602 107.296C211.162 107.296 210.862 107.336 210.702 107.416C210.55 107.496 210.474 107.636 210.474 107.836C210.474 107.996 210.538 108.116 210.666 108.196C210.794 108.268 211.05 108.328 211.434 108.376L212.718 108.532C213.51 108.62 214.074 108.804 214.41 109.084C214.754 109.356 214.926 109.744 214.926 110.248C214.926 110.816 214.658 111.272 214.122 111.616C213.594 111.952 212.87 112.12 211.95 112.12ZM218.844 112.12C217.804 112.12 216.98 111.86 216.372 111.34C215.772 110.812 215.472 110.032 215.472 109C215.472 108.048 215.776 107.288 216.384 106.72C217 106.152 217.808 105.868 218.808 105.868C219.808 105.868 220.604 106.124 221.196 106.636C221.788 107.14 222.084 107.856 222.084 108.784C222.084 108.896 222.068 109.088 222.036 109.36H217.14C217.164 109.832 217.3 110.172 217.548 110.38C217.796 110.58 218.208 110.68 218.784 110.68C219.304 110.68 219.672 110.616 219.888 110.488C220.112 110.352 220.224 110.152 220.224 109.888V109.768H222.024V109.9C222.024 110.556 221.732 111.092 221.148 111.508C220.564 111.916 219.796 112.12 218.844 112.12ZM219.936 107.548C219.688 107.364 219.3 107.272 218.772 107.272C218.244 107.272 217.852 107.364 217.596 107.548C217.348 107.732 217.204 108.02 217.164 108.412H220.356C220.332 108.012 220.192 107.724 219.936 107.548ZM226.051 112.12C225.019 112.12 224.195 111.84 223.579 111.28C222.971 110.712 222.667 109.952 222.667 109C222.667 108.04 222.971 107.28 223.579 106.72C224.195 106.152 225.019 105.868 226.051 105.868C227.019 105.868 227.803 106.108 228.403 106.588C229.003 107.06 229.303 107.684 229.303 108.46V108.628H227.515V108.532C227.515 107.836 227.015 107.488 226.015 107.488C225.471 107.488 225.075 107.604 224.827 107.836C224.579 108.068 224.455 108.456 224.455 109C224.455 109.544 224.579 109.932 224.827 110.164C225.075 110.388 225.471 110.5 226.015 110.5C227.015 110.5 227.515 110.152 227.515 109.456V109.36H229.303V109.528C229.303 110.304 229.003 110.932 228.403 111.412C227.803 111.884 227.019 112.12 226.051 112.12ZM235.766 111.268C235.142 111.836 234.314 112.12 233.282 112.12C232.25 112.12 231.418 111.836 230.786 111.268C230.162 110.7 229.85 109.944 229.85 109C229.85 108.048 230.162 107.288 230.786 106.72C231.418 106.152 232.25 105.868 233.282 105.868C234.314 105.868 235.142 106.152 235.766 106.72C236.398 107.288 236.714 108.048 236.714 109C236.714 109.944 236.398 110.7 235.766 111.268ZM232.01 110.164C232.258 110.404 232.682 110.524 233.282 110.524C233.882 110.524 234.306 110.404 234.554 110.164C234.802 109.924 234.926 109.536 234.926 109C234.926 108.464 234.798 108.072 234.542 107.824C234.294 107.576 233.874 107.452 233.282 107.452C232.682 107.452 232.258 107.576 232.01 107.824C231.762 108.064 231.638 108.456 231.638 109C231.638 109.536 231.762 109.924 232.01 110.164ZM239.249 112H237.449V105.988H239.117V107.836H239.225C239.313 107.276 239.557 106.808 239.957 106.432C240.365 106.056 240.937 105.868 241.673 105.868C242.465 105.868 243.065 106.092 243.473 106.54C243.889 106.98 244.097 107.552 244.097 108.256V112H242.297V108.856C242.297 108.368 242.181 108.02 241.949 107.812C241.725 107.596 241.341 107.488 240.797 107.488C240.237 107.488 239.837 107.604 239.597 107.836C239.365 108.068 239.249 108.444 239.249 108.964V112ZM247.695 112.12C246.775 112.12 246.059 111.84 245.547 111.28C245.043 110.72 244.791 109.96 244.791 109C244.791 108.032 245.035 107.268 245.523 106.708C246.019 106.148 246.711 105.868 247.599 105.868C248.287 105.868 248.827 106.024 249.219 106.336C249.611 106.64 249.859 107.056 249.963 107.584H250.071V103.96H251.871V112H250.191V110.332H250.095C249.863 111.524 249.063 112.12 247.695 112.12ZM246.615 109C246.615 109.536 246.747 109.916 247.011 110.14C247.283 110.364 247.715 110.476 248.307 110.476C248.899 110.476 249.339 110.364 249.627 110.14C249.923 109.916 250.071 109.548 250.071 109.036V108.94C250.071 108.428 249.923 108.064 249.627 107.848C249.339 107.624 248.899 107.512 248.307 107.512C247.715 107.512 247.283 107.624 247.011 107.848C246.747 108.072 246.615 108.456 246.615 109ZM255.86 112.12C254.852 112.12 254.076 111.932 253.532 111.556C252.988 111.172 252.716 110.632 252.716 109.936V109.9H254.516V110.008C254.516 110.272 254.612 110.452 254.804 110.548C254.996 110.644 255.352 110.692 255.872 110.692C256.336 110.692 256.648 110.652 256.808 110.572C256.976 110.492 257.06 110.36 257.06 110.176C257.06 110.008 257 109.892 256.88 109.828C256.768 109.756 256.532 109.696 256.172 109.648L254.48 109.444C253.232 109.308 252.608 108.748 252.608 107.764C252.608 107.204 252.856 106.748 253.352 106.396C253.848 106.044 254.588 105.868 255.572 105.868C256.564 105.868 257.324 106.056 257.852 106.432C258.388 106.8 258.656 107.348 258.656 108.076V108.112H256.856V108.04C256.856 107.776 256.764 107.588 256.58 107.476C256.396 107.356 256.04 107.296 255.512 107.296C255.072 107.296 254.772 107.336 254.612 107.416C254.46 107.496 254.384 107.636 254.384 107.836C254.384 107.996 254.448 108.116 254.576 108.196C254.704 108.268 254.96 108.328 255.344 108.376L256.628 108.532C257.42 108.62 257.984 108.804 258.32 109.084C258.664 109.356 258.836 109.744 258.836 110.248C258.836 110.816 258.568 111.272 258.032 111.616C257.504 111.952 256.78 112.12 255.86 112.12ZM261.758 112H259.442V109.9H261.758V112Z" fill="white"/>
<defs>
<clipPath id="clip0_3012_2293">
<rect width="353" height="130" rx="12" fill="white"/>
</clipPath>
</defs>
</svg>
