<svg width="353" height="130" viewBox="0 0 353 130" fill="none" xmlns="http://www.w3.org/2000/svg">
<g clip-path="url(#clip0_3012_2282)">
<rect width="353" height="130" rx="12" fill="#8307FF"/>
<circle cx="322.5" cy="46.5" r="73.5" fill="#962EFF"/>
<circle cx="270.5" cy="119.5" r="14.5" fill="#962EFF"/>
</g>
<rect x="0.5" y="0.5" width="352" height="129" rx="11.5" stroke="#8307FF"/>
<path d="M21.46 29.64C19.8453 29.64 18.576 29.206 17.652 28.338C16.7373 27.4607 16.28 26.2847 16.28 24.81C16.28 23.3353 16.7373 22.164 17.652 21.296C18.576 20.4187 19.8453 19.98 21.46 19.98C23.0373 19.98 24.2693 20.3347 25.156 21.044C26.052 21.7533 26.5 22.7333 26.5 23.984V24.222H23.56V23.984C23.56 23.4427 23.406 23.06 23.098 22.836C22.7993 22.612 22.2673 22.5 21.502 22.5C20.5407 22.5 19.8967 22.654 19.57 22.962C19.2433 23.27 19.08 23.886 19.08 24.81C19.08 25.734 19.2433 26.35 19.57 26.658C19.8967 26.966 20.5407 27.12 21.502 27.12C22.2673 27.12 22.7993 27.008 23.098 26.784C23.406 26.56 23.56 26.1773 23.56 25.636V25.398H26.5V25.636C26.5 26.8867 26.052 27.8667 25.156 28.576C24.2693 29.2853 23.0373 29.64 21.46 29.64ZM29.8254 29.5H27.1934V22.444H29.6574V24.292H29.7974C29.9001 23.676 30.1428 23.1907 30.5254 22.836C30.9174 22.4813 31.4494 22.304 32.1214 22.304C32.8681 22.304 33.4141 22.5233 33.7594 22.962C34.1141 23.4007 34.2914 23.9933 34.2914 24.74V26.14H31.6594V25.314C31.6594 25.0153 31.5941 24.81 31.4634 24.698C31.3328 24.5767 31.0948 24.516 30.7494 24.516C30.3948 24.516 30.1521 24.572 30.0214 24.684C29.8908 24.796 29.8254 24.9967 29.8254 25.286V29.5ZM37.1317 29.64C36.3384 29.64 35.7224 29.472 35.2837 29.136C34.8544 28.7907 34.6397 28.3147 34.6397 27.708C34.6397 26.616 35.4004 25.9953 36.9217 25.846L39.7917 25.566V25.426C39.7917 25.0807 39.703 24.8567 39.5257 24.754C39.3577 24.6513 39.031 24.6 38.5457 24.6C38.107 24.6 37.8084 24.656 37.6497 24.768C37.491 24.8707 37.4117 25.0667 37.4117 25.356V25.412H34.7797V25.384C34.7797 24.4507 35.139 23.704 35.8577 23.144C36.5857 22.584 37.547 22.304 38.7417 22.304C39.9457 22.304 40.8557 22.584 41.4717 23.144C42.0877 23.6947 42.3957 24.474 42.3957 25.482V29.5H39.9317V28.016H39.7917C39.5024 29.0987 38.6157 29.64 37.1317 29.64ZM37.2857 27.54C37.2857 27.7173 37.4957 27.806 37.9157 27.806C38.5784 27.806 39.045 27.7547 39.3157 27.652C39.5864 27.54 39.7404 27.33 39.7777 27.022L37.6217 27.274C37.3977 27.302 37.2857 27.3907 37.2857 27.54ZM46.4099 29.5H43.7779V24.6H42.8259V22.444H43.8339C43.9832 21.744 44.3892 21.184 45.0519 20.764C45.7239 20.3347 46.6152 20.12 47.7259 20.12H48.2859V21.996H47.3059C46.9139 21.996 46.6339 22.0287 46.4659 22.094C46.3072 22.15 46.2325 22.2667 46.2419 22.444H48.8459V21.226H51.4779V22.444H53.5079V24.6H51.4779V26.434C51.4779 26.714 51.5292 26.9007 51.6319 26.994C51.7439 27.0873 51.9492 27.134 52.2479 27.134H53.5079V29.5H51.6599C50.7545 29.5 50.0592 29.276 49.5739 28.828C49.0885 28.38 48.8459 27.708 48.8459 26.812V24.6H46.4099V29.5ZM58.0747 29.64C56.8054 29.64 55.8067 29.346 55.0787 28.758C54.36 28.17 54.0007 27.2413 54.0007 25.972C54.0007 24.8427 54.3694 23.9513 55.1067 23.298C55.8534 22.6353 56.824 22.304 58.0187 22.304C59.26 22.304 60.2354 22.6073 60.9447 23.214C61.654 23.8113 62.0087 24.67 62.0087 25.79C62.0087 25.986 61.9947 26.21 61.9667 26.462H56.4367C56.4554 26.882 56.572 27.1713 56.7867 27.33C57.0107 27.4793 57.4074 27.554 57.9767 27.554C58.49 27.554 58.84 27.5073 59.0267 27.414C59.2227 27.3207 59.3207 27.1667 59.3207 26.952V26.798H61.9527V26.966C61.9527 27.7593 61.598 28.4033 60.8887 28.898C60.1887 29.3927 59.2507 29.64 58.0747 29.64ZM57.9627 24.32C57.4774 24.32 57.1227 24.3807 56.8987 24.502C56.6747 24.6233 56.5347 24.8333 56.4787 25.132H59.4607C59.414 24.8333 59.274 24.6233 59.0407 24.502C58.8167 24.3807 58.4574 24.32 57.9627 24.32ZM65.919 29.64C64.8456 29.64 64.0196 29.318 63.441 28.674C62.8623 28.0207 62.573 27.12 62.573 25.972C62.573 24.8147 62.853 23.914 63.413 23.27C63.9823 22.626 64.7803 22.304 65.807 22.304C67.347 22.304 68.2336 22.9573 68.467 24.264H68.607V20.12H71.239V29.5H68.775V27.596H68.635C68.523 28.296 68.2476 28.814 67.809 29.15C67.3703 29.4767 66.7403 29.64 65.919 29.64ZM65.597 24.992C65.3543 25.1787 65.233 25.5053 65.233 25.972C65.233 26.4387 65.3543 26.7653 65.597 26.952C65.8396 27.1387 66.2643 27.232 66.871 27.232C67.4963 27.232 67.9396 27.148 68.201 26.98C68.4716 26.8027 68.607 26.4713 68.607 25.986V25.888C68.607 25.412 68.4716 25.0947 68.201 24.936C67.9396 24.7773 67.4963 24.698 66.871 24.698C66.2643 24.698 65.8396 24.796 65.597 24.992ZM78.6113 29.5H75.3213L73.5433 22.444H76.2733L76.7773 24.992L77.0433 27.512H77.2253L77.8133 24.712L78.5133 22.444H81.9013L82.6013 24.712L83.1893 27.512H83.3713L83.6513 24.992L84.1413 22.444H86.8293L84.9673 29.5H81.6773L80.7673 26.672L80.2493 24.558H80.0673L79.5353 26.672L78.6113 29.5ZM89.8176 21.8H87.1856V20.12H89.8176V21.8ZM89.8176 29.5H87.1856V22.444H89.8176V29.5ZM95.9363 29.5H94.0883C93.1829 29.5 92.4876 29.276 92.0023 28.828C91.5169 28.38 91.2743 27.708 91.2743 26.812V24.6H90.2383V22.444H91.2743V21.226H93.9063V22.444H95.9363V24.6H93.9063V26.434C93.9063 26.714 93.9576 26.9007 94.0603 26.994C94.1723 27.0873 94.3776 27.134 94.6763 27.134H95.9363V29.5ZM99.1965 29.5H96.5645V20.12H99.1965V24.586H99.3365C99.4579 23.9233 99.7472 23.3773 100.205 22.948C100.662 22.5187 101.311 22.304 102.151 22.304C103.056 22.304 103.742 22.5607 104.209 23.074C104.685 23.578 104.923 24.2407 104.923 25.062V29.5H102.291V25.944C102.291 25.4493 102.174 25.1133 101.941 24.936C101.717 24.7493 101.306 24.656 100.709 24.656C100.111 24.656 99.7099 24.74 99.5045 24.908C99.2992 25.076 99.1965 25.3933 99.1965 25.86V29.5ZM110.298 29.5H107.666V20.12H110.298V29.5ZM113.771 29.5H111.139V22.444H113.603V24.586H113.743C113.827 23.9233 114.097 23.3773 114.555 22.948C115.012 22.5187 115.679 22.304 116.557 22.304C117.471 22.304 118.167 22.5513 118.643 23.046C119.119 23.5313 119.357 24.1753 119.357 24.978V29.5H116.725V25.944C116.725 25.4587 116.617 25.1227 116.403 24.936C116.188 24.7493 115.791 24.656 115.213 24.656C114.643 24.656 114.261 24.74 114.065 24.908C113.869 25.076 113.771 25.3933 113.771 25.86V29.5ZM123.271 28.716C122.226 28.716 121.418 28.436 120.849 27.876C120.28 27.3067 119.995 26.5133 119.995 25.496C119.995 24.4973 120.289 23.718 120.877 23.158C121.474 22.5887 122.296 22.304 123.341 22.304C124.862 22.304 125.721 22.9013 125.917 24.096H126.057V22.444H128.521V28.31C128.521 30.7833 127.116 32.02 124.307 32.02C123.075 32.02 122.118 31.768 121.437 31.264C120.756 30.7693 120.415 30.06 120.415 29.136H123.047C123.047 29.444 123.122 29.64 123.271 29.724C123.43 29.808 123.836 29.85 124.489 29.85C125.068 29.85 125.446 29.766 125.623 29.598C125.8 29.4393 125.889 29.0707 125.889 28.492V27.008H125.749C125.544 28.1467 124.718 28.716 123.271 28.716ZM122.655 25.496C122.655 25.8507 122.762 26.1027 122.977 26.252C123.201 26.392 123.616 26.462 124.223 26.462C124.839 26.462 125.268 26.406 125.511 26.294C125.763 26.1727 125.889 25.9347 125.889 25.58V25.482C125.889 25.118 125.763 24.8753 125.511 24.754C125.268 24.6327 124.839 24.572 124.223 24.572C123.616 24.572 123.201 24.642 122.977 24.782C122.762 24.9127 122.655 25.1507 122.655 25.496ZM133.297 29.64C132.028 29.64 131.029 29.346 130.301 28.758C129.583 28.17 129.223 27.2413 129.223 25.972C129.223 24.8427 129.592 23.9513 130.329 23.298C131.076 22.6353 132.047 22.304 133.241 22.304C134.483 22.304 135.458 22.6073 136.167 23.214C136.877 23.8113 137.231 24.67 137.231 25.79C137.231 25.986 137.217 26.21 137.189 26.462H131.659C131.678 26.882 131.795 27.1713 132.009 27.33C132.233 27.4793 132.63 27.554 133.199 27.554C133.713 27.554 134.063 27.5073 134.249 27.414C134.445 27.3207 134.543 27.1667 134.543 26.952V26.798H137.175V26.966C137.175 27.7593 136.821 28.4033 136.111 28.898C135.411 29.3927 134.473 29.64 133.297 29.64ZM133.185 24.32C132.7 24.32 132.345 24.3807 132.121 24.502C131.897 24.6233 131.757 24.8333 131.701 25.132H134.683C134.637 24.8333 134.497 24.6233 134.263 24.502C134.039 24.3807 133.68 24.32 133.185 24.32ZM140.568 29.5H137.936V22.444H140.4V24.586H140.54C140.624 23.9233 140.894 23.3773 141.352 22.948C141.809 22.5187 142.476 22.304 143.354 22.304C144.268 22.304 144.964 22.5513 145.44 23.046C145.916 23.5313 146.154 24.1753 146.154 24.978V29.5H143.522V25.944C143.522 25.4587 143.414 25.1227 143.2 24.936C142.985 24.7493 142.588 24.656 142.01 24.656C141.44 24.656 141.058 24.74 140.862 24.908C140.666 25.076 140.568 25.3933 140.568 25.86V29.5ZM149.83 29.64C148.878 29.64 148.154 29.3973 147.66 28.912C147.174 28.4173 146.932 27.7687 146.932 26.966V22.444H149.564V26C149.564 26.4947 149.676 26.8353 149.9 27.022C150.133 27.1993 150.548 27.288 151.146 27.288C151.743 27.288 152.144 27.204 152.35 27.036C152.555 26.868 152.658 26.5507 152.658 26.084V22.444H155.29V29.5H152.826V27.358H152.686C152.602 28.0207 152.326 28.5667 151.86 28.996C151.402 29.4253 150.726 29.64 149.83 29.64ZM158.71 21.8H156.078V20.12H158.71V21.8ZM158.71 29.5H156.078V22.444H158.71V29.5ZM164.829 29.5H162.981C162.076 29.5 161.38 29.276 160.895 28.828C160.41 28.38 160.167 27.708 160.167 26.812V24.6H159.131V22.444H160.167V21.226H162.799V22.444H164.829V24.6H162.799V26.434C162.799 26.714 162.85 26.9007 162.953 26.994C163.065 27.0873 163.27 27.134 163.569 27.134H164.829V29.5ZM167.011 31.88H165.737V29.5H167.781C167.996 29.5 168.159 29.472 168.271 29.416L164.897 22.444H167.893L169.111 25.216L169.615 26.84H169.797L170.259 25.188L171.309 22.444H174.249L170.903 29.78C170.539 30.592 170.063 31.1427 169.475 31.432C168.896 31.7307 168.075 31.88 167.011 31.88ZM178.954 29.5H176.49V20.12H179.122V24.264H179.262C179.496 22.9573 180.382 22.304 181.922 22.304C182.949 22.304 183.742 22.626 184.302 23.27C184.872 23.914 185.156 24.8147 185.156 25.972C185.156 27.12 184.867 28.0207 184.288 28.674C183.71 29.318 182.884 29.64 181.81 29.64C180.989 29.64 180.359 29.4767 179.92 29.15C179.482 28.814 179.206 28.296 179.094 27.596H178.954V29.5ZM179.122 25.986C179.122 26.4713 179.253 26.8027 179.514 26.98C179.785 27.148 180.233 27.232 180.858 27.232C181.465 27.232 181.89 27.1387 182.132 26.952C182.375 26.7653 182.496 26.4387 182.496 25.972C182.496 25.5053 182.375 25.1787 182.132 24.992C181.89 24.796 181.465 24.698 180.858 24.698C180.233 24.698 179.785 24.7773 179.514 24.936C179.253 25.0947 179.122 25.412 179.122 25.888V25.986ZM187.41 31.88H186.136V29.5H188.18C188.394 29.5 188.558 29.472 188.67 29.416L185.296 22.444H188.292L189.51 25.216L190.014 26.84H190.196L190.658 25.188L191.708 22.444H194.648L191.302 29.78C190.938 30.592 190.462 31.1427 189.874 31.432C189.295 31.7307 188.474 31.88 187.41 31.88ZM199.171 29.64C198.377 29.64 197.761 29.472 197.323 29.136C196.893 28.7907 196.679 28.3147 196.679 27.708C196.679 26.616 197.439 25.9953 198.961 25.846L201.831 25.566V25.426C201.831 25.0807 201.742 24.8567 201.565 24.754C201.397 24.6513 201.07 24.6 200.585 24.6C200.146 24.6 199.847 24.656 199.689 24.768C199.53 24.8707 199.451 25.0667 199.451 25.356V25.412H196.819V25.384C196.819 24.4507 197.178 23.704 197.897 23.144C198.625 22.584 199.586 22.304 200.781 22.304C201.985 22.304 202.895 22.584 203.511 23.144C204.127 23.6947 204.435 24.474 204.435 25.482V29.5H201.971V28.016H201.831C201.541 29.0987 200.655 29.64 199.171 29.64ZM199.325 27.54C199.325 27.7173 199.535 27.806 199.955 27.806C200.617 27.806 201.084 27.7547 201.355 27.652C201.625 27.54 201.779 27.33 201.817 27.022L199.661 27.274C199.437 27.302 199.325 27.3907 199.325 27.54ZM215.22 29.5H207.17V20.12H209.802V27.134H215.22V29.5ZM219.854 29.64C218.585 29.64 217.586 29.346 216.858 28.758C216.139 28.17 215.78 27.2413 215.78 25.972C215.78 24.8427 216.149 23.9513 216.886 23.298C217.633 22.6353 218.603 22.304 219.798 22.304C221.039 22.304 222.015 22.6073 222.724 23.214C223.433 23.8113 223.788 24.67 223.788 25.79C223.788 25.986 223.774 26.21 223.746 26.462H218.216C218.235 26.882 218.351 27.1713 218.566 27.33C218.79 27.4793 219.187 27.554 219.756 27.554C220.269 27.554 220.619 27.5073 220.806 27.414C221.002 27.3207 221.1 27.1667 221.1 26.952V26.798H223.732V26.966C223.732 27.7593 223.377 28.4033 222.668 28.898C221.968 29.3927 221.03 29.64 219.854 29.64ZM219.742 24.32C219.257 24.32 218.902 24.3807 218.678 24.502C218.454 24.6233 218.314 24.8333 218.258 25.132H221.24C221.193 24.8333 221.053 24.6233 220.82 24.502C220.596 24.3807 220.237 24.32 219.742 24.32ZM226.774 29.64C225.981 29.64 225.365 29.472 224.926 29.136C224.497 28.7907 224.282 28.3147 224.282 27.708C224.282 26.616 225.043 25.9953 226.564 25.846L229.434 25.566V25.426C229.434 25.0807 229.346 24.8567 229.168 24.754C229 24.6513 228.674 24.6 228.188 24.6C227.75 24.6 227.451 24.656 227.292 24.768C227.134 24.8707 227.054 25.0667 227.054 25.356V25.412H224.422V25.384C224.422 24.4507 224.782 23.704 225.5 23.144C226.228 22.584 227.19 22.304 228.384 22.304C229.588 22.304 230.498 22.584 231.114 23.144C231.73 23.6947 232.038 24.474 232.038 25.482V29.5H229.574V28.016H229.434C229.145 29.0987 228.258 29.64 226.774 29.64ZM226.928 27.54C226.928 27.7173 227.138 27.806 227.558 27.806C228.221 27.806 228.688 27.7547 228.958 27.652C229.229 27.54 229.383 27.33 229.42 27.022L227.264 27.274C227.04 27.302 226.928 27.3907 226.928 27.54ZM236.024 29.64C234.951 29.64 234.125 29.318 233.546 28.674C232.968 28.0207 232.678 27.12 232.678 25.972C232.678 24.8147 232.958 23.914 233.518 23.27C234.088 22.626 234.886 22.304 235.912 22.304C237.452 22.304 238.339 22.9573 238.572 24.264H238.712V20.12H241.344V29.5H238.88V27.596H238.74C238.628 28.296 238.353 28.814 237.914 29.15C237.476 29.4767 236.846 29.64 236.024 29.64ZM235.702 24.992C235.46 25.1787 235.338 25.5053 235.338 25.972C235.338 26.4387 235.46 26.7653 235.702 26.952C235.945 27.1387 236.37 27.232 236.976 27.232C237.602 27.232 238.045 27.148 238.306 26.98C238.577 26.8027 238.712 26.4713 238.712 25.986V25.888C238.712 25.412 238.577 25.0947 238.306 24.936C238.045 24.7773 237.602 24.698 236.976 24.698C236.37 24.698 235.945 24.796 235.702 24.992ZM244.816 21.8H242.184V20.12H244.816V21.8ZM244.816 29.5H242.184V22.444H244.816V29.5ZM248.288 29.5H245.656V22.444H248.12V24.586H248.26C248.344 23.9233 248.615 23.3773 249.072 22.948C249.53 22.5187 250.197 22.304 251.074 22.304C251.989 22.304 252.684 22.5513 253.16 23.046C253.636 23.5313 253.874 24.1753 253.874 24.978V29.5H251.242V25.944C251.242 25.4587 251.135 25.1227 250.92 24.936C250.706 24.7493 250.309 24.656 249.73 24.656C249.161 24.656 248.778 24.74 248.582 24.908C248.386 25.076 248.288 25.3933 248.288 25.86V29.5ZM257.788 28.716C256.743 28.716 255.936 28.436 255.366 27.876C254.797 27.3067 254.512 26.5133 254.512 25.496C254.512 24.4973 254.806 23.718 255.394 23.158C255.992 22.5887 256.813 22.304 257.858 22.304C259.38 22.304 260.238 22.9013 260.434 24.096H260.574V22.444H263.038V28.31C263.038 30.7833 261.634 32.02 258.824 32.02C257.592 32.02 256.636 31.768 255.954 31.264C255.273 30.7693 254.932 30.06 254.932 29.136H257.564C257.564 29.444 257.639 29.64 257.788 29.724C257.947 29.808 258.353 29.85 259.006 29.85C259.585 29.85 259.963 29.766 260.14 29.598C260.318 29.4393 260.406 29.0707 260.406 28.492V27.008H260.266C260.061 28.1467 259.235 28.716 257.788 28.716ZM257.172 25.496C257.172 25.8507 257.28 26.1027 257.494 26.252C257.718 26.392 258.134 26.462 258.74 26.462C259.356 26.462 259.786 26.406 260.028 26.294C260.28 26.1727 260.406 25.9347 260.406 25.58V25.482C260.406 25.118 260.28 24.8753 260.028 24.754C259.786 24.6327 259.356 24.572 258.74 24.572C258.134 24.572 257.718 24.642 257.494 24.782C257.28 24.9127 257.172 25.1507 257.172 25.496ZM268.468 29.5H265.836V20.12H271.31C272.542 20.12 273.48 20.3673 274.124 20.862C274.768 21.3567 275.09 22.066 275.09 22.99C275.09 23.746 274.885 24.3387 274.474 24.768C274.073 25.1973 273.433 25.468 272.556 25.58V25.72C273.004 25.832 273.335 25.9953 273.55 26.21C273.774 26.4247 273.984 26.7373 274.18 27.148L275.342 29.5H272.304L271.184 27.204C271.016 26.8493 270.825 26.6113 270.61 26.49C270.405 26.3687 270.05 26.308 269.546 26.308H268.468V29.5ZM268.468 22.486V24.348H271.282C271.683 24.348 271.959 24.2873 272.108 24.166C272.257 24.0447 272.332 23.7927 272.332 23.41C272.332 23.046 272.253 22.8033 272.094 22.682C271.945 22.5513 271.674 22.486 271.282 22.486H268.468ZM280.102 29.64C277.115 29.64 275.622 28.716 275.622 26.868C275.622 26.168 275.832 25.6313 276.252 25.258C276.672 24.8753 277.246 24.6607 277.974 24.614V24.432C277.348 24.376 276.872 24.166 276.546 23.802C276.219 23.438 276.056 22.9853 276.056 22.444C276.056 20.764 277.353 19.924 279.948 19.924H281.418V22.318H279.57C279.243 22.318 279.014 22.36 278.884 22.444C278.753 22.528 278.688 22.71 278.688 22.99C278.688 23.2607 278.748 23.438 278.87 23.522C279 23.5967 279.21 23.634 279.5 23.634H281.936V22.444H284.526V23.634H285.884V25.79H284.526V26.028C284.526 27.2133 284.194 28.114 283.532 28.73C282.869 29.3367 281.726 29.64 280.102 29.64ZM278.66 27.106C278.912 27.1993 279.425 27.246 280.2 27.246C280.974 27.246 281.455 27.19 281.642 27.078C281.838 26.966 281.936 26.6627 281.936 26.168V25.79H279.15C278.86 25.79 278.646 25.8413 278.506 25.944C278.366 26.0373 278.296 26.2287 278.296 26.518C278.296 26.8073 278.417 27.0033 278.66 27.106ZM291.49 29.5H286.744V20.12H291.49C293.049 20.12 294.281 20.5353 295.186 21.366C296.091 22.1873 296.544 23.3353 296.544 24.81C296.544 26.2847 296.091 27.4373 295.186 28.268C294.281 29.0893 293.049 29.5 291.49 29.5ZM291.49 22.486H289.376V27.134H291.49C291.957 27.134 292.311 27.1153 292.554 27.078C292.806 27.0313 293.03 26.9287 293.226 26.77C293.422 26.6113 293.553 26.378 293.618 26.07C293.693 25.762 293.73 25.342 293.73 24.81C293.73 24.278 293.693 23.858 293.618 23.55C293.553 23.242 293.422 23.0087 293.226 22.85C293.03 22.6913 292.806 22.5933 292.554 22.556C292.311 22.5093 291.957 22.486 291.49 22.486ZM304.935 29.5H302.303V22.486H298.985V20.12H308.239V22.486H304.935V29.5ZM312.809 29.64C311.54 29.64 310.541 29.346 309.813 28.758C309.094 28.17 308.735 27.2413 308.735 25.972C308.735 24.8427 309.104 23.9513 309.841 23.298C310.588 22.6353 311.558 22.304 312.753 22.304C313.994 22.304 314.97 22.6073 315.679 23.214C316.388 23.8113 316.743 24.67 316.743 25.79C316.743 25.986 316.729 26.21 316.701 26.462H311.171C311.19 26.882 311.306 27.1713 311.521 27.33C311.745 27.4793 312.142 27.554 312.711 27.554C313.224 27.554 313.574 27.5073 313.761 27.414C313.957 27.3207 314.055 27.1667 314.055 26.952V26.798H316.687V26.966C316.687 27.7593 316.332 28.4033 315.623 28.898C314.923 29.3927 313.985 29.64 312.809 29.64ZM312.697 24.32C312.212 24.32 311.857 24.3807 311.633 24.502C311.409 24.6233 311.269 24.8333 311.213 25.132H314.195C314.148 24.8333 314.008 24.6233 313.775 24.502C313.551 24.3807 313.192 24.32 312.697 24.32ZM319.729 29.64C318.936 29.64 318.32 29.472 317.881 29.136C317.452 28.7907 317.237 28.3147 317.237 27.708C317.237 26.616 317.998 25.9953 319.519 25.846L322.389 25.566V25.426C322.389 25.0807 322.301 24.8567 322.123 24.754C321.955 24.6513 321.629 24.6 321.143 24.6C320.705 24.6 320.406 24.656 320.247 24.768C320.089 24.8707 320.009 25.0667 320.009 25.356V25.412H317.377V25.384C317.377 24.4507 317.737 23.704 318.455 23.144C319.183 22.584 320.145 22.304 321.339 22.304C322.543 22.304 323.453 22.584 324.069 23.144C324.685 23.6947 324.993 24.474 324.993 25.482V29.5H322.529V28.016H322.389C322.1 29.0987 321.213 29.64 319.729 29.64ZM319.883 27.54C319.883 27.7173 320.093 27.806 320.513 27.806C321.176 27.806 321.643 27.7547 321.913 27.652C322.184 27.54 322.338 27.33 322.375 27.022L320.219 27.274C319.995 27.302 319.883 27.3907 319.883 27.54ZM328.406 29.5H325.774V22.444H328.238V24.586H328.378C328.462 23.914 328.704 23.368 329.106 22.948C329.516 22.5187 330.132 22.304 330.954 22.304C331.747 22.304 332.358 22.514 332.788 22.934C333.226 23.354 333.483 23.9047 333.558 24.586H333.698C333.782 23.914 334.034 23.368 334.454 22.948C334.874 22.5187 335.508 22.304 336.358 22.304C337.226 22.304 337.884 22.5513 338.332 23.046C338.789 23.5313 339.018 24.1753 339.018 24.978V29.5H336.386V25.944C336.386 25.4493 336.292 25.1133 336.106 24.936C335.919 24.7493 335.555 24.656 335.014 24.656C334.491 24.656 334.141 24.74 333.964 24.908C333.796 25.076 333.712 25.3933 333.712 25.86V29.5H331.08V25.944C331.08 25.4493 330.986 25.1133 330.8 24.936C330.613 24.7493 330.249 24.656 329.708 24.656C329.185 24.656 328.835 24.74 328.658 24.908C328.49 25.076 328.406 25.3933 328.406 25.86V29.5Z" fill="#FFD96D"/>
<path d="M20.836 53.728H16.36V52.18H20.836V53.728ZM23.1474 56.5H21.1314L24.6474 48.46H27.2154L30.7554 56.5H28.6914L27.9354 54.724H23.9154L23.1474 56.5ZM25.3674 51.352L24.6114 53.104H27.2394L26.4834 51.352L25.9914 50.104H25.8594L25.3674 51.352ZM33.8633 56.62C32.9433 56.62 32.2273 56.34 31.7153 55.78C31.2113 55.22 30.9593 54.46 30.9593 53.5C30.9593 52.532 31.2033 51.768 31.6913 51.208C32.1873 50.648 32.8793 50.368 33.7673 50.368C34.4553 50.368 34.9953 50.524 35.3873 50.836C35.7793 51.14 36.0273 51.556 36.1313 52.084H36.2393V48.46H38.0393V56.5H36.3593V54.832H36.2633C36.0313 56.024 35.2313 56.62 33.8633 56.62ZM32.7833 53.5C32.7833 54.036 32.9153 54.416 33.1793 54.64C33.4513 54.864 33.8833 54.976 34.4753 54.976C35.0673 54.976 35.5073 54.864 35.7953 54.64C36.0913 54.416 36.2393 54.048 36.2393 53.536V53.44C36.2393 52.928 36.0913 52.564 35.7953 52.348C35.5073 52.124 35.0673 52.012 34.4753 52.012C33.8833 52.012 33.4513 52.124 33.1793 52.348C32.9153 52.572 32.7833 52.956 32.7833 53.5ZM43.4677 56.5H41.2477L38.5117 50.488H40.5157L42.3157 54.748H42.4357L44.2477 50.488H46.2157L43.4677 56.5ZM48.5389 56.62C47.8909 56.62 47.3829 56.48 47.0149 56.2C46.6469 55.912 46.4629 55.516 46.4629 55.012C46.4629 54.1 47.1109 53.576 48.4069 53.44L50.9869 53.176V52.948C50.9869 52.564 50.8909 52.304 50.6989 52.168C50.5069 52.024 50.1669 51.952 49.6789 51.952C49.2149 51.952 48.8829 52.024 48.6829 52.168C48.4909 52.304 48.3949 52.54 48.3949 52.876V52.924H46.5829V52.888C46.5829 52.136 46.8749 51.528 47.4589 51.064C48.0429 50.6 48.8269 50.368 49.8109 50.368C50.7869 50.368 51.5229 50.6 52.0189 51.064C52.5149 51.528 52.7629 52.164 52.7629 52.972V56.5H51.0829V55.12H50.9869C50.8429 55.592 50.5629 55.96 50.1469 56.224C49.7309 56.488 49.1949 56.62 48.5389 56.62ZM48.2749 54.892C48.2749 55.196 48.5349 55.348 49.0549 55.348C49.6869 55.348 50.1589 55.264 50.4709 55.096C50.7909 54.92 50.9629 54.624 50.9869 54.208L48.8989 54.448C48.4829 54.48 48.2749 54.628 48.2749 54.892ZM55.4753 56.5H53.6753V50.488H55.3433V52.336H55.4513C55.5393 51.776 55.7833 51.308 56.1833 50.932C56.5913 50.556 57.1633 50.368 57.8993 50.368C58.6913 50.368 59.2913 50.592 59.6993 51.04C60.1153 51.48 60.3233 52.052 60.3233 52.756V56.5H58.5233V53.356C58.5233 52.868 58.4073 52.52 58.1753 52.312C57.9513 52.096 57.5673 51.988 57.0233 51.988C56.4633 51.988 56.0633 52.104 55.8233 52.336C55.5913 52.568 55.4753 52.944 55.4753 53.464V56.5ZM64.4379 56.62C63.4059 56.62 62.5819 56.34 61.9659 55.78C61.3579 55.212 61.0539 54.452 61.0539 53.5C61.0539 52.54 61.3579 51.78 61.9659 51.22C62.5819 50.652 63.4059 50.368 64.4379 50.368C65.4059 50.368 66.1899 50.608 66.7899 51.088C67.3899 51.56 67.6899 52.184 67.6899 52.96V53.128H65.9019V53.032C65.9019 52.336 65.4019 51.988 64.4019 51.988C63.8579 51.988 63.4619 52.104 63.2139 52.336C62.9659 52.568 62.8419 52.956 62.8419 53.5C62.8419 54.044 62.9659 54.432 63.2139 54.664C63.4619 54.888 63.8579 55 64.4019 55C65.4019 55 65.9019 54.652 65.9019 53.956V53.86H67.6899V54.028C67.6899 54.804 67.3899 55.432 66.7899 55.912C66.1899 56.384 65.4059 56.62 64.4379 56.62ZM71.6564 56.62C70.6164 56.62 69.7924 56.36 69.1844 55.84C68.5844 55.312 68.2844 54.532 68.2844 53.5C68.2844 52.548 68.5884 51.788 69.1964 51.22C69.8124 50.652 70.6204 50.368 71.6204 50.368C72.6204 50.368 73.4164 50.624 74.0084 51.136C74.6004 51.64 74.8964 52.356 74.8964 53.284C74.8964 53.396 74.8804 53.588 74.8484 53.86H69.9524C69.9764 54.332 70.1124 54.672 70.3604 54.88C70.6084 55.08 71.0204 55.18 71.5964 55.18C72.1164 55.18 72.4844 55.116 72.7004 54.988C72.9244 54.852 73.0364 54.652 73.0364 54.388V54.268H74.8364V54.4C74.8364 55.056 74.5444 55.592 73.9604 56.008C73.3764 56.416 72.6084 56.62 71.6564 56.62ZM72.7484 52.048C72.5004 51.864 72.1124 51.772 71.5844 51.772C71.0564 51.772 70.6644 51.864 70.4084 52.048C70.1604 52.232 70.0164 52.52 69.9764 52.912H73.1684C73.1444 52.512 73.0044 52.224 72.7484 52.048ZM78.3477 56.62C77.4277 56.62 76.7117 56.34 76.1997 55.78C75.6957 55.22 75.4437 54.46 75.4437 53.5C75.4437 52.532 75.6877 51.768 76.1757 51.208C76.6717 50.648 77.3637 50.368 78.2517 50.368C78.9397 50.368 79.4797 50.524 79.8717 50.836C80.2637 51.14 80.5117 51.556 80.6157 52.084H80.7237V48.46H82.5237V56.5H80.8437V54.832H80.7477C80.5157 56.024 79.7157 56.62 78.3477 56.62ZM77.2677 53.5C77.2677 54.036 77.3997 54.416 77.6637 54.64C77.9357 54.864 78.3677 54.976 78.9597 54.976C79.5517 54.976 79.9917 54.864 80.2797 54.64C80.5757 54.416 80.7237 54.048 80.7237 53.536V53.44C80.7237 52.928 80.5757 52.564 80.2797 52.348C79.9917 52.124 79.5517 52.012 78.9597 52.012C78.3677 52.012 77.9357 52.124 77.6637 52.348C77.3997 52.572 77.2677 52.956 77.2677 53.5ZM92.1317 56.5H85.3277V48.46H92.1317V50.08H87.1277V51.652H91.9517V53.26H87.1277V54.88H92.1317V56.5ZM94.7448 56.5H92.9448V50.488H94.6128V52.336H94.7208C94.8088 51.776 95.0528 51.308 95.4528 50.932C95.8608 50.556 96.4328 50.368 97.1688 50.368C97.9608 50.368 98.5608 50.592 98.9688 51.04C99.3848 51.48 99.5928 52.052 99.5928 52.756V56.5H97.7928V53.356C97.7928 52.868 97.6768 52.52 97.4448 52.312C97.2208 52.096 96.8368 51.988 96.2928 51.988C95.7328 51.988 95.3328 52.104 95.0928 52.336C94.8608 52.568 94.7448 52.944 94.7448 53.464V56.5ZM103.707 56.62C102.675 56.62 101.851 56.34 101.235 55.78C100.627 55.212 100.323 54.452 100.323 53.5C100.323 52.54 100.627 51.78 101.235 51.22C101.851 50.652 102.675 50.368 103.707 50.368C104.675 50.368 105.459 50.608 106.059 51.088C106.659 51.56 106.959 52.184 106.959 52.96V53.128H105.171V53.032C105.171 52.336 104.671 51.988 103.671 51.988C103.127 51.988 102.731 52.104 102.483 52.336C102.235 52.568 102.111 52.956 102.111 53.5C102.111 54.044 102.235 54.432 102.483 54.664C102.731 54.888 103.127 55 103.671 55C104.671 55 105.171 54.652 105.171 53.956V53.86H106.959V54.028C106.959 54.804 106.659 55.432 106.059 55.912C105.459 56.384 104.675 56.62 103.707 56.62ZM109.534 56.5H107.734V50.488H109.402V52.084H109.51C109.598 51.564 109.81 51.148 110.146 50.836C110.49 50.524 110.95 50.368 111.526 50.368C112.166 50.368 112.642 50.56 112.954 50.944C113.266 51.328 113.422 51.836 113.422 52.468V53.464H111.622V52.84C111.622 52.504 111.546 52.264 111.394 52.12C111.242 51.968 110.986 51.892 110.626 51.892C110.234 51.892 109.954 51.984 109.786 52.168C109.618 52.352 109.534 52.636 109.534 53.02V56.5ZM115.226 58.54H114.242V56.908H115.718C116.102 56.908 116.354 56.78 116.474 56.524L113.534 50.488H115.574L116.846 53.236L117.35 54.652H117.47L117.95 53.224L119.09 50.488H121.094L118.118 56.932C117.838 57.548 117.482 57.968 117.05 58.192C116.618 58.424 116.01 58.54 115.226 58.54ZM123.327 58.54H121.527V50.488H123.195V52.132H123.315C123.539 50.956 124.339 50.368 125.715 50.368C126.627 50.368 127.335 50.648 127.839 51.208C128.343 51.768 128.595 52.532 128.595 53.5C128.595 54.468 128.347 55.232 127.851 55.792C127.363 56.344 126.671 56.62 125.775 56.62C125.095 56.62 124.555 56.468 124.155 56.164C123.763 55.852 123.515 55.424 123.411 54.88H123.327V58.54ZM123.327 53.584C123.327 54.08 123.471 54.436 123.759 54.652C124.055 54.868 124.495 54.976 125.079 54.976C125.671 54.976 126.099 54.864 126.363 54.64C126.635 54.416 126.771 54.036 126.771 53.5C126.771 52.964 126.635 52.584 126.363 52.36C126.099 52.136 125.675 52.024 125.091 52.024C124.491 52.024 124.047 52.14 123.759 52.372C123.471 52.596 123.327 52.968 123.327 53.488V53.584ZM133.579 56.5H132.091C130.587 56.5 129.835 55.776 129.835 54.328V51.976H128.887V50.488H129.835V49.324H131.635V50.488H133.579V51.976H131.635V54.124C131.635 54.42 131.695 54.62 131.815 54.724C131.943 54.828 132.171 54.88 132.499 54.88H133.579V56.5ZM136.053 49.876H134.253V48.46H136.053V49.876ZM136.053 56.5H134.253V50.488H136.053V56.5ZM142.684 55.768C142.06 56.336 141.232 56.62 140.2 56.62C139.168 56.62 138.336 56.336 137.704 55.768C137.08 55.2 136.768 54.444 136.768 53.5C136.768 52.548 137.08 51.788 137.704 51.22C138.336 50.652 139.168 50.368 140.2 50.368C141.232 50.368 142.06 50.652 142.684 51.22C143.316 51.788 143.632 52.548 143.632 53.5C143.632 54.444 143.316 55.2 142.684 55.768ZM138.928 54.664C139.176 54.904 139.6 55.024 140.2 55.024C140.8 55.024 141.224 54.904 141.472 54.664C141.72 54.424 141.844 54.036 141.844 53.5C141.844 52.964 141.716 52.572 141.46 52.324C141.212 52.076 140.792 51.952 140.2 51.952C139.6 51.952 139.176 52.076 138.928 52.324C138.68 52.564 138.556 52.956 138.556 53.5C138.556 54.036 138.68 54.424 138.928 54.664ZM146.167 56.5H144.367V50.488H146.035V52.336H146.143C146.231 51.776 146.475 51.308 146.875 50.932C147.283 50.556 147.855 50.368 148.591 50.368C149.383 50.368 149.983 50.592 150.391 51.04C150.807 51.48 151.015 52.052 151.015 52.756V56.5H149.215V53.356C149.215 52.868 149.099 52.52 148.867 52.312C148.643 52.096 148.259 51.988 147.715 51.988C147.155 51.988 146.755 52.104 146.515 52.336C146.283 52.568 146.167 52.944 146.167 53.464V56.5ZM157.185 56.5H154.941L153.297 50.488H155.157L155.865 53.236L156.117 55.108H156.237L156.717 53.056L157.629 50.488H159.945L160.845 53.056L161.325 55.108H161.445L161.709 53.236L162.405 50.488H164.241L162.537 56.5H160.293L159.261 53.608L158.817 51.952H158.685L158.229 53.608L157.185 56.5ZM166.522 49.876H164.722V48.46H166.522V49.876ZM166.522 56.5H164.722V50.488H166.522V56.5ZM171.7 56.5H170.212C168.708 56.5 167.956 55.776 167.956 54.328V51.976H167.008V50.488H167.956V49.324H169.756V50.488H171.7V51.976H169.756V54.124C169.756 54.42 169.816 54.62 169.936 54.724C170.064 54.828 170.292 54.88 170.62 54.88H171.7V56.5ZM174.175 56.5H172.375V48.46H174.175V52.324H174.271C174.375 51.756 174.627 51.288 175.027 50.92C175.427 50.552 175.987 50.368 176.707 50.368C177.491 50.368 178.087 50.596 178.495 51.052C178.911 51.5 179.119 52.088 179.119 52.816V56.5H177.319V53.356C177.319 52.852 177.199 52.5 176.959 52.3C176.727 52.092 176.327 51.988 175.759 51.988C175.175 51.988 174.763 52.108 174.523 52.348C174.291 52.588 174.175 52.968 174.175 53.488V56.5ZM183.678 56.5H181.878V48.46H184.314L186.198 52.42L186.954 54.304H187.086L187.818 52.42L189.642 48.46H192.09V56.5H190.29V52.42L190.35 51.16H190.218L189.75 52.42L188.07 56.02H185.886L184.206 52.42L183.738 51.16H183.606L183.678 52.42V56.5ZM195.519 56.62C194.703 56.62 194.083 56.4 193.659 55.96C193.235 55.512 193.023 54.936 193.023 54.232V50.488H194.823V53.632C194.823 54.12 194.939 54.472 195.171 54.688C195.411 54.904 195.811 55.012 196.371 55.012C196.947 55.012 197.355 54.896 197.595 54.664C197.843 54.432 197.967 54.056 197.967 53.536V50.488H199.767V56.5H198.087V54.664H197.991C197.903 55.224 197.651 55.692 197.235 56.068C196.827 56.436 196.255 56.62 195.519 56.62ZM202.487 56.5H200.687V48.46H202.487V56.5ZM207.665 56.5H206.177C204.673 56.5 203.921 55.776 203.921 54.328V51.976H202.973V50.488H203.921V49.324H205.721V50.488H207.665V51.976H205.721V54.124C205.721 54.42 205.781 54.62 205.901 54.724C206.029 54.828 206.257 54.88 206.585 54.88H207.665V56.5ZM210.139 49.876H208.339V48.46H210.139V49.876ZM210.139 56.5H208.339V50.488H210.139V56.5ZM215.438 53.728H210.962V52.18H215.438V53.728ZM218.073 56.5H216.273V48.46H223.077V50.08H218.073V51.892H222.897V53.5H218.073V56.5ZM225.691 56.62C225.043 56.62 224.535 56.48 224.167 56.2C223.799 55.912 223.615 55.516 223.615 55.012C223.615 54.1 224.263 53.576 225.559 53.44L228.139 53.176V52.948C228.139 52.564 228.043 52.304 227.851 52.168C227.659 52.024 227.319 51.952 226.831 51.952C226.367 51.952 226.035 52.024 225.835 52.168C225.643 52.304 225.547 52.54 225.547 52.876V52.924H223.735V52.888C223.735 52.136 224.027 51.528 224.611 51.064C225.195 50.6 225.979 50.368 226.963 50.368C227.939 50.368 228.675 50.6 229.171 51.064C229.667 51.528 229.915 52.164 229.915 52.972V56.5H228.235V55.12H228.139C227.995 55.592 227.715 55.96 227.299 56.224C226.883 56.488 226.347 56.62 225.691 56.62ZM225.427 54.892C225.427 55.196 225.687 55.348 226.207 55.348C226.839 55.348 227.311 55.264 227.623 55.096C227.943 54.92 228.115 54.624 228.139 54.208L226.051 54.448C225.635 54.48 225.427 54.628 225.427 54.892ZM234.032 56.62C233 56.62 232.176 56.34 231.56 55.78C230.952 55.212 230.648 54.452 230.648 53.5C230.648 52.54 230.952 51.78 231.56 51.22C232.176 50.652 233 50.368 234.032 50.368C235 50.368 235.784 50.608 236.384 51.088C236.984 51.56 237.284 52.184 237.284 52.96V53.128H235.496V53.032C235.496 52.336 234.996 51.988 233.996 51.988C233.452 51.988 233.056 52.104 232.808 52.336C232.56 52.568 232.436 52.956 232.436 53.5C232.436 54.044 232.56 54.432 232.808 54.664C233.056 54.888 233.452 55 233.996 55C234.996 55 235.496 54.652 235.496 53.956V53.86H237.284V54.028C237.284 54.804 236.984 55.432 236.384 55.912C235.784 56.384 235 56.62 234.032 56.62ZM242.294 56.5H240.806C239.302 56.5 238.55 55.776 238.55 54.328V51.976H237.602V50.488H238.55V49.324H240.35V50.488H242.294V51.976H240.35V54.124C240.35 54.42 240.41 54.62 240.53 54.724C240.658 54.828 240.886 54.88 241.214 54.88H242.294V56.5ZM248.656 55.768C248.032 56.336 247.204 56.62 246.172 56.62C245.14 56.62 244.308 56.336 243.676 55.768C243.052 55.2 242.74 54.444 242.74 53.5C242.74 52.548 243.052 51.788 243.676 51.22C244.308 50.652 245.14 50.368 246.172 50.368C247.204 50.368 248.032 50.652 248.656 51.22C249.288 51.788 249.604 52.548 249.604 53.5C249.604 54.444 249.288 55.2 248.656 55.768ZM244.9 54.664C245.148 54.904 245.572 55.024 246.172 55.024C246.772 55.024 247.196 54.904 247.444 54.664C247.692 54.424 247.816 54.036 247.816 53.5C247.816 52.964 247.688 52.572 247.432 52.324C247.184 52.076 246.764 51.952 246.172 51.952C245.572 51.952 245.148 52.076 244.9 52.324C244.652 52.564 244.528 52.956 244.528 53.5C244.528 54.036 244.652 54.424 244.9 54.664ZM252.139 56.5H250.339V50.488H252.007V52.084H252.115C252.203 51.564 252.415 51.148 252.751 50.836C253.095 50.524 253.555 50.368 254.131 50.368C254.771 50.368 255.247 50.56 255.559 50.944C255.871 51.328 256.027 51.836 256.027 52.468V53.464H254.227V52.84C254.227 52.504 254.151 52.264 253.999 52.12C253.847 51.968 253.591 51.892 253.231 51.892C252.839 51.892 252.559 51.984 252.391 52.168C252.223 52.352 252.139 52.636 252.139 53.02V56.5ZM262.179 56.62C260.955 56.62 260.015 56.38 259.359 55.9C258.703 55.42 258.375 54.716 258.375 53.788V53.716H260.175V53.932C260.175 54.316 260.311 54.588 260.583 54.748C260.855 54.9 261.387 54.976 262.179 54.976C262.875 54.976 263.343 54.92 263.583 54.808C263.831 54.696 263.955 54.5 263.955 54.22C263.955 53.98 263.875 53.804 263.715 53.692C263.555 53.572 263.267 53.476 262.851 53.404L260.595 53.08C259.067 52.84 258.303 52.088 258.303 50.824C258.303 50.136 258.603 49.552 259.203 49.072C259.811 48.584 260.739 48.34 261.987 48.34C263.187 48.34 264.091 48.592 264.699 49.096C265.307 49.6 265.611 50.292 265.611 51.172V51.244H263.799V51.076C263.799 50.676 263.659 50.396 263.379 50.236C263.107 50.068 262.583 49.984 261.807 49.984C261.175 49.984 260.735 50.048 260.487 50.176C260.239 50.296 260.115 50.488 260.115 50.752C260.115 50.984 260.183 51.152 260.319 51.256C260.463 51.36 260.707 51.444 261.051 51.508L263.307 51.868C264.939 52.132 265.755 52.888 265.755 54.136C265.755 54.848 265.459 55.44 264.867 55.912C264.275 56.384 263.379 56.62 262.179 56.62ZM269.68 56.62C268.64 56.62 267.816 56.36 267.208 55.84C266.608 55.312 266.308 54.532 266.308 53.5C266.308 52.548 266.612 51.788 267.22 51.22C267.836 50.652 268.644 50.368 269.644 50.368C270.644 50.368 271.44 50.624 272.032 51.136C272.624 51.64 272.92 52.356 272.92 53.284C272.92 53.396 272.904 53.588 272.872 53.86H267.976C268 54.332 268.136 54.672 268.384 54.88C268.632 55.08 269.044 55.18 269.62 55.18C270.14 55.18 270.508 55.116 270.724 54.988C270.948 54.852 271.06 54.652 271.06 54.388V54.268H272.86V54.4C272.86 55.056 272.568 55.592 271.984 56.008C271.4 56.416 270.632 56.62 269.68 56.62ZM270.772 52.048C270.524 51.864 270.136 51.772 269.608 51.772C269.08 51.772 268.688 51.864 268.432 52.048C268.184 52.232 268.04 52.52 268 52.912H271.192C271.168 52.512 271.028 52.224 270.772 52.048ZM276.887 56.62C275.855 56.62 275.031 56.34 274.415 55.78C273.807 55.212 273.503 54.452 273.503 53.5C273.503 52.54 273.807 51.78 274.415 51.22C275.031 50.652 275.855 50.368 276.887 50.368C277.855 50.368 278.639 50.608 279.239 51.088C279.839 51.56 280.139 52.184 280.139 52.96V53.128H278.351V53.032C278.351 52.336 277.851 51.988 276.851 51.988C276.307 51.988 275.911 52.104 275.663 52.336C275.415 52.568 275.291 52.956 275.291 53.5C275.291 54.044 275.415 54.432 275.663 54.664C275.911 54.888 276.307 55 276.851 55C277.851 55 278.351 54.652 278.351 53.956V53.86H280.139V54.028C280.139 54.804 279.839 55.432 279.239 55.912C278.639 56.384 277.855 56.62 276.887 56.62ZM283.398 56.62C282.582 56.62 281.962 56.4 281.538 55.96C281.114 55.512 280.902 54.936 280.902 54.232V50.488H282.702V53.632C282.702 54.12 282.818 54.472 283.05 54.688C283.29 54.904 283.69 55.012 284.25 55.012C284.826 55.012 285.234 54.896 285.474 54.664C285.722 54.432 285.846 54.056 285.846 53.536V50.488H287.646V56.5H285.966V54.664H285.87C285.782 55.224 285.53 55.692 285.114 56.068C284.706 56.436 284.134 56.62 283.398 56.62ZM290.366 56.5H288.566V50.488H290.234V52.084H290.342C290.43 51.564 290.642 51.148 290.978 50.836C291.322 50.524 291.782 50.368 292.358 50.368C292.998 50.368 293.474 50.56 293.786 50.944C294.098 51.328 294.254 51.836 294.254 52.468V53.464H292.454V52.84C292.454 52.504 292.378 52.264 292.226 52.12C292.074 51.968 291.818 51.892 291.458 51.892C291.066 51.892 290.786 51.984 290.618 52.168C290.45 52.352 290.366 52.636 290.366 53.02V56.5ZM296.706 49.876H294.906V48.46H296.706V49.876ZM296.706 56.5H294.906V50.488H296.706V56.5ZM301.884 56.5H300.396C298.892 56.5 298.14 55.776 298.14 54.328V51.976H297.192V50.488H298.14V49.324H299.94V50.488H301.884V51.976H299.94V54.124C299.94 54.42 300 54.62 300.12 54.724C300.248 54.828 300.476 54.88 300.804 54.88H301.884V56.5ZM303.71 58.54H302.726V56.908H304.202C304.586 56.908 304.838 56.78 304.958 56.524L302.018 50.488H304.058L305.33 53.236L305.834 54.652H305.954L306.434 53.224L307.574 50.488H309.578L306.602 56.932C306.322 57.548 305.966 57.968 305.534 58.192C305.102 58.424 304.494 58.54 303.71 58.54ZM17.956 74.5H15.94L19.456 66.46H22.024L25.564 74.5H23.5L22.744 72.724H18.724L17.956 74.5ZM20.176 69.352L19.42 71.104H22.048L21.292 69.352L20.8 68.104H20.668L20.176 69.352ZM28.4679 74.62C27.6519 74.62 27.0319 74.4 26.6079 73.96C26.1839 73.512 25.9719 72.936 25.9719 72.232V68.488H27.7719V71.632C27.7719 72.12 27.8879 72.472 28.1199 72.688C28.3599 72.904 28.7599 73.012 29.3199 73.012C29.8959 73.012 30.3039 72.896 30.5439 72.664C30.7919 72.432 30.9159 72.056 30.9159 71.536V68.488H32.7159V74.5H31.0359V72.664H30.9399C30.8519 73.224 30.5999 73.692 30.1839 74.068C29.7759 74.436 29.2039 74.62 28.4679 74.62ZM37.8723 74.5H36.3843C34.8803 74.5 34.1283 73.776 34.1283 72.328V69.976H33.1803V68.488H34.1283V67.324H35.9283V68.488H37.8723V69.976H35.9283V72.124C35.9283 72.42 35.9883 72.62 36.1083 72.724C36.2363 72.828 36.4643 72.88 36.7923 72.88H37.8723V74.5ZM40.3464 74.5H38.5464V66.46H40.3464V70.324H40.4424C40.5464 69.756 40.7984 69.288 41.1984 68.92C41.5984 68.552 42.1584 68.368 42.8784 68.368C43.6624 68.368 44.2584 68.596 44.6664 69.052C45.0824 69.5 45.2904 70.088 45.2904 70.816V74.5H43.4904V71.356C43.4904 70.852 43.3704 70.5 43.1304 70.3C42.8984 70.092 42.4984 69.988 41.9304 69.988C41.3464 69.988 40.9344 70.108 40.6944 70.348C40.4624 70.588 40.3464 70.968 40.3464 71.488V74.5ZM49.3908 74.62C48.3508 74.62 47.5268 74.36 46.9188 73.84C46.3188 73.312 46.0188 72.532 46.0188 71.5C46.0188 70.548 46.3228 69.788 46.9308 69.22C47.5468 68.652 48.3548 68.368 49.3548 68.368C50.3548 68.368 51.1508 68.624 51.7428 69.136C52.3348 69.64 52.6308 70.356 52.6308 71.284C52.6308 71.396 52.6148 71.588 52.5828 71.86H47.6868C47.7108 72.332 47.8468 72.672 48.0948 72.88C48.3428 73.08 48.7548 73.18 49.3308 73.18C49.8508 73.18 50.2188 73.116 50.4348 72.988C50.6588 72.852 50.7708 72.652 50.7708 72.388V72.268H52.5708V72.4C52.5708 73.056 52.2788 73.592 51.6948 74.008C51.1108 74.416 50.3428 74.62 49.3908 74.62ZM50.4828 70.048C50.2348 69.864 49.8468 69.772 49.3188 69.772C48.7908 69.772 48.3988 69.864 48.1428 70.048C47.8948 70.232 47.7508 70.52 47.7108 70.912H50.9028C50.8788 70.512 50.7388 70.224 50.4828 70.048ZM55.1941 74.5H53.3941V68.488H55.0621V70.336H55.1701C55.2581 69.776 55.5021 69.308 55.9021 68.932C56.3101 68.556 56.8821 68.368 57.6181 68.368C58.4101 68.368 59.0101 68.592 59.4181 69.04C59.8341 69.48 60.0421 70.052 60.0421 70.756V74.5H58.2421V71.356C58.2421 70.868 58.1261 70.52 57.8941 70.312C57.6701 70.096 57.2861 69.988 56.7421 69.988C56.1821 69.988 55.7821 70.104 55.5421 70.336C55.3101 70.568 55.1941 70.944 55.1941 71.464V74.5ZM65.1887 74.5H63.7007C62.1967 74.5 61.4447 73.776 61.4447 72.328V69.976H60.4967V68.488H61.4447V67.324H63.2447V68.488H65.1887V69.976H63.2447V72.124C63.2447 72.42 63.3047 72.62 63.4247 72.724C63.5527 72.828 63.7807 72.88 64.1087 72.88H65.1887V74.5ZM67.6628 67.876H65.8628V66.46H67.6628V67.876ZM67.6628 74.5H65.8628V68.488H67.6628V74.5ZM71.809 74.62C70.777 74.62 69.953 74.34 69.337 73.78C68.729 73.212 68.425 72.452 68.425 71.5C68.425 70.54 68.729 69.78 69.337 69.22C69.953 68.652 70.777 68.368 71.809 68.368C72.777 68.368 73.561 68.608 74.161 69.088C74.761 69.56 75.061 70.184 75.061 70.96V71.128H73.273V71.032C73.273 70.336 72.773 69.988 71.773 69.988C71.229 69.988 70.833 70.104 70.585 70.336C70.337 70.568 70.213 70.956 70.213 71.5C70.213 72.044 70.337 72.432 70.585 72.664C70.833 72.888 71.229 73 71.773 73C72.773 73 73.273 72.652 73.273 71.956V71.86H75.061V72.028C75.061 72.804 74.761 73.432 74.161 73.912C73.561 74.384 72.777 74.62 71.809 74.62ZM77.6835 74.62C77.0355 74.62 76.5275 74.48 76.1595 74.2C75.7915 73.912 75.6075 73.516 75.6075 73.012C75.6075 72.1 76.2555 71.576 77.5515 71.44L80.1315 71.176V70.948C80.1315 70.564 80.0355 70.304 79.8435 70.168C79.6515 70.024 79.3115 69.952 78.8235 69.952C78.3595 69.952 78.0275 70.024 77.8275 70.168C77.6355 70.304 77.5395 70.54 77.5395 70.876V70.924H75.7275V70.888C75.7275 70.136 76.0195 69.528 76.6035 69.064C77.1875 68.6 77.9715 68.368 78.9555 68.368C79.9315 68.368 80.6675 68.6 81.1635 69.064C81.6595 69.528 81.9075 70.164 81.9075 70.972V74.5H80.2275V73.12H80.1315C79.9875 73.592 79.7075 73.96 79.2915 74.224C78.8755 74.488 78.3395 74.62 77.6835 74.62ZM77.4195 72.892C77.4195 73.196 77.6795 73.348 78.1995 73.348C78.8315 73.348 79.3035 73.264 79.6155 73.096C79.9355 72.92 80.1075 72.624 80.1315 72.208L78.0435 72.448C77.6275 72.48 77.4195 72.628 77.4195 72.892ZM87.0558 74.5H85.5678C84.0638 74.5 83.3118 73.776 83.3118 72.328V69.976H82.3638V68.488H83.3118V67.324H85.1118V68.488H87.0558V69.976H85.1118V72.124C85.1118 72.42 85.1718 72.62 85.2918 72.724C85.4198 72.828 85.6478 72.88 85.9758 72.88H87.0558V74.5ZM89.53 67.876H87.73V66.46H89.53V67.876ZM89.53 74.5H87.73V68.488H89.53V74.5ZM96.1602 73.768C95.5362 74.336 94.7082 74.62 93.6762 74.62C92.6442 74.62 91.8122 74.336 91.1802 73.768C90.5562 73.2 90.2442 72.444 90.2442 71.5C90.2442 70.548 90.5562 69.788 91.1802 69.22C91.8122 68.652 92.6442 68.368 93.6762 68.368C94.7082 68.368 95.5362 68.652 96.1602 69.22C96.7922 69.788 97.1082 70.548 97.1082 71.5C97.1082 72.444 96.7922 73.2 96.1602 73.768ZM92.4042 72.664C92.6522 72.904 93.0762 73.024 93.6762 73.024C94.2762 73.024 94.7002 72.904 94.9482 72.664C95.1962 72.424 95.3202 72.036 95.3202 71.5C95.3202 70.964 95.1922 70.572 94.9362 70.324C94.6882 70.076 94.2682 69.952 93.6762 69.952C93.0762 69.952 92.6522 70.076 92.4042 70.324C92.1562 70.564 92.0322 70.956 92.0322 71.5C92.0322 72.036 92.1562 72.424 92.4042 72.664ZM99.6433 74.5H97.8433V68.488H99.5113V70.336H99.6193C99.7073 69.776 99.9513 69.308 100.351 68.932C100.759 68.556 101.331 68.368 102.067 68.368C102.859 68.368 103.459 68.592 103.867 69.04C104.283 69.48 104.491 70.052 104.491 70.756V74.5H102.691V71.356C102.691 70.868 102.575 70.52 102.343 70.312C102.119 70.096 101.735 69.988 101.191 69.988C100.631 69.988 100.231 70.104 99.9913 70.336C99.7593 70.568 99.6433 70.944 99.6433 71.464V74.5ZM20.836 89.728H16.36V88.18H20.836V89.728ZM25.6434 92.5H21.7674V84.46H25.6434C26.9394 84.46 27.9634 84.816 28.7154 85.528C29.4754 86.24 29.8554 87.224 29.8554 88.48C29.8554 89.736 29.4754 90.72 28.7154 91.432C27.9634 92.144 26.9394 92.5 25.6434 92.5ZM25.6434 86.08H23.5674V90.88H25.6434C26.4914 90.88 27.0834 90.716 27.4194 90.388C27.7634 90.052 27.9354 89.416 27.9354 88.48C27.9354 87.544 27.7634 86.912 27.4194 86.584C27.0834 86.248 26.4914 86.08 25.6434 86.08ZM33.8283 92.62C32.7883 92.62 31.9643 92.36 31.3563 91.84C30.7563 91.312 30.4563 90.532 30.4563 89.5C30.4563 88.548 30.7603 87.788 31.3683 87.22C31.9843 86.652 32.7923 86.368 33.7923 86.368C34.7923 86.368 35.5883 86.624 36.1803 87.136C36.7723 87.64 37.0683 88.356 37.0683 89.284C37.0683 89.396 37.0523 89.588 37.0203 89.86H32.1243C32.1483 90.332 32.2843 90.672 32.5323 90.88C32.7803 91.08 33.1923 91.18 33.7683 91.18C34.2883 91.18 34.6563 91.116 34.8723 90.988C35.0963 90.852 35.2083 90.652 35.2083 90.388V90.268H37.0083V90.4C37.0083 91.056 36.7163 91.592 36.1323 92.008C35.5483 92.416 34.7803 92.62 33.8283 92.62ZM34.9203 88.048C34.6723 87.864 34.2843 87.772 33.7563 87.772C33.2283 87.772 32.8363 87.864 32.5803 88.048C32.3323 88.232 32.1883 88.52 32.1483 88.912H35.3403C35.3163 88.512 35.1763 88.224 34.9203 88.048ZM39.6316 92.5H37.8316V84.46H39.6316V92.5ZM42.3738 85.876H40.5738V84.46H42.3738V85.876ZM42.3738 92.5H40.5738V86.488H42.3738V92.5ZM47.7919 92.5H45.5719L42.8359 86.488H44.8399L46.6399 90.748H46.7599L48.5719 86.488H50.5399L47.7919 92.5ZM54.2072 92.62C53.1672 92.62 52.3432 92.36 51.7352 91.84C51.1352 91.312 50.8352 90.532 50.8352 89.5C50.8352 88.548 51.1392 87.788 51.7472 87.22C52.3632 86.652 53.1712 86.368 54.1712 86.368C55.1712 86.368 55.9672 86.624 56.5592 87.136C57.1512 87.64 57.4472 88.356 57.4472 89.284C57.4472 89.396 57.4312 89.588 57.3992 89.86H52.5032C52.5272 90.332 52.6632 90.672 52.9112 90.88C53.1592 91.08 53.5712 91.18 54.1472 91.18C54.6672 91.18 55.0352 91.116 55.2512 90.988C55.4752 90.852 55.5872 90.652 55.5872 90.388V90.268H57.3872V90.4C57.3872 91.056 57.0952 91.592 56.5112 92.008C55.9272 92.416 55.1592 92.62 54.2072 92.62ZM55.2992 88.048C55.0512 87.864 54.6632 87.772 54.1352 87.772C53.6072 87.772 53.2152 87.864 52.9592 88.048C52.7112 88.232 52.5672 88.52 52.5272 88.912H55.7192C55.6952 88.512 55.5552 88.224 55.2992 88.048ZM60.0105 92.5H58.2105V86.488H59.8785V88.084H59.9865C60.0745 87.564 60.2865 87.148 60.6225 86.836C60.9665 86.524 61.4265 86.368 62.0025 86.368C62.6425 86.368 63.1185 86.56 63.4305 86.944C63.7425 87.328 63.8985 87.836 63.8985 88.468V89.464H62.0985V88.84C62.0985 88.504 62.0225 88.264 61.8705 88.12C61.7185 87.968 61.4625 87.892 61.1025 87.892C60.7105 87.892 60.4305 87.984 60.2625 88.168C60.0945 88.352 60.0105 88.636 60.0105 89.02V92.5ZM66.3503 85.876H64.5503V84.46H66.3503V85.876ZM66.3503 92.5H64.5503V86.488H66.3503V92.5ZM69.0925 92.5H67.2925V86.488H68.9605V88.336H69.0685C69.1565 87.776 69.4005 87.308 69.8005 86.932C70.2085 86.556 70.7805 86.368 71.5165 86.368C72.3085 86.368 72.9085 86.592 73.3165 87.04C73.7325 87.48 73.9405 88.052 73.9405 88.756V92.5H72.1405V89.356C72.1405 88.868 72.0245 88.52 71.7925 88.312C71.5685 88.096 71.1845 87.988 70.6405 87.988C70.0805 87.988 69.6805 88.104 69.4405 88.336C69.2085 88.568 69.0925 88.944 69.0925 89.464V92.5ZM77.4911 91.888C76.6031 91.888 75.9111 91.644 75.4151 91.156C74.9191 90.66 74.6711 89.984 74.6711 89.128C74.6711 88.28 74.9271 87.608 75.4391 87.112C75.9591 86.616 76.6671 86.368 77.5631 86.368C78.1871 86.368 78.6991 86.504 79.0991 86.776C79.5071 87.04 79.7591 87.428 79.8551 87.94H79.9511V86.488H81.6311V91.624C81.6311 93.648 80.4911 94.66 78.2111 94.66C77.2271 94.66 76.4511 94.452 75.8831 94.036C75.3231 93.62 75.0431 93.036 75.0431 92.284H76.8431C76.8431 92.628 76.9391 92.86 77.1311 92.98C77.3311 93.1 77.7311 93.16 78.3311 93.16C78.9231 93.16 79.3191 93.068 79.5191 92.884C79.7271 92.7 79.8311 92.32 79.8311 91.744V90.388H79.7351C79.6311 90.852 79.3911 91.22 79.0151 91.492C78.6471 91.756 78.1391 91.888 77.4911 91.888ZM76.8671 88.204C76.6111 88.38 76.4831 88.688 76.4831 89.128C76.4831 89.568 76.6111 89.88 76.8671 90.064C77.1231 90.248 77.5391 90.34 78.1151 90.34C78.6991 90.34 79.1311 90.252 79.4111 90.076C79.6911 89.892 79.8311 89.596 79.8311 89.188V89.056C79.8311 88.656 79.6911 88.368 79.4111 88.192C79.1391 88.016 78.7151 87.928 78.1391 87.928C77.5551 87.928 77.1311 88.02 76.8671 88.204ZM87.473 92.62C86.465 92.62 85.689 92.432 85.145 92.056C84.601 91.672 84.329 91.132 84.329 90.436V90.4H86.129V90.508C86.129 90.772 86.225 90.952 86.417 91.048C86.609 91.144 86.965 91.192 87.485 91.192C87.949 91.192 88.261 91.152 88.421 91.072C88.589 90.992 88.673 90.86 88.673 90.676C88.673 90.508 88.613 90.392 88.493 90.328C88.381 90.256 88.145 90.196 87.785 90.148L86.093 89.944C84.845 89.808 84.221 89.248 84.221 88.264C84.221 87.704 84.469 87.248 84.965 86.896C85.461 86.544 86.201 86.368 87.185 86.368C88.177 86.368 88.937 86.556 89.465 86.932C90.001 87.3 90.269 87.848 90.269 88.576V88.612H88.469V88.54C88.469 88.276 88.377 88.088 88.193 87.976C88.009 87.856 87.653 87.796 87.125 87.796C86.685 87.796 86.385 87.836 86.225 87.916C86.073 87.996 85.997 88.136 85.997 88.336C85.997 88.496 86.061 88.616 86.189 88.696C86.317 88.768 86.573 88.828 86.957 88.876L88.241 89.032C89.033 89.12 89.597 89.304 89.933 89.584C90.277 89.856 90.449 90.244 90.449 90.748C90.449 91.316 90.181 91.772 89.645 92.116C89.117 92.452 88.393 92.62 87.473 92.62ZM94.3673 92.62C93.3273 92.62 92.5033 92.36 91.8953 91.84C91.2953 91.312 90.9953 90.532 90.9953 89.5C90.9953 88.548 91.2993 87.788 91.9073 87.22C92.5233 86.652 93.3313 86.368 94.3313 86.368C95.3313 86.368 96.1273 86.624 96.7193 87.136C97.3113 87.64 97.6073 88.356 97.6073 89.284C97.6073 89.396 97.5913 89.588 97.5593 89.86H92.6633C92.6873 90.332 92.8233 90.672 93.0713 90.88C93.3193 91.08 93.7313 91.18 94.3073 91.18C94.8273 91.18 95.1953 91.116 95.4113 90.988C95.6353 90.852 95.7473 90.652 95.7473 90.388V90.268H97.5473V90.4C97.5473 91.056 97.2553 91.592 96.6713 92.008C96.0873 92.416 95.3193 92.62 94.3673 92.62ZM95.4593 88.048C95.2113 87.864 94.8233 87.772 94.2953 87.772C93.7673 87.772 93.3753 87.864 93.1193 88.048C92.8713 88.232 92.7273 88.52 92.6873 88.912H95.8793C95.8553 88.512 95.7153 88.224 95.4593 88.048ZM101.575 92.62C100.543 92.62 99.7186 92.34 99.1026 91.78C98.4946 91.212 98.1906 90.452 98.1906 89.5C98.1906 88.54 98.4946 87.78 99.1026 87.22C99.7186 86.652 100.543 86.368 101.575 86.368C102.543 86.368 103.327 86.608 103.927 87.088C104.527 87.56 104.827 88.184 104.827 88.96V89.128H103.039V89.032C103.039 88.336 102.539 87.988 101.539 87.988C100.995 87.988 100.599 88.104 100.351 88.336C100.103 88.568 99.9786 88.956 99.9786 89.5C99.9786 90.044 100.103 90.432 100.351 90.664C100.599 90.888 100.995 91 101.539 91C102.539 91 103.039 90.652 103.039 89.956V89.86H104.827V90.028C104.827 90.804 104.527 91.432 103.927 91.912C103.327 92.384 102.543 92.62 101.575 92.62ZM108.085 92.62C107.269 92.62 106.649 92.4 106.225 91.96C105.801 91.512 105.589 90.936 105.589 90.232V86.488H107.389V89.632C107.389 90.12 107.505 90.472 107.737 90.688C107.977 90.904 108.377 91.012 108.937 91.012C109.513 91.012 109.921 90.896 110.161 90.664C110.409 90.432 110.533 90.056 110.533 89.536V86.488H112.333V92.5H110.653V90.664H110.557C110.469 91.224 110.217 91.692 109.801 92.068C109.393 92.436 108.821 92.62 108.085 92.62ZM115.053 92.5H113.253V86.488H114.921V88.084H115.029C115.117 87.564 115.329 87.148 115.665 86.836C116.009 86.524 116.469 86.368 117.045 86.368C117.685 86.368 118.161 86.56 118.473 86.944C118.785 87.328 118.941 87.836 118.941 88.468V89.464H117.141V88.84C117.141 88.504 117.065 88.264 116.913 88.12C116.761 87.968 116.505 87.892 116.145 87.892C115.753 87.892 115.473 87.984 115.305 88.168C115.137 88.352 115.053 88.636 115.053 89.02V92.5ZM122.785 92.62C121.745 92.62 120.921 92.36 120.313 91.84C119.713 91.312 119.413 90.532 119.413 89.5C119.413 88.548 119.717 87.788 120.325 87.22C120.941 86.652 121.749 86.368 122.749 86.368C123.749 86.368 124.545 86.624 125.137 87.136C125.729 87.64 126.025 88.356 126.025 89.284C126.025 89.396 126.009 89.588 125.977 89.86H121.081C121.105 90.332 121.241 90.672 121.489 90.88C121.737 91.08 122.149 91.18 122.725 91.18C123.245 91.18 123.613 91.116 123.829 90.988C124.053 90.852 124.165 90.652 124.165 90.388V90.268H125.965V90.4C125.965 91.056 125.673 91.592 125.089 92.008C124.505 92.416 123.737 92.62 122.785 92.62ZM123.877 88.048C123.629 87.864 123.241 87.772 122.713 87.772C122.185 87.772 121.793 87.864 121.537 88.048C121.289 88.232 121.145 88.52 121.105 88.912H124.297C124.273 88.512 124.133 88.224 123.877 88.048ZM127.377 94.192H126.741V93.076H127.329C127.457 93.076 127.549 93.052 127.605 93.004C127.661 92.956 127.689 92.856 127.689 92.704V92.5H126.669V90.4H128.985V92.692C128.985 93.692 128.449 94.192 127.377 94.192ZM133.475 85.876H131.675V84.46H133.475V85.876ZM133.475 92.5H131.675V86.488H133.475V92.5ZM136.218 92.5H134.418V86.488H136.086V88.336H136.194C136.282 87.776 136.526 87.308 136.926 86.932C137.334 86.556 137.906 86.368 138.642 86.368C139.434 86.368 140.034 86.592 140.442 87.04C140.858 87.48 141.066 88.052 141.066 88.756V92.5H139.266V89.356C139.266 88.868 139.15 88.52 138.918 88.312C138.694 88.096 138.31 87.988 137.766 87.988C137.206 87.988 136.806 88.104 136.566 88.336C136.334 88.568 136.218 88.944 136.218 89.464V92.5ZM143.776 92.5H141.976V86.488H143.644V88.336H143.752C143.84 87.776 144.084 87.308 144.484 86.932C144.892 86.556 145.464 86.368 146.2 86.368C146.992 86.368 147.592 86.592 148 87.04C148.416 87.48 148.624 88.052 148.624 88.756V92.5H146.824V89.356C146.824 88.868 146.708 88.52 146.476 88.312C146.252 88.096 145.868 87.988 145.324 87.988C144.764 87.988 144.364 88.104 144.124 88.336C143.892 88.568 143.776 88.944 143.776 89.464V92.5ZM155.223 91.768C154.599 92.336 153.771 92.62 152.739 92.62C151.707 92.62 150.875 92.336 150.243 91.768C149.619 91.2 149.307 90.444 149.307 89.5C149.307 88.548 149.619 87.788 150.243 87.22C150.875 86.652 151.707 86.368 152.739 86.368C153.771 86.368 154.599 86.652 155.223 87.22C155.855 87.788 156.171 88.548 156.171 89.5C156.171 90.444 155.855 91.2 155.223 91.768ZM151.467 90.664C151.715 90.904 152.139 91.024 152.739 91.024C153.339 91.024 153.763 90.904 154.011 90.664C154.259 90.424 154.383 90.036 154.383 89.5C154.383 88.964 154.255 88.572 153.999 88.324C153.751 88.076 153.331 87.952 152.739 87.952C152.139 87.952 151.715 88.076 151.467 88.324C151.219 88.564 151.095 88.956 151.095 89.5C151.095 90.036 151.219 90.424 151.467 90.664ZM161.382 92.5H159.162L156.426 86.488H158.43L160.23 90.748H160.35L162.162 86.488H164.13L161.382 92.5ZM166.453 92.62C165.805 92.62 165.297 92.48 164.929 92.2C164.561 91.912 164.377 91.516 164.377 91.012C164.377 90.1 165.025 89.576 166.321 89.44L168.901 89.176V88.948C168.901 88.564 168.805 88.304 168.613 88.168C168.421 88.024 168.081 87.952 167.593 87.952C167.129 87.952 166.797 88.024 166.597 88.168C166.405 88.304 166.309 88.54 166.309 88.876V88.924H164.497V88.888C164.497 88.136 164.789 87.528 165.373 87.064C165.957 86.6 166.741 86.368 167.725 86.368C168.701 86.368 169.437 86.6 169.933 87.064C170.429 87.528 170.677 88.164 170.677 88.972V92.5H168.997V91.12H168.901C168.757 91.592 168.477 91.96 168.061 92.224C167.645 92.488 167.109 92.62 166.453 92.62ZM166.189 90.892C166.189 91.196 166.449 91.348 166.969 91.348C167.601 91.348 168.073 91.264 168.385 91.096C168.705 90.92 168.877 90.624 168.901 90.208L166.813 90.448C166.397 90.48 166.189 90.628 166.189 90.892ZM175.825 92.5H174.337C172.833 92.5 172.081 91.776 172.081 90.328V87.976H171.133V86.488H172.081V85.324H173.881V86.488H175.825V87.976H173.881V90.124C173.881 90.42 173.941 90.62 174.061 90.724C174.189 90.828 174.417 90.88 174.745 90.88H175.825V92.5ZM178.3 85.876H176.5V84.46H178.3V85.876ZM178.3 92.5H176.5V86.488H178.3V92.5ZM183.718 92.5H181.498L178.762 86.488H180.766L182.566 90.748H182.686L184.498 86.488H186.466L183.718 92.5ZM190.133 92.62C189.093 92.62 188.269 92.36 187.661 91.84C187.061 91.312 186.761 90.532 186.761 89.5C186.761 88.548 187.065 87.788 187.673 87.22C188.289 86.652 189.097 86.368 190.097 86.368C191.097 86.368 191.893 86.624 192.485 87.136C193.077 87.64 193.373 88.356 193.373 89.284C193.373 89.396 193.357 89.588 193.325 89.86H188.429C188.453 90.332 188.589 90.672 188.837 90.88C189.085 91.08 189.497 91.18 190.073 91.18C190.593 91.18 190.961 91.116 191.177 90.988C191.401 90.852 191.513 90.652 191.513 90.388V90.268H193.313V90.4C193.313 91.056 193.021 91.592 192.437 92.008C191.853 92.416 191.085 92.62 190.133 92.62ZM191.225 88.048C190.977 87.864 190.589 87.772 190.061 87.772C189.533 87.772 189.141 87.864 188.885 88.048C188.637 88.232 188.493 88.52 188.453 88.912H191.645C191.621 88.512 191.481 88.224 191.225 88.048ZM194.724 94.192H194.088V93.076H194.676C194.804 93.076 194.896 93.052 194.952 93.004C195.008 92.956 195.036 92.856 195.036 92.704V92.5H194.016V90.4H196.332V92.692C196.332 93.692 195.796 94.192 194.724 94.192ZM200.871 92.62C200.223 92.62 199.715 92.48 199.347 92.2C198.979 91.912 198.795 91.516 198.795 91.012C198.795 90.1 199.443 89.576 200.739 89.44L203.319 89.176V88.948C203.319 88.564 203.223 88.304 203.031 88.168C202.839 88.024 202.499 87.952 202.011 87.952C201.547 87.952 201.215 88.024 201.015 88.168C200.823 88.304 200.727 88.54 200.727 88.876V88.924H198.915V88.888C198.915 88.136 199.207 87.528 199.791 87.064C200.375 86.6 201.159 86.368 202.143 86.368C203.119 86.368 203.855 86.6 204.351 87.064C204.847 87.528 205.095 88.164 205.095 88.972V92.5H203.415V91.12H203.319C203.175 91.592 202.895 91.96 202.479 92.224C202.063 92.488 201.527 92.62 200.871 92.62ZM200.607 90.892C200.607 91.196 200.867 91.348 201.387 91.348C202.019 91.348 202.491 91.264 202.803 91.096C203.123 90.92 203.295 90.624 203.319 90.208L201.231 90.448C200.815 90.48 200.607 90.628 200.607 90.892ZM207.807 92.5H206.007V86.488H207.675V88.336H207.783C207.871 87.776 208.115 87.308 208.515 86.932C208.923 86.556 209.495 86.368 210.231 86.368C211.023 86.368 211.623 86.592 212.031 87.04C212.447 87.48 212.655 88.052 212.655 88.756V92.5H210.855V89.356C210.855 88.868 210.739 88.52 210.507 88.312C210.283 88.096 209.899 87.988 209.355 87.988C208.795 87.988 208.395 88.104 208.155 88.336C207.923 88.568 207.807 88.944 207.807 89.464V92.5ZM216.254 92.62C215.334 92.62 214.618 92.34 214.106 91.78C213.602 91.22 213.35 90.46 213.35 89.5C213.35 88.532 213.594 87.768 214.082 87.208C214.578 86.648 215.27 86.368 216.158 86.368C216.846 86.368 217.386 86.524 217.778 86.836C218.17 87.14 218.418 87.556 218.522 88.084H218.63V84.46H220.43V92.5H218.75V90.832H218.654C218.422 92.024 217.622 92.62 216.254 92.62ZM215.174 89.5C215.174 90.036 215.306 90.416 215.57 90.64C215.842 90.864 216.274 90.976 216.866 90.976C217.458 90.976 217.898 90.864 218.186 90.64C218.482 90.416 218.63 90.048 218.63 89.536V89.44C218.63 88.928 218.482 88.564 218.186 88.348C217.898 88.124 217.458 88.012 216.866 88.012C216.274 88.012 215.842 88.124 215.57 88.348C215.306 88.572 215.174 88.956 215.174 89.5ZM225.034 94.54H223.234V86.488H224.902V88.132H225.022C225.246 86.956 226.046 86.368 227.422 86.368C228.334 86.368 229.042 86.648 229.546 87.208C230.05 87.768 230.302 88.532 230.302 89.5C230.302 90.468 230.054 91.232 229.558 91.792C229.07 92.344 228.378 92.62 227.482 92.62C226.802 92.62 226.262 92.468 225.862 92.164C225.47 91.852 225.222 91.424 225.118 90.88H225.034V94.54ZM225.034 89.584C225.034 90.08 225.178 90.436 225.466 90.652C225.762 90.868 226.202 90.976 226.786 90.976C227.378 90.976 227.806 90.864 228.07 90.64C228.342 90.416 228.478 90.036 228.478 89.5C228.478 88.964 228.342 88.584 228.07 88.36C227.806 88.136 227.382 88.024 226.798 88.024C226.198 88.024 225.754 88.14 225.466 88.372C225.178 88.596 225.034 88.968 225.034 89.488V89.584ZM232.85 92.5H231.05V86.488H232.718V88.084H232.826C232.914 87.564 233.126 87.148 233.462 86.836C233.806 86.524 234.266 86.368 234.842 86.368C235.482 86.368 235.958 86.56 236.27 86.944C236.582 87.328 236.738 87.836 236.738 88.468V89.464H234.938V88.84C234.938 88.504 234.862 88.264 234.71 88.12C234.558 87.968 234.302 87.892 233.942 87.892C233.55 87.892 233.27 87.984 233.102 88.168C232.934 88.352 232.85 88.636 232.85 89.02V92.5ZM243.078 91.768C242.454 92.336 241.626 92.62 240.594 92.62C239.562 92.62 238.73 92.336 238.098 91.768C237.474 91.2 237.162 90.444 237.162 89.5C237.162 88.548 237.474 87.788 238.098 87.22C238.73 86.652 239.562 86.368 240.594 86.368C241.626 86.368 242.454 86.652 243.078 87.22C243.71 87.788 244.026 88.548 244.026 89.5C244.026 90.444 243.71 91.2 243.078 91.768ZM239.322 90.664C239.57 90.904 239.994 91.024 240.594 91.024C241.194 91.024 241.618 90.904 241.866 90.664C242.114 90.424 242.238 90.036 242.238 89.5C242.238 88.964 242.11 88.572 241.854 88.324C241.606 88.076 241.186 87.952 240.594 87.952C239.994 87.952 239.57 88.076 239.322 88.324C239.074 88.564 238.95 88.956 238.95 89.5C238.95 90.036 239.074 90.424 239.322 90.664ZM247.041 92.5H245.241V87.976H244.389V86.488H245.277C245.373 85.864 245.685 85.372 246.213 85.012C246.749 84.644 247.469 84.46 248.373 84.46H248.901V85.768H248.085C247.669 85.768 247.373 85.82 247.197 85.924C247.021 86.02 246.945 86.208 246.969 86.488H248.901V87.976H247.041V92.5ZM252.688 92.62C251.648 92.62 250.824 92.36 250.216 91.84C249.616 91.312 249.316 90.532 249.316 89.5C249.316 88.548 249.62 87.788 250.228 87.22C250.844 86.652 251.652 86.368 252.652 86.368C253.652 86.368 254.448 86.624 255.04 87.136C255.632 87.64 255.928 88.356 255.928 89.284C255.928 89.396 255.912 89.588 255.88 89.86H250.984C251.008 90.332 251.144 90.672 251.392 90.88C251.64 91.08 252.052 91.18 252.628 91.18C253.148 91.18 253.516 91.116 253.732 90.988C253.956 90.852 254.068 90.652 254.068 90.388V90.268H255.868V90.4C255.868 91.056 255.576 91.592 254.992 92.008C254.408 92.416 253.64 92.62 252.688 92.62ZM253.78 88.048C253.532 87.864 253.144 87.772 252.616 87.772C252.088 87.772 251.696 87.864 251.44 88.048C251.192 88.232 251.048 88.52 251.008 88.912H254.2C254.176 88.512 254.036 88.224 253.78 88.048ZM259.727 92.62C258.719 92.62 257.943 92.432 257.399 92.056C256.855 91.672 256.583 91.132 256.583 90.436V90.4H258.383V90.508C258.383 90.772 258.479 90.952 258.671 91.048C258.863 91.144 259.219 91.192 259.739 91.192C260.203 91.192 260.515 91.152 260.675 91.072C260.843 90.992 260.927 90.86 260.927 90.676C260.927 90.508 260.867 90.392 260.747 90.328C260.635 90.256 260.399 90.196 260.039 90.148L258.347 89.944C257.099 89.808 256.475 89.248 256.475 88.264C256.475 87.704 256.723 87.248 257.219 86.896C257.715 86.544 258.455 86.368 259.439 86.368C260.431 86.368 261.191 86.556 261.719 86.932C262.255 87.3 262.523 87.848 262.523 88.576V88.612H260.723V88.54C260.723 88.276 260.631 88.088 260.447 87.976C260.263 87.856 259.907 87.796 259.379 87.796C258.939 87.796 258.639 87.836 258.479 87.916C258.327 87.996 258.251 88.136 258.251 88.336C258.251 88.496 258.315 88.616 258.443 88.696C258.571 88.768 258.827 88.828 259.211 88.876L260.495 89.032C261.287 89.12 261.851 89.304 262.187 89.584C262.531 89.856 262.703 90.244 262.703 90.748C262.703 91.316 262.435 91.772 261.899 92.116C261.371 92.452 260.647 92.62 259.727 92.62ZM266.465 92.62C265.457 92.62 264.681 92.432 264.137 92.056C263.593 91.672 263.321 91.132 263.321 90.436V90.4H265.121V90.508C265.121 90.772 265.217 90.952 265.409 91.048C265.601 91.144 265.957 91.192 266.477 91.192C266.941 91.192 267.253 91.152 267.413 91.072C267.581 90.992 267.665 90.86 267.665 90.676C267.665 90.508 267.605 90.392 267.485 90.328C267.373 90.256 267.137 90.196 266.777 90.148L265.085 89.944C263.837 89.808 263.213 89.248 263.213 88.264C263.213 87.704 263.461 87.248 263.957 86.896C264.453 86.544 265.193 86.368 266.177 86.368C267.169 86.368 267.929 86.556 268.457 86.932C268.993 87.3 269.261 87.848 269.261 88.576V88.612H267.461V88.54C267.461 88.276 267.369 88.088 267.185 87.976C267.001 87.856 266.645 87.796 266.117 87.796C265.677 87.796 265.377 87.836 265.217 87.916C265.065 87.996 264.989 88.136 264.989 88.336C264.989 88.496 265.053 88.616 265.181 88.696C265.309 88.768 265.565 88.828 265.949 88.876L267.233 89.032C268.025 89.12 268.589 89.304 268.925 89.584C269.269 89.856 269.441 90.244 269.441 90.748C269.441 91.316 269.173 91.772 268.637 92.116C268.109 92.452 267.385 92.62 266.465 92.62ZM271.968 85.876H270.168V84.46H271.968V85.876ZM271.968 92.5H270.168V86.488H271.968V92.5ZM278.598 91.768C277.974 92.336 277.146 92.62 276.114 92.62C275.082 92.62 274.25 92.336 273.618 91.768C272.994 91.2 272.682 90.444 272.682 89.5C272.682 88.548 272.994 87.788 273.618 87.22C274.25 86.652 275.082 86.368 276.114 86.368C277.146 86.368 277.974 86.652 278.598 87.22C279.23 87.788 279.546 88.548 279.546 89.5C279.546 90.444 279.23 91.2 278.598 91.768ZM274.842 90.664C275.09 90.904 275.514 91.024 276.114 91.024C276.714 91.024 277.138 90.904 277.386 90.664C277.634 90.424 277.758 90.036 277.758 89.5C277.758 88.964 277.63 88.572 277.374 88.324C277.126 88.076 276.706 87.952 276.114 87.952C275.514 87.952 275.09 88.076 274.842 88.324C274.594 88.564 274.47 88.956 274.47 89.5C274.47 90.036 274.594 90.424 274.842 90.664ZM282.081 92.5H280.281V86.488H281.949V88.336H282.057C282.145 87.776 282.389 87.308 282.789 86.932C283.197 86.556 283.769 86.368 284.505 86.368C285.297 86.368 285.897 86.592 286.305 87.04C286.721 87.48 286.929 88.052 286.929 88.756V92.5H285.129V89.356C285.129 88.868 285.013 88.52 284.781 88.312C284.557 88.096 284.173 87.988 283.629 87.988C283.069 87.988 282.669 88.104 282.429 88.336C282.197 88.568 282.081 88.944 282.081 89.464V92.5ZM289.687 92.62C289.039 92.62 288.531 92.48 288.163 92.2C287.795 91.912 287.611 91.516 287.611 91.012C287.611 90.1 288.259 89.576 289.555 89.44L292.135 89.176V88.948C292.135 88.564 292.039 88.304 291.847 88.168C291.655 88.024 291.315 87.952 290.827 87.952C290.363 87.952 290.031 88.024 289.831 88.168C289.639 88.304 289.543 88.54 289.543 88.876V88.924H287.731V88.888C287.731 88.136 288.023 87.528 288.607 87.064C289.191 86.6 289.975 86.368 290.959 86.368C291.935 86.368 292.671 86.6 293.167 87.064C293.663 87.528 293.911 88.164 293.911 88.972V92.5H292.231V91.12H292.135C291.991 91.592 291.711 91.96 291.295 92.224C290.879 92.488 290.343 92.62 289.687 92.62ZM289.423 90.892C289.423 91.196 289.683 91.348 290.203 91.348C290.835 91.348 291.307 91.264 291.619 91.096C291.939 90.92 292.111 90.624 292.135 90.208L290.047 90.448C289.631 90.48 289.423 90.628 289.423 90.892ZM296.624 92.5H294.824V84.46H296.624V92.5ZM20.716 110.5H19.228C17.724 110.5 16.972 109.776 16.972 108.328V105.976H16.024V104.488H16.972V103.324H18.772V104.488H20.716V105.976H18.772V108.124C18.772 108.42 18.832 108.62 18.952 108.724C19.08 108.828 19.308 108.88 19.636 108.88H20.716V110.5ZM23.1902 110.5H21.3902V104.488H23.0582V106.084H23.1662C23.2542 105.564 23.4662 105.148 23.8022 104.836C24.1462 104.524 24.6062 104.368 25.1822 104.368C25.8222 104.368 26.2982 104.56 26.6102 104.944C26.9222 105.328 27.0782 105.836 27.0782 106.468V107.464H25.2782V106.84C25.2782 106.504 25.2022 106.264 25.0502 106.12C24.8982 105.968 24.6422 105.892 24.2822 105.892C23.8902 105.892 23.6102 105.984 23.4422 106.168C23.2742 106.352 23.1902 106.636 23.1902 107.02V110.5ZM29.578 110.62C28.93 110.62 28.422 110.48 28.054 110.2C27.686 109.912 27.502 109.516 27.502 109.012C27.502 108.1 28.15 107.576 29.446 107.44L32.026 107.176V106.948C32.026 106.564 31.93 106.304 31.738 106.168C31.546 106.024 31.206 105.952 30.718 105.952C30.254 105.952 29.922 106.024 29.722 106.168C29.53 106.304 29.434 106.54 29.434 106.876V106.924H27.622V106.888C27.622 106.136 27.914 105.528 28.498 105.064C29.082 104.6 29.866 104.368 30.85 104.368C31.826 104.368 32.562 104.6 33.058 105.064C33.554 105.528 33.802 106.164 33.802 106.972V110.5H32.122V109.12H32.026C31.882 109.592 31.602 109.96 31.186 110.224C30.77 110.488 30.234 110.62 29.578 110.62ZM29.314 108.892C29.314 109.196 29.574 109.348 30.094 109.348C30.726 109.348 31.198 109.264 31.51 109.096C31.83 108.92 32.002 108.624 32.026 108.208L29.938 108.448C29.522 108.48 29.314 108.628 29.314 108.892ZM36.5144 110.5H34.7144V104.488H36.3824V106.336H36.4904C36.5784 105.776 36.8224 105.308 37.2224 104.932C37.6304 104.556 38.2024 104.368 38.9384 104.368C39.7304 104.368 40.3304 104.592 40.7384 105.04C41.1544 105.48 41.3624 106.052 41.3624 106.756V110.5H39.5624V107.356C39.5624 106.868 39.4464 106.52 39.2144 106.312C38.9904 106.096 38.6064 105.988 38.0624 105.988C37.5024 105.988 37.1024 106.104 36.8624 106.336C36.6304 106.568 36.5144 106.944 36.5144 107.464V110.5ZM45.309 110.62C44.301 110.62 43.525 110.432 42.981 110.056C42.437 109.672 42.165 109.132 42.165 108.436V108.4H43.965V108.508C43.965 108.772 44.061 108.952 44.253 109.048C44.445 109.144 44.801 109.192 45.321 109.192C45.785 109.192 46.097 109.152 46.257 109.072C46.425 108.992 46.509 108.86 46.509 108.676C46.509 108.508 46.449 108.392 46.329 108.328C46.217 108.256 45.981 108.196 45.621 108.148L43.929 107.944C42.681 107.808 42.057 107.248 42.057 106.264C42.057 105.704 42.305 105.248 42.801 104.896C43.297 104.544 44.037 104.368 45.021 104.368C46.013 104.368 46.773 104.556 47.301 104.932C47.837 105.3 48.105 105.848 48.105 106.576V106.612H46.305V106.54C46.305 106.276 46.213 106.088 46.029 105.976C45.845 105.856 45.489 105.796 44.961 105.796C44.521 105.796 44.221 105.836 44.061 105.916C43.909 105.996 43.833 106.136 43.833 106.336C43.833 106.496 43.897 106.616 44.025 106.696C44.153 106.768 44.409 106.828 44.793 106.876L46.077 107.032C46.869 107.12 47.433 107.304 47.769 107.584C48.113 107.856 48.285 108.244 48.285 108.748C48.285 109.316 48.017 109.772 47.481 110.116C46.953 110.452 46.229 110.62 45.309 110.62ZM50.8593 110.62C50.2113 110.62 49.7033 110.48 49.3353 110.2C48.9673 109.912 48.7833 109.516 48.7833 109.012C48.7833 108.1 49.4313 107.576 50.7273 107.44L53.3073 107.176V106.948C53.3073 106.564 53.2113 106.304 53.0193 106.168C52.8273 106.024 52.4873 105.952 51.9993 105.952C51.5353 105.952 51.2033 106.024 51.0033 106.168C50.8113 106.304 50.7153 106.54 50.7153 106.876V106.924H48.9033V106.888C48.9033 106.136 49.1953 105.528 49.7793 105.064C50.3633 104.6 51.1473 104.368 52.1313 104.368C53.1073 104.368 53.8433 104.6 54.3393 105.064C54.8353 105.528 55.0833 106.164 55.0833 106.972V110.5H53.4033V109.12H53.3073C53.1633 109.592 52.8833 109.96 52.4673 110.224C52.0513 110.488 51.5153 110.62 50.8593 110.62ZM50.5953 108.892C50.5953 109.196 50.8553 109.348 51.3753 109.348C52.0073 109.348 52.4793 109.264 52.7913 109.096C53.1113 108.92 53.2833 108.624 53.3073 108.208L51.2193 108.448C50.8033 108.48 50.5953 108.628 50.5953 108.892ZM59.1996 110.62C58.1676 110.62 57.3436 110.34 56.7276 109.78C56.1196 109.212 55.8156 108.452 55.8156 107.5C55.8156 106.54 56.1196 105.78 56.7276 105.22C57.3436 104.652 58.1676 104.368 59.1996 104.368C60.1676 104.368 60.9516 104.608 61.5516 105.088C62.1516 105.56 62.4516 106.184 62.4516 106.96V107.128H60.6636V107.032C60.6636 106.336 60.1636 105.988 59.1636 105.988C58.6196 105.988 58.2236 106.104 57.9756 106.336C57.7276 106.568 57.6036 106.956 57.6036 107.5C57.6036 108.044 57.7276 108.432 57.9756 108.664C58.2236 108.888 58.6196 109 59.1636 109C60.1636 109 60.6636 108.652 60.6636 107.956V107.86H62.4516V108.028C62.4516 108.804 62.1516 109.432 61.5516 109.912C60.9516 110.384 60.1676 110.62 59.1996 110.62ZM67.4621 110.5H65.9741C64.4701 110.5 63.7181 109.776 63.7181 108.328V105.976H62.7701V104.488H63.7181V103.324H65.5181V104.488H67.4621V105.976H65.5181V108.124C65.5181 108.42 65.5781 108.62 65.6981 108.724C65.8261 108.828 66.0541 108.88 66.3821 108.88H67.4621V110.5ZM69.9363 103.876H68.1363V102.46H69.9363V103.876ZM69.9363 110.5H68.1363V104.488H69.9363V110.5ZM76.5664 109.768C75.9424 110.336 75.1144 110.62 74.0824 110.62C73.0504 110.62 72.2184 110.336 71.5864 109.768C70.9624 109.2 70.6504 108.444 70.6504 107.5C70.6504 106.548 70.9624 105.788 71.5864 105.22C72.2184 104.652 73.0504 104.368 74.0824 104.368C75.1144 104.368 75.9424 104.652 76.5664 105.22C77.1984 105.788 77.5144 106.548 77.5144 107.5C77.5144 108.444 77.1984 109.2 76.5664 109.768ZM72.8104 108.664C73.0584 108.904 73.4824 109.024 74.0824 109.024C74.6824 109.024 75.1064 108.904 75.3544 108.664C75.6024 108.424 75.7264 108.036 75.7264 107.5C75.7264 106.964 75.5984 106.572 75.3424 106.324C75.0944 106.076 74.6744 105.952 74.0824 105.952C73.4824 105.952 73.0584 106.076 72.8104 106.324C72.5624 106.564 72.4384 106.956 72.4384 107.5C72.4384 108.036 72.5624 108.424 72.8104 108.664ZM80.0495 110.5H78.2495V104.488H79.9175V106.336H80.0255C80.1135 105.776 80.3575 105.308 80.7575 104.932C81.1655 104.556 81.7375 104.368 82.4735 104.368C83.2655 104.368 83.8655 104.592 84.2735 105.04C84.6895 105.48 84.8975 106.052 84.8975 106.756V110.5H83.0975V107.356C83.0975 106.868 82.9815 106.52 82.7495 106.312C82.5255 106.096 82.1415 105.988 81.5975 105.988C81.0375 105.988 80.6375 106.104 80.3975 106.336C80.1655 106.568 80.0495 106.944 80.0495 107.464V110.5ZM90.8517 110.62C89.8117 110.62 88.9877 110.36 88.3797 109.84C87.7797 109.312 87.4797 108.532 87.4797 107.5C87.4797 106.548 87.7837 105.788 88.3917 105.22C89.0077 104.652 89.8157 104.368 90.8157 104.368C91.8157 104.368 92.6117 104.624 93.2037 105.136C93.7957 105.64 94.0917 106.356 94.0917 107.284C94.0917 107.396 94.0757 107.588 94.0437 107.86H89.1477C89.1717 108.332 89.3077 108.672 89.5557 108.88C89.8037 109.08 90.2157 109.18 90.7917 109.18C91.3117 109.18 91.6797 109.116 91.8957 108.988C92.1197 108.852 92.2317 108.652 92.2317 108.388V108.268H94.0317V108.4C94.0317 109.056 93.7397 109.592 93.1557 110.008C92.5717 110.416 91.8037 110.62 90.8517 110.62ZM91.9437 106.048C91.6957 105.864 91.3077 105.772 90.7797 105.772C90.2517 105.772 89.8597 105.864 89.6037 106.048C89.3557 106.232 89.2117 106.52 89.1717 106.912H92.3637C92.3397 106.512 92.1997 106.224 91.9437 106.048ZM96.499 110.5H94.327L96.727 107.56V107.464L94.327 104.488H96.523L98.119 106.516H98.215L99.763 104.488H101.935L99.535 107.428V107.536L101.935 110.5H99.739L98.143 108.484H98.047L96.499 110.5ZM104.167 112.54H102.367V104.488H104.035V106.132H104.155C104.379 104.956 105.179 104.368 106.555 104.368C107.467 104.368 108.175 104.648 108.679 105.208C109.183 105.768 109.435 106.532 109.435 107.5C109.435 108.468 109.187 109.232 108.691 109.792C108.203 110.344 107.511 110.62 106.615 110.62C105.935 110.62 105.395 110.468 104.995 110.164C104.603 109.852 104.355 109.424 104.251 108.88H104.167V112.54ZM104.167 107.584C104.167 108.08 104.311 108.436 104.599 108.652C104.895 108.868 105.335 108.976 105.919 108.976C106.511 108.976 106.939 108.864 107.203 108.64C107.475 108.416 107.611 108.036 107.611 107.5C107.611 106.964 107.475 106.584 107.203 106.36C106.939 106.136 106.515 106.024 105.931 106.024C105.331 106.024 104.887 106.14 104.599 106.372C104.311 106.596 104.167 106.968 104.167 107.488V107.584ZM113.375 110.62C112.335 110.62 111.511 110.36 110.903 109.84C110.303 109.312 110.003 108.532 110.003 107.5C110.003 106.548 110.307 105.788 110.915 105.22C111.531 104.652 112.339 104.368 113.339 104.368C114.339 104.368 115.135 104.624 115.727 105.136C116.319 105.64 116.615 106.356 116.615 107.284C116.615 107.396 116.599 107.588 116.567 107.86H111.671C111.695 108.332 111.831 108.672 112.079 108.88C112.327 109.08 112.739 109.18 113.315 109.18C113.835 109.18 114.203 109.116 114.419 108.988C114.643 108.852 114.755 108.652 114.755 108.388V108.268H116.555V108.4C116.555 109.056 116.263 109.592 115.679 110.008C115.095 110.416 114.327 110.62 113.375 110.62ZM114.467 106.048C114.219 105.864 113.831 105.772 113.303 105.772C112.775 105.772 112.383 105.864 112.127 106.048C111.879 106.232 111.735 106.52 111.695 106.912H114.887C114.863 106.512 114.723 106.224 114.467 106.048ZM119.178 110.5H117.378V104.488H119.046V106.084H119.154C119.242 105.564 119.454 105.148 119.79 104.836C120.134 104.524 120.594 104.368 121.17 104.368C121.81 104.368 122.286 104.56 122.598 104.944C122.91 105.328 123.066 105.836 123.066 106.468V107.464H121.266V106.84C121.266 106.504 121.19 106.264 121.038 106.12C120.886 105.968 120.63 105.892 120.27 105.892C119.878 105.892 119.598 105.984 119.43 106.168C119.262 106.352 119.178 106.636 119.178 107.02V110.5ZM125.518 103.876H123.718V102.46H125.518V103.876ZM125.518 110.5H123.718V104.488H125.518V110.5ZM129.652 110.62C128.612 110.62 127.788 110.36 127.18 109.84C126.58 109.312 126.28 108.532 126.28 107.5C126.28 106.548 126.584 105.788 127.192 105.22C127.808 104.652 128.616 104.368 129.616 104.368C130.616 104.368 131.412 104.624 132.004 105.136C132.596 105.64 132.892 106.356 132.892 107.284C132.892 107.396 132.876 107.588 132.844 107.86H127.948C127.972 108.332 128.108 108.672 128.356 108.88C128.604 109.08 129.016 109.18 129.592 109.18C130.112 109.18 130.48 109.116 130.696 108.988C130.92 108.852 131.032 108.652 131.032 108.388V108.268H132.832V108.4C132.832 109.056 132.54 109.592 131.956 110.008C131.372 110.416 130.604 110.62 129.652 110.62ZM130.744 106.048C130.496 105.864 130.108 105.772 129.58 105.772C129.052 105.772 128.66 105.864 128.404 106.048C128.156 106.232 128.012 106.52 127.972 106.912H131.164C131.14 106.512 131 106.224 130.744 106.048ZM135.456 110.5H133.656V104.488H135.324V106.336H135.432C135.52 105.776 135.764 105.308 136.164 104.932C136.572 104.556 137.144 104.368 137.88 104.368C138.672 104.368 139.272 104.592 139.68 105.04C140.096 105.48 140.304 106.052 140.304 106.756V110.5H138.504V107.356C138.504 106.868 138.388 106.52 138.156 106.312C137.932 106.096 137.548 105.988 137.004 105.988C136.444 105.988 136.044 106.104 135.804 106.336C135.572 106.568 135.456 106.944 135.456 107.464V110.5ZM144.418 110.62C143.386 110.62 142.562 110.34 141.946 109.78C141.338 109.212 141.034 108.452 141.034 107.5C141.034 106.54 141.338 105.78 141.946 105.22C142.562 104.652 143.386 104.368 144.418 104.368C145.386 104.368 146.17 104.608 146.77 105.088C147.37 105.56 147.67 106.184 147.67 106.96V107.128H145.882V107.032C145.882 106.336 145.382 105.988 144.382 105.988C143.838 105.988 143.442 106.104 143.194 106.336C142.946 106.568 142.822 106.956 142.822 107.5C142.822 108.044 142.946 108.432 143.194 108.664C143.442 108.888 143.838 109 144.382 109C145.382 109 145.882 108.652 145.882 107.956V107.86H147.67V108.028C147.67 108.804 147.37 109.432 146.77 109.912C146.17 110.384 145.386 110.62 144.418 110.62ZM151.637 110.62C150.597 110.62 149.773 110.36 149.165 109.84C148.565 109.312 148.265 108.532 148.265 107.5C148.265 106.548 148.569 105.788 149.177 105.22C149.793 104.652 150.601 104.368 151.601 104.368C152.601 104.368 153.397 104.624 153.989 105.136C154.581 105.64 154.877 106.356 154.877 107.284C154.877 107.396 154.861 107.588 154.829 107.86H149.933C149.957 108.332 150.093 108.672 150.341 108.88C150.589 109.08 151.001 109.18 151.577 109.18C152.097 109.18 152.465 109.116 152.681 108.988C152.905 108.852 153.017 108.652 153.017 108.388V108.268H154.817V108.4C154.817 109.056 154.525 109.592 153.941 110.008C153.357 110.416 152.589 110.62 151.637 110.62ZM152.729 106.048C152.481 105.864 152.093 105.772 151.565 105.772C151.037 105.772 150.645 105.864 150.389 106.048C150.141 106.232 149.997 106.52 149.957 106.912H153.149C153.125 106.512 152.985 106.224 152.729 106.048ZM158.676 110.62C157.668 110.62 156.892 110.432 156.348 110.056C155.804 109.672 155.532 109.132 155.532 108.436V108.4H157.332V108.508C157.332 108.772 157.428 108.952 157.62 109.048C157.812 109.144 158.168 109.192 158.688 109.192C159.152 109.192 159.464 109.152 159.624 109.072C159.792 108.992 159.876 108.86 159.876 108.676C159.876 108.508 159.816 108.392 159.696 108.328C159.584 108.256 159.348 108.196 158.988 108.148L157.296 107.944C156.048 107.808 155.424 107.248 155.424 106.264C155.424 105.704 155.672 105.248 156.168 104.896C156.664 104.544 157.404 104.368 158.388 104.368C159.38 104.368 160.14 104.556 160.668 104.932C161.204 105.3 161.472 105.848 161.472 106.576V106.612H159.672V106.54C159.672 106.276 159.58 106.088 159.396 105.976C159.212 105.856 158.856 105.796 158.328 105.796C157.888 105.796 157.588 105.836 157.428 105.916C157.276 105.996 157.2 106.136 157.2 106.336C157.2 106.496 157.264 106.616 157.392 106.696C157.52 106.768 157.776 106.828 158.16 106.876L159.444 107.032C160.236 107.12 160.8 107.304 161.136 107.584C161.48 107.856 161.652 108.244 161.652 108.748C161.652 109.316 161.384 109.772 160.848 110.116C160.32 110.452 159.596 110.62 158.676 110.62ZM164.574 110.5H162.258V108.4H164.574V110.5Z" fill="white"/>
<defs>
<clipPath id="clip0_3012_2282">
<rect width="353" height="130" rx="12" fill="white"/>
</clipPath>
</defs>
</svg>
